M48
INCH,TZ
T1C0.0118
T2C0.0160
T3C0.0240
T4C0.0276
T5C0.0323
T6C0.0394
T7C0.0551
T8C0.0591
T9C0.0669
%
G90
G05
T1
X3150Y-1100
X3150Y-1400
X3150Y-1700
X3150Y-2000
X3150Y-2300
X3150Y-2600
X3150Y-5100
X3150Y-5400
X3150Y-5700
X3150Y-6000
X3150Y-6300
X3150Y-6600
X4800Y-2200
X4800Y-5400
X5100Y-2200
X5100Y-5400
X5350Y-2400
X5350Y-2700
X5350Y-3000
X5350Y-5600
X5350Y-5900
X5350Y-6200
X5600Y-2200
X5600Y-5400
X5900Y-2200
X5900Y-5400
X12300Y-31550
X12300Y-31900
X12300Y-32250
X12300Y-32600
X12300Y-32950
X12300Y-33300
X12650Y-31550
X12650Y-31900
X12650Y-32250
X12650Y-32600
X12650Y-32950
X12650Y-33300
X13000Y-31550
X13000Y-31900
X13000Y-32250
X13000Y-32600
X13000Y-32950
X13000Y-33300
X13178Y-3028
X13178Y-3343
X13178Y-3657
X13178Y-3972
X13350Y-31550
X13350Y-31900
X13350Y-32250
X13350Y-32600
X13350Y-32950
X13350Y-33300
X13493Y-3028
X13493Y-3343
X13493Y-3657
X13493Y-3972
X13700Y-31550
X13700Y-31900
X13700Y-32250
X13700Y-32600
X13700Y-32950
X13700Y-33300
X13807Y-3028
X13807Y-3343
X13807Y-3657
X13807Y-3972
X14050Y-31550
X14050Y-31900
X14050Y-32250
X14050Y-32600
X14050Y-32950
X14050Y-33300
X14122Y-3028
X14122Y-3343
X14122Y-3657
X14122Y-3972
X14400Y-31550
X14400Y-31900
X14400Y-32250
X14400Y-32600
X14400Y-32950
X14400Y-33300
X24100Y-19850
X24100Y-20200
X24100Y-20550
X24450Y-19850
X24450Y-20200
X24450Y-20550
X24800Y-19850
X24800Y-20200
X24800Y-20550
X28628Y-3028
X28628Y-3343
X28628Y-3657
X28628Y-3972
X28943Y-3028
X28943Y-3343
X28943Y-3657
X28943Y-3972
X29257Y-3028
X29257Y-3343
X29257Y-3657
X29257Y-3972
X29572Y-3028
X29572Y-3343
X29572Y-3657
X29572Y-3972
T2
X1100Y-10600
X1100Y-11050
X1100Y-11900
X1100Y-12750
X1100Y-13200
X1100Y-13650
X4550Y-22350
X4550Y-23000
X4600Y-10150
X5350Y-14700
X5800Y-31400
X6300Y-23500
X8100Y-17200
X9900Y-9100
X10400Y-5750
X10653Y-8647
X10675Y-5450
X10850Y-2850
X10850Y-10050
X11050Y-8300
X11050Y-9100
X11600Y-6900
X12250Y-2850
X12253Y-8647
X12450Y-10050
X12650Y-8300
X12650Y-9100
X13200Y-6900
X13853Y-8647
X14100Y-10050
X14250Y-8300
X14250Y-9100
X14800Y-6900
X15150Y-3900
X15453Y-8647
X15650Y-10050
X15850Y-8300
X15850Y-9100
X16400Y-6900
X17050Y-5150
X17053Y-8647
X17250Y-10050
X17450Y-8300
X17450Y-9100
X18000Y-6900
X18653Y-8647
X18850Y-10050
X19050Y-8300
X19050Y-9100
X19600Y-6900
X20700Y-20450
X21425Y-5450
X21650Y-20450
X22400Y-4150
X22700Y-9100
X23350Y-5450
X24000Y-8650
X24200Y-10050
X24400Y-8300
X24400Y-9100
X24450Y-17000
X24650Y-18800
X24950Y-6900
X25500Y-18750
X25600Y-8650
X25800Y-10050
X26000Y-8300
X26000Y-9100
X26000Y-27400
X26050Y-26850
X26350Y-27700
X26500Y-28350
X26550Y-6900
X27200Y-8650
X27400Y-10050
X27600Y-8300
X27600Y-9100
X27700Y-2850
X27700Y-19950
X27850Y-18800
X28150Y-6900
X28150Y-10350
X28800Y-8650
X29000Y-10050
X29200Y-8300
X29200Y-9100
X29750Y-6900
X29750Y-10350
X30000Y-14700
X30400Y-8650
X30600Y-10050
X30800Y-8300
X30800Y-9100
X31000Y-13800
X31350Y-6900
X31500Y-10400
X32000Y-8650
X32000Y-13500
X32200Y-10050
X32400Y-8300
X32400Y-9100
X32950Y-6900
X33000Y-13500
X34000Y-13500
X37900Y-4150
T3
X600Y-9600
X600Y-15150
X1225Y-11475
X1850Y-15950
X1950Y-1300
X1950Y-3500
X1950Y-5800
X1950Y-8000
X1950Y-16750
X1950Y-18950
X1950Y-21250
X1950Y-23450
X1950Y-25750
X1950Y-27950
X1950Y-30200
X1950Y-32450
X2450Y-15950
X2500Y-20000
X2500Y-25000
X2500Y-27500
X2500Y-32500
X2900Y-28050
X3000Y-19350
X3150Y-2950
X3150Y-6950
X3600Y-9650
X4150Y-29200
X4450Y-20550
X5000Y-10000
X5000Y-25000
X5350Y-3400
X5350Y-6600
X6850Y-29850
X6950Y-21150
X6950Y-23150
X7200Y-34900
X7500Y-10000
X7500Y-20800
X8100Y-17800
X8200Y-27150
X8500Y-21800
X8800Y-7400
X9200Y-12250
X9200Y-18700
X9200Y-31000
X9200Y-32450
X9350Y-1750
X9500Y-8000
X9850Y-32450
X10000Y-17500
X10000Y-25000
X10000Y-27500
X10000Y-30000
X10000Y-35000
X10050Y-10550
X10300Y-37800
X10550Y-1600
X10800Y-3400
X10800Y-23600
X11010Y-5125
X11100Y-19400
X11250Y-1800
X11625Y-3750
X11650Y-6300
X11650Y-32450
X11850Y-1800
X12100Y-37800
X12500Y-1100
X12500Y-5000
X12500Y-17500
X12500Y-20000
X12500Y-25000
X12500Y-27500
X12600Y-21300
X13250Y-6300
X14000Y-37800
X14550Y-2150
X14850Y-6300
X15000Y-4950
X15000Y-17500
X15000Y-20000
X15000Y-22500
X15000Y-25000
X15000Y-27500
X15000Y-32500
X15455Y-2155
X15500Y-37600
X16450Y-2600
X16450Y-4500
X16450Y-6300
X16500Y-3500
X16550Y-1550
X17000Y-4750
X17500Y-17500
X17500Y-20000
X17500Y-22500
X17500Y-25000
X17500Y-27500
X17500Y-32500
X17650Y-1750
X17650Y-4500
X17900Y-37600
X18050Y-6300
X19000Y-17250
X19400Y-37600
X20000Y-22500
X20000Y-25000
X20000Y-27500
X20000Y-32500
X20200Y-8750
X20450Y-15700
X20750Y-6300
X21150Y-17550
X21650Y-19800
X21700Y-21100
X21700Y-37600
X22250Y-6300
X22500Y-2500
X22500Y-4950
X22500Y-7500
X22500Y-22500
X22500Y-25000
X22500Y-27500
X22500Y-32500
X22600Y-9750
X23250Y-37600
X23400Y-6300
X24100Y-17300
X25000Y-6300
X25000Y-7500
X25000Y-37500
X25150Y-15750
X25500Y-17400
X25650Y-15500
X26250Y-3800
X26300Y-5050
X26500Y-31850
X26600Y-6300
X27200Y-19250
X27300Y-1800
X27500Y-17800
X27500Y-37500
X28100Y-28300
X28150Y-34950
X28150Y-35650
X28150Y-37150
X28200Y-6300
X28950Y-34900
X28950Y-37100
X29100Y-15450
X29800Y-6300
X29800Y-20400
X29950Y-2100
X29950Y-4900
X30000Y-1100
X30000Y-17500
X30000Y-37500
X30200Y-16100
X30245Y-1695
X30350Y-5300
X30450Y-18100
X31150Y-2500
X31300Y-31800
X31400Y-6300
X31500Y-4650
X31500Y-37000
X31750Y-20850
X31750Y-21450
X31900Y-3400
X31950Y-36550
X32500Y-17500
X32500Y-20000
X32500Y-27500
X32500Y-32500
X32500Y-35000
X32500Y-37500
X32550Y-1750
X32600Y-5600
X32800Y-4500
X32850Y-21850
X32850Y-22850
X33150Y-18500
X33150Y-19100
X33200Y-1750
X33350Y-4550
X34100Y-6350
X34500Y-10000
X34900Y-22850
X34950Y-32500
X34950Y-35000
X35000Y-17500
X35000Y-20000
X35000Y-25000
X35000Y-27500
X35000Y-37500
X35450Y-17400
X36100Y-9850
X36150Y-6000
X36950Y-15850
X37450Y-5700
X37500Y-25000
X37500Y-27500
X37500Y-37500
X37700Y-12600
X38000Y-15450
X38000Y-20050
X38850Y-15900
X40000Y-4950
X40000Y-7500
X40000Y-10000
X40000Y-12500
X40000Y-17500
X40000Y-22500
X40000Y-25000
X40000Y-27500
T4
X8300Y-33200
X19700Y-18900
X21500Y-15750
X26600Y-15800
X28150Y-21150
X29550Y-18800
X31300Y-35550
X33800Y-8550
X39550Y-13900
T5
X4972Y-9100
X5002Y-8100
X5002Y-32100
X5002Y-33100
X13002Y-11100
X13002Y-12100
X13002Y-29100
X13002Y-30100
X14002Y-11100
X14002Y-12100
X14002Y-29100
X14002Y-30100
X15002Y-11100
X15002Y-12100
X15002Y-29100
X15002Y-30100
X16002Y-11100
X16002Y-12100
X16002Y-29100
X16002Y-30100
X17002Y-11100
X17002Y-12100
X17002Y-29100
X17002Y-30100
X18002Y-11100
X18002Y-12100
X18002Y-29100
X18002Y-30100
X19002Y-11100
X19002Y-12100
X19002Y-29100
X19002Y-30100
X20002Y-11100
X20002Y-12100
X20002Y-29100
X20002Y-30100
X21002Y-11100
X21002Y-12100
X21002Y-29100
X21002Y-30100
X22002Y-11100
X22002Y-12100
X22002Y-29100
X22002Y-30100
X23002Y-11100
X23002Y-12100
X23002Y-29100
X23002Y-30100
X24002Y-11100
X24002Y-12100
X24002Y-29100
X24002Y-30100
X25002Y-11100
X25002Y-12100
X25002Y-29100
X25002Y-30100
X26002Y-11100
X26002Y-12100
X26002Y-29100
X26002Y-30100
X27002Y-11100
X27002Y-12100
X27002Y-29100
X27002Y-30100
X28002Y-29100
X28002Y-30100
X29002Y-11100
X29002Y-12100
X29002Y-29100
X29002Y-30100
X30002Y-11100
X30002Y-12100
X30602Y-29100
X30602Y-30100
X31002Y-11100
X31002Y-12100
X31602Y-29100
X31602Y-30100
X32002Y-11100
X32002Y-12100
X32602Y-29100
X32602Y-30100
X33002Y-11100
X33002Y-12100
X33602Y-29100
X33602Y-30100
X34002Y-11100
X34002Y-12100
X34602Y-29100
X34602Y-30100
X35002Y-11100
X35002Y-12100
X35602Y-29100
X35602Y-30100
X36002Y-11100
X36002Y-12100
X36602Y-29100
X36602Y-30100
X37602Y-29100
X37602Y-30100
X38602Y-29100
X38602Y-30100
X39602Y-29100
X39602Y-30100
T6
X7250Y-4150
X7250Y-5150
X7250Y-6150
X8700Y-1500
X8700Y-2500
X8700Y-3500
X38500Y-37000
X39500Y-37000
T7
X2700Y-34900
X2700Y-36900
T8
X24500Y-3150
X40300Y-3150
T9
X23500Y-2150
X23500Y-4150
X25500Y-2150
X25500Y-4150
X39300Y-2150
X39300Y-4150
X41300Y-2150
X41300Y-4150
T0
M30
