%TF.GenerationSoftware,KiCad,Pcbnew,(5.1.12)-1*%
%TF.CreationDate,2022-12-02T08:38:14+01:00*%
%TF.ProjectId,LF_phase_detector,4c465f70-6861-4736-955f-646574656374,rev?*%
%TF.SameCoordinates,Original*%
%TF.FileFunction,Soldermask,Top*%
%TF.FilePolarity,Negative*%
%FSLAX46Y46*%
G04 Gerber Fmt 4.6, Leading zero omitted, Abs format (unit mm)*
G04 Created by KiCad (PCBNEW (5.1.12)-1) date 2022-12-02 08:38:14*
%MOMM*%
%LPD*%
G01*
G04 APERTURE LIST*
%ADD10R,2.800000X1.300000*%
%ADD11C,0.100000*%
%ADD12R,2.000000X3.100000*%
%ADD13R,2.500000X4.000000*%
%ADD14R,0.860000X1.190000*%
%ADD15R,0.700000X0.420000*%
%ADD16R,3.500000X1.600000*%
%ADD17R,2.540000X1.650000*%
%ADD18C,0.400000*%
%ADD19R,0.850000X0.300000*%
%ADD20R,0.300000X0.850000*%
%ADD21R,3.250000X3.250000*%
%ADD22R,0.790000X1.680000*%
%ADD23R,2.060000X1.680000*%
%ADD24R,3.330000X0.690000*%
%ADD25R,0.790000X2.110000*%
%ADD26C,1.530000*%
%ADD27C,3.200000*%
%ADD28R,1.530000X1.530000*%
%ADD29C,1.524000*%
%ADD30R,0.750000X0.800000*%
%ADD31R,1.500000X1.500000*%
%ADD32R,1.000000X1.600000*%
%ADD33R,1.600000X1.000000*%
%ADD34R,0.800000X0.750000*%
%ADD35R,1.000000X2.500000*%
%ADD36R,2.500000X1.000000*%
%ADD37R,1.000000X1.250000*%
%ADD38R,1.200000X0.900000*%
%ADD39R,3.300000X2.500000*%
%ADD40C,1.000000*%
%ADD41C,2.000000*%
%ADD42R,0.800000X0.800000*%
%ADD43R,3.600000X2.080000*%
%ADD44O,3.600000X2.080000*%
%ADD45R,0.900000X0.800000*%
%ADD46R,0.800000X0.900000*%
%ADD47R,1.700000X0.900000*%
%ADD48R,1.750000X0.700000*%
%ADD49R,1.500000X1.300000*%
%ADD50R,1.500000X0.800000*%
%ADD51R,1.000000X1.450000*%
%ADD52R,1.400000X0.800000*%
%ADD53R,1.550000X1.000000*%
%ADD54R,2.600000X2.600000*%
%ADD55R,1.220000X0.650000*%
%ADD56R,0.650000X1.220000*%
%ADD57R,2.200000X1.200000*%
%ADD58R,6.400000X5.800000*%
%ADD59R,0.900000X1.300000*%
%ADD60R,3.600000X1.270000*%
%ADD61R,4.200000X1.350000*%
%ADD62C,2.250000*%
%ADD63C,2.050000*%
%ADD64R,1.700000X1.700000*%
%ADD65O,1.700000X1.700000*%
%ADD66R,0.700000X1.300000*%
G04 APERTURE END LIST*
D10*
%TO.C,L4*%
X90932000Y-37522000D03*
X90932000Y-35122000D03*
%TD*%
D11*
%TO.C,L1*%
G36*
X67478000Y-90527000D02*
G01*
X66028000Y-90827000D01*
X66028000Y-87227000D01*
X67478000Y-87527000D01*
X67478000Y-90527000D01*
G37*
G36*
X64528000Y-90827000D02*
G01*
X63078000Y-90527000D01*
X63078000Y-87527000D01*
X64528000Y-87227000D01*
X64528000Y-90827000D01*
G37*
%TD*%
%TO.C,L2*%
G36*
X98020000Y-45679000D02*
G01*
X98320000Y-47129000D01*
X94720000Y-47129000D01*
X95020000Y-45679000D01*
X98020000Y-45679000D01*
G37*
G36*
X98320000Y-48629000D02*
G01*
X98020000Y-50079000D01*
X95020000Y-50079000D01*
X94720000Y-48629000D01*
X98320000Y-48629000D01*
G37*
%TD*%
%TO.C,L5*%
G36*
X96623000Y-15199000D02*
G01*
X96923000Y-16649000D01*
X93323000Y-16649000D01*
X93623000Y-15199000D01*
X96623000Y-15199000D01*
G37*
G36*
X96923000Y-18149000D02*
G01*
X96623000Y-19599000D01*
X93623000Y-19599000D01*
X93323000Y-18149000D01*
X96923000Y-18149000D01*
G37*
%TD*%
%TO.C,L6*%
G36*
X72984000Y-64667000D02*
G01*
X74434000Y-64367000D01*
X74434000Y-67967000D01*
X72984000Y-67667000D01*
X72984000Y-64667000D01*
G37*
G36*
X75934000Y-64367000D02*
G01*
X77384000Y-64667000D01*
X77384000Y-67667000D01*
X75934000Y-67967000D01*
X75934000Y-64367000D01*
G37*
%TD*%
D12*
%TO.C,L3*%
X74185000Y-84709000D03*
X79485000Y-84709000D03*
%TD*%
D13*
%TO.C,C48*%
X37465000Y-95506000D03*
X37465000Y-89406000D03*
%TD*%
%TO.C,C49*%
X47371000Y-95506000D03*
X47371000Y-89406000D03*
%TD*%
%TO.C,C103*%
X57150000Y-95506000D03*
X57150000Y-89406000D03*
%TD*%
D14*
%TO.C,T1*%
X17281000Y-93009000D03*
X17281000Y-94189000D03*
X18131000Y-93009000D03*
X18131000Y-94189000D03*
D15*
X19661000Y-92624000D03*
X19661000Y-93924000D03*
X19661000Y-93274000D03*
X19661000Y-94574000D03*
X16661000Y-92624000D03*
X16661000Y-93274000D03*
X16661000Y-93924000D03*
X16661000Y-94574000D03*
%TD*%
D16*
%TO.C,F1*%
X12700000Y-88619000D03*
X12700000Y-93499000D03*
%TD*%
D17*
%TO.C,TR1*%
X94615000Y-10541000D03*
X94615000Y-8001000D03*
X94615000Y-5461000D03*
X89535000Y-5461000D03*
X89535000Y-8001000D03*
X89535000Y-10541000D03*
%TD*%
%TO.C,TR2*%
X54991000Y-10541000D03*
X54991000Y-8001000D03*
X54991000Y-5461000D03*
X49911000Y-5461000D03*
X49911000Y-8001000D03*
X49911000Y-10541000D03*
%TD*%
D18*
%TO.C,U27*%
X74314000Y-8490000D03*
X75114000Y-7690000D03*
X75114000Y-10090000D03*
X73514000Y-9290000D03*
X74314000Y-7690000D03*
X75114000Y-9290000D03*
X74314000Y-10090000D03*
X73514000Y-8490000D03*
X72714000Y-10090000D03*
X72714000Y-9290000D03*
X72714000Y-8490000D03*
X72714000Y-7690000D03*
X75114000Y-8490000D03*
X74314000Y-9290000D03*
X73514000Y-10090000D03*
X73514000Y-7690000D03*
D19*
X71464000Y-7140000D03*
X71464000Y-7640000D03*
X71464000Y-8140000D03*
X71464000Y-8640000D03*
X71464000Y-9140000D03*
X71464000Y-9640000D03*
X71464000Y-10140000D03*
X71464000Y-10640000D03*
D20*
X72164000Y-11340000D03*
X72664000Y-11340000D03*
X73164000Y-11340000D03*
X73664000Y-11340000D03*
X74164000Y-11340000D03*
X74664000Y-11340000D03*
X75164000Y-11340000D03*
X75664000Y-11340000D03*
D19*
X76364000Y-10640000D03*
X76364000Y-10140000D03*
X76364000Y-9640000D03*
X76364000Y-9140000D03*
X76364000Y-8640000D03*
X76364000Y-8140000D03*
X76364000Y-7640000D03*
X76364000Y-7140000D03*
D20*
X75664000Y-6440000D03*
X75164000Y-6440000D03*
X74664000Y-6440000D03*
X74164000Y-6440000D03*
X73664000Y-6440000D03*
X73164000Y-6440000D03*
X72664000Y-6440000D03*
X72164000Y-6440000D03*
D21*
X73914000Y-8890000D03*
%TD*%
D18*
%TO.C,U28*%
X35071000Y-8490000D03*
X35871000Y-7690000D03*
X35871000Y-10090000D03*
X34271000Y-9290000D03*
X35071000Y-7690000D03*
X35871000Y-9290000D03*
X35071000Y-10090000D03*
X34271000Y-8490000D03*
X33471000Y-10090000D03*
X33471000Y-9290000D03*
X33471000Y-8490000D03*
X33471000Y-7690000D03*
X35871000Y-8490000D03*
X35071000Y-9290000D03*
X34271000Y-10090000D03*
X34271000Y-7690000D03*
D19*
X32221000Y-7140000D03*
X32221000Y-7640000D03*
X32221000Y-8140000D03*
X32221000Y-8640000D03*
X32221000Y-9140000D03*
X32221000Y-9640000D03*
X32221000Y-10140000D03*
X32221000Y-10640000D03*
D20*
X32921000Y-11340000D03*
X33421000Y-11340000D03*
X33921000Y-11340000D03*
X34421000Y-11340000D03*
X34921000Y-11340000D03*
X35421000Y-11340000D03*
X35921000Y-11340000D03*
X36421000Y-11340000D03*
D19*
X37121000Y-10640000D03*
X37121000Y-10140000D03*
X37121000Y-9640000D03*
X37121000Y-9140000D03*
X37121000Y-8640000D03*
X37121000Y-8140000D03*
X37121000Y-7640000D03*
X37121000Y-7140000D03*
D20*
X36421000Y-6440000D03*
X35921000Y-6440000D03*
X35421000Y-6440000D03*
X34921000Y-6440000D03*
X34421000Y-6440000D03*
X33921000Y-6440000D03*
X33421000Y-6440000D03*
X32921000Y-6440000D03*
D21*
X34671000Y-8890000D03*
%TD*%
D22*
%TO.C,TR3*%
X12319000Y-15326000D03*
X14859000Y-15326000D03*
D23*
X14224000Y-12106000D03*
D22*
X12319000Y-12106000D03*
D24*
X13589000Y-13716000D03*
D25*
X13589000Y-15111000D03*
%TD*%
D22*
%TO.C,TR4*%
X12319000Y-7198000D03*
X14859000Y-7198000D03*
D23*
X14224000Y-3978000D03*
D22*
X12319000Y-3978000D03*
D24*
X13589000Y-5588000D03*
D25*
X13589000Y-6983000D03*
%TD*%
D26*
%TO.C,M1*%
X33025000Y-76454000D03*
X33025000Y-73914000D03*
X33025000Y-30734000D03*
X33025000Y-28194000D03*
X77729000Y-76454000D03*
X77729000Y-73914000D03*
X80269000Y-76454000D03*
X80269000Y-73914000D03*
X82809000Y-76454000D03*
X82809000Y-73914000D03*
X85349000Y-76454000D03*
X85349000Y-73914000D03*
X87889000Y-76454000D03*
X87889000Y-73914000D03*
X90429000Y-76454000D03*
X90429000Y-73914000D03*
X92969000Y-76454000D03*
X92969000Y-73914000D03*
X95509000Y-76454000D03*
X95509000Y-73914000D03*
X98049000Y-76454000D03*
X98049000Y-73914000D03*
D27*
X53345000Y-61214000D03*
X104145000Y-76454000D03*
D26*
X35565000Y-76454000D03*
X35565000Y-73914000D03*
X38105000Y-76454000D03*
X38105000Y-73914000D03*
X40645000Y-76454000D03*
X40645000Y-73914000D03*
X43185000Y-76454000D03*
X43185000Y-73914000D03*
X45725000Y-76454000D03*
X45725000Y-73914000D03*
X48265000Y-76454000D03*
X48265000Y-73914000D03*
X50805000Y-76454000D03*
X50805000Y-73914000D03*
X53345000Y-76454000D03*
X53345000Y-73914000D03*
D27*
X29215000Y-75184000D03*
D26*
X55885000Y-76454000D03*
X55885000Y-73914000D03*
X58425000Y-76454000D03*
X58425000Y-73914000D03*
X60965000Y-76454000D03*
X60965000Y-73914000D03*
X63505000Y-76454000D03*
X63505000Y-73914000D03*
X66045000Y-76454000D03*
X66045000Y-73914000D03*
X68585000Y-76454000D03*
X68585000Y-73914000D03*
X71125000Y-76454000D03*
X71125000Y-73914000D03*
X73665000Y-76454000D03*
D28*
X73665000Y-73914000D03*
D26*
X100589000Y-76454000D03*
D28*
X100589000Y-73914000D03*
D27*
X29215000Y-29464000D03*
D26*
X35565000Y-30734000D03*
X35565000Y-28194000D03*
X38105000Y-30734000D03*
X38105000Y-28194000D03*
X40645000Y-30734000D03*
X40645000Y-28194000D03*
X43185000Y-30734000D03*
X43185000Y-28194000D03*
X45725000Y-30734000D03*
X45725000Y-28194000D03*
X48265000Y-30734000D03*
X48265000Y-28194000D03*
X50805000Y-30734000D03*
X50805000Y-28194000D03*
X53345000Y-30734000D03*
X53345000Y-28194000D03*
X55885000Y-30734000D03*
X55885000Y-28194000D03*
X58425000Y-30734000D03*
X58425000Y-28194000D03*
X60965000Y-30734000D03*
X60965000Y-28194000D03*
X63505000Y-30734000D03*
X63505000Y-28194000D03*
X66045000Y-30734000D03*
X66045000Y-28194000D03*
X68585000Y-30734000D03*
D28*
X68585000Y-28194000D03*
D26*
X73665000Y-30734000D03*
X73665000Y-28194000D03*
X76205000Y-30734000D03*
X76205000Y-28194000D03*
X78745000Y-30734000D03*
X78745000Y-28194000D03*
X81285000Y-30734000D03*
X81285000Y-28194000D03*
X83825000Y-30734000D03*
X83825000Y-28194000D03*
X86365000Y-30734000D03*
X86365000Y-28194000D03*
X88905000Y-30734000D03*
X88905000Y-28194000D03*
X91445000Y-30734000D03*
D28*
X91445000Y-28194000D03*
D27*
X105385000Y-28194000D03*
D29*
X12705080Y-20574000D03*
X12628880Y-23114000D03*
X12705080Y-81534000D03*
X12705080Y-84074000D03*
%TD*%
D30*
%TO.C,C83*%
X24257000Y-24626000D03*
X24257000Y-23126000D03*
%TD*%
D31*
%TO.C,3V0*%
X54610000Y-40005000D03*
%TD*%
%TO.C,3V1*%
X50038000Y-48006000D03*
%TD*%
%TO.C,5V0*%
X21082000Y-84328000D03*
%TD*%
%TO.C,5V1*%
X75057000Y-47752000D03*
%TD*%
%TO.C,5V2*%
X67564000Y-40132000D03*
%TD*%
%TO.C,5V3*%
X71501000Y-53721000D03*
%TD*%
%TO.C,8V1*%
X79502000Y-90297000D03*
%TD*%
D30*
%TO.C,C1*%
X57023000Y-46724000D03*
X57023000Y-45224000D03*
%TD*%
D32*
%TO.C,C2*%
X57047000Y-42799000D03*
X60047000Y-42799000D03*
%TD*%
D33*
%TO.C,C3*%
X53721000Y-45744000D03*
X53721000Y-48744000D03*
%TD*%
%TO.C,C4*%
X72009000Y-47728000D03*
X72009000Y-44728000D03*
%TD*%
D32*
%TO.C,C5*%
X66699000Y-43688000D03*
X69699000Y-43688000D03*
%TD*%
%TO.C,C6*%
X71398000Y-50673000D03*
X74398000Y-50673000D03*
%TD*%
D30*
%TO.C,C7*%
X58801000Y-45224000D03*
X58801000Y-46724000D03*
%TD*%
D34*
%TO.C,C8*%
X56146000Y-55118000D03*
X57646000Y-55118000D03*
%TD*%
D30*
%TO.C,C9*%
X69850000Y-46240000D03*
X69850000Y-47740000D03*
%TD*%
D34*
%TO.C,C10*%
X68060000Y-45847000D03*
X66560000Y-45847000D03*
%TD*%
D30*
%TO.C,C11*%
X64897000Y-45224000D03*
X64897000Y-46724000D03*
%TD*%
%TO.C,C12*%
X60325000Y-46724000D03*
X60325000Y-45224000D03*
%TD*%
D34*
%TO.C,C13*%
X57646000Y-53594000D03*
X56146000Y-53594000D03*
%TD*%
%TO.C,C14*%
X66560000Y-48895000D03*
X68060000Y-48895000D03*
%TD*%
%TO.C,C15*%
X66560000Y-47371000D03*
X68060000Y-47371000D03*
%TD*%
D30*
%TO.C,C16*%
X63373000Y-46724000D03*
X63373000Y-45224000D03*
%TD*%
D34*
%TO.C,C17*%
X56146000Y-48768000D03*
X57646000Y-48768000D03*
%TD*%
%TO.C,C18*%
X64504000Y-43180000D03*
X63004000Y-43180000D03*
%TD*%
%TO.C,C20*%
X57646000Y-50292000D03*
X56146000Y-50292000D03*
%TD*%
D30*
%TO.C,C21*%
X61849000Y-45224000D03*
X61849000Y-46724000D03*
%TD*%
%TO.C,C23*%
X60452000Y-16014000D03*
X60452000Y-17514000D03*
%TD*%
D34*
%TO.C,C25*%
X88912000Y-25019000D03*
X90412000Y-25019000D03*
%TD*%
%TO.C,C26*%
X6211000Y-39497000D03*
X4711000Y-39497000D03*
%TD*%
D30*
%TO.C,C27*%
X19558000Y-45200000D03*
X19558000Y-43700000D03*
%TD*%
%TO.C,C28*%
X21590000Y-54344000D03*
X21590000Y-52844000D03*
%TD*%
%TO.C,C29*%
X18669000Y-50661000D03*
X18669000Y-49161000D03*
%TD*%
%TO.C,C30*%
X20066000Y-52844000D03*
X20066000Y-54344000D03*
%TD*%
D34*
%TO.C,C31*%
X14617000Y-47117000D03*
X16117000Y-47117000D03*
%TD*%
D30*
%TO.C,C32*%
X16256000Y-45200000D03*
X16256000Y-43700000D03*
%TD*%
D33*
%TO.C,C33*%
X19431000Y-68937000D03*
X19431000Y-65937000D03*
%TD*%
D30*
%TO.C,C34*%
X18415000Y-72632000D03*
X18415000Y-71132000D03*
%TD*%
%TO.C,C35*%
X17653000Y-56273000D03*
X17653000Y-57773000D03*
%TD*%
D33*
%TO.C,C36*%
X14859000Y-65937000D03*
X14859000Y-68937000D03*
%TD*%
D30*
%TO.C,C37*%
X17399000Y-78244000D03*
X17399000Y-79744000D03*
%TD*%
%TO.C,C38*%
X12827000Y-50661000D03*
X12827000Y-49161000D03*
%TD*%
%TO.C,C39*%
X11303000Y-49161000D03*
X11303000Y-50661000D03*
%TD*%
D33*
%TO.C,C40*%
X8890000Y-71144000D03*
X8890000Y-74144000D03*
%TD*%
D30*
%TO.C,C41*%
X12573000Y-72632000D03*
X12573000Y-71132000D03*
%TD*%
D33*
%TO.C,C42*%
X9144000Y-49173000D03*
X9144000Y-52173000D03*
%TD*%
D30*
%TO.C,C43*%
X11049000Y-71132000D03*
X11049000Y-72632000D03*
%TD*%
D35*
%TO.C,C44*%
X68477000Y-92456000D03*
X71477000Y-92456000D03*
%TD*%
D36*
%TO.C,C45*%
X96520000Y-40410000D03*
X96520000Y-43410000D03*
%TD*%
D34*
%TO.C,C46*%
X70473000Y-89789000D03*
X68973000Y-89789000D03*
%TD*%
D30*
%TO.C,C47*%
X93853000Y-41287000D03*
X93853000Y-42787000D03*
%TD*%
D34*
%TO.C,C50*%
X71743000Y-84074000D03*
X70243000Y-84074000D03*
%TD*%
D30*
%TO.C,C51*%
X88138000Y-40017000D03*
X88138000Y-41517000D03*
%TD*%
D34*
%TO.C,C52*%
X71743000Y-82423000D03*
X70243000Y-82423000D03*
%TD*%
D30*
%TO.C,C53*%
X23368000Y-81395000D03*
X23368000Y-79895000D03*
%TD*%
D33*
%TO.C,C54*%
X94234000Y-35076000D03*
X94234000Y-38076000D03*
%TD*%
D32*
%TO.C,C55*%
X76557000Y-90170000D03*
X73557000Y-90170000D03*
%TD*%
D30*
%TO.C,C56*%
X25019000Y-79895000D03*
X25019000Y-81395000D03*
%TD*%
D33*
%TO.C,C57*%
X96901000Y-38076000D03*
X96901000Y-35076000D03*
%TD*%
D30*
%TO.C,C58*%
X25019000Y-83451000D03*
X25019000Y-84951000D03*
%TD*%
D32*
%TO.C,C59*%
X73557000Y-92837000D03*
X76557000Y-92837000D03*
%TD*%
D30*
%TO.C,C60*%
X23368000Y-84951000D03*
X23368000Y-83451000D03*
%TD*%
D37*
%TO.C,C61*%
X73644000Y-70485000D03*
X71644000Y-70485000D03*
%TD*%
D30*
%TO.C,C62*%
X62865000Y-39993000D03*
X62865000Y-38493000D03*
%TD*%
D34*
%TO.C,C63*%
X50788000Y-39878000D03*
X49288000Y-39878000D03*
%TD*%
D30*
%TO.C,C64*%
X83185000Y-48502000D03*
X83185000Y-47002000D03*
%TD*%
%TO.C,C65*%
X75692000Y-40882000D03*
X75692000Y-39382000D03*
%TD*%
%TO.C,C66*%
X79629000Y-52971000D03*
X79629000Y-54471000D03*
%TD*%
%TO.C,C67*%
X57023000Y-38493000D03*
X57023000Y-39993000D03*
%TD*%
D34*
%TO.C,C68*%
X49288000Y-45720000D03*
X50788000Y-45720000D03*
%TD*%
D30*
%TO.C,C69*%
X77343000Y-47002000D03*
X77343000Y-48502000D03*
%TD*%
%TO.C,C70*%
X69850000Y-39382000D03*
X69850000Y-40882000D03*
%TD*%
%TO.C,C71*%
X73787000Y-52971000D03*
X73787000Y-54471000D03*
%TD*%
D32*
%TO.C,C72*%
X21233000Y-18796000D03*
X24233000Y-18796000D03*
%TD*%
D33*
%TO.C,C73*%
X26797000Y-5945000D03*
X26797000Y-2945000D03*
%TD*%
D30*
%TO.C,C74*%
X6985000Y-20054000D03*
X6985000Y-18554000D03*
%TD*%
%TO.C,C75*%
X6985000Y-10021000D03*
X6985000Y-8521000D03*
%TD*%
D34*
%TO.C,C76*%
X23483000Y-16637000D03*
X21983000Y-16637000D03*
%TD*%
D30*
%TO.C,C77*%
X24892000Y-2933000D03*
X24892000Y-4433000D03*
%TD*%
D34*
%TO.C,C80*%
X69330000Y-7112000D03*
X67830000Y-7112000D03*
%TD*%
%TO.C,C81*%
X28587000Y-7112000D03*
X30087000Y-7112000D03*
%TD*%
%TO.C,C82*%
X39255000Y-10668000D03*
X40755000Y-10668000D03*
%TD*%
D30*
%TO.C,C84*%
X58547000Y-23126000D03*
X58547000Y-24626000D03*
%TD*%
%TO.C,C85*%
X85979000Y-5473000D03*
X85979000Y-6973000D03*
%TD*%
%TO.C,C86*%
X85979000Y-10529000D03*
X85979000Y-9029000D03*
%TD*%
%TO.C,C87*%
X46482000Y-5473000D03*
X46482000Y-6973000D03*
%TD*%
%TO.C,C88*%
X46482000Y-9029000D03*
X46482000Y-10529000D03*
%TD*%
D34*
%TO.C,C89*%
X67830000Y-5588000D03*
X69330000Y-5588000D03*
%TD*%
%TO.C,C90*%
X28587000Y-5588000D03*
X30087000Y-5588000D03*
%TD*%
%TO.C,C91*%
X69330000Y-8636000D03*
X67830000Y-8636000D03*
%TD*%
%TO.C,C92*%
X30087000Y-8636000D03*
X28587000Y-8636000D03*
%TD*%
%TO.C,C93*%
X78498000Y-10795000D03*
X79998000Y-10795000D03*
%TD*%
%TO.C,C94*%
X39255000Y-12192000D03*
X40755000Y-12192000D03*
%TD*%
%TO.C,C95*%
X78498000Y-8636000D03*
X79998000Y-8636000D03*
%TD*%
%TO.C,C96*%
X40755000Y-8890000D03*
X39255000Y-8890000D03*
%TD*%
%TO.C,C97*%
X78498000Y-7112000D03*
X79998000Y-7112000D03*
%TD*%
%TO.C,C98*%
X40755000Y-6604000D03*
X39255000Y-6604000D03*
%TD*%
D30*
%TO.C,C99*%
X75184000Y-4306000D03*
X75184000Y-2806000D03*
%TD*%
%TO.C,C100*%
X35941000Y-4306000D03*
X35941000Y-2806000D03*
%TD*%
%TO.C,C101*%
X73660000Y-2806000D03*
X73660000Y-4306000D03*
%TD*%
%TO.C,C102*%
X34417000Y-4306000D03*
X34417000Y-2806000D03*
%TD*%
D32*
%TO.C,C107*%
X78256000Y-13589000D03*
X81256000Y-13589000D03*
%TD*%
%TO.C,C108*%
X40870000Y-3937000D03*
X37870000Y-3937000D03*
%TD*%
D38*
%TO.C,D1*%
X22733000Y-93090000D03*
X22733000Y-89790000D03*
%TD*%
D39*
%TO.C,D2*%
X28448000Y-89183000D03*
X28448000Y-95983000D03*
%TD*%
D40*
%TO.C,FID1*%
X1778000Y-1524000D03*
%TD*%
%TO.C,FID2*%
X105918000Y-1524000D03*
%TD*%
%TO.C,FID3*%
X1778000Y-98044000D03*
%TD*%
D41*
%TO.C,GND1*%
X97790000Y-93980000D03*
X100330000Y-93980000D03*
%TD*%
D42*
%TO.C,JP1*%
X78952000Y-92837000D03*
X80052000Y-92837000D03*
%TD*%
%TO.C,JP2*%
X96901000Y-33062000D03*
X96901000Y-31962000D03*
%TD*%
D43*
%TO.C,P1*%
X6858000Y-88646000D03*
D44*
X6858000Y-93726000D03*
%TD*%
D45*
%TO.C,R1*%
X23622000Y-49288000D03*
X23622000Y-50788000D03*
%TD*%
%TO.C,R2*%
X25400000Y-49288000D03*
X25400000Y-50788000D03*
%TD*%
%TO.C,R3*%
X29464000Y-56630000D03*
X29464000Y-55130000D03*
%TD*%
%TO.C,R4*%
X31115000Y-56630000D03*
X31115000Y-55130000D03*
%TD*%
%TO.C,R5*%
X20320000Y-50661000D03*
X20320000Y-49161000D03*
%TD*%
%TO.C,R6*%
X17907000Y-45200000D03*
X17907000Y-43700000D03*
%TD*%
%TO.C,R7*%
X14605000Y-43700000D03*
X14605000Y-45200000D03*
%TD*%
%TO.C,R9*%
X21717000Y-64147000D03*
X21717000Y-65647000D03*
%TD*%
%TO.C,R10*%
X20066000Y-72632000D03*
X20066000Y-71132000D03*
%TD*%
%TO.C,R11*%
X17018000Y-67449000D03*
X17018000Y-68949000D03*
%TD*%
%TO.C,R12*%
X16002000Y-57773000D03*
X16002000Y-56273000D03*
%TD*%
%TO.C,R13*%
X12827000Y-54090000D03*
X12827000Y-52590000D03*
%TD*%
%TO.C,R14*%
X17018000Y-64147000D03*
X17018000Y-65647000D03*
%TD*%
D46*
%TO.C,R15*%
X12712000Y-56515000D03*
X14212000Y-56515000D03*
%TD*%
D45*
%TO.C,R18*%
X15748000Y-79744000D03*
X15748000Y-78244000D03*
%TD*%
%TO.C,R19*%
X12573000Y-74561000D03*
X12573000Y-76061000D03*
%TD*%
D46*
%TO.C,R20*%
X13958000Y-78486000D03*
X12458000Y-78486000D03*
%TD*%
D47*
%TO.C,R25*%
X21971000Y-14785000D03*
X21971000Y-11885000D03*
%TD*%
%TO.C,R26*%
X18288000Y-5694000D03*
X18288000Y-2794000D03*
%TD*%
D45*
%TO.C,R27*%
X51308000Y-24753000D03*
X51308000Y-23253000D03*
%TD*%
%TO.C,R28*%
X72136000Y-2806000D03*
X72136000Y-4306000D03*
%TD*%
%TO.C,R29*%
X32893000Y-2806000D03*
X32893000Y-4306000D03*
%TD*%
D46*
%TO.C,R30*%
X67830000Y-11811000D03*
X69330000Y-11811000D03*
%TD*%
%TO.C,R31*%
X28587000Y-11938000D03*
X30087000Y-11938000D03*
%TD*%
D45*
%TO.C,R32*%
X82677000Y-9029000D03*
X82677000Y-10529000D03*
%TD*%
%TO.C,R33*%
X43180000Y-10529000D03*
X43180000Y-9029000D03*
%TD*%
%TO.C,R34*%
X84328000Y-9029000D03*
X84328000Y-10529000D03*
%TD*%
%TO.C,R35*%
X44831000Y-9029000D03*
X44831000Y-10529000D03*
%TD*%
%TO.C,R36*%
X82677000Y-5473000D03*
X82677000Y-6973000D03*
%TD*%
%TO.C,R37*%
X43180000Y-5473000D03*
X43180000Y-6973000D03*
%TD*%
D46*
%TO.C,R38*%
X68060000Y-52197000D03*
X66560000Y-52197000D03*
%TD*%
%TO.C,R39*%
X66560000Y-50546000D03*
X68060000Y-50546000D03*
%TD*%
%TO.C,R40*%
X57646000Y-51943000D03*
X56146000Y-51943000D03*
%TD*%
D45*
%TO.C,R41*%
X84328000Y-6973000D03*
X84328000Y-5473000D03*
%TD*%
%TO.C,R42*%
X44831000Y-6973000D03*
X44831000Y-5473000D03*
%TD*%
D48*
%TO.C,SD1*%
X1411000Y-26924000D03*
D49*
X1536000Y-25724000D03*
D50*
X9136000Y-25474000D03*
D51*
X10636000Y-25799000D03*
D52*
X9786000Y-37424000D03*
D48*
X1411000Y-28024000D03*
X1411000Y-29124000D03*
X1411000Y-30224000D03*
X1411000Y-31324000D03*
X1411000Y-32424000D03*
X1411000Y-33524000D03*
X1411000Y-34624000D03*
D31*
X1536000Y-37074000D03*
D53*
X12211000Y-37024000D03*
%TD*%
D19*
%TO.C,U1*%
X64053000Y-52558000D03*
X64053000Y-52058000D03*
X64053000Y-51558000D03*
X64053000Y-51058000D03*
X64053000Y-50558000D03*
X64053000Y-50058000D03*
D20*
X63353000Y-49358000D03*
X62853000Y-49358000D03*
X62353000Y-49358000D03*
X61853000Y-49358000D03*
X61353000Y-49358000D03*
X60853000Y-49358000D03*
D19*
X60153000Y-50058000D03*
X60153000Y-50558000D03*
X60153000Y-51058000D03*
X60153000Y-51558000D03*
X60153000Y-52058000D03*
X60153000Y-52558000D03*
D20*
X60853000Y-53258000D03*
X61353000Y-53258000D03*
X61853000Y-53258000D03*
X62353000Y-53258000D03*
X62853000Y-53258000D03*
X63353000Y-53258000D03*
D54*
X62103000Y-51308000D03*
%TD*%
%TO.C,U2*%
G36*
G01*
X80863000Y-20623000D02*
X80713000Y-20623000D01*
G75*
G02*
X80638000Y-20548000I0J75000D01*
G01*
X80638000Y-19248000D01*
G75*
G02*
X80713000Y-19173000I75000J0D01*
G01*
X80863000Y-19173000D01*
G75*
G02*
X80938000Y-19248000I0J-75000D01*
G01*
X80938000Y-20548000D01*
G75*
G02*
X80863000Y-20623000I-75000J0D01*
G01*
G37*
G36*
G01*
X81363000Y-20623000D02*
X81213000Y-20623000D01*
G75*
G02*
X81138000Y-20548000I0J75000D01*
G01*
X81138000Y-19248000D01*
G75*
G02*
X81213000Y-19173000I75000J0D01*
G01*
X81363000Y-19173000D01*
G75*
G02*
X81438000Y-19248000I0J-75000D01*
G01*
X81438000Y-20548000D01*
G75*
G02*
X81363000Y-20623000I-75000J0D01*
G01*
G37*
G36*
G01*
X81863000Y-20623000D02*
X81713000Y-20623000D01*
G75*
G02*
X81638000Y-20548000I0J75000D01*
G01*
X81638000Y-19248000D01*
G75*
G02*
X81713000Y-19173000I75000J0D01*
G01*
X81863000Y-19173000D01*
G75*
G02*
X81938000Y-19248000I0J-75000D01*
G01*
X81938000Y-20548000D01*
G75*
G02*
X81863000Y-20623000I-75000J0D01*
G01*
G37*
G36*
G01*
X82363000Y-20623000D02*
X82213000Y-20623000D01*
G75*
G02*
X82138000Y-20548000I0J75000D01*
G01*
X82138000Y-19248000D01*
G75*
G02*
X82213000Y-19173000I75000J0D01*
G01*
X82363000Y-19173000D01*
G75*
G02*
X82438000Y-19248000I0J-75000D01*
G01*
X82438000Y-20548000D01*
G75*
G02*
X82363000Y-20623000I-75000J0D01*
G01*
G37*
G36*
G01*
X82863000Y-20623000D02*
X82713000Y-20623000D01*
G75*
G02*
X82638000Y-20548000I0J75000D01*
G01*
X82638000Y-19248000D01*
G75*
G02*
X82713000Y-19173000I75000J0D01*
G01*
X82863000Y-19173000D01*
G75*
G02*
X82938000Y-19248000I0J-75000D01*
G01*
X82938000Y-20548000D01*
G75*
G02*
X82863000Y-20623000I-75000J0D01*
G01*
G37*
G36*
G01*
X82863000Y-25023000D02*
X82713000Y-25023000D01*
G75*
G02*
X82638000Y-24948000I0J75000D01*
G01*
X82638000Y-23648000D01*
G75*
G02*
X82713000Y-23573000I75000J0D01*
G01*
X82863000Y-23573000D01*
G75*
G02*
X82938000Y-23648000I0J-75000D01*
G01*
X82938000Y-24948000D01*
G75*
G02*
X82863000Y-25023000I-75000J0D01*
G01*
G37*
G36*
G01*
X82363000Y-25023000D02*
X82213000Y-25023000D01*
G75*
G02*
X82138000Y-24948000I0J75000D01*
G01*
X82138000Y-23648000D01*
G75*
G02*
X82213000Y-23573000I75000J0D01*
G01*
X82363000Y-23573000D01*
G75*
G02*
X82438000Y-23648000I0J-75000D01*
G01*
X82438000Y-24948000D01*
G75*
G02*
X82363000Y-25023000I-75000J0D01*
G01*
G37*
G36*
G01*
X81863000Y-25023000D02*
X81713000Y-25023000D01*
G75*
G02*
X81638000Y-24948000I0J75000D01*
G01*
X81638000Y-23648000D01*
G75*
G02*
X81713000Y-23573000I75000J0D01*
G01*
X81863000Y-23573000D01*
G75*
G02*
X81938000Y-23648000I0J-75000D01*
G01*
X81938000Y-24948000D01*
G75*
G02*
X81863000Y-25023000I-75000J0D01*
G01*
G37*
G36*
G01*
X81363000Y-25023000D02*
X81213000Y-25023000D01*
G75*
G02*
X81138000Y-24948000I0J75000D01*
G01*
X81138000Y-23648000D01*
G75*
G02*
X81213000Y-23573000I75000J0D01*
G01*
X81363000Y-23573000D01*
G75*
G02*
X81438000Y-23648000I0J-75000D01*
G01*
X81438000Y-24948000D01*
G75*
G02*
X81363000Y-25023000I-75000J0D01*
G01*
G37*
G36*
G01*
X80863000Y-25023000D02*
X80713000Y-25023000D01*
G75*
G02*
X80638000Y-24948000I0J75000D01*
G01*
X80638000Y-23648000D01*
G75*
G02*
X80713000Y-23573000I75000J0D01*
G01*
X80863000Y-23573000D01*
G75*
G02*
X80938000Y-23648000I0J-75000D01*
G01*
X80938000Y-24948000D01*
G75*
G02*
X80863000Y-25023000I-75000J0D01*
G01*
G37*
%TD*%
%TO.C,U3*%
G36*
G01*
X76799000Y-25023000D02*
X76649000Y-25023000D01*
G75*
G02*
X76574000Y-24948000I0J75000D01*
G01*
X76574000Y-23648000D01*
G75*
G02*
X76649000Y-23573000I75000J0D01*
G01*
X76799000Y-23573000D01*
G75*
G02*
X76874000Y-23648000I0J-75000D01*
G01*
X76874000Y-24948000D01*
G75*
G02*
X76799000Y-25023000I-75000J0D01*
G01*
G37*
G36*
G01*
X77299000Y-25023000D02*
X77149000Y-25023000D01*
G75*
G02*
X77074000Y-24948000I0J75000D01*
G01*
X77074000Y-23648000D01*
G75*
G02*
X77149000Y-23573000I75000J0D01*
G01*
X77299000Y-23573000D01*
G75*
G02*
X77374000Y-23648000I0J-75000D01*
G01*
X77374000Y-24948000D01*
G75*
G02*
X77299000Y-25023000I-75000J0D01*
G01*
G37*
G36*
G01*
X77799000Y-25023000D02*
X77649000Y-25023000D01*
G75*
G02*
X77574000Y-24948000I0J75000D01*
G01*
X77574000Y-23648000D01*
G75*
G02*
X77649000Y-23573000I75000J0D01*
G01*
X77799000Y-23573000D01*
G75*
G02*
X77874000Y-23648000I0J-75000D01*
G01*
X77874000Y-24948000D01*
G75*
G02*
X77799000Y-25023000I-75000J0D01*
G01*
G37*
G36*
G01*
X78299000Y-25023000D02*
X78149000Y-25023000D01*
G75*
G02*
X78074000Y-24948000I0J75000D01*
G01*
X78074000Y-23648000D01*
G75*
G02*
X78149000Y-23573000I75000J0D01*
G01*
X78299000Y-23573000D01*
G75*
G02*
X78374000Y-23648000I0J-75000D01*
G01*
X78374000Y-24948000D01*
G75*
G02*
X78299000Y-25023000I-75000J0D01*
G01*
G37*
G36*
G01*
X78799000Y-25023000D02*
X78649000Y-25023000D01*
G75*
G02*
X78574000Y-24948000I0J75000D01*
G01*
X78574000Y-23648000D01*
G75*
G02*
X78649000Y-23573000I75000J0D01*
G01*
X78799000Y-23573000D01*
G75*
G02*
X78874000Y-23648000I0J-75000D01*
G01*
X78874000Y-24948000D01*
G75*
G02*
X78799000Y-25023000I-75000J0D01*
G01*
G37*
G36*
G01*
X78799000Y-20623000D02*
X78649000Y-20623000D01*
G75*
G02*
X78574000Y-20548000I0J75000D01*
G01*
X78574000Y-19248000D01*
G75*
G02*
X78649000Y-19173000I75000J0D01*
G01*
X78799000Y-19173000D01*
G75*
G02*
X78874000Y-19248000I0J-75000D01*
G01*
X78874000Y-20548000D01*
G75*
G02*
X78799000Y-20623000I-75000J0D01*
G01*
G37*
G36*
G01*
X78299000Y-20623000D02*
X78149000Y-20623000D01*
G75*
G02*
X78074000Y-20548000I0J75000D01*
G01*
X78074000Y-19248000D01*
G75*
G02*
X78149000Y-19173000I75000J0D01*
G01*
X78299000Y-19173000D01*
G75*
G02*
X78374000Y-19248000I0J-75000D01*
G01*
X78374000Y-20548000D01*
G75*
G02*
X78299000Y-20623000I-75000J0D01*
G01*
G37*
G36*
G01*
X77799000Y-20623000D02*
X77649000Y-20623000D01*
G75*
G02*
X77574000Y-20548000I0J75000D01*
G01*
X77574000Y-19248000D01*
G75*
G02*
X77649000Y-19173000I75000J0D01*
G01*
X77799000Y-19173000D01*
G75*
G02*
X77874000Y-19248000I0J-75000D01*
G01*
X77874000Y-20548000D01*
G75*
G02*
X77799000Y-20623000I-75000J0D01*
G01*
G37*
G36*
G01*
X77299000Y-20623000D02*
X77149000Y-20623000D01*
G75*
G02*
X77074000Y-20548000I0J75000D01*
G01*
X77074000Y-19248000D01*
G75*
G02*
X77149000Y-19173000I75000J0D01*
G01*
X77299000Y-19173000D01*
G75*
G02*
X77374000Y-19248000I0J-75000D01*
G01*
X77374000Y-20548000D01*
G75*
G02*
X77299000Y-20623000I-75000J0D01*
G01*
G37*
G36*
G01*
X76799000Y-20623000D02*
X76649000Y-20623000D01*
G75*
G02*
X76574000Y-20548000I0J75000D01*
G01*
X76574000Y-19248000D01*
G75*
G02*
X76649000Y-19173000I75000J0D01*
G01*
X76799000Y-19173000D01*
G75*
G02*
X76874000Y-19248000I0J-75000D01*
G01*
X76874000Y-20548000D01*
G75*
G02*
X76799000Y-20623000I-75000J0D01*
G01*
G37*
%TD*%
%TO.C,U4*%
G36*
G01*
X72735000Y-20623000D02*
X72585000Y-20623000D01*
G75*
G02*
X72510000Y-20548000I0J75000D01*
G01*
X72510000Y-19248000D01*
G75*
G02*
X72585000Y-19173000I75000J0D01*
G01*
X72735000Y-19173000D01*
G75*
G02*
X72810000Y-19248000I0J-75000D01*
G01*
X72810000Y-20548000D01*
G75*
G02*
X72735000Y-20623000I-75000J0D01*
G01*
G37*
G36*
G01*
X73235000Y-20623000D02*
X73085000Y-20623000D01*
G75*
G02*
X73010000Y-20548000I0J75000D01*
G01*
X73010000Y-19248000D01*
G75*
G02*
X73085000Y-19173000I75000J0D01*
G01*
X73235000Y-19173000D01*
G75*
G02*
X73310000Y-19248000I0J-75000D01*
G01*
X73310000Y-20548000D01*
G75*
G02*
X73235000Y-20623000I-75000J0D01*
G01*
G37*
G36*
G01*
X73735000Y-20623000D02*
X73585000Y-20623000D01*
G75*
G02*
X73510000Y-20548000I0J75000D01*
G01*
X73510000Y-19248000D01*
G75*
G02*
X73585000Y-19173000I75000J0D01*
G01*
X73735000Y-19173000D01*
G75*
G02*
X73810000Y-19248000I0J-75000D01*
G01*
X73810000Y-20548000D01*
G75*
G02*
X73735000Y-20623000I-75000J0D01*
G01*
G37*
G36*
G01*
X74235000Y-20623000D02*
X74085000Y-20623000D01*
G75*
G02*
X74010000Y-20548000I0J75000D01*
G01*
X74010000Y-19248000D01*
G75*
G02*
X74085000Y-19173000I75000J0D01*
G01*
X74235000Y-19173000D01*
G75*
G02*
X74310000Y-19248000I0J-75000D01*
G01*
X74310000Y-20548000D01*
G75*
G02*
X74235000Y-20623000I-75000J0D01*
G01*
G37*
G36*
G01*
X74735000Y-20623000D02*
X74585000Y-20623000D01*
G75*
G02*
X74510000Y-20548000I0J75000D01*
G01*
X74510000Y-19248000D01*
G75*
G02*
X74585000Y-19173000I75000J0D01*
G01*
X74735000Y-19173000D01*
G75*
G02*
X74810000Y-19248000I0J-75000D01*
G01*
X74810000Y-20548000D01*
G75*
G02*
X74735000Y-20623000I-75000J0D01*
G01*
G37*
G36*
G01*
X74735000Y-25023000D02*
X74585000Y-25023000D01*
G75*
G02*
X74510000Y-24948000I0J75000D01*
G01*
X74510000Y-23648000D01*
G75*
G02*
X74585000Y-23573000I75000J0D01*
G01*
X74735000Y-23573000D01*
G75*
G02*
X74810000Y-23648000I0J-75000D01*
G01*
X74810000Y-24948000D01*
G75*
G02*
X74735000Y-25023000I-75000J0D01*
G01*
G37*
G36*
G01*
X74235000Y-25023000D02*
X74085000Y-25023000D01*
G75*
G02*
X74010000Y-24948000I0J75000D01*
G01*
X74010000Y-23648000D01*
G75*
G02*
X74085000Y-23573000I75000J0D01*
G01*
X74235000Y-23573000D01*
G75*
G02*
X74310000Y-23648000I0J-75000D01*
G01*
X74310000Y-24948000D01*
G75*
G02*
X74235000Y-25023000I-75000J0D01*
G01*
G37*
G36*
G01*
X73735000Y-25023000D02*
X73585000Y-25023000D01*
G75*
G02*
X73510000Y-24948000I0J75000D01*
G01*
X73510000Y-23648000D01*
G75*
G02*
X73585000Y-23573000I75000J0D01*
G01*
X73735000Y-23573000D01*
G75*
G02*
X73810000Y-23648000I0J-75000D01*
G01*
X73810000Y-24948000D01*
G75*
G02*
X73735000Y-25023000I-75000J0D01*
G01*
G37*
G36*
G01*
X73235000Y-25023000D02*
X73085000Y-25023000D01*
G75*
G02*
X73010000Y-24948000I0J75000D01*
G01*
X73010000Y-23648000D01*
G75*
G02*
X73085000Y-23573000I75000J0D01*
G01*
X73235000Y-23573000D01*
G75*
G02*
X73310000Y-23648000I0J-75000D01*
G01*
X73310000Y-24948000D01*
G75*
G02*
X73235000Y-25023000I-75000J0D01*
G01*
G37*
G36*
G01*
X72735000Y-25023000D02*
X72585000Y-25023000D01*
G75*
G02*
X72510000Y-24948000I0J75000D01*
G01*
X72510000Y-23648000D01*
G75*
G02*
X72585000Y-23573000I75000J0D01*
G01*
X72735000Y-23573000D01*
G75*
G02*
X72810000Y-23648000I0J-75000D01*
G01*
X72810000Y-24948000D01*
G75*
G02*
X72735000Y-25023000I-75000J0D01*
G01*
G37*
%TD*%
%TO.C,U5*%
G36*
G01*
X68671000Y-25023000D02*
X68521000Y-25023000D01*
G75*
G02*
X68446000Y-24948000I0J75000D01*
G01*
X68446000Y-23648000D01*
G75*
G02*
X68521000Y-23573000I75000J0D01*
G01*
X68671000Y-23573000D01*
G75*
G02*
X68746000Y-23648000I0J-75000D01*
G01*
X68746000Y-24948000D01*
G75*
G02*
X68671000Y-25023000I-75000J0D01*
G01*
G37*
G36*
G01*
X69171000Y-25023000D02*
X69021000Y-25023000D01*
G75*
G02*
X68946000Y-24948000I0J75000D01*
G01*
X68946000Y-23648000D01*
G75*
G02*
X69021000Y-23573000I75000J0D01*
G01*
X69171000Y-23573000D01*
G75*
G02*
X69246000Y-23648000I0J-75000D01*
G01*
X69246000Y-24948000D01*
G75*
G02*
X69171000Y-25023000I-75000J0D01*
G01*
G37*
G36*
G01*
X69671000Y-25023000D02*
X69521000Y-25023000D01*
G75*
G02*
X69446000Y-24948000I0J75000D01*
G01*
X69446000Y-23648000D01*
G75*
G02*
X69521000Y-23573000I75000J0D01*
G01*
X69671000Y-23573000D01*
G75*
G02*
X69746000Y-23648000I0J-75000D01*
G01*
X69746000Y-24948000D01*
G75*
G02*
X69671000Y-25023000I-75000J0D01*
G01*
G37*
G36*
G01*
X70171000Y-25023000D02*
X70021000Y-25023000D01*
G75*
G02*
X69946000Y-24948000I0J75000D01*
G01*
X69946000Y-23648000D01*
G75*
G02*
X70021000Y-23573000I75000J0D01*
G01*
X70171000Y-23573000D01*
G75*
G02*
X70246000Y-23648000I0J-75000D01*
G01*
X70246000Y-24948000D01*
G75*
G02*
X70171000Y-25023000I-75000J0D01*
G01*
G37*
G36*
G01*
X70671000Y-25023000D02*
X70521000Y-25023000D01*
G75*
G02*
X70446000Y-24948000I0J75000D01*
G01*
X70446000Y-23648000D01*
G75*
G02*
X70521000Y-23573000I75000J0D01*
G01*
X70671000Y-23573000D01*
G75*
G02*
X70746000Y-23648000I0J-75000D01*
G01*
X70746000Y-24948000D01*
G75*
G02*
X70671000Y-25023000I-75000J0D01*
G01*
G37*
G36*
G01*
X70671000Y-20623000D02*
X70521000Y-20623000D01*
G75*
G02*
X70446000Y-20548000I0J75000D01*
G01*
X70446000Y-19248000D01*
G75*
G02*
X70521000Y-19173000I75000J0D01*
G01*
X70671000Y-19173000D01*
G75*
G02*
X70746000Y-19248000I0J-75000D01*
G01*
X70746000Y-20548000D01*
G75*
G02*
X70671000Y-20623000I-75000J0D01*
G01*
G37*
G36*
G01*
X70171000Y-20623000D02*
X70021000Y-20623000D01*
G75*
G02*
X69946000Y-20548000I0J75000D01*
G01*
X69946000Y-19248000D01*
G75*
G02*
X70021000Y-19173000I75000J0D01*
G01*
X70171000Y-19173000D01*
G75*
G02*
X70246000Y-19248000I0J-75000D01*
G01*
X70246000Y-20548000D01*
G75*
G02*
X70171000Y-20623000I-75000J0D01*
G01*
G37*
G36*
G01*
X69671000Y-20623000D02*
X69521000Y-20623000D01*
G75*
G02*
X69446000Y-20548000I0J75000D01*
G01*
X69446000Y-19248000D01*
G75*
G02*
X69521000Y-19173000I75000J0D01*
G01*
X69671000Y-19173000D01*
G75*
G02*
X69746000Y-19248000I0J-75000D01*
G01*
X69746000Y-20548000D01*
G75*
G02*
X69671000Y-20623000I-75000J0D01*
G01*
G37*
G36*
G01*
X69171000Y-20623000D02*
X69021000Y-20623000D01*
G75*
G02*
X68946000Y-20548000I0J75000D01*
G01*
X68946000Y-19248000D01*
G75*
G02*
X69021000Y-19173000I75000J0D01*
G01*
X69171000Y-19173000D01*
G75*
G02*
X69246000Y-19248000I0J-75000D01*
G01*
X69246000Y-20548000D01*
G75*
G02*
X69171000Y-20623000I-75000J0D01*
G01*
G37*
G36*
G01*
X68671000Y-20623000D02*
X68521000Y-20623000D01*
G75*
G02*
X68446000Y-20548000I0J75000D01*
G01*
X68446000Y-19248000D01*
G75*
G02*
X68521000Y-19173000I75000J0D01*
G01*
X68671000Y-19173000D01*
G75*
G02*
X68746000Y-19248000I0J-75000D01*
G01*
X68746000Y-20548000D01*
G75*
G02*
X68671000Y-20623000I-75000J0D01*
G01*
G37*
%TD*%
%TO.C,U6*%
G36*
G01*
X64607000Y-25023000D02*
X64457000Y-25023000D01*
G75*
G02*
X64382000Y-24948000I0J75000D01*
G01*
X64382000Y-23648000D01*
G75*
G02*
X64457000Y-23573000I75000J0D01*
G01*
X64607000Y-23573000D01*
G75*
G02*
X64682000Y-23648000I0J-75000D01*
G01*
X64682000Y-24948000D01*
G75*
G02*
X64607000Y-25023000I-75000J0D01*
G01*
G37*
G36*
G01*
X65107000Y-25023000D02*
X64957000Y-25023000D01*
G75*
G02*
X64882000Y-24948000I0J75000D01*
G01*
X64882000Y-23648000D01*
G75*
G02*
X64957000Y-23573000I75000J0D01*
G01*
X65107000Y-23573000D01*
G75*
G02*
X65182000Y-23648000I0J-75000D01*
G01*
X65182000Y-24948000D01*
G75*
G02*
X65107000Y-25023000I-75000J0D01*
G01*
G37*
G36*
G01*
X65607000Y-25023000D02*
X65457000Y-25023000D01*
G75*
G02*
X65382000Y-24948000I0J75000D01*
G01*
X65382000Y-23648000D01*
G75*
G02*
X65457000Y-23573000I75000J0D01*
G01*
X65607000Y-23573000D01*
G75*
G02*
X65682000Y-23648000I0J-75000D01*
G01*
X65682000Y-24948000D01*
G75*
G02*
X65607000Y-25023000I-75000J0D01*
G01*
G37*
G36*
G01*
X66107000Y-25023000D02*
X65957000Y-25023000D01*
G75*
G02*
X65882000Y-24948000I0J75000D01*
G01*
X65882000Y-23648000D01*
G75*
G02*
X65957000Y-23573000I75000J0D01*
G01*
X66107000Y-23573000D01*
G75*
G02*
X66182000Y-23648000I0J-75000D01*
G01*
X66182000Y-24948000D01*
G75*
G02*
X66107000Y-25023000I-75000J0D01*
G01*
G37*
G36*
G01*
X66607000Y-25023000D02*
X66457000Y-25023000D01*
G75*
G02*
X66382000Y-24948000I0J75000D01*
G01*
X66382000Y-23648000D01*
G75*
G02*
X66457000Y-23573000I75000J0D01*
G01*
X66607000Y-23573000D01*
G75*
G02*
X66682000Y-23648000I0J-75000D01*
G01*
X66682000Y-24948000D01*
G75*
G02*
X66607000Y-25023000I-75000J0D01*
G01*
G37*
G36*
G01*
X66607000Y-20623000D02*
X66457000Y-20623000D01*
G75*
G02*
X66382000Y-20548000I0J75000D01*
G01*
X66382000Y-19248000D01*
G75*
G02*
X66457000Y-19173000I75000J0D01*
G01*
X66607000Y-19173000D01*
G75*
G02*
X66682000Y-19248000I0J-75000D01*
G01*
X66682000Y-20548000D01*
G75*
G02*
X66607000Y-20623000I-75000J0D01*
G01*
G37*
G36*
G01*
X66107000Y-20623000D02*
X65957000Y-20623000D01*
G75*
G02*
X65882000Y-20548000I0J75000D01*
G01*
X65882000Y-19248000D01*
G75*
G02*
X65957000Y-19173000I75000J0D01*
G01*
X66107000Y-19173000D01*
G75*
G02*
X66182000Y-19248000I0J-75000D01*
G01*
X66182000Y-20548000D01*
G75*
G02*
X66107000Y-20623000I-75000J0D01*
G01*
G37*
G36*
G01*
X65607000Y-20623000D02*
X65457000Y-20623000D01*
G75*
G02*
X65382000Y-20548000I0J75000D01*
G01*
X65382000Y-19248000D01*
G75*
G02*
X65457000Y-19173000I75000J0D01*
G01*
X65607000Y-19173000D01*
G75*
G02*
X65682000Y-19248000I0J-75000D01*
G01*
X65682000Y-20548000D01*
G75*
G02*
X65607000Y-20623000I-75000J0D01*
G01*
G37*
G36*
G01*
X65107000Y-20623000D02*
X64957000Y-20623000D01*
G75*
G02*
X64882000Y-20548000I0J75000D01*
G01*
X64882000Y-19248000D01*
G75*
G02*
X64957000Y-19173000I75000J0D01*
G01*
X65107000Y-19173000D01*
G75*
G02*
X65182000Y-19248000I0J-75000D01*
G01*
X65182000Y-20548000D01*
G75*
G02*
X65107000Y-20623000I-75000J0D01*
G01*
G37*
G36*
G01*
X64607000Y-20623000D02*
X64457000Y-20623000D01*
G75*
G02*
X64382000Y-20548000I0J75000D01*
G01*
X64382000Y-19248000D01*
G75*
G02*
X64457000Y-19173000I75000J0D01*
G01*
X64607000Y-19173000D01*
G75*
G02*
X64682000Y-19248000I0J-75000D01*
G01*
X64682000Y-20548000D01*
G75*
G02*
X64607000Y-20623000I-75000J0D01*
G01*
G37*
%TD*%
%TO.C,U7*%
G36*
G01*
X60543000Y-20623000D02*
X60393000Y-20623000D01*
G75*
G02*
X60318000Y-20548000I0J75000D01*
G01*
X60318000Y-19248000D01*
G75*
G02*
X60393000Y-19173000I75000J0D01*
G01*
X60543000Y-19173000D01*
G75*
G02*
X60618000Y-19248000I0J-75000D01*
G01*
X60618000Y-20548000D01*
G75*
G02*
X60543000Y-20623000I-75000J0D01*
G01*
G37*
G36*
G01*
X61043000Y-20623000D02*
X60893000Y-20623000D01*
G75*
G02*
X60818000Y-20548000I0J75000D01*
G01*
X60818000Y-19248000D01*
G75*
G02*
X60893000Y-19173000I75000J0D01*
G01*
X61043000Y-19173000D01*
G75*
G02*
X61118000Y-19248000I0J-75000D01*
G01*
X61118000Y-20548000D01*
G75*
G02*
X61043000Y-20623000I-75000J0D01*
G01*
G37*
G36*
G01*
X61543000Y-20623000D02*
X61393000Y-20623000D01*
G75*
G02*
X61318000Y-20548000I0J75000D01*
G01*
X61318000Y-19248000D01*
G75*
G02*
X61393000Y-19173000I75000J0D01*
G01*
X61543000Y-19173000D01*
G75*
G02*
X61618000Y-19248000I0J-75000D01*
G01*
X61618000Y-20548000D01*
G75*
G02*
X61543000Y-20623000I-75000J0D01*
G01*
G37*
G36*
G01*
X62043000Y-20623000D02*
X61893000Y-20623000D01*
G75*
G02*
X61818000Y-20548000I0J75000D01*
G01*
X61818000Y-19248000D01*
G75*
G02*
X61893000Y-19173000I75000J0D01*
G01*
X62043000Y-19173000D01*
G75*
G02*
X62118000Y-19248000I0J-75000D01*
G01*
X62118000Y-20548000D01*
G75*
G02*
X62043000Y-20623000I-75000J0D01*
G01*
G37*
G36*
G01*
X62543000Y-20623000D02*
X62393000Y-20623000D01*
G75*
G02*
X62318000Y-20548000I0J75000D01*
G01*
X62318000Y-19248000D01*
G75*
G02*
X62393000Y-19173000I75000J0D01*
G01*
X62543000Y-19173000D01*
G75*
G02*
X62618000Y-19248000I0J-75000D01*
G01*
X62618000Y-20548000D01*
G75*
G02*
X62543000Y-20623000I-75000J0D01*
G01*
G37*
G36*
G01*
X62543000Y-25023000D02*
X62393000Y-25023000D01*
G75*
G02*
X62318000Y-24948000I0J75000D01*
G01*
X62318000Y-23648000D01*
G75*
G02*
X62393000Y-23573000I75000J0D01*
G01*
X62543000Y-23573000D01*
G75*
G02*
X62618000Y-23648000I0J-75000D01*
G01*
X62618000Y-24948000D01*
G75*
G02*
X62543000Y-25023000I-75000J0D01*
G01*
G37*
G36*
G01*
X62043000Y-25023000D02*
X61893000Y-25023000D01*
G75*
G02*
X61818000Y-24948000I0J75000D01*
G01*
X61818000Y-23648000D01*
G75*
G02*
X61893000Y-23573000I75000J0D01*
G01*
X62043000Y-23573000D01*
G75*
G02*
X62118000Y-23648000I0J-75000D01*
G01*
X62118000Y-24948000D01*
G75*
G02*
X62043000Y-25023000I-75000J0D01*
G01*
G37*
G36*
G01*
X61543000Y-25023000D02*
X61393000Y-25023000D01*
G75*
G02*
X61318000Y-24948000I0J75000D01*
G01*
X61318000Y-23648000D01*
G75*
G02*
X61393000Y-23573000I75000J0D01*
G01*
X61543000Y-23573000D01*
G75*
G02*
X61618000Y-23648000I0J-75000D01*
G01*
X61618000Y-24948000D01*
G75*
G02*
X61543000Y-25023000I-75000J0D01*
G01*
G37*
G36*
G01*
X61043000Y-25023000D02*
X60893000Y-25023000D01*
G75*
G02*
X60818000Y-24948000I0J75000D01*
G01*
X60818000Y-23648000D01*
G75*
G02*
X60893000Y-23573000I75000J0D01*
G01*
X61043000Y-23573000D01*
G75*
G02*
X61118000Y-23648000I0J-75000D01*
G01*
X61118000Y-24948000D01*
G75*
G02*
X61043000Y-25023000I-75000J0D01*
G01*
G37*
G36*
G01*
X60543000Y-25023000D02*
X60393000Y-25023000D01*
G75*
G02*
X60318000Y-24948000I0J75000D01*
G01*
X60318000Y-23648000D01*
G75*
G02*
X60393000Y-23573000I75000J0D01*
G01*
X60543000Y-23573000D01*
G75*
G02*
X60618000Y-23648000I0J-75000D01*
G01*
X60618000Y-24948000D01*
G75*
G02*
X60543000Y-25023000I-75000J0D01*
G01*
G37*
%TD*%
%TO.C,U8*%
G36*
G01*
X46954000Y-25023000D02*
X46804000Y-25023000D01*
G75*
G02*
X46729000Y-24948000I0J75000D01*
G01*
X46729000Y-23648000D01*
G75*
G02*
X46804000Y-23573000I75000J0D01*
G01*
X46954000Y-23573000D01*
G75*
G02*
X47029000Y-23648000I0J-75000D01*
G01*
X47029000Y-24948000D01*
G75*
G02*
X46954000Y-25023000I-75000J0D01*
G01*
G37*
G36*
G01*
X47454000Y-25023000D02*
X47304000Y-25023000D01*
G75*
G02*
X47229000Y-24948000I0J75000D01*
G01*
X47229000Y-23648000D01*
G75*
G02*
X47304000Y-23573000I75000J0D01*
G01*
X47454000Y-23573000D01*
G75*
G02*
X47529000Y-23648000I0J-75000D01*
G01*
X47529000Y-24948000D01*
G75*
G02*
X47454000Y-25023000I-75000J0D01*
G01*
G37*
G36*
G01*
X47954000Y-25023000D02*
X47804000Y-25023000D01*
G75*
G02*
X47729000Y-24948000I0J75000D01*
G01*
X47729000Y-23648000D01*
G75*
G02*
X47804000Y-23573000I75000J0D01*
G01*
X47954000Y-23573000D01*
G75*
G02*
X48029000Y-23648000I0J-75000D01*
G01*
X48029000Y-24948000D01*
G75*
G02*
X47954000Y-25023000I-75000J0D01*
G01*
G37*
G36*
G01*
X48454000Y-25023000D02*
X48304000Y-25023000D01*
G75*
G02*
X48229000Y-24948000I0J75000D01*
G01*
X48229000Y-23648000D01*
G75*
G02*
X48304000Y-23573000I75000J0D01*
G01*
X48454000Y-23573000D01*
G75*
G02*
X48529000Y-23648000I0J-75000D01*
G01*
X48529000Y-24948000D01*
G75*
G02*
X48454000Y-25023000I-75000J0D01*
G01*
G37*
G36*
G01*
X48954000Y-25023000D02*
X48804000Y-25023000D01*
G75*
G02*
X48729000Y-24948000I0J75000D01*
G01*
X48729000Y-23648000D01*
G75*
G02*
X48804000Y-23573000I75000J0D01*
G01*
X48954000Y-23573000D01*
G75*
G02*
X49029000Y-23648000I0J-75000D01*
G01*
X49029000Y-24948000D01*
G75*
G02*
X48954000Y-25023000I-75000J0D01*
G01*
G37*
G36*
G01*
X48954000Y-20623000D02*
X48804000Y-20623000D01*
G75*
G02*
X48729000Y-20548000I0J75000D01*
G01*
X48729000Y-19248000D01*
G75*
G02*
X48804000Y-19173000I75000J0D01*
G01*
X48954000Y-19173000D01*
G75*
G02*
X49029000Y-19248000I0J-75000D01*
G01*
X49029000Y-20548000D01*
G75*
G02*
X48954000Y-20623000I-75000J0D01*
G01*
G37*
G36*
G01*
X48454000Y-20623000D02*
X48304000Y-20623000D01*
G75*
G02*
X48229000Y-20548000I0J75000D01*
G01*
X48229000Y-19248000D01*
G75*
G02*
X48304000Y-19173000I75000J0D01*
G01*
X48454000Y-19173000D01*
G75*
G02*
X48529000Y-19248000I0J-75000D01*
G01*
X48529000Y-20548000D01*
G75*
G02*
X48454000Y-20623000I-75000J0D01*
G01*
G37*
G36*
G01*
X47954000Y-20623000D02*
X47804000Y-20623000D01*
G75*
G02*
X47729000Y-20548000I0J75000D01*
G01*
X47729000Y-19248000D01*
G75*
G02*
X47804000Y-19173000I75000J0D01*
G01*
X47954000Y-19173000D01*
G75*
G02*
X48029000Y-19248000I0J-75000D01*
G01*
X48029000Y-20548000D01*
G75*
G02*
X47954000Y-20623000I-75000J0D01*
G01*
G37*
G36*
G01*
X47454000Y-20623000D02*
X47304000Y-20623000D01*
G75*
G02*
X47229000Y-20548000I0J75000D01*
G01*
X47229000Y-19248000D01*
G75*
G02*
X47304000Y-19173000I75000J0D01*
G01*
X47454000Y-19173000D01*
G75*
G02*
X47529000Y-19248000I0J-75000D01*
G01*
X47529000Y-20548000D01*
G75*
G02*
X47454000Y-20623000I-75000J0D01*
G01*
G37*
G36*
G01*
X46954000Y-20623000D02*
X46804000Y-20623000D01*
G75*
G02*
X46729000Y-20548000I0J75000D01*
G01*
X46729000Y-19248000D01*
G75*
G02*
X46804000Y-19173000I75000J0D01*
G01*
X46954000Y-19173000D01*
G75*
G02*
X47029000Y-19248000I0J-75000D01*
G01*
X47029000Y-20548000D01*
G75*
G02*
X46954000Y-20623000I-75000J0D01*
G01*
G37*
%TD*%
%TO.C,U9*%
G36*
G01*
X42890000Y-20623000D02*
X42740000Y-20623000D01*
G75*
G02*
X42665000Y-20548000I0J75000D01*
G01*
X42665000Y-19248000D01*
G75*
G02*
X42740000Y-19173000I75000J0D01*
G01*
X42890000Y-19173000D01*
G75*
G02*
X42965000Y-19248000I0J-75000D01*
G01*
X42965000Y-20548000D01*
G75*
G02*
X42890000Y-20623000I-75000J0D01*
G01*
G37*
G36*
G01*
X43390000Y-20623000D02*
X43240000Y-20623000D01*
G75*
G02*
X43165000Y-20548000I0J75000D01*
G01*
X43165000Y-19248000D01*
G75*
G02*
X43240000Y-19173000I75000J0D01*
G01*
X43390000Y-19173000D01*
G75*
G02*
X43465000Y-19248000I0J-75000D01*
G01*
X43465000Y-20548000D01*
G75*
G02*
X43390000Y-20623000I-75000J0D01*
G01*
G37*
G36*
G01*
X43890000Y-20623000D02*
X43740000Y-20623000D01*
G75*
G02*
X43665000Y-20548000I0J75000D01*
G01*
X43665000Y-19248000D01*
G75*
G02*
X43740000Y-19173000I75000J0D01*
G01*
X43890000Y-19173000D01*
G75*
G02*
X43965000Y-19248000I0J-75000D01*
G01*
X43965000Y-20548000D01*
G75*
G02*
X43890000Y-20623000I-75000J0D01*
G01*
G37*
G36*
G01*
X44390000Y-20623000D02*
X44240000Y-20623000D01*
G75*
G02*
X44165000Y-20548000I0J75000D01*
G01*
X44165000Y-19248000D01*
G75*
G02*
X44240000Y-19173000I75000J0D01*
G01*
X44390000Y-19173000D01*
G75*
G02*
X44465000Y-19248000I0J-75000D01*
G01*
X44465000Y-20548000D01*
G75*
G02*
X44390000Y-20623000I-75000J0D01*
G01*
G37*
G36*
G01*
X44890000Y-20623000D02*
X44740000Y-20623000D01*
G75*
G02*
X44665000Y-20548000I0J75000D01*
G01*
X44665000Y-19248000D01*
G75*
G02*
X44740000Y-19173000I75000J0D01*
G01*
X44890000Y-19173000D01*
G75*
G02*
X44965000Y-19248000I0J-75000D01*
G01*
X44965000Y-20548000D01*
G75*
G02*
X44890000Y-20623000I-75000J0D01*
G01*
G37*
G36*
G01*
X44890000Y-25023000D02*
X44740000Y-25023000D01*
G75*
G02*
X44665000Y-24948000I0J75000D01*
G01*
X44665000Y-23648000D01*
G75*
G02*
X44740000Y-23573000I75000J0D01*
G01*
X44890000Y-23573000D01*
G75*
G02*
X44965000Y-23648000I0J-75000D01*
G01*
X44965000Y-24948000D01*
G75*
G02*
X44890000Y-25023000I-75000J0D01*
G01*
G37*
G36*
G01*
X44390000Y-25023000D02*
X44240000Y-25023000D01*
G75*
G02*
X44165000Y-24948000I0J75000D01*
G01*
X44165000Y-23648000D01*
G75*
G02*
X44240000Y-23573000I75000J0D01*
G01*
X44390000Y-23573000D01*
G75*
G02*
X44465000Y-23648000I0J-75000D01*
G01*
X44465000Y-24948000D01*
G75*
G02*
X44390000Y-25023000I-75000J0D01*
G01*
G37*
G36*
G01*
X43890000Y-25023000D02*
X43740000Y-25023000D01*
G75*
G02*
X43665000Y-24948000I0J75000D01*
G01*
X43665000Y-23648000D01*
G75*
G02*
X43740000Y-23573000I75000J0D01*
G01*
X43890000Y-23573000D01*
G75*
G02*
X43965000Y-23648000I0J-75000D01*
G01*
X43965000Y-24948000D01*
G75*
G02*
X43890000Y-25023000I-75000J0D01*
G01*
G37*
G36*
G01*
X43390000Y-25023000D02*
X43240000Y-25023000D01*
G75*
G02*
X43165000Y-24948000I0J75000D01*
G01*
X43165000Y-23648000D01*
G75*
G02*
X43240000Y-23573000I75000J0D01*
G01*
X43390000Y-23573000D01*
G75*
G02*
X43465000Y-23648000I0J-75000D01*
G01*
X43465000Y-24948000D01*
G75*
G02*
X43390000Y-25023000I-75000J0D01*
G01*
G37*
G36*
G01*
X42890000Y-25023000D02*
X42740000Y-25023000D01*
G75*
G02*
X42665000Y-24948000I0J75000D01*
G01*
X42665000Y-23648000D01*
G75*
G02*
X42740000Y-23573000I75000J0D01*
G01*
X42890000Y-23573000D01*
G75*
G02*
X42965000Y-23648000I0J-75000D01*
G01*
X42965000Y-24948000D01*
G75*
G02*
X42890000Y-25023000I-75000J0D01*
G01*
G37*
%TD*%
%TO.C,U10*%
G36*
G01*
X38826000Y-25023000D02*
X38676000Y-25023000D01*
G75*
G02*
X38601000Y-24948000I0J75000D01*
G01*
X38601000Y-23648000D01*
G75*
G02*
X38676000Y-23573000I75000J0D01*
G01*
X38826000Y-23573000D01*
G75*
G02*
X38901000Y-23648000I0J-75000D01*
G01*
X38901000Y-24948000D01*
G75*
G02*
X38826000Y-25023000I-75000J0D01*
G01*
G37*
G36*
G01*
X39326000Y-25023000D02*
X39176000Y-25023000D01*
G75*
G02*
X39101000Y-24948000I0J75000D01*
G01*
X39101000Y-23648000D01*
G75*
G02*
X39176000Y-23573000I75000J0D01*
G01*
X39326000Y-23573000D01*
G75*
G02*
X39401000Y-23648000I0J-75000D01*
G01*
X39401000Y-24948000D01*
G75*
G02*
X39326000Y-25023000I-75000J0D01*
G01*
G37*
G36*
G01*
X39826000Y-25023000D02*
X39676000Y-25023000D01*
G75*
G02*
X39601000Y-24948000I0J75000D01*
G01*
X39601000Y-23648000D01*
G75*
G02*
X39676000Y-23573000I75000J0D01*
G01*
X39826000Y-23573000D01*
G75*
G02*
X39901000Y-23648000I0J-75000D01*
G01*
X39901000Y-24948000D01*
G75*
G02*
X39826000Y-25023000I-75000J0D01*
G01*
G37*
G36*
G01*
X40326000Y-25023000D02*
X40176000Y-25023000D01*
G75*
G02*
X40101000Y-24948000I0J75000D01*
G01*
X40101000Y-23648000D01*
G75*
G02*
X40176000Y-23573000I75000J0D01*
G01*
X40326000Y-23573000D01*
G75*
G02*
X40401000Y-23648000I0J-75000D01*
G01*
X40401000Y-24948000D01*
G75*
G02*
X40326000Y-25023000I-75000J0D01*
G01*
G37*
G36*
G01*
X40826000Y-25023000D02*
X40676000Y-25023000D01*
G75*
G02*
X40601000Y-24948000I0J75000D01*
G01*
X40601000Y-23648000D01*
G75*
G02*
X40676000Y-23573000I75000J0D01*
G01*
X40826000Y-23573000D01*
G75*
G02*
X40901000Y-23648000I0J-75000D01*
G01*
X40901000Y-24948000D01*
G75*
G02*
X40826000Y-25023000I-75000J0D01*
G01*
G37*
G36*
G01*
X40826000Y-20623000D02*
X40676000Y-20623000D01*
G75*
G02*
X40601000Y-20548000I0J75000D01*
G01*
X40601000Y-19248000D01*
G75*
G02*
X40676000Y-19173000I75000J0D01*
G01*
X40826000Y-19173000D01*
G75*
G02*
X40901000Y-19248000I0J-75000D01*
G01*
X40901000Y-20548000D01*
G75*
G02*
X40826000Y-20623000I-75000J0D01*
G01*
G37*
G36*
G01*
X40326000Y-20623000D02*
X40176000Y-20623000D01*
G75*
G02*
X40101000Y-20548000I0J75000D01*
G01*
X40101000Y-19248000D01*
G75*
G02*
X40176000Y-19173000I75000J0D01*
G01*
X40326000Y-19173000D01*
G75*
G02*
X40401000Y-19248000I0J-75000D01*
G01*
X40401000Y-20548000D01*
G75*
G02*
X40326000Y-20623000I-75000J0D01*
G01*
G37*
G36*
G01*
X39826000Y-20623000D02*
X39676000Y-20623000D01*
G75*
G02*
X39601000Y-20548000I0J75000D01*
G01*
X39601000Y-19248000D01*
G75*
G02*
X39676000Y-19173000I75000J0D01*
G01*
X39826000Y-19173000D01*
G75*
G02*
X39901000Y-19248000I0J-75000D01*
G01*
X39901000Y-20548000D01*
G75*
G02*
X39826000Y-20623000I-75000J0D01*
G01*
G37*
G36*
G01*
X39326000Y-20623000D02*
X39176000Y-20623000D01*
G75*
G02*
X39101000Y-20548000I0J75000D01*
G01*
X39101000Y-19248000D01*
G75*
G02*
X39176000Y-19173000I75000J0D01*
G01*
X39326000Y-19173000D01*
G75*
G02*
X39401000Y-19248000I0J-75000D01*
G01*
X39401000Y-20548000D01*
G75*
G02*
X39326000Y-20623000I-75000J0D01*
G01*
G37*
G36*
G01*
X38826000Y-20623000D02*
X38676000Y-20623000D01*
G75*
G02*
X38601000Y-20548000I0J75000D01*
G01*
X38601000Y-19248000D01*
G75*
G02*
X38676000Y-19173000I75000J0D01*
G01*
X38826000Y-19173000D01*
G75*
G02*
X38901000Y-19248000I0J-75000D01*
G01*
X38901000Y-20548000D01*
G75*
G02*
X38826000Y-20623000I-75000J0D01*
G01*
G37*
%TD*%
%TO.C,U11*%
G36*
G01*
X34762000Y-20623000D02*
X34612000Y-20623000D01*
G75*
G02*
X34537000Y-20548000I0J75000D01*
G01*
X34537000Y-19248000D01*
G75*
G02*
X34612000Y-19173000I75000J0D01*
G01*
X34762000Y-19173000D01*
G75*
G02*
X34837000Y-19248000I0J-75000D01*
G01*
X34837000Y-20548000D01*
G75*
G02*
X34762000Y-20623000I-75000J0D01*
G01*
G37*
G36*
G01*
X35262000Y-20623000D02*
X35112000Y-20623000D01*
G75*
G02*
X35037000Y-20548000I0J75000D01*
G01*
X35037000Y-19248000D01*
G75*
G02*
X35112000Y-19173000I75000J0D01*
G01*
X35262000Y-19173000D01*
G75*
G02*
X35337000Y-19248000I0J-75000D01*
G01*
X35337000Y-20548000D01*
G75*
G02*
X35262000Y-20623000I-75000J0D01*
G01*
G37*
G36*
G01*
X35762000Y-20623000D02*
X35612000Y-20623000D01*
G75*
G02*
X35537000Y-20548000I0J75000D01*
G01*
X35537000Y-19248000D01*
G75*
G02*
X35612000Y-19173000I75000J0D01*
G01*
X35762000Y-19173000D01*
G75*
G02*
X35837000Y-19248000I0J-75000D01*
G01*
X35837000Y-20548000D01*
G75*
G02*
X35762000Y-20623000I-75000J0D01*
G01*
G37*
G36*
G01*
X36262000Y-20623000D02*
X36112000Y-20623000D01*
G75*
G02*
X36037000Y-20548000I0J75000D01*
G01*
X36037000Y-19248000D01*
G75*
G02*
X36112000Y-19173000I75000J0D01*
G01*
X36262000Y-19173000D01*
G75*
G02*
X36337000Y-19248000I0J-75000D01*
G01*
X36337000Y-20548000D01*
G75*
G02*
X36262000Y-20623000I-75000J0D01*
G01*
G37*
G36*
G01*
X36762000Y-20623000D02*
X36612000Y-20623000D01*
G75*
G02*
X36537000Y-20548000I0J75000D01*
G01*
X36537000Y-19248000D01*
G75*
G02*
X36612000Y-19173000I75000J0D01*
G01*
X36762000Y-19173000D01*
G75*
G02*
X36837000Y-19248000I0J-75000D01*
G01*
X36837000Y-20548000D01*
G75*
G02*
X36762000Y-20623000I-75000J0D01*
G01*
G37*
G36*
G01*
X36762000Y-25023000D02*
X36612000Y-25023000D01*
G75*
G02*
X36537000Y-24948000I0J75000D01*
G01*
X36537000Y-23648000D01*
G75*
G02*
X36612000Y-23573000I75000J0D01*
G01*
X36762000Y-23573000D01*
G75*
G02*
X36837000Y-23648000I0J-75000D01*
G01*
X36837000Y-24948000D01*
G75*
G02*
X36762000Y-25023000I-75000J0D01*
G01*
G37*
G36*
G01*
X36262000Y-25023000D02*
X36112000Y-25023000D01*
G75*
G02*
X36037000Y-24948000I0J75000D01*
G01*
X36037000Y-23648000D01*
G75*
G02*
X36112000Y-23573000I75000J0D01*
G01*
X36262000Y-23573000D01*
G75*
G02*
X36337000Y-23648000I0J-75000D01*
G01*
X36337000Y-24948000D01*
G75*
G02*
X36262000Y-25023000I-75000J0D01*
G01*
G37*
G36*
G01*
X35762000Y-25023000D02*
X35612000Y-25023000D01*
G75*
G02*
X35537000Y-24948000I0J75000D01*
G01*
X35537000Y-23648000D01*
G75*
G02*
X35612000Y-23573000I75000J0D01*
G01*
X35762000Y-23573000D01*
G75*
G02*
X35837000Y-23648000I0J-75000D01*
G01*
X35837000Y-24948000D01*
G75*
G02*
X35762000Y-25023000I-75000J0D01*
G01*
G37*
G36*
G01*
X35262000Y-25023000D02*
X35112000Y-25023000D01*
G75*
G02*
X35037000Y-24948000I0J75000D01*
G01*
X35037000Y-23648000D01*
G75*
G02*
X35112000Y-23573000I75000J0D01*
G01*
X35262000Y-23573000D01*
G75*
G02*
X35337000Y-23648000I0J-75000D01*
G01*
X35337000Y-24948000D01*
G75*
G02*
X35262000Y-25023000I-75000J0D01*
G01*
G37*
G36*
G01*
X34762000Y-25023000D02*
X34612000Y-25023000D01*
G75*
G02*
X34537000Y-24948000I0J75000D01*
G01*
X34537000Y-23648000D01*
G75*
G02*
X34612000Y-23573000I75000J0D01*
G01*
X34762000Y-23573000D01*
G75*
G02*
X34837000Y-23648000I0J-75000D01*
G01*
X34837000Y-24948000D01*
G75*
G02*
X34762000Y-25023000I-75000J0D01*
G01*
G37*
%TD*%
%TO.C,U12*%
G36*
G01*
X30698000Y-25023000D02*
X30548000Y-25023000D01*
G75*
G02*
X30473000Y-24948000I0J75000D01*
G01*
X30473000Y-23648000D01*
G75*
G02*
X30548000Y-23573000I75000J0D01*
G01*
X30698000Y-23573000D01*
G75*
G02*
X30773000Y-23648000I0J-75000D01*
G01*
X30773000Y-24948000D01*
G75*
G02*
X30698000Y-25023000I-75000J0D01*
G01*
G37*
G36*
G01*
X31198000Y-25023000D02*
X31048000Y-25023000D01*
G75*
G02*
X30973000Y-24948000I0J75000D01*
G01*
X30973000Y-23648000D01*
G75*
G02*
X31048000Y-23573000I75000J0D01*
G01*
X31198000Y-23573000D01*
G75*
G02*
X31273000Y-23648000I0J-75000D01*
G01*
X31273000Y-24948000D01*
G75*
G02*
X31198000Y-25023000I-75000J0D01*
G01*
G37*
G36*
G01*
X31698000Y-25023000D02*
X31548000Y-25023000D01*
G75*
G02*
X31473000Y-24948000I0J75000D01*
G01*
X31473000Y-23648000D01*
G75*
G02*
X31548000Y-23573000I75000J0D01*
G01*
X31698000Y-23573000D01*
G75*
G02*
X31773000Y-23648000I0J-75000D01*
G01*
X31773000Y-24948000D01*
G75*
G02*
X31698000Y-25023000I-75000J0D01*
G01*
G37*
G36*
G01*
X32198000Y-25023000D02*
X32048000Y-25023000D01*
G75*
G02*
X31973000Y-24948000I0J75000D01*
G01*
X31973000Y-23648000D01*
G75*
G02*
X32048000Y-23573000I75000J0D01*
G01*
X32198000Y-23573000D01*
G75*
G02*
X32273000Y-23648000I0J-75000D01*
G01*
X32273000Y-24948000D01*
G75*
G02*
X32198000Y-25023000I-75000J0D01*
G01*
G37*
G36*
G01*
X32698000Y-25023000D02*
X32548000Y-25023000D01*
G75*
G02*
X32473000Y-24948000I0J75000D01*
G01*
X32473000Y-23648000D01*
G75*
G02*
X32548000Y-23573000I75000J0D01*
G01*
X32698000Y-23573000D01*
G75*
G02*
X32773000Y-23648000I0J-75000D01*
G01*
X32773000Y-24948000D01*
G75*
G02*
X32698000Y-25023000I-75000J0D01*
G01*
G37*
G36*
G01*
X32698000Y-20623000D02*
X32548000Y-20623000D01*
G75*
G02*
X32473000Y-20548000I0J75000D01*
G01*
X32473000Y-19248000D01*
G75*
G02*
X32548000Y-19173000I75000J0D01*
G01*
X32698000Y-19173000D01*
G75*
G02*
X32773000Y-19248000I0J-75000D01*
G01*
X32773000Y-20548000D01*
G75*
G02*
X32698000Y-20623000I-75000J0D01*
G01*
G37*
G36*
G01*
X32198000Y-20623000D02*
X32048000Y-20623000D01*
G75*
G02*
X31973000Y-20548000I0J75000D01*
G01*
X31973000Y-19248000D01*
G75*
G02*
X32048000Y-19173000I75000J0D01*
G01*
X32198000Y-19173000D01*
G75*
G02*
X32273000Y-19248000I0J-75000D01*
G01*
X32273000Y-20548000D01*
G75*
G02*
X32198000Y-20623000I-75000J0D01*
G01*
G37*
G36*
G01*
X31698000Y-20623000D02*
X31548000Y-20623000D01*
G75*
G02*
X31473000Y-20548000I0J75000D01*
G01*
X31473000Y-19248000D01*
G75*
G02*
X31548000Y-19173000I75000J0D01*
G01*
X31698000Y-19173000D01*
G75*
G02*
X31773000Y-19248000I0J-75000D01*
G01*
X31773000Y-20548000D01*
G75*
G02*
X31698000Y-20623000I-75000J0D01*
G01*
G37*
G36*
G01*
X31198000Y-20623000D02*
X31048000Y-20623000D01*
G75*
G02*
X30973000Y-20548000I0J75000D01*
G01*
X30973000Y-19248000D01*
G75*
G02*
X31048000Y-19173000I75000J0D01*
G01*
X31198000Y-19173000D01*
G75*
G02*
X31273000Y-19248000I0J-75000D01*
G01*
X31273000Y-20548000D01*
G75*
G02*
X31198000Y-20623000I-75000J0D01*
G01*
G37*
G36*
G01*
X30698000Y-20623000D02*
X30548000Y-20623000D01*
G75*
G02*
X30473000Y-20548000I0J75000D01*
G01*
X30473000Y-19248000D01*
G75*
G02*
X30548000Y-19173000I75000J0D01*
G01*
X30698000Y-19173000D01*
G75*
G02*
X30773000Y-19248000I0J-75000D01*
G01*
X30773000Y-20548000D01*
G75*
G02*
X30698000Y-20623000I-75000J0D01*
G01*
G37*
%TD*%
%TO.C,U13*%
G36*
G01*
X26634000Y-20623000D02*
X26484000Y-20623000D01*
G75*
G02*
X26409000Y-20548000I0J75000D01*
G01*
X26409000Y-19248000D01*
G75*
G02*
X26484000Y-19173000I75000J0D01*
G01*
X26634000Y-19173000D01*
G75*
G02*
X26709000Y-19248000I0J-75000D01*
G01*
X26709000Y-20548000D01*
G75*
G02*
X26634000Y-20623000I-75000J0D01*
G01*
G37*
G36*
G01*
X27134000Y-20623000D02*
X26984000Y-20623000D01*
G75*
G02*
X26909000Y-20548000I0J75000D01*
G01*
X26909000Y-19248000D01*
G75*
G02*
X26984000Y-19173000I75000J0D01*
G01*
X27134000Y-19173000D01*
G75*
G02*
X27209000Y-19248000I0J-75000D01*
G01*
X27209000Y-20548000D01*
G75*
G02*
X27134000Y-20623000I-75000J0D01*
G01*
G37*
G36*
G01*
X27634000Y-20623000D02*
X27484000Y-20623000D01*
G75*
G02*
X27409000Y-20548000I0J75000D01*
G01*
X27409000Y-19248000D01*
G75*
G02*
X27484000Y-19173000I75000J0D01*
G01*
X27634000Y-19173000D01*
G75*
G02*
X27709000Y-19248000I0J-75000D01*
G01*
X27709000Y-20548000D01*
G75*
G02*
X27634000Y-20623000I-75000J0D01*
G01*
G37*
G36*
G01*
X28134000Y-20623000D02*
X27984000Y-20623000D01*
G75*
G02*
X27909000Y-20548000I0J75000D01*
G01*
X27909000Y-19248000D01*
G75*
G02*
X27984000Y-19173000I75000J0D01*
G01*
X28134000Y-19173000D01*
G75*
G02*
X28209000Y-19248000I0J-75000D01*
G01*
X28209000Y-20548000D01*
G75*
G02*
X28134000Y-20623000I-75000J0D01*
G01*
G37*
G36*
G01*
X28634000Y-20623000D02*
X28484000Y-20623000D01*
G75*
G02*
X28409000Y-20548000I0J75000D01*
G01*
X28409000Y-19248000D01*
G75*
G02*
X28484000Y-19173000I75000J0D01*
G01*
X28634000Y-19173000D01*
G75*
G02*
X28709000Y-19248000I0J-75000D01*
G01*
X28709000Y-20548000D01*
G75*
G02*
X28634000Y-20623000I-75000J0D01*
G01*
G37*
G36*
G01*
X28634000Y-25023000D02*
X28484000Y-25023000D01*
G75*
G02*
X28409000Y-24948000I0J75000D01*
G01*
X28409000Y-23648000D01*
G75*
G02*
X28484000Y-23573000I75000J0D01*
G01*
X28634000Y-23573000D01*
G75*
G02*
X28709000Y-23648000I0J-75000D01*
G01*
X28709000Y-24948000D01*
G75*
G02*
X28634000Y-25023000I-75000J0D01*
G01*
G37*
G36*
G01*
X28134000Y-25023000D02*
X27984000Y-25023000D01*
G75*
G02*
X27909000Y-24948000I0J75000D01*
G01*
X27909000Y-23648000D01*
G75*
G02*
X27984000Y-23573000I75000J0D01*
G01*
X28134000Y-23573000D01*
G75*
G02*
X28209000Y-23648000I0J-75000D01*
G01*
X28209000Y-24948000D01*
G75*
G02*
X28134000Y-25023000I-75000J0D01*
G01*
G37*
G36*
G01*
X27634000Y-25023000D02*
X27484000Y-25023000D01*
G75*
G02*
X27409000Y-24948000I0J75000D01*
G01*
X27409000Y-23648000D01*
G75*
G02*
X27484000Y-23573000I75000J0D01*
G01*
X27634000Y-23573000D01*
G75*
G02*
X27709000Y-23648000I0J-75000D01*
G01*
X27709000Y-24948000D01*
G75*
G02*
X27634000Y-25023000I-75000J0D01*
G01*
G37*
G36*
G01*
X27134000Y-25023000D02*
X26984000Y-25023000D01*
G75*
G02*
X26909000Y-24948000I0J75000D01*
G01*
X26909000Y-23648000D01*
G75*
G02*
X26984000Y-23573000I75000J0D01*
G01*
X27134000Y-23573000D01*
G75*
G02*
X27209000Y-23648000I0J-75000D01*
G01*
X27209000Y-24948000D01*
G75*
G02*
X27134000Y-25023000I-75000J0D01*
G01*
G37*
G36*
G01*
X26634000Y-25023000D02*
X26484000Y-25023000D01*
G75*
G02*
X26409000Y-24948000I0J75000D01*
G01*
X26409000Y-23648000D01*
G75*
G02*
X26484000Y-23573000I75000J0D01*
G01*
X26634000Y-23573000D01*
G75*
G02*
X26709000Y-23648000I0J-75000D01*
G01*
X26709000Y-24948000D01*
G75*
G02*
X26634000Y-25023000I-75000J0D01*
G01*
G37*
%TD*%
%TO.C,U14*%
G36*
G01*
X23772000Y-59330000D02*
X23472000Y-59330000D01*
G75*
G02*
X23322000Y-59180000I0J150000D01*
G01*
X23322000Y-57530000D01*
G75*
G02*
X23472000Y-57380000I150000J0D01*
G01*
X23772000Y-57380000D01*
G75*
G02*
X23922000Y-57530000I0J-150000D01*
G01*
X23922000Y-59180000D01*
G75*
G02*
X23772000Y-59330000I-150000J0D01*
G01*
G37*
G36*
G01*
X25042000Y-59330000D02*
X24742000Y-59330000D01*
G75*
G02*
X24592000Y-59180000I0J150000D01*
G01*
X24592000Y-57530000D01*
G75*
G02*
X24742000Y-57380000I150000J0D01*
G01*
X25042000Y-57380000D01*
G75*
G02*
X25192000Y-57530000I0J-150000D01*
G01*
X25192000Y-59180000D01*
G75*
G02*
X25042000Y-59330000I-150000J0D01*
G01*
G37*
G36*
G01*
X26312000Y-59330000D02*
X26012000Y-59330000D01*
G75*
G02*
X25862000Y-59180000I0J150000D01*
G01*
X25862000Y-57530000D01*
G75*
G02*
X26012000Y-57380000I150000J0D01*
G01*
X26312000Y-57380000D01*
G75*
G02*
X26462000Y-57530000I0J-150000D01*
G01*
X26462000Y-59180000D01*
G75*
G02*
X26312000Y-59330000I-150000J0D01*
G01*
G37*
G36*
G01*
X27582000Y-59330000D02*
X27282000Y-59330000D01*
G75*
G02*
X27132000Y-59180000I0J150000D01*
G01*
X27132000Y-57530000D01*
G75*
G02*
X27282000Y-57380000I150000J0D01*
G01*
X27582000Y-57380000D01*
G75*
G02*
X27732000Y-57530000I0J-150000D01*
G01*
X27732000Y-59180000D01*
G75*
G02*
X27582000Y-59330000I-150000J0D01*
G01*
G37*
G36*
G01*
X27582000Y-54380000D02*
X27282000Y-54380000D01*
G75*
G02*
X27132000Y-54230000I0J150000D01*
G01*
X27132000Y-52580000D01*
G75*
G02*
X27282000Y-52430000I150000J0D01*
G01*
X27582000Y-52430000D01*
G75*
G02*
X27732000Y-52580000I0J-150000D01*
G01*
X27732000Y-54230000D01*
G75*
G02*
X27582000Y-54380000I-150000J0D01*
G01*
G37*
G36*
G01*
X26312000Y-54380000D02*
X26012000Y-54380000D01*
G75*
G02*
X25862000Y-54230000I0J150000D01*
G01*
X25862000Y-52580000D01*
G75*
G02*
X26012000Y-52430000I150000J0D01*
G01*
X26312000Y-52430000D01*
G75*
G02*
X26462000Y-52580000I0J-150000D01*
G01*
X26462000Y-54230000D01*
G75*
G02*
X26312000Y-54380000I-150000J0D01*
G01*
G37*
G36*
G01*
X25042000Y-54380000D02*
X24742000Y-54380000D01*
G75*
G02*
X24592000Y-54230000I0J150000D01*
G01*
X24592000Y-52580000D01*
G75*
G02*
X24742000Y-52430000I150000J0D01*
G01*
X25042000Y-52430000D01*
G75*
G02*
X25192000Y-52580000I0J-150000D01*
G01*
X25192000Y-54230000D01*
G75*
G02*
X25042000Y-54380000I-150000J0D01*
G01*
G37*
G36*
G01*
X23772000Y-54380000D02*
X23472000Y-54380000D01*
G75*
G02*
X23322000Y-54230000I0J150000D01*
G01*
X23322000Y-52580000D01*
G75*
G02*
X23472000Y-52430000I150000J0D01*
G01*
X23772000Y-52430000D01*
G75*
G02*
X23922000Y-52580000I0J-150000D01*
G01*
X23922000Y-54230000D01*
G75*
G02*
X23772000Y-54380000I-150000J0D01*
G01*
G37*
%TD*%
%TO.C,U15*%
G36*
G01*
X14873000Y-54614000D02*
X14673000Y-54614000D01*
G75*
G02*
X14573000Y-54514000I0J100000D01*
G01*
X14573000Y-53089000D01*
G75*
G02*
X14673000Y-52989000I100000J0D01*
G01*
X14873000Y-52989000D01*
G75*
G02*
X14973000Y-53089000I0J-100000D01*
G01*
X14973000Y-54514000D01*
G75*
G02*
X14873000Y-54614000I-100000J0D01*
G01*
G37*
G36*
G01*
X15523000Y-54614000D02*
X15323000Y-54614000D01*
G75*
G02*
X15223000Y-54514000I0J100000D01*
G01*
X15223000Y-53089000D01*
G75*
G02*
X15323000Y-52989000I100000J0D01*
G01*
X15523000Y-52989000D01*
G75*
G02*
X15623000Y-53089000I0J-100000D01*
G01*
X15623000Y-54514000D01*
G75*
G02*
X15523000Y-54614000I-100000J0D01*
G01*
G37*
G36*
G01*
X16173000Y-54614000D02*
X15973000Y-54614000D01*
G75*
G02*
X15873000Y-54514000I0J100000D01*
G01*
X15873000Y-53089000D01*
G75*
G02*
X15973000Y-52989000I100000J0D01*
G01*
X16173000Y-52989000D01*
G75*
G02*
X16273000Y-53089000I0J-100000D01*
G01*
X16273000Y-54514000D01*
G75*
G02*
X16173000Y-54614000I-100000J0D01*
G01*
G37*
G36*
G01*
X16823000Y-54614000D02*
X16623000Y-54614000D01*
G75*
G02*
X16523000Y-54514000I0J100000D01*
G01*
X16523000Y-53089000D01*
G75*
G02*
X16623000Y-52989000I100000J0D01*
G01*
X16823000Y-52989000D01*
G75*
G02*
X16923000Y-53089000I0J-100000D01*
G01*
X16923000Y-54514000D01*
G75*
G02*
X16823000Y-54614000I-100000J0D01*
G01*
G37*
G36*
G01*
X16823000Y-50389000D02*
X16623000Y-50389000D01*
G75*
G02*
X16523000Y-50289000I0J100000D01*
G01*
X16523000Y-48864000D01*
G75*
G02*
X16623000Y-48764000I100000J0D01*
G01*
X16823000Y-48764000D01*
G75*
G02*
X16923000Y-48864000I0J-100000D01*
G01*
X16923000Y-50289000D01*
G75*
G02*
X16823000Y-50389000I-100000J0D01*
G01*
G37*
G36*
G01*
X16173000Y-50389000D02*
X15973000Y-50389000D01*
G75*
G02*
X15873000Y-50289000I0J100000D01*
G01*
X15873000Y-48864000D01*
G75*
G02*
X15973000Y-48764000I100000J0D01*
G01*
X16173000Y-48764000D01*
G75*
G02*
X16273000Y-48864000I0J-100000D01*
G01*
X16273000Y-50289000D01*
G75*
G02*
X16173000Y-50389000I-100000J0D01*
G01*
G37*
G36*
G01*
X15523000Y-50389000D02*
X15323000Y-50389000D01*
G75*
G02*
X15223000Y-50289000I0J100000D01*
G01*
X15223000Y-48864000D01*
G75*
G02*
X15323000Y-48764000I100000J0D01*
G01*
X15523000Y-48764000D01*
G75*
G02*
X15623000Y-48864000I0J-100000D01*
G01*
X15623000Y-50289000D01*
G75*
G02*
X15523000Y-50389000I-100000J0D01*
G01*
G37*
G36*
G01*
X14873000Y-50389000D02*
X14673000Y-50389000D01*
G75*
G02*
X14573000Y-50289000I0J100000D01*
G01*
X14573000Y-48864000D01*
G75*
G02*
X14673000Y-48764000I100000J0D01*
G01*
X14873000Y-48764000D01*
G75*
G02*
X14973000Y-48864000I0J-100000D01*
G01*
X14973000Y-50289000D01*
G75*
G02*
X14873000Y-50389000I-100000J0D01*
G01*
G37*
%TD*%
%TO.C,U16*%
G36*
G01*
X14619000Y-72360000D02*
X14419000Y-72360000D01*
G75*
G02*
X14319000Y-72260000I0J100000D01*
G01*
X14319000Y-70835000D01*
G75*
G02*
X14419000Y-70735000I100000J0D01*
G01*
X14619000Y-70735000D01*
G75*
G02*
X14719000Y-70835000I0J-100000D01*
G01*
X14719000Y-72260000D01*
G75*
G02*
X14619000Y-72360000I-100000J0D01*
G01*
G37*
G36*
G01*
X15269000Y-72360000D02*
X15069000Y-72360000D01*
G75*
G02*
X14969000Y-72260000I0J100000D01*
G01*
X14969000Y-70835000D01*
G75*
G02*
X15069000Y-70735000I100000J0D01*
G01*
X15269000Y-70735000D01*
G75*
G02*
X15369000Y-70835000I0J-100000D01*
G01*
X15369000Y-72260000D01*
G75*
G02*
X15269000Y-72360000I-100000J0D01*
G01*
G37*
G36*
G01*
X15919000Y-72360000D02*
X15719000Y-72360000D01*
G75*
G02*
X15619000Y-72260000I0J100000D01*
G01*
X15619000Y-70835000D01*
G75*
G02*
X15719000Y-70735000I100000J0D01*
G01*
X15919000Y-70735000D01*
G75*
G02*
X16019000Y-70835000I0J-100000D01*
G01*
X16019000Y-72260000D01*
G75*
G02*
X15919000Y-72360000I-100000J0D01*
G01*
G37*
G36*
G01*
X16569000Y-72360000D02*
X16369000Y-72360000D01*
G75*
G02*
X16269000Y-72260000I0J100000D01*
G01*
X16269000Y-70835000D01*
G75*
G02*
X16369000Y-70735000I100000J0D01*
G01*
X16569000Y-70735000D01*
G75*
G02*
X16669000Y-70835000I0J-100000D01*
G01*
X16669000Y-72260000D01*
G75*
G02*
X16569000Y-72360000I-100000J0D01*
G01*
G37*
G36*
G01*
X16569000Y-76585000D02*
X16369000Y-76585000D01*
G75*
G02*
X16269000Y-76485000I0J100000D01*
G01*
X16269000Y-75060000D01*
G75*
G02*
X16369000Y-74960000I100000J0D01*
G01*
X16569000Y-74960000D01*
G75*
G02*
X16669000Y-75060000I0J-100000D01*
G01*
X16669000Y-76485000D01*
G75*
G02*
X16569000Y-76585000I-100000J0D01*
G01*
G37*
G36*
G01*
X15919000Y-76585000D02*
X15719000Y-76585000D01*
G75*
G02*
X15619000Y-76485000I0J100000D01*
G01*
X15619000Y-75060000D01*
G75*
G02*
X15719000Y-74960000I100000J0D01*
G01*
X15919000Y-74960000D01*
G75*
G02*
X16019000Y-75060000I0J-100000D01*
G01*
X16019000Y-76485000D01*
G75*
G02*
X15919000Y-76585000I-100000J0D01*
G01*
G37*
G36*
G01*
X15269000Y-76585000D02*
X15069000Y-76585000D01*
G75*
G02*
X14969000Y-76485000I0J100000D01*
G01*
X14969000Y-75060000D01*
G75*
G02*
X15069000Y-74960000I100000J0D01*
G01*
X15269000Y-74960000D01*
G75*
G02*
X15369000Y-75060000I0J-100000D01*
G01*
X15369000Y-76485000D01*
G75*
G02*
X15269000Y-76585000I-100000J0D01*
G01*
G37*
G36*
G01*
X14619000Y-76585000D02*
X14419000Y-76585000D01*
G75*
G02*
X14319000Y-76485000I0J100000D01*
G01*
X14319000Y-75060000D01*
G75*
G02*
X14419000Y-74960000I100000J0D01*
G01*
X14619000Y-74960000D01*
G75*
G02*
X14719000Y-75060000I0J-100000D01*
G01*
X14719000Y-76485000D01*
G75*
G02*
X14619000Y-76585000I-100000J0D01*
G01*
G37*
%TD*%
D55*
%TO.C,U17*%
X71541000Y-85918000D03*
X71541000Y-86868000D03*
X71541000Y-87818000D03*
X68921000Y-87818000D03*
X68921000Y-86868000D03*
X68921000Y-85918000D03*
%TD*%
D56*
%TO.C,U18*%
X89982000Y-42839000D03*
X90932000Y-42839000D03*
X91882000Y-42839000D03*
X91882000Y-40219000D03*
X90932000Y-40219000D03*
X89982000Y-40219000D03*
%TD*%
D57*
%TO.C,U19*%
X27550000Y-80143000D03*
X27550000Y-82423000D03*
X27550000Y-84703000D03*
D58*
X33850000Y-82423000D03*
%TD*%
D45*
%TO.C,U20*%
X58944000Y-38547000D03*
X58944000Y-40447000D03*
X60944000Y-39497000D03*
%TD*%
D46*
%TO.C,U21*%
X50292000Y-41799000D03*
X51242000Y-43799000D03*
X49342000Y-43799000D03*
%TD*%
D45*
%TO.C,U22*%
X79264000Y-47056000D03*
X79264000Y-48956000D03*
X81264000Y-48006000D03*
%TD*%
%TO.C,U23*%
X71771000Y-39436000D03*
X71771000Y-41336000D03*
X73771000Y-40386000D03*
%TD*%
%TO.C,U24*%
X77708000Y-53975000D03*
X75708000Y-54925000D03*
X75708000Y-53025000D03*
%TD*%
D59*
%TO.C,U25*%
X6501000Y-16382000D03*
X9501000Y-16382000D03*
D11*
G36*
X8867500Y-12432000D02*
G01*
X8867500Y-15557000D01*
X8451000Y-15557000D01*
X8451000Y-17032000D01*
X7551000Y-17032000D01*
X7551000Y-15557000D01*
X7134500Y-15557000D01*
X7134500Y-12432000D01*
X8867500Y-12432000D01*
G37*
%TD*%
%TO.C,U26*%
G36*
X8867500Y-2272000D02*
G01*
X8867500Y-5397000D01*
X8451000Y-5397000D01*
X8451000Y-6872000D01*
X7551000Y-6872000D01*
X7551000Y-5397000D01*
X7134500Y-5397000D01*
X7134500Y-2272000D01*
X8867500Y-2272000D01*
G37*
D59*
X9501000Y-6222000D03*
X6501000Y-6222000D03*
%TD*%
D31*
%TO.C,VuC1*%
X100457000Y-35306000D03*
%TD*%
D60*
%TO.C,FAST1*%
X1959000Y-45339000D03*
D61*
X2159000Y-48164000D03*
X2159000Y-42514000D03*
%TD*%
%TO.C,FREF1*%
X2159000Y-3271000D03*
X2159000Y-8921000D03*
D60*
X1959000Y-6096000D03*
%TD*%
D61*
%TO.C,FVCO1*%
X2159000Y-14701000D03*
X2159000Y-20351000D03*
D60*
X1959000Y-17526000D03*
%TD*%
D61*
%TO.C,SLOW1*%
X2159000Y-65374000D03*
X2159000Y-71024000D03*
D60*
X1959000Y-68199000D03*
%TD*%
D62*
%TO.C,DIVREF1*%
X64770000Y-10541000D03*
X59690000Y-10541000D03*
X59690000Y-5461000D03*
X64770000Y-5461000D03*
D63*
X62230000Y-8001000D03*
%TD*%
%TO.C,DIVVCO1*%
X102362000Y-8001000D03*
D62*
X104902000Y-5461000D03*
X99822000Y-5461000D03*
X99822000Y-10541000D03*
X104902000Y-10541000D03*
%TD*%
D61*
%TO.C,NFAST1*%
X2159000Y-53944000D03*
X2159000Y-59594000D03*
D60*
X1959000Y-56769000D03*
%TD*%
%TO.C,NSLOW1*%
X1959000Y-79629000D03*
D61*
X2159000Y-82454000D03*
X2159000Y-76804000D03*
%TD*%
D64*
%TO.C,JP3*%
X18415000Y-10541000D03*
D65*
X18415000Y-13081000D03*
X18415000Y-15621000D03*
%TD*%
%TO.C,JP4*%
X22098000Y-8890000D03*
X22098000Y-6350000D03*
D64*
X22098000Y-3810000D03*
%TD*%
D31*
%TO.C,5V4*%
X85852000Y-21717000D03*
%TD*%
D30*
%TO.C,C78*%
X82804000Y-17514000D03*
X82804000Y-16014000D03*
%TD*%
%TO.C,C79*%
X48895000Y-16014000D03*
X48895000Y-17514000D03*
%TD*%
%TO.C,C109*%
X78740000Y-16014000D03*
X78740000Y-17514000D03*
%TD*%
%TO.C,C110*%
X44831000Y-17514000D03*
X44831000Y-16014000D03*
%TD*%
%TO.C,C111*%
X74676000Y-17514000D03*
X74676000Y-16014000D03*
%TD*%
%TO.C,C112*%
X40767000Y-16014000D03*
X40767000Y-17514000D03*
%TD*%
%TO.C,C113*%
X70612000Y-16014000D03*
X70612000Y-17514000D03*
%TD*%
%TO.C,C114*%
X36703000Y-16014000D03*
X36703000Y-17514000D03*
%TD*%
%TO.C,C115*%
X66548000Y-17514000D03*
X66548000Y-16014000D03*
%TD*%
%TO.C,C116*%
X32639000Y-17514000D03*
X32639000Y-16014000D03*
%TD*%
%TO.C,C117*%
X62484000Y-16014000D03*
X62484000Y-17514000D03*
%TD*%
%TO.C,C118*%
X28575000Y-17514000D03*
X28575000Y-16014000D03*
%TD*%
D33*
%TO.C,C119*%
X85090000Y-19153000D03*
X85090000Y-16153000D03*
%TD*%
%TO.C,C120*%
X51181000Y-16026000D03*
X51181000Y-19026000D03*
%TD*%
D34*
%TO.C,C121*%
X89293000Y-15240000D03*
X90793000Y-15240000D03*
%TD*%
D30*
%TO.C,C122*%
X87122000Y-19165000D03*
X87122000Y-17665000D03*
%TD*%
D45*
%TO.C,U29*%
X89043000Y-17211000D03*
X89043000Y-19111000D03*
X91043000Y-18161000D03*
%TD*%
D66*
%TO.C,R8*%
X6162000Y-45339000D03*
X8062000Y-45339000D03*
%TD*%
%TO.C,R16*%
X6162000Y-68199000D03*
X8062000Y-68199000D03*
%TD*%
%TO.C,R17*%
X8062000Y-56769000D03*
X6162000Y-56769000D03*
%TD*%
%TO.C,R21*%
X8062000Y-79629000D03*
X6162000Y-79629000D03*
%TD*%
D30*
%TO.C,C104*%
X27178000Y-50788000D03*
X27178000Y-49288000D03*
%TD*%
%TO.C,C105*%
X32766000Y-55130000D03*
X32766000Y-56630000D03*
%TD*%
%TO.C,C19*%
X30734000Y-16014000D03*
X30734000Y-17514000D03*
%TD*%
D46*
%TO.C,R22*%
X18300000Y-89789000D03*
X19800000Y-89789000D03*
%TD*%
%TO.C,R23*%
X70243000Y-80772000D03*
X71743000Y-80772000D03*
%TD*%
D45*
%TO.C,R24*%
X68453000Y-82411000D03*
X68453000Y-80911000D03*
%TD*%
D37*
%TO.C,C24*%
X88916000Y-23114000D03*
X90916000Y-23114000D03*
%TD*%
M02*
