  0
SECTION
  2
HEADER
  9
$ANGBASE
  50
0.0
  9
$ANGDIR
  70
1
  9
$MEASUREMENT
  70
0
  0
ENDSEC
  0
SECTION
  2
TABLES
  0
TABLE
  2
LTYPE
  70
4
  0
LTYPE
  5
40F
  2
CONTINUOUS
  70
0
  3
Solid line
  72
65
  73
0
  40
0.0
  0
LTYPE
  5
410
  2
DASHDOT
 70
0
  3
Dash Dot ____ _ ____ _
 72
65
 73
4
 40
2.0
 49
1.25
 49
-0.25
 49
0.25
 49
-0.25
  0
LTYPE
  5
411
  2
DASHED
 70
0
  3
Dashed __ __ __ __ __
 72
65
 73
2
 40
0.75
 49
0.5
 49
-0.25
  0
LTYPE
  5
43B
  2
DOTTED
 70
0
  3
Dotted .  .  .  .
 72
65
 73
2
 40
0.2
 49
0.0
 49
-0.2
  0
ENDTAB
  0
TABLE
  2
STYLE
  70
4
  0
STYLE
  2
KICAD
  70
0
  40
0
  41
1
  42
1
  50
0
  71
0
  3
isocp.shx
  0
STYLE
  2
KICADB
  70
0
  40
0
  41
1
  42
1
  50
0
  71
0
  3
isocp.shx
  0
STYLE
  2
KICADI
  70
0
  40
0
  41
1
  42
1
  50
15
  71
0
  3
isocp.shx
  0
STYLE
  2
KICADBI
  70
0
  40
0
  41
1
  42
1
  50
15
  71
0
  3
isocp.shx
  0
ENDTAB
  0
TABLE
  2
LAYER
  70
1
  0
LAYER
  2
BLACK
  70
0
  62
7
  6
CONTINUOUS
  0
ENDTAB
  0
ENDSEC
  0
SECTION
  2
ENTITIES
0
LINE
8
BLACK
6
CONTINUOUS
10
0.535048
20
0.000984252
11
0.535048
21
0.000984252
0
LINE
8
BLACK
6
CONTINUOUS
10
0.535048
20
0.000984252
11
0.535193
21
0.000969961
0
LINE
8
BLACK
6
CONTINUOUS
10
0.535193
20
0.000969961
11
0.535378
21
0.000913701
0
LINE
8
BLACK
6
CONTINUOUS
10
0.535378
20
0.000913701
11
0.535549
21
0.000822323
0
LINE
8
BLACK
6
CONTINUOUS
10
0.535549
20
0.000822323
11
0.535699
21
0.000699331
0
LINE
8
BLACK
6
CONTINUOUS
10
0.535699
20
0.000699331
11
0.535822
21
0.000549449
0
LINE
8
BLACK
6
CONTINUOUS
10
0.535822
20
0.000549449
11
0.535914
21
0.000378465
0
LINE
8
BLACK
6
CONTINUOUS
10
0.535914
20
0.000378465
11
0.53597
21
0.000192953
0
LINE
8
BLACK
6
CONTINUOUS
10
0.53597
20
0.000192953
11
0.535989
21
0
0
LINE
8
BLACK
6
CONTINUOUS
10
0.535989
20
0
11
0.535984
21
-4.79528e-05
0
LINE
8
BLACK
6
CONTINUOUS
10
0.535984
20
-4.79528e-05
11
0.535984
21
-0.564952
0
LINE
8
BLACK
6
CONTINUOUS
10
0.535984
20
-0.564952
11
0.535989
21
-0.565
0
LINE
8
BLACK
6
CONTINUOUS
10
0.535989
20
-0.565
11
0.535984
21
-0.565048
0
LINE
8
BLACK
6
CONTINUOUS
10
0.535984
20
-0.565048
11
0.53597
21
-0.565193
0
LINE
8
BLACK
6
CONTINUOUS
10
0.53597
20
-0.565193
11
0.535914
21
-0.565378
0
LINE
8
BLACK
6
CONTINUOUS
10
0.535914
20
-0.565378
11
0.535822
21
-0.565549
0
LINE
8
BLACK
6
CONTINUOUS
10
0.535822
20
-0.565549
11
0.535699
21
-0.565699
0
LINE
8
BLACK
6
CONTINUOUS
10
0.535699
20
-0.565699
11
0.535549
21
-0.565822
0
LINE
8
BLACK
6
CONTINUOUS
10
0.535549
20
-0.565822
11
0.535378
21
-0.565914
0
LINE
8
BLACK
6
CONTINUOUS
10
0.535378
20
-0.565914
11
0.535193
21
-0.56597
0
LINE
8
BLACK
6
CONTINUOUS
10
0.535193
20
-0.56597
11
0.535
21
-0.565989
0
LINE
8
BLACK
6
CONTINUOUS
10
0.535
20
-0.565989
11
0.534952
21
-0.565984
0
LINE
8
BLACK
6
CONTINUOUS
10
0.534952
20
-0.565984
11
4.79528e-05
21
-0.565984
0
LINE
8
BLACK
6
CONTINUOUS
10
4.79528e-05
20
-0.565984
11
0
21
-0.565989
0
LINE
8
BLACK
6
CONTINUOUS
10
0
20
-0.565989
11
-4.79134e-05
21
-0.565984
0
LINE
8
BLACK
6
CONTINUOUS
10
-4.79134e-05
20
-0.565984
11
-4.79528e-05
21
-0.565984
0
LINE
8
BLACK
6
CONTINUOUS
10
-4.79528e-05
20
-0.565984
11
-0.000192953
21
-0.56597
0
LINE
8
BLACK
6
CONTINUOUS
10
-0.000192953
20
-0.56597
11
-0.000378465
21
-0.565914
0
LINE
8
BLACK
6
CONTINUOUS
10
-0.000378465
20
-0.565914
11
-0.000549449
21
-0.565822
0
LINE
8
BLACK
6
CONTINUOUS
10
-0.000549449
20
-0.565822
11
-0.000699331
21
-0.565699
0
LINE
8
BLACK
6
CONTINUOUS
10
-0.000699331
20
-0.565699
11
-0.000822323
21
-0.565549
0
LINE
8
BLACK
6
CONTINUOUS
10
-0.000822323
20
-0.565549
11
-0.000913701
21
-0.565378
0
LINE
8
BLACK
6
CONTINUOUS
10
-0.000913701
20
-0.565378
11
-0.000969961
21
-0.565193
0
LINE
8
BLACK
6
CONTINUOUS
10
-0.000969961
20
-0.565193
11
-0.000988976
21
-0.565
0
LINE
8
BLACK
6
CONTINUOUS
10
-0.000988976
20
-0.565
11
-0.000984213
21
-0.564952
0
LINE
8
BLACK
6
CONTINUOUS
10
-0.000984213
20
-0.564952
11
-0.000984252
21
-4.79528e-05
0
LINE
8
BLACK
6
CONTINUOUS
10
-0.000984252
20
-4.79528e-05
11
-0.000988976
21
0
0
LINE
8
BLACK
6
CONTINUOUS
10
-0.000988976
20
0
11
-0.000969961
21
0.000192953
0
LINE
8
BLACK
6
CONTINUOUS
10
-0.000969961
20
0.000192953
11
-0.000913701
21
0.000378465
0
LINE
8
BLACK
6
CONTINUOUS
10
-0.000913701
20
0.000378465
11
-0.000822323
21
0.000549449
0
LINE
8
BLACK
6
CONTINUOUS
10
-0.000822323
20
0.000549449
11
-0.000699331
21
0.000699331
0
LINE
8
BLACK
6
CONTINUOUS
10
-0.000699331
20
0.000699331
11
-0.000549449
21
0.000822323
0
LINE
8
BLACK
6
CONTINUOUS
10
-0.000549449
20
0.000822323
11
-0.000378465
21
0.000913701
0
LINE
8
BLACK
6
CONTINUOUS
10
-0.000378465
20
0.000913701
11
-0.000192953
21
0.000969961
0
LINE
8
BLACK
6
CONTINUOUS
10
-0.000192953
20
0.000969961
11
-4.79528e-05
21
0.000984252
0
LINE
8
BLACK
6
CONTINUOUS
10
-4.79528e-05
20
0.000984252
11
0
21
0.000988976
0
LINE
8
BLACK
6
CONTINUOUS
10
0
20
0.000988976
11
4.79134e-05
21
0.000984252
0
LINE
8
BLACK
6
CONTINUOUS
10
4.79134e-05
20
0.000984252
11
0.534952
21
0.000984252
0
LINE
8
BLACK
6
CONTINUOUS
10
0.534952
20
0.000984252
11
0.535
21
0.000988976
0
LINE
8
BLACK
6
CONTINUOUS
10
0.535
20
0.000988976
11
0.535048
21
0.000984252
0
LINE
8
BLACK
6
CONTINUOUS
10
0.000984252
20
-0.000984252
11
0.000984252
21
-0.564016
0
LINE
8
BLACK
6
CONTINUOUS
10
0.000984252
20
-0.564016
11
0.534016
21
-0.564016
0
LINE
8
BLACK
6
CONTINUOUS
10
0.534016
20
-0.564016
11
0.534016
21
-0.000984252
0
LINE
8
BLACK
6
CONTINUOUS
10
0.534016
20
-0.000984252
11
0.000984252
21
-0.000984252
  0
ENDSEC
  0
EOF
