%TF.GenerationSoftware,KiCad,Pcbnew,7.0.11*%
%TF.CreationDate,2025-01-07T11:11:01+01:00*%
%TF.ProjectId,HF_phase_detector,48465f70-6861-4736-955f-646574656374,rev?*%
%TF.SameCoordinates,Original*%
%TF.FileFunction,Legend,Bot*%
%TF.FilePolarity,Positive*%
%FSLAX46Y46*%
G04 Gerber Fmt 4.6, Leading zero omitted, Abs format (unit mm)*
G04 Created by KiCad (PCBNEW 7.0.11) date 2025-01-07 11:11:01*
%MOMM*%
%LPD*%
G01*
G04 APERTURE LIST*
G04 Aperture macros list*
%AMRoundRect*
0 Rectangle with rounded corners*
0 $1 Rounding radius*
0 $2 $3 $4 $5 $6 $7 $8 $9 X,Y pos of 4 corners*
0 Add a 4 corners polygon primitive as box body*
4,1,4,$2,$3,$4,$5,$6,$7,$8,$9,$2,$3,0*
0 Add four circle primitives for the rounded corners*
1,1,$1+$1,$2,$3*
1,1,$1+$1,$4,$5*
1,1,$1+$1,$6,$7*
1,1,$1+$1,$8,$9*
0 Add four rect primitives between the rounded corners*
20,1,$1+$1,$2,$3,$4,$5,0*
20,1,$1+$1,$4,$5,$6,$7,0*
20,1,$1+$1,$6,$7,$8,$9,0*
20,1,$1+$1,$8,$9,$2,$3,0*%
G04 Aperture macros list end*
%ADD10C,0.300000*%
%ADD11C,0.240000*%
%ADD12C,0.120000*%
%ADD13C,0.150000*%
%ADD14C,0.152400*%
%ADD15RoundRect,0.050000X-0.750000X-0.750000X0.750000X-0.750000X0.750000X0.750000X-0.750000X0.750000X0*%
%ADD16RoundRect,0.050000X-0.850000X0.850000X-0.850000X-0.850000X0.850000X-0.850000X0.850000X0.850000X0*%
%ADD17O,1.800000X1.800000*%
%ADD18C,2.150000*%
%ADD19C,2.350000*%
%ADD20C,2.300000*%
%ADD21C,5.700000*%
%ADD22RoundRect,0.050000X0.850000X0.850000X-0.850000X0.850000X-0.850000X-0.850000X0.850000X-0.850000X0*%
%ADD23C,1.100000*%
%ADD24C,4.800000*%
%ADD25RoundRect,0.050000X-0.750000X0.750000X-0.750000X-0.750000X0.750000X-0.750000X0.750000X0.750000X0*%
%ADD26C,0.599999*%
%ADD27C,0.700000*%
%ADD28RoundRect,0.050000X-1.000000X0.750000X-1.000000X-0.750000X1.000000X-0.750000X1.000000X0.750000X0*%
%ADD29O,2.100000X1.600000*%
%ADD30RoundRect,0.050000X0.850000X-0.850000X0.850000X0.850000X-0.850000X0.850000X-0.850000X-0.850000X0*%
%ADD31RoundRect,0.264706X-0.635294X0.635294X-0.635294X-0.635294X0.635294X-0.635294X0.635294X0.635294X0*%
%ADD32C,1.800000*%
%ADD33C,1.540000*%
%ADD34RoundRect,0.262018X-1.587982X0.827982X-1.587982X-0.827982X1.587982X-0.827982X1.587982X0.827982X0*%
%ADD35O,3.700000X2.180000*%
%ADD36C,2.100000*%
%ADD37RoundRect,0.101600X1.500000X0.975000X-1.500000X0.975000X-1.500000X-0.975000X1.500000X-0.975000X0*%
%ADD38O,4.103200X2.153200*%
%ADD39C,2.153200*%
%ADD40RoundRect,0.050000X-0.850000X-0.850000X0.850000X-0.850000X0.850000X0.850000X-0.850000X0.850000X0*%
%ADD41RoundRect,0.264706X0.635294X0.635294X-0.635294X0.635294X-0.635294X-0.635294X0.635294X-0.635294X0*%
G04 APERTURE END LIST*
D10*
X52508328Y-36189060D02*
X53508328Y-36189060D01*
X52651185Y-36189060D02*
X52579757Y-36260489D01*
X52579757Y-36260489D02*
X52508328Y-36403346D01*
X52508328Y-36403346D02*
X52508328Y-36617632D01*
X52508328Y-36617632D02*
X52579757Y-36760489D01*
X52579757Y-36760489D02*
X52722614Y-36831918D01*
X52722614Y-36831918D02*
X53508328Y-36831918D01*
X53508328Y-37760489D02*
X53436900Y-37617632D01*
X53436900Y-37617632D02*
X53365471Y-37546203D01*
X53365471Y-37546203D02*
X53222614Y-37474775D01*
X53222614Y-37474775D02*
X52794042Y-37474775D01*
X52794042Y-37474775D02*
X52651185Y-37546203D01*
X52651185Y-37546203D02*
X52579757Y-37617632D01*
X52579757Y-37617632D02*
X52508328Y-37760489D01*
X52508328Y-37760489D02*
X52508328Y-37974775D01*
X52508328Y-37974775D02*
X52579757Y-38117632D01*
X52579757Y-38117632D02*
X52651185Y-38189061D01*
X52651185Y-38189061D02*
X52794042Y-38260489D01*
X52794042Y-38260489D02*
X53222614Y-38260489D01*
X53222614Y-38260489D02*
X53365471Y-38189061D01*
X53365471Y-38189061D02*
X53436900Y-38117632D01*
X53436900Y-38117632D02*
X53508328Y-37974775D01*
X53508328Y-37974775D02*
X53508328Y-37760489D01*
X53508328Y-38903346D02*
X52508328Y-38903346D01*
X52794042Y-38903346D02*
X52651185Y-38974775D01*
X52651185Y-38974775D02*
X52579757Y-39046204D01*
X52579757Y-39046204D02*
X52508328Y-39189061D01*
X52508328Y-39189061D02*
X52508328Y-39331918D01*
X53508328Y-39831917D02*
X52508328Y-39831917D01*
X52651185Y-39831917D02*
X52579757Y-39903346D01*
X52579757Y-39903346D02*
X52508328Y-40046203D01*
X52508328Y-40046203D02*
X52508328Y-40260489D01*
X52508328Y-40260489D02*
X52579757Y-40403346D01*
X52579757Y-40403346D02*
X52722614Y-40474775D01*
X52722614Y-40474775D02*
X53508328Y-40474775D01*
X52722614Y-40474775D02*
X52579757Y-40546203D01*
X52579757Y-40546203D02*
X52508328Y-40689060D01*
X52508328Y-40689060D02*
X52508328Y-40903346D01*
X52508328Y-40903346D02*
X52579757Y-41046203D01*
X52579757Y-41046203D02*
X52722614Y-41117632D01*
X52722614Y-41117632D02*
X53508328Y-41117632D01*
X53508328Y-42474775D02*
X52722614Y-42474775D01*
X52722614Y-42474775D02*
X52579757Y-42403346D01*
X52579757Y-42403346D02*
X52508328Y-42260489D01*
X52508328Y-42260489D02*
X52508328Y-41974775D01*
X52508328Y-41974775D02*
X52579757Y-41831917D01*
X53436900Y-42474775D02*
X53508328Y-42331917D01*
X53508328Y-42331917D02*
X53508328Y-41974775D01*
X53508328Y-41974775D02*
X53436900Y-41831917D01*
X53436900Y-41831917D02*
X53294042Y-41760489D01*
X53294042Y-41760489D02*
X53151185Y-41760489D01*
X53151185Y-41760489D02*
X53008328Y-41831917D01*
X53008328Y-41831917D02*
X52936900Y-41974775D01*
X52936900Y-41974775D02*
X52936900Y-42331917D01*
X52936900Y-42331917D02*
X52865471Y-42474775D01*
X53508328Y-43403346D02*
X53436900Y-43260489D01*
X53436900Y-43260489D02*
X53294042Y-43189060D01*
X53294042Y-43189060D02*
X52008328Y-43189060D01*
X55923328Y-35831916D02*
X55851900Y-35689059D01*
X55851900Y-35689059D02*
X55780471Y-35617630D01*
X55780471Y-35617630D02*
X55637614Y-35546202D01*
X55637614Y-35546202D02*
X55209042Y-35546202D01*
X55209042Y-35546202D02*
X55066185Y-35617630D01*
X55066185Y-35617630D02*
X54994757Y-35689059D01*
X54994757Y-35689059D02*
X54923328Y-35831916D01*
X54923328Y-35831916D02*
X54923328Y-36046202D01*
X54923328Y-36046202D02*
X54994757Y-36189059D01*
X54994757Y-36189059D02*
X55066185Y-36260488D01*
X55066185Y-36260488D02*
X55209042Y-36331916D01*
X55209042Y-36331916D02*
X55637614Y-36331916D01*
X55637614Y-36331916D02*
X55780471Y-36260488D01*
X55780471Y-36260488D02*
X55851900Y-36189059D01*
X55851900Y-36189059D02*
X55923328Y-36046202D01*
X55923328Y-36046202D02*
X55923328Y-35831916D01*
X54923328Y-37617631D02*
X55923328Y-37617631D01*
X54923328Y-36974773D02*
X55709042Y-36974773D01*
X55709042Y-36974773D02*
X55851900Y-37046202D01*
X55851900Y-37046202D02*
X55923328Y-37189059D01*
X55923328Y-37189059D02*
X55923328Y-37403345D01*
X55923328Y-37403345D02*
X55851900Y-37546202D01*
X55851900Y-37546202D02*
X55780471Y-37617631D01*
X54923328Y-38117631D02*
X54923328Y-38689059D01*
X54423328Y-38331916D02*
X55709042Y-38331916D01*
X55709042Y-38331916D02*
X55851900Y-38403345D01*
X55851900Y-38403345D02*
X55923328Y-38546202D01*
X55923328Y-38546202D02*
X55923328Y-38689059D01*
X54923328Y-39189059D02*
X56423328Y-39189059D01*
X54994757Y-39189059D02*
X54923328Y-39331917D01*
X54923328Y-39331917D02*
X54923328Y-39617631D01*
X54923328Y-39617631D02*
X54994757Y-39760488D01*
X54994757Y-39760488D02*
X55066185Y-39831917D01*
X55066185Y-39831917D02*
X55209042Y-39903345D01*
X55209042Y-39903345D02*
X55637614Y-39903345D01*
X55637614Y-39903345D02*
X55780471Y-39831917D01*
X55780471Y-39831917D02*
X55851900Y-39760488D01*
X55851900Y-39760488D02*
X55923328Y-39617631D01*
X55923328Y-39617631D02*
X55923328Y-39331917D01*
X55923328Y-39331917D02*
X55851900Y-39189059D01*
X54923328Y-41189060D02*
X55923328Y-41189060D01*
X54923328Y-40546202D02*
X55709042Y-40546202D01*
X55709042Y-40546202D02*
X55851900Y-40617631D01*
X55851900Y-40617631D02*
X55923328Y-40760488D01*
X55923328Y-40760488D02*
X55923328Y-40974774D01*
X55923328Y-40974774D02*
X55851900Y-41117631D01*
X55851900Y-41117631D02*
X55780471Y-41189060D01*
X54923328Y-41689060D02*
X54923328Y-42260488D01*
X54423328Y-41903345D02*
X55709042Y-41903345D01*
X55709042Y-41903345D02*
X55851900Y-41974774D01*
X55851900Y-41974774D02*
X55923328Y-42117631D01*
X55923328Y-42117631D02*
X55923328Y-42260488D01*
X55851900Y-42689060D02*
X55923328Y-42831917D01*
X55923328Y-42831917D02*
X55923328Y-43117631D01*
X55923328Y-43117631D02*
X55851900Y-43260488D01*
X55851900Y-43260488D02*
X55709042Y-43331917D01*
X55709042Y-43331917D02*
X55637614Y-43331917D01*
X55637614Y-43331917D02*
X55494757Y-43260488D01*
X55494757Y-43260488D02*
X55423328Y-43117631D01*
X55423328Y-43117631D02*
X55423328Y-42903346D01*
X55423328Y-42903346D02*
X55351900Y-42760488D01*
X55351900Y-42760488D02*
X55209042Y-42689060D01*
X55209042Y-42689060D02*
X55137614Y-42689060D01*
X55137614Y-42689060D02*
X54994757Y-42760488D01*
X54994757Y-42760488D02*
X54923328Y-42903346D01*
X54923328Y-42903346D02*
X54923328Y-43117631D01*
X54923328Y-43117631D02*
X54994757Y-43260488D01*
X58338328Y-37689060D02*
X57338328Y-37689060D01*
X56838328Y-37689060D02*
X56909757Y-37617632D01*
X56909757Y-37617632D02*
X56981185Y-37689060D01*
X56981185Y-37689060D02*
X56909757Y-37760489D01*
X56909757Y-37760489D02*
X56838328Y-37689060D01*
X56838328Y-37689060D02*
X56981185Y-37689060D01*
X57338328Y-38403346D02*
X58338328Y-38403346D01*
X57481185Y-38403346D02*
X57409757Y-38474775D01*
X57409757Y-38474775D02*
X57338328Y-38617632D01*
X57338328Y-38617632D02*
X57338328Y-38831918D01*
X57338328Y-38831918D02*
X57409757Y-38974775D01*
X57409757Y-38974775D02*
X57552614Y-39046204D01*
X57552614Y-39046204D02*
X58338328Y-39046204D01*
X57338328Y-39617632D02*
X58338328Y-39974775D01*
X58338328Y-39974775D02*
X57338328Y-40331918D01*
X58266900Y-41474775D02*
X58338328Y-41331918D01*
X58338328Y-41331918D02*
X58338328Y-41046204D01*
X58338328Y-41046204D02*
X58266900Y-40903346D01*
X58266900Y-40903346D02*
X58124042Y-40831918D01*
X58124042Y-40831918D02*
X57552614Y-40831918D01*
X57552614Y-40831918D02*
X57409757Y-40903346D01*
X57409757Y-40903346D02*
X57338328Y-41046204D01*
X57338328Y-41046204D02*
X57338328Y-41331918D01*
X57338328Y-41331918D02*
X57409757Y-41474775D01*
X57409757Y-41474775D02*
X57552614Y-41546204D01*
X57552614Y-41546204D02*
X57695471Y-41546204D01*
X57695471Y-41546204D02*
X57838328Y-40831918D01*
X58338328Y-42189060D02*
X57338328Y-42189060D01*
X57624042Y-42189060D02*
X57481185Y-42260489D01*
X57481185Y-42260489D02*
X57409757Y-42331918D01*
X57409757Y-42331918D02*
X57338328Y-42474775D01*
X57338328Y-42474775D02*
X57338328Y-42617632D01*
X57338328Y-42903346D02*
X57338328Y-43474774D01*
X56838328Y-43117631D02*
X58124042Y-43117631D01*
X58124042Y-43117631D02*
X58266900Y-43189060D01*
X58266900Y-43189060D02*
X58338328Y-43331917D01*
X58338328Y-43331917D02*
X58338328Y-43474774D01*
D11*
X72386662Y-67394677D02*
X72386662Y-67851820D01*
X73186662Y-67566106D02*
X72158091Y-67566106D01*
X72158091Y-67566106D02*
X72043805Y-67623249D01*
X72043805Y-67623249D02*
X71986662Y-67737534D01*
X71986662Y-67737534D02*
X71986662Y-67851820D01*
X73186662Y-69851820D02*
X72615234Y-69451820D01*
X73186662Y-69166106D02*
X71986662Y-69166106D01*
X71986662Y-69166106D02*
X71986662Y-69623249D01*
X71986662Y-69623249D02*
X72043805Y-69737534D01*
X72043805Y-69737534D02*
X72100948Y-69794677D01*
X72100948Y-69794677D02*
X72215234Y-69851820D01*
X72215234Y-69851820D02*
X72386662Y-69851820D01*
X72386662Y-69851820D02*
X72500948Y-69794677D01*
X72500948Y-69794677D02*
X72558091Y-69737534D01*
X72558091Y-69737534D02*
X72615234Y-69623249D01*
X72615234Y-69623249D02*
X72615234Y-69166106D01*
X72558091Y-70366106D02*
X72558091Y-70766106D01*
X73186662Y-70937534D02*
X73186662Y-70366106D01*
X73186662Y-70366106D02*
X71986662Y-70366106D01*
X71986662Y-70366106D02*
X71986662Y-70937534D01*
X72558091Y-71851820D02*
X72558091Y-71451820D01*
X73186662Y-71451820D02*
X71986662Y-71451820D01*
X71986662Y-71451820D02*
X71986662Y-72023248D01*
X71929520Y-74251820D02*
X73472377Y-73223248D01*
X73186662Y-76194677D02*
X73186662Y-75508963D01*
X73186662Y-75851820D02*
X71986662Y-75851820D01*
X71986662Y-75851820D02*
X72158091Y-75737534D01*
X72158091Y-75737534D02*
X72272377Y-75623249D01*
X72272377Y-75623249D02*
X72329520Y-75508963D01*
X71986662Y-77223249D02*
X71986662Y-76994677D01*
X71986662Y-76994677D02*
X72043805Y-76880391D01*
X72043805Y-76880391D02*
X72100948Y-76823249D01*
X72100948Y-76823249D02*
X72272377Y-76708963D01*
X72272377Y-76708963D02*
X72500948Y-76651820D01*
X72500948Y-76651820D02*
X72958091Y-76651820D01*
X72958091Y-76651820D02*
X73072377Y-76708963D01*
X73072377Y-76708963D02*
X73129520Y-76766106D01*
X73129520Y-76766106D02*
X73186662Y-76880391D01*
X73186662Y-76880391D02*
X73186662Y-77108963D01*
X73186662Y-77108963D02*
X73129520Y-77223249D01*
X73129520Y-77223249D02*
X73072377Y-77280391D01*
X73072377Y-77280391D02*
X72958091Y-77337534D01*
X72958091Y-77337534D02*
X72672377Y-77337534D01*
X72672377Y-77337534D02*
X72558091Y-77280391D01*
X72558091Y-77280391D02*
X72500948Y-77223249D01*
X72500948Y-77223249D02*
X72443805Y-77108963D01*
X72443805Y-77108963D02*
X72443805Y-76880391D01*
X72443805Y-76880391D02*
X72500948Y-76766106D01*
X72500948Y-76766106D02*
X72558091Y-76708963D01*
X72558091Y-76708963D02*
X72672377Y-76651820D01*
X77466662Y-68537534D02*
X77466662Y-68994677D01*
X78266662Y-68708963D02*
X77238091Y-68708963D01*
X77238091Y-68708963D02*
X77123805Y-68766106D01*
X77123805Y-68766106D02*
X77066662Y-68880391D01*
X77066662Y-68880391D02*
X77066662Y-68994677D01*
X78266662Y-70994677D02*
X77695234Y-70594677D01*
X78266662Y-70308963D02*
X77066662Y-70308963D01*
X77066662Y-70308963D02*
X77066662Y-70766106D01*
X77066662Y-70766106D02*
X77123805Y-70880391D01*
X77123805Y-70880391D02*
X77180948Y-70937534D01*
X77180948Y-70937534D02*
X77295234Y-70994677D01*
X77295234Y-70994677D02*
X77466662Y-70994677D01*
X77466662Y-70994677D02*
X77580948Y-70937534D01*
X77580948Y-70937534D02*
X77638091Y-70880391D01*
X77638091Y-70880391D02*
X77695234Y-70766106D01*
X77695234Y-70766106D02*
X77695234Y-70308963D01*
X77638091Y-71508963D02*
X77638091Y-71908963D01*
X78266662Y-72080391D02*
X78266662Y-71508963D01*
X78266662Y-71508963D02*
X77066662Y-71508963D01*
X77066662Y-71508963D02*
X77066662Y-72080391D01*
X77638091Y-72994677D02*
X77638091Y-72594677D01*
X78266662Y-72594677D02*
X77066662Y-72594677D01*
X77066662Y-72594677D02*
X77066662Y-73166105D01*
X77009520Y-75394677D02*
X78552377Y-74366105D01*
X77466662Y-77223249D02*
X78266662Y-77223249D01*
X77009520Y-76937534D02*
X77866662Y-76651820D01*
X77866662Y-76651820D02*
X77866662Y-77394677D01*
D10*
X107610328Y-30994796D02*
X107538900Y-30851939D01*
X107538900Y-30851939D02*
X107396042Y-30780510D01*
X107396042Y-30780510D02*
X106110328Y-30780510D01*
X107610328Y-31780510D02*
X107538900Y-31637653D01*
X107538900Y-31637653D02*
X107467471Y-31566224D01*
X107467471Y-31566224D02*
X107324614Y-31494796D01*
X107324614Y-31494796D02*
X106896042Y-31494796D01*
X106896042Y-31494796D02*
X106753185Y-31566224D01*
X106753185Y-31566224D02*
X106681757Y-31637653D01*
X106681757Y-31637653D02*
X106610328Y-31780510D01*
X106610328Y-31780510D02*
X106610328Y-31994796D01*
X106610328Y-31994796D02*
X106681757Y-32137653D01*
X106681757Y-32137653D02*
X106753185Y-32209082D01*
X106753185Y-32209082D02*
X106896042Y-32280510D01*
X106896042Y-32280510D02*
X107324614Y-32280510D01*
X107324614Y-32280510D02*
X107467471Y-32209082D01*
X107467471Y-32209082D02*
X107538900Y-32137653D01*
X107538900Y-32137653D02*
X107610328Y-31994796D01*
X107610328Y-31994796D02*
X107610328Y-31780510D01*
X106610328Y-32780510D02*
X107610328Y-33066225D01*
X107610328Y-33066225D02*
X106896042Y-33351939D01*
X106896042Y-33351939D02*
X107610328Y-33637653D01*
X107610328Y-33637653D02*
X106610328Y-33923367D01*
X109025328Y-30566225D02*
X109025328Y-31137653D01*
X110025328Y-30780510D02*
X108739614Y-30780510D01*
X108739614Y-30780510D02*
X108596757Y-30851939D01*
X108596757Y-30851939D02*
X108525328Y-30994796D01*
X108525328Y-30994796D02*
X108525328Y-31137653D01*
X110025328Y-31637653D02*
X109025328Y-31637653D01*
X109311042Y-31637653D02*
X109168185Y-31709082D01*
X109168185Y-31709082D02*
X109096757Y-31780511D01*
X109096757Y-31780511D02*
X109025328Y-31923368D01*
X109025328Y-31923368D02*
X109025328Y-32066225D01*
X109953900Y-33137653D02*
X110025328Y-32994796D01*
X110025328Y-32994796D02*
X110025328Y-32709082D01*
X110025328Y-32709082D02*
X109953900Y-32566224D01*
X109953900Y-32566224D02*
X109811042Y-32494796D01*
X109811042Y-32494796D02*
X109239614Y-32494796D01*
X109239614Y-32494796D02*
X109096757Y-32566224D01*
X109096757Y-32566224D02*
X109025328Y-32709082D01*
X109025328Y-32709082D02*
X109025328Y-32994796D01*
X109025328Y-32994796D02*
X109096757Y-33137653D01*
X109096757Y-33137653D02*
X109239614Y-33209082D01*
X109239614Y-33209082D02*
X109382471Y-33209082D01*
X109382471Y-33209082D02*
X109525328Y-32494796D01*
X109025328Y-34494796D02*
X110525328Y-34494796D01*
X109953900Y-34494796D02*
X110025328Y-34351938D01*
X110025328Y-34351938D02*
X110025328Y-34066224D01*
X110025328Y-34066224D02*
X109953900Y-33923367D01*
X109953900Y-33923367D02*
X109882471Y-33851938D01*
X109882471Y-33851938D02*
X109739614Y-33780510D01*
X109739614Y-33780510D02*
X109311042Y-33780510D01*
X109311042Y-33780510D02*
X109168185Y-33851938D01*
X109168185Y-33851938D02*
X109096757Y-33923367D01*
X109096757Y-33923367D02*
X109025328Y-34066224D01*
X109025328Y-34066224D02*
X109025328Y-34351938D01*
X109025328Y-34351938D02*
X109096757Y-34494796D01*
X109882471Y-35209081D02*
X109953900Y-35280510D01*
X109953900Y-35280510D02*
X110025328Y-35209081D01*
X110025328Y-35209081D02*
X109953900Y-35137653D01*
X109953900Y-35137653D02*
X109882471Y-35209081D01*
X109882471Y-35209081D02*
X110025328Y-35209081D01*
X112440328Y-30780510D02*
X110940328Y-30780510D01*
X112440328Y-31423368D02*
X111654614Y-31423368D01*
X111654614Y-31423368D02*
X111511757Y-31351939D01*
X111511757Y-31351939D02*
X111440328Y-31209082D01*
X111440328Y-31209082D02*
X111440328Y-30994796D01*
X111440328Y-30994796D02*
X111511757Y-30851939D01*
X111511757Y-30851939D02*
X111583185Y-30780510D01*
X112440328Y-32137653D02*
X111440328Y-32137653D01*
X110940328Y-32137653D02*
X111011757Y-32066225D01*
X111011757Y-32066225D02*
X111083185Y-32137653D01*
X111083185Y-32137653D02*
X111011757Y-32209082D01*
X111011757Y-32209082D02*
X110940328Y-32137653D01*
X110940328Y-32137653D02*
X111083185Y-32137653D01*
X111440328Y-33494797D02*
X112654614Y-33494797D01*
X112654614Y-33494797D02*
X112797471Y-33423368D01*
X112797471Y-33423368D02*
X112868900Y-33351939D01*
X112868900Y-33351939D02*
X112940328Y-33209082D01*
X112940328Y-33209082D02*
X112940328Y-32994797D01*
X112940328Y-32994797D02*
X112868900Y-32851939D01*
X112368900Y-33494797D02*
X112440328Y-33351939D01*
X112440328Y-33351939D02*
X112440328Y-33066225D01*
X112440328Y-33066225D02*
X112368900Y-32923368D01*
X112368900Y-32923368D02*
X112297471Y-32851939D01*
X112297471Y-32851939D02*
X112154614Y-32780511D01*
X112154614Y-32780511D02*
X111726042Y-32780511D01*
X111726042Y-32780511D02*
X111583185Y-32851939D01*
X111583185Y-32851939D02*
X111511757Y-32923368D01*
X111511757Y-32923368D02*
X111440328Y-33066225D01*
X111440328Y-33066225D02*
X111440328Y-33351939D01*
X111440328Y-33351939D02*
X111511757Y-33494797D01*
X112440328Y-34209082D02*
X110940328Y-34209082D01*
X112440328Y-34851940D02*
X111654614Y-34851940D01*
X111654614Y-34851940D02*
X111511757Y-34780511D01*
X111511757Y-34780511D02*
X111440328Y-34637654D01*
X111440328Y-34637654D02*
X111440328Y-34423368D01*
X111440328Y-34423368D02*
X111511757Y-34280511D01*
X111511757Y-34280511D02*
X111583185Y-34209082D01*
X9069828Y-35825999D02*
X7569828Y-35825999D01*
X7569828Y-35825999D02*
X7569828Y-36397428D01*
X7569828Y-36397428D02*
X7641257Y-36540285D01*
X7641257Y-36540285D02*
X7712685Y-36611714D01*
X7712685Y-36611714D02*
X7855542Y-36683142D01*
X7855542Y-36683142D02*
X8069828Y-36683142D01*
X8069828Y-36683142D02*
X8212685Y-36611714D01*
X8212685Y-36611714D02*
X8284114Y-36540285D01*
X8284114Y-36540285D02*
X8355542Y-36397428D01*
X8355542Y-36397428D02*
X8355542Y-35825999D01*
X9069828Y-37325999D02*
X7569828Y-37325999D01*
X11484828Y-33575999D02*
X11413400Y-33433142D01*
X11413400Y-33433142D02*
X11341971Y-33361713D01*
X11341971Y-33361713D02*
X11199114Y-33290285D01*
X11199114Y-33290285D02*
X10770542Y-33290285D01*
X10770542Y-33290285D02*
X10627685Y-33361713D01*
X10627685Y-33361713D02*
X10556257Y-33433142D01*
X10556257Y-33433142D02*
X10484828Y-33575999D01*
X10484828Y-33575999D02*
X10484828Y-33790285D01*
X10484828Y-33790285D02*
X10556257Y-33933142D01*
X10556257Y-33933142D02*
X10627685Y-34004571D01*
X10627685Y-34004571D02*
X10770542Y-34075999D01*
X10770542Y-34075999D02*
X11199114Y-34075999D01*
X11199114Y-34075999D02*
X11341971Y-34004571D01*
X11341971Y-34004571D02*
X11413400Y-33933142D01*
X11413400Y-33933142D02*
X11484828Y-33790285D01*
X11484828Y-33790285D02*
X11484828Y-33575999D01*
X10484828Y-35361714D02*
X11484828Y-35361714D01*
X10484828Y-34718856D02*
X11270542Y-34718856D01*
X11270542Y-34718856D02*
X11413400Y-34790285D01*
X11413400Y-34790285D02*
X11484828Y-34933142D01*
X11484828Y-34933142D02*
X11484828Y-35147428D01*
X11484828Y-35147428D02*
X11413400Y-35290285D01*
X11413400Y-35290285D02*
X11341971Y-35361714D01*
X10484828Y-35861714D02*
X10484828Y-36433142D01*
X9984828Y-36075999D02*
X11270542Y-36075999D01*
X11270542Y-36075999D02*
X11413400Y-36147428D01*
X11413400Y-36147428D02*
X11484828Y-36290285D01*
X11484828Y-36290285D02*
X11484828Y-36433142D01*
X10484828Y-36933142D02*
X11984828Y-36933142D01*
X10556257Y-36933142D02*
X10484828Y-37076000D01*
X10484828Y-37076000D02*
X10484828Y-37361714D01*
X10484828Y-37361714D02*
X10556257Y-37504571D01*
X10556257Y-37504571D02*
X10627685Y-37576000D01*
X10627685Y-37576000D02*
X10770542Y-37647428D01*
X10770542Y-37647428D02*
X11199114Y-37647428D01*
X11199114Y-37647428D02*
X11341971Y-37576000D01*
X11341971Y-37576000D02*
X11413400Y-37504571D01*
X11413400Y-37504571D02*
X11484828Y-37361714D01*
X11484828Y-37361714D02*
X11484828Y-37076000D01*
X11484828Y-37076000D02*
X11413400Y-36933142D01*
X10484828Y-38933143D02*
X11484828Y-38933143D01*
X10484828Y-38290285D02*
X11270542Y-38290285D01*
X11270542Y-38290285D02*
X11413400Y-38361714D01*
X11413400Y-38361714D02*
X11484828Y-38504571D01*
X11484828Y-38504571D02*
X11484828Y-38718857D01*
X11484828Y-38718857D02*
X11413400Y-38861714D01*
X11413400Y-38861714D02*
X11341971Y-38933143D01*
X10484828Y-39433143D02*
X10484828Y-40004571D01*
X9984828Y-39647428D02*
X11270542Y-39647428D01*
X11270542Y-39647428D02*
X11413400Y-39718857D01*
X11413400Y-39718857D02*
X11484828Y-39861714D01*
X11484828Y-39861714D02*
X11484828Y-40004571D01*
X7569828Y-24126286D02*
X9069828Y-24626286D01*
X9069828Y-24626286D02*
X7569828Y-25126286D01*
X8926971Y-26483428D02*
X8998400Y-26412000D01*
X8998400Y-26412000D02*
X9069828Y-26197714D01*
X9069828Y-26197714D02*
X9069828Y-26054857D01*
X9069828Y-26054857D02*
X8998400Y-25840571D01*
X8998400Y-25840571D02*
X8855542Y-25697714D01*
X8855542Y-25697714D02*
X8712685Y-25626285D01*
X8712685Y-25626285D02*
X8426971Y-25554857D01*
X8426971Y-25554857D02*
X8212685Y-25554857D01*
X8212685Y-25554857D02*
X7926971Y-25626285D01*
X7926971Y-25626285D02*
X7784114Y-25697714D01*
X7784114Y-25697714D02*
X7641257Y-25840571D01*
X7641257Y-25840571D02*
X7569828Y-26054857D01*
X7569828Y-26054857D02*
X7569828Y-26197714D01*
X7569828Y-26197714D02*
X7641257Y-26412000D01*
X7641257Y-26412000D02*
X7712685Y-26483428D01*
X7569828Y-27412000D02*
X7569828Y-27697714D01*
X7569828Y-27697714D02*
X7641257Y-27840571D01*
X7641257Y-27840571D02*
X7784114Y-27983428D01*
X7784114Y-27983428D02*
X8069828Y-28054857D01*
X8069828Y-28054857D02*
X8569828Y-28054857D01*
X8569828Y-28054857D02*
X8855542Y-27983428D01*
X8855542Y-27983428D02*
X8998400Y-27840571D01*
X8998400Y-27840571D02*
X9069828Y-27697714D01*
X9069828Y-27697714D02*
X9069828Y-27412000D01*
X9069828Y-27412000D02*
X8998400Y-27269143D01*
X8998400Y-27269143D02*
X8855542Y-27126285D01*
X8855542Y-27126285D02*
X8569828Y-27054857D01*
X8569828Y-27054857D02*
X8069828Y-27054857D01*
X8069828Y-27054857D02*
X7784114Y-27126285D01*
X7784114Y-27126285D02*
X7641257Y-27269143D01*
X7641257Y-27269143D02*
X7569828Y-27412000D01*
X11484828Y-23697713D02*
X10484828Y-23697713D01*
X9984828Y-23697713D02*
X10056257Y-23626285D01*
X10056257Y-23626285D02*
X10127685Y-23697713D01*
X10127685Y-23697713D02*
X10056257Y-23769142D01*
X10056257Y-23769142D02*
X9984828Y-23697713D01*
X9984828Y-23697713D02*
X10127685Y-23697713D01*
X10484828Y-24411999D02*
X11484828Y-24411999D01*
X10627685Y-24411999D02*
X10556257Y-24483428D01*
X10556257Y-24483428D02*
X10484828Y-24626285D01*
X10484828Y-24626285D02*
X10484828Y-24840571D01*
X10484828Y-24840571D02*
X10556257Y-24983428D01*
X10556257Y-24983428D02*
X10699114Y-25054857D01*
X10699114Y-25054857D02*
X11484828Y-25054857D01*
X10484828Y-25769142D02*
X11984828Y-25769142D01*
X10556257Y-25769142D02*
X10484828Y-25912000D01*
X10484828Y-25912000D02*
X10484828Y-26197714D01*
X10484828Y-26197714D02*
X10556257Y-26340571D01*
X10556257Y-26340571D02*
X10627685Y-26412000D01*
X10627685Y-26412000D02*
X10770542Y-26483428D01*
X10770542Y-26483428D02*
X11199114Y-26483428D01*
X11199114Y-26483428D02*
X11341971Y-26412000D01*
X11341971Y-26412000D02*
X11413400Y-26340571D01*
X11413400Y-26340571D02*
X11484828Y-26197714D01*
X11484828Y-26197714D02*
X11484828Y-25912000D01*
X11484828Y-25912000D02*
X11413400Y-25769142D01*
X10484828Y-27769143D02*
X11484828Y-27769143D01*
X10484828Y-27126285D02*
X11270542Y-27126285D01*
X11270542Y-27126285D02*
X11413400Y-27197714D01*
X11413400Y-27197714D02*
X11484828Y-27340571D01*
X11484828Y-27340571D02*
X11484828Y-27554857D01*
X11484828Y-27554857D02*
X11413400Y-27697714D01*
X11413400Y-27697714D02*
X11341971Y-27769143D01*
X10484828Y-28269143D02*
X10484828Y-28840571D01*
X9984828Y-28483428D02*
X11270542Y-28483428D01*
X11270542Y-28483428D02*
X11413400Y-28554857D01*
X11413400Y-28554857D02*
X11484828Y-28697714D01*
X11484828Y-28697714D02*
X11484828Y-28840571D01*
D11*
X56511662Y-67223248D02*
X56511662Y-67680391D01*
X57311662Y-67394677D02*
X56283091Y-67394677D01*
X56283091Y-67394677D02*
X56168805Y-67451820D01*
X56168805Y-67451820D02*
X56111662Y-67566105D01*
X56111662Y-67566105D02*
X56111662Y-67680391D01*
X56111662Y-68823248D02*
X57311662Y-69223248D01*
X57311662Y-69223248D02*
X56111662Y-69623248D01*
X57197377Y-70708962D02*
X57254520Y-70651819D01*
X57254520Y-70651819D02*
X57311662Y-70480391D01*
X57311662Y-70480391D02*
X57311662Y-70366105D01*
X57311662Y-70366105D02*
X57254520Y-70194676D01*
X57254520Y-70194676D02*
X57140234Y-70080391D01*
X57140234Y-70080391D02*
X57025948Y-70023248D01*
X57025948Y-70023248D02*
X56797377Y-69966105D01*
X56797377Y-69966105D02*
X56625948Y-69966105D01*
X56625948Y-69966105D02*
X56397377Y-70023248D01*
X56397377Y-70023248D02*
X56283091Y-70080391D01*
X56283091Y-70080391D02*
X56168805Y-70194676D01*
X56168805Y-70194676D02*
X56111662Y-70366105D01*
X56111662Y-70366105D02*
X56111662Y-70480391D01*
X56111662Y-70480391D02*
X56168805Y-70651819D01*
X56168805Y-70651819D02*
X56225948Y-70708962D01*
X56111662Y-71451819D02*
X56111662Y-71680391D01*
X56111662Y-71680391D02*
X56168805Y-71794676D01*
X56168805Y-71794676D02*
X56283091Y-71908962D01*
X56283091Y-71908962D02*
X56511662Y-71966105D01*
X56511662Y-71966105D02*
X56911662Y-71966105D01*
X56911662Y-71966105D02*
X57140234Y-71908962D01*
X57140234Y-71908962D02*
X57254520Y-71794676D01*
X57254520Y-71794676D02*
X57311662Y-71680391D01*
X57311662Y-71680391D02*
X57311662Y-71451819D01*
X57311662Y-71451819D02*
X57254520Y-71337534D01*
X57254520Y-71337534D02*
X57140234Y-71223248D01*
X57140234Y-71223248D02*
X56911662Y-71166105D01*
X56911662Y-71166105D02*
X56511662Y-71166105D01*
X56511662Y-71166105D02*
X56283091Y-71223248D01*
X56283091Y-71223248D02*
X56168805Y-71337534D01*
X56168805Y-71337534D02*
X56111662Y-71451819D01*
X56054520Y-74251820D02*
X57597377Y-73223248D01*
X57311662Y-76194677D02*
X57311662Y-75508963D01*
X57311662Y-75851820D02*
X56111662Y-75851820D01*
X56111662Y-75851820D02*
X56283091Y-75737534D01*
X56283091Y-75737534D02*
X56397377Y-75623249D01*
X56397377Y-75623249D02*
X56454520Y-75508963D01*
X56111662Y-77223249D02*
X56111662Y-76994677D01*
X56111662Y-76994677D02*
X56168805Y-76880391D01*
X56168805Y-76880391D02*
X56225948Y-76823249D01*
X56225948Y-76823249D02*
X56397377Y-76708963D01*
X56397377Y-76708963D02*
X56625948Y-76651820D01*
X56625948Y-76651820D02*
X57083091Y-76651820D01*
X57083091Y-76651820D02*
X57197377Y-76708963D01*
X57197377Y-76708963D02*
X57254520Y-76766106D01*
X57254520Y-76766106D02*
X57311662Y-76880391D01*
X57311662Y-76880391D02*
X57311662Y-77108963D01*
X57311662Y-77108963D02*
X57254520Y-77223249D01*
X57254520Y-77223249D02*
X57197377Y-77280391D01*
X57197377Y-77280391D02*
X57083091Y-77337534D01*
X57083091Y-77337534D02*
X56797377Y-77337534D01*
X56797377Y-77337534D02*
X56683091Y-77280391D01*
X56683091Y-77280391D02*
X56625948Y-77223249D01*
X56625948Y-77223249D02*
X56568805Y-77108963D01*
X56568805Y-77108963D02*
X56568805Y-76880391D01*
X56568805Y-76880391D02*
X56625948Y-76766106D01*
X56625948Y-76766106D02*
X56683091Y-76708963D01*
X56683091Y-76708963D02*
X56797377Y-76651820D01*
X64004662Y-68366105D02*
X64004662Y-68823248D01*
X64804662Y-68537534D02*
X63776091Y-68537534D01*
X63776091Y-68537534D02*
X63661805Y-68594677D01*
X63661805Y-68594677D02*
X63604662Y-68708962D01*
X63604662Y-68708962D02*
X63604662Y-68823248D01*
X63604662Y-69966105D02*
X64804662Y-70366105D01*
X64804662Y-70366105D02*
X63604662Y-70766105D01*
X64690377Y-71851819D02*
X64747520Y-71794676D01*
X64747520Y-71794676D02*
X64804662Y-71623248D01*
X64804662Y-71623248D02*
X64804662Y-71508962D01*
X64804662Y-71508962D02*
X64747520Y-71337533D01*
X64747520Y-71337533D02*
X64633234Y-71223248D01*
X64633234Y-71223248D02*
X64518948Y-71166105D01*
X64518948Y-71166105D02*
X64290377Y-71108962D01*
X64290377Y-71108962D02*
X64118948Y-71108962D01*
X64118948Y-71108962D02*
X63890377Y-71166105D01*
X63890377Y-71166105D02*
X63776091Y-71223248D01*
X63776091Y-71223248D02*
X63661805Y-71337533D01*
X63661805Y-71337533D02*
X63604662Y-71508962D01*
X63604662Y-71508962D02*
X63604662Y-71623248D01*
X63604662Y-71623248D02*
X63661805Y-71794676D01*
X63661805Y-71794676D02*
X63718948Y-71851819D01*
X63604662Y-72594676D02*
X63604662Y-72823248D01*
X63604662Y-72823248D02*
X63661805Y-72937533D01*
X63661805Y-72937533D02*
X63776091Y-73051819D01*
X63776091Y-73051819D02*
X64004662Y-73108962D01*
X64004662Y-73108962D02*
X64404662Y-73108962D01*
X64404662Y-73108962D02*
X64633234Y-73051819D01*
X64633234Y-73051819D02*
X64747520Y-72937533D01*
X64747520Y-72937533D02*
X64804662Y-72823248D01*
X64804662Y-72823248D02*
X64804662Y-72594676D01*
X64804662Y-72594676D02*
X64747520Y-72480391D01*
X64747520Y-72480391D02*
X64633234Y-72366105D01*
X64633234Y-72366105D02*
X64404662Y-72308962D01*
X64404662Y-72308962D02*
X64004662Y-72308962D01*
X64004662Y-72308962D02*
X63776091Y-72366105D01*
X63776091Y-72366105D02*
X63661805Y-72480391D01*
X63661805Y-72480391D02*
X63604662Y-72594676D01*
X63547520Y-75394677D02*
X65090377Y-74366105D01*
X63718948Y-76651820D02*
X63661805Y-76708963D01*
X63661805Y-76708963D02*
X63604662Y-76823249D01*
X63604662Y-76823249D02*
X63604662Y-77108963D01*
X63604662Y-77108963D02*
X63661805Y-77223249D01*
X63661805Y-77223249D02*
X63718948Y-77280391D01*
X63718948Y-77280391D02*
X63833234Y-77337534D01*
X63833234Y-77337534D02*
X63947520Y-77337534D01*
X63947520Y-77337534D02*
X64118948Y-77280391D01*
X64118948Y-77280391D02*
X64804662Y-76594677D01*
X64804662Y-76594677D02*
X64804662Y-77337534D01*
X61591662Y-68366105D02*
X61591662Y-68823248D01*
X62391662Y-68537534D02*
X61363091Y-68537534D01*
X61363091Y-68537534D02*
X61248805Y-68594677D01*
X61248805Y-68594677D02*
X61191662Y-68708962D01*
X61191662Y-68708962D02*
X61191662Y-68823248D01*
X61191662Y-69966105D02*
X62391662Y-70366105D01*
X62391662Y-70366105D02*
X61191662Y-70766105D01*
X62277377Y-71851819D02*
X62334520Y-71794676D01*
X62334520Y-71794676D02*
X62391662Y-71623248D01*
X62391662Y-71623248D02*
X62391662Y-71508962D01*
X62391662Y-71508962D02*
X62334520Y-71337533D01*
X62334520Y-71337533D02*
X62220234Y-71223248D01*
X62220234Y-71223248D02*
X62105948Y-71166105D01*
X62105948Y-71166105D02*
X61877377Y-71108962D01*
X61877377Y-71108962D02*
X61705948Y-71108962D01*
X61705948Y-71108962D02*
X61477377Y-71166105D01*
X61477377Y-71166105D02*
X61363091Y-71223248D01*
X61363091Y-71223248D02*
X61248805Y-71337533D01*
X61248805Y-71337533D02*
X61191662Y-71508962D01*
X61191662Y-71508962D02*
X61191662Y-71623248D01*
X61191662Y-71623248D02*
X61248805Y-71794676D01*
X61248805Y-71794676D02*
X61305948Y-71851819D01*
X61191662Y-72594676D02*
X61191662Y-72823248D01*
X61191662Y-72823248D02*
X61248805Y-72937533D01*
X61248805Y-72937533D02*
X61363091Y-73051819D01*
X61363091Y-73051819D02*
X61591662Y-73108962D01*
X61591662Y-73108962D02*
X61991662Y-73108962D01*
X61991662Y-73108962D02*
X62220234Y-73051819D01*
X62220234Y-73051819D02*
X62334520Y-72937533D01*
X62334520Y-72937533D02*
X62391662Y-72823248D01*
X62391662Y-72823248D02*
X62391662Y-72594676D01*
X62391662Y-72594676D02*
X62334520Y-72480391D01*
X62334520Y-72480391D02*
X62220234Y-72366105D01*
X62220234Y-72366105D02*
X61991662Y-72308962D01*
X61991662Y-72308962D02*
X61591662Y-72308962D01*
X61591662Y-72308962D02*
X61363091Y-72366105D01*
X61363091Y-72366105D02*
X61248805Y-72480391D01*
X61248805Y-72480391D02*
X61191662Y-72594676D01*
X61134520Y-75394677D02*
X62677377Y-74366105D01*
X61591662Y-77223249D02*
X62391662Y-77223249D01*
X61134520Y-76937534D02*
X61991662Y-76651820D01*
X61991662Y-76651820D02*
X61991662Y-77394677D01*
X79879662Y-68537534D02*
X79879662Y-68994677D01*
X80679662Y-68708963D02*
X79651091Y-68708963D01*
X79651091Y-68708963D02*
X79536805Y-68766106D01*
X79536805Y-68766106D02*
X79479662Y-68880391D01*
X79479662Y-68880391D02*
X79479662Y-68994677D01*
X80679662Y-70994677D02*
X80108234Y-70594677D01*
X80679662Y-70308963D02*
X79479662Y-70308963D01*
X79479662Y-70308963D02*
X79479662Y-70766106D01*
X79479662Y-70766106D02*
X79536805Y-70880391D01*
X79536805Y-70880391D02*
X79593948Y-70937534D01*
X79593948Y-70937534D02*
X79708234Y-70994677D01*
X79708234Y-70994677D02*
X79879662Y-70994677D01*
X79879662Y-70994677D02*
X79993948Y-70937534D01*
X79993948Y-70937534D02*
X80051091Y-70880391D01*
X80051091Y-70880391D02*
X80108234Y-70766106D01*
X80108234Y-70766106D02*
X80108234Y-70308963D01*
X80051091Y-71508963D02*
X80051091Y-71908963D01*
X80679662Y-72080391D02*
X80679662Y-71508963D01*
X80679662Y-71508963D02*
X79479662Y-71508963D01*
X79479662Y-71508963D02*
X79479662Y-72080391D01*
X80051091Y-72994677D02*
X80051091Y-72594677D01*
X80679662Y-72594677D02*
X79479662Y-72594677D01*
X79479662Y-72594677D02*
X79479662Y-73166105D01*
X79422520Y-75394677D02*
X80965377Y-74366105D01*
X79593948Y-76651820D02*
X79536805Y-76708963D01*
X79536805Y-76708963D02*
X79479662Y-76823249D01*
X79479662Y-76823249D02*
X79479662Y-77108963D01*
X79479662Y-77108963D02*
X79536805Y-77223249D01*
X79536805Y-77223249D02*
X79593948Y-77280391D01*
X79593948Y-77280391D02*
X79708234Y-77337534D01*
X79708234Y-77337534D02*
X79822520Y-77337534D01*
X79822520Y-77337534D02*
X79993948Y-77280391D01*
X79993948Y-77280391D02*
X80679662Y-76594677D01*
X80679662Y-76594677D02*
X80679662Y-77337534D01*
X82546662Y-68537534D02*
X82546662Y-68994677D01*
X83346662Y-68708963D02*
X82318091Y-68708963D01*
X82318091Y-68708963D02*
X82203805Y-68766106D01*
X82203805Y-68766106D02*
X82146662Y-68880391D01*
X82146662Y-68880391D02*
X82146662Y-68994677D01*
X83346662Y-70994677D02*
X82775234Y-70594677D01*
X83346662Y-70308963D02*
X82146662Y-70308963D01*
X82146662Y-70308963D02*
X82146662Y-70766106D01*
X82146662Y-70766106D02*
X82203805Y-70880391D01*
X82203805Y-70880391D02*
X82260948Y-70937534D01*
X82260948Y-70937534D02*
X82375234Y-70994677D01*
X82375234Y-70994677D02*
X82546662Y-70994677D01*
X82546662Y-70994677D02*
X82660948Y-70937534D01*
X82660948Y-70937534D02*
X82718091Y-70880391D01*
X82718091Y-70880391D02*
X82775234Y-70766106D01*
X82775234Y-70766106D02*
X82775234Y-70308963D01*
X82718091Y-71508963D02*
X82718091Y-71908963D01*
X83346662Y-72080391D02*
X83346662Y-71508963D01*
X83346662Y-71508963D02*
X82146662Y-71508963D01*
X82146662Y-71508963D02*
X82146662Y-72080391D01*
X82718091Y-72994677D02*
X82718091Y-72594677D01*
X83346662Y-72594677D02*
X82146662Y-72594677D01*
X82146662Y-72594677D02*
X82146662Y-73166105D01*
X82089520Y-75394677D02*
X83632377Y-74366105D01*
X83346662Y-77337534D02*
X83346662Y-76651820D01*
X83346662Y-76994677D02*
X82146662Y-76994677D01*
X82146662Y-76994677D02*
X82318091Y-76880391D01*
X82318091Y-76880391D02*
X82432377Y-76766106D01*
X82432377Y-76766106D02*
X82489520Y-76651820D01*
X59051662Y-68366105D02*
X59051662Y-68823248D01*
X59851662Y-68537534D02*
X58823091Y-68537534D01*
X58823091Y-68537534D02*
X58708805Y-68594677D01*
X58708805Y-68594677D02*
X58651662Y-68708962D01*
X58651662Y-68708962D02*
X58651662Y-68823248D01*
X58651662Y-69966105D02*
X59851662Y-70366105D01*
X59851662Y-70366105D02*
X58651662Y-70766105D01*
X59737377Y-71851819D02*
X59794520Y-71794676D01*
X59794520Y-71794676D02*
X59851662Y-71623248D01*
X59851662Y-71623248D02*
X59851662Y-71508962D01*
X59851662Y-71508962D02*
X59794520Y-71337533D01*
X59794520Y-71337533D02*
X59680234Y-71223248D01*
X59680234Y-71223248D02*
X59565948Y-71166105D01*
X59565948Y-71166105D02*
X59337377Y-71108962D01*
X59337377Y-71108962D02*
X59165948Y-71108962D01*
X59165948Y-71108962D02*
X58937377Y-71166105D01*
X58937377Y-71166105D02*
X58823091Y-71223248D01*
X58823091Y-71223248D02*
X58708805Y-71337533D01*
X58708805Y-71337533D02*
X58651662Y-71508962D01*
X58651662Y-71508962D02*
X58651662Y-71623248D01*
X58651662Y-71623248D02*
X58708805Y-71794676D01*
X58708805Y-71794676D02*
X58765948Y-71851819D01*
X58651662Y-72594676D02*
X58651662Y-72823248D01*
X58651662Y-72823248D02*
X58708805Y-72937533D01*
X58708805Y-72937533D02*
X58823091Y-73051819D01*
X58823091Y-73051819D02*
X59051662Y-73108962D01*
X59051662Y-73108962D02*
X59451662Y-73108962D01*
X59451662Y-73108962D02*
X59680234Y-73051819D01*
X59680234Y-73051819D02*
X59794520Y-72937533D01*
X59794520Y-72937533D02*
X59851662Y-72823248D01*
X59851662Y-72823248D02*
X59851662Y-72594676D01*
X59851662Y-72594676D02*
X59794520Y-72480391D01*
X59794520Y-72480391D02*
X59680234Y-72366105D01*
X59680234Y-72366105D02*
X59451662Y-72308962D01*
X59451662Y-72308962D02*
X59051662Y-72308962D01*
X59051662Y-72308962D02*
X58823091Y-72366105D01*
X58823091Y-72366105D02*
X58708805Y-72480391D01*
X58708805Y-72480391D02*
X58651662Y-72594676D01*
X58594520Y-75394677D02*
X60137377Y-74366105D01*
X59165948Y-76880391D02*
X59108805Y-76766106D01*
X59108805Y-76766106D02*
X59051662Y-76708963D01*
X59051662Y-76708963D02*
X58937377Y-76651820D01*
X58937377Y-76651820D02*
X58880234Y-76651820D01*
X58880234Y-76651820D02*
X58765948Y-76708963D01*
X58765948Y-76708963D02*
X58708805Y-76766106D01*
X58708805Y-76766106D02*
X58651662Y-76880391D01*
X58651662Y-76880391D02*
X58651662Y-77108963D01*
X58651662Y-77108963D02*
X58708805Y-77223249D01*
X58708805Y-77223249D02*
X58765948Y-77280391D01*
X58765948Y-77280391D02*
X58880234Y-77337534D01*
X58880234Y-77337534D02*
X58937377Y-77337534D01*
X58937377Y-77337534D02*
X59051662Y-77280391D01*
X59051662Y-77280391D02*
X59108805Y-77223249D01*
X59108805Y-77223249D02*
X59165948Y-77108963D01*
X59165948Y-77108963D02*
X59165948Y-76880391D01*
X59165948Y-76880391D02*
X59223091Y-76766106D01*
X59223091Y-76766106D02*
X59280234Y-76708963D01*
X59280234Y-76708963D02*
X59394520Y-76651820D01*
X59394520Y-76651820D02*
X59623091Y-76651820D01*
X59623091Y-76651820D02*
X59737377Y-76708963D01*
X59737377Y-76708963D02*
X59794520Y-76766106D01*
X59794520Y-76766106D02*
X59851662Y-76880391D01*
X59851662Y-76880391D02*
X59851662Y-77108963D01*
X59851662Y-77108963D02*
X59794520Y-77223249D01*
X59794520Y-77223249D02*
X59737377Y-77280391D01*
X59737377Y-77280391D02*
X59623091Y-77337534D01*
X59623091Y-77337534D02*
X59394520Y-77337534D01*
X59394520Y-77337534D02*
X59280234Y-77280391D01*
X59280234Y-77280391D02*
X59223091Y-77223249D01*
X59223091Y-77223249D02*
X59165948Y-77108963D01*
X66671662Y-68366105D02*
X66671662Y-68823248D01*
X67471662Y-68537534D02*
X66443091Y-68537534D01*
X66443091Y-68537534D02*
X66328805Y-68594677D01*
X66328805Y-68594677D02*
X66271662Y-68708962D01*
X66271662Y-68708962D02*
X66271662Y-68823248D01*
X66271662Y-69966105D02*
X67471662Y-70366105D01*
X67471662Y-70366105D02*
X66271662Y-70766105D01*
X67357377Y-71851819D02*
X67414520Y-71794676D01*
X67414520Y-71794676D02*
X67471662Y-71623248D01*
X67471662Y-71623248D02*
X67471662Y-71508962D01*
X67471662Y-71508962D02*
X67414520Y-71337533D01*
X67414520Y-71337533D02*
X67300234Y-71223248D01*
X67300234Y-71223248D02*
X67185948Y-71166105D01*
X67185948Y-71166105D02*
X66957377Y-71108962D01*
X66957377Y-71108962D02*
X66785948Y-71108962D01*
X66785948Y-71108962D02*
X66557377Y-71166105D01*
X66557377Y-71166105D02*
X66443091Y-71223248D01*
X66443091Y-71223248D02*
X66328805Y-71337533D01*
X66328805Y-71337533D02*
X66271662Y-71508962D01*
X66271662Y-71508962D02*
X66271662Y-71623248D01*
X66271662Y-71623248D02*
X66328805Y-71794676D01*
X66328805Y-71794676D02*
X66385948Y-71851819D01*
X66271662Y-72594676D02*
X66271662Y-72823248D01*
X66271662Y-72823248D02*
X66328805Y-72937533D01*
X66328805Y-72937533D02*
X66443091Y-73051819D01*
X66443091Y-73051819D02*
X66671662Y-73108962D01*
X66671662Y-73108962D02*
X67071662Y-73108962D01*
X67071662Y-73108962D02*
X67300234Y-73051819D01*
X67300234Y-73051819D02*
X67414520Y-72937533D01*
X67414520Y-72937533D02*
X67471662Y-72823248D01*
X67471662Y-72823248D02*
X67471662Y-72594676D01*
X67471662Y-72594676D02*
X67414520Y-72480391D01*
X67414520Y-72480391D02*
X67300234Y-72366105D01*
X67300234Y-72366105D02*
X67071662Y-72308962D01*
X67071662Y-72308962D02*
X66671662Y-72308962D01*
X66671662Y-72308962D02*
X66443091Y-72366105D01*
X66443091Y-72366105D02*
X66328805Y-72480391D01*
X66328805Y-72480391D02*
X66271662Y-72594676D01*
X66214520Y-75394677D02*
X67757377Y-74366105D01*
X67471662Y-77337534D02*
X67471662Y-76651820D01*
X67471662Y-76994677D02*
X66271662Y-76994677D01*
X66271662Y-76994677D02*
X66443091Y-76880391D01*
X66443091Y-76880391D02*
X66557377Y-76766106D01*
X66557377Y-76766106D02*
X66614520Y-76651820D01*
X74926662Y-68537534D02*
X74926662Y-68994677D01*
X75726662Y-68708963D02*
X74698091Y-68708963D01*
X74698091Y-68708963D02*
X74583805Y-68766106D01*
X74583805Y-68766106D02*
X74526662Y-68880391D01*
X74526662Y-68880391D02*
X74526662Y-68994677D01*
X75726662Y-70994677D02*
X75155234Y-70594677D01*
X75726662Y-70308963D02*
X74526662Y-70308963D01*
X74526662Y-70308963D02*
X74526662Y-70766106D01*
X74526662Y-70766106D02*
X74583805Y-70880391D01*
X74583805Y-70880391D02*
X74640948Y-70937534D01*
X74640948Y-70937534D02*
X74755234Y-70994677D01*
X74755234Y-70994677D02*
X74926662Y-70994677D01*
X74926662Y-70994677D02*
X75040948Y-70937534D01*
X75040948Y-70937534D02*
X75098091Y-70880391D01*
X75098091Y-70880391D02*
X75155234Y-70766106D01*
X75155234Y-70766106D02*
X75155234Y-70308963D01*
X75098091Y-71508963D02*
X75098091Y-71908963D01*
X75726662Y-72080391D02*
X75726662Y-71508963D01*
X75726662Y-71508963D02*
X74526662Y-71508963D01*
X74526662Y-71508963D02*
X74526662Y-72080391D01*
X75098091Y-72994677D02*
X75098091Y-72594677D01*
X75726662Y-72594677D02*
X74526662Y-72594677D01*
X74526662Y-72594677D02*
X74526662Y-73166105D01*
X74469520Y-75394677D02*
X76012377Y-74366105D01*
X75040948Y-76880391D02*
X74983805Y-76766106D01*
X74983805Y-76766106D02*
X74926662Y-76708963D01*
X74926662Y-76708963D02*
X74812377Y-76651820D01*
X74812377Y-76651820D02*
X74755234Y-76651820D01*
X74755234Y-76651820D02*
X74640948Y-76708963D01*
X74640948Y-76708963D02*
X74583805Y-76766106D01*
X74583805Y-76766106D02*
X74526662Y-76880391D01*
X74526662Y-76880391D02*
X74526662Y-77108963D01*
X74526662Y-77108963D02*
X74583805Y-77223249D01*
X74583805Y-77223249D02*
X74640948Y-77280391D01*
X74640948Y-77280391D02*
X74755234Y-77337534D01*
X74755234Y-77337534D02*
X74812377Y-77337534D01*
X74812377Y-77337534D02*
X74926662Y-77280391D01*
X74926662Y-77280391D02*
X74983805Y-77223249D01*
X74983805Y-77223249D02*
X75040948Y-77108963D01*
X75040948Y-77108963D02*
X75040948Y-76880391D01*
X75040948Y-76880391D02*
X75098091Y-76766106D01*
X75098091Y-76766106D02*
X75155234Y-76708963D01*
X75155234Y-76708963D02*
X75269520Y-76651820D01*
X75269520Y-76651820D02*
X75498091Y-76651820D01*
X75498091Y-76651820D02*
X75612377Y-76708963D01*
X75612377Y-76708963D02*
X75669520Y-76766106D01*
X75669520Y-76766106D02*
X75726662Y-76880391D01*
X75726662Y-76880391D02*
X75726662Y-77108963D01*
X75726662Y-77108963D02*
X75669520Y-77223249D01*
X75669520Y-77223249D02*
X75612377Y-77280391D01*
X75612377Y-77280391D02*
X75498091Y-77337534D01*
X75498091Y-77337534D02*
X75269520Y-77337534D01*
X75269520Y-77337534D02*
X75155234Y-77280391D01*
X75155234Y-77280391D02*
X75098091Y-77223249D01*
X75098091Y-77223249D02*
X75040948Y-77108963D01*
D10*
X9069828Y-45847142D02*
X7569828Y-45847142D01*
X7569828Y-45847142D02*
X7569828Y-46418571D01*
X7569828Y-46418571D02*
X7641257Y-46561428D01*
X7641257Y-46561428D02*
X7712685Y-46632857D01*
X7712685Y-46632857D02*
X7855542Y-46704285D01*
X7855542Y-46704285D02*
X8069828Y-46704285D01*
X8069828Y-46704285D02*
X8212685Y-46632857D01*
X8212685Y-46632857D02*
X8284114Y-46561428D01*
X8284114Y-46561428D02*
X8355542Y-46418571D01*
X8355542Y-46418571D02*
X8355542Y-45847142D01*
X9069828Y-47347142D02*
X7569828Y-47347142D01*
X7569828Y-47347142D02*
X7569828Y-47704285D01*
X7569828Y-47704285D02*
X7641257Y-47918571D01*
X7641257Y-47918571D02*
X7784114Y-48061428D01*
X7784114Y-48061428D02*
X7926971Y-48132857D01*
X7926971Y-48132857D02*
X8212685Y-48204285D01*
X8212685Y-48204285D02*
X8426971Y-48204285D01*
X8426971Y-48204285D02*
X8712685Y-48132857D01*
X8712685Y-48132857D02*
X8855542Y-48061428D01*
X8855542Y-48061428D02*
X8998400Y-47918571D01*
X8998400Y-47918571D02*
X9069828Y-47704285D01*
X9069828Y-47704285D02*
X9069828Y-47347142D01*
X11484828Y-43989999D02*
X11413400Y-43847142D01*
X11413400Y-43847142D02*
X11341971Y-43775713D01*
X11341971Y-43775713D02*
X11199114Y-43704285D01*
X11199114Y-43704285D02*
X10770542Y-43704285D01*
X10770542Y-43704285D02*
X10627685Y-43775713D01*
X10627685Y-43775713D02*
X10556257Y-43847142D01*
X10556257Y-43847142D02*
X10484828Y-43989999D01*
X10484828Y-43989999D02*
X10484828Y-44204285D01*
X10484828Y-44204285D02*
X10556257Y-44347142D01*
X10556257Y-44347142D02*
X10627685Y-44418571D01*
X10627685Y-44418571D02*
X10770542Y-44489999D01*
X10770542Y-44489999D02*
X11199114Y-44489999D01*
X11199114Y-44489999D02*
X11341971Y-44418571D01*
X11341971Y-44418571D02*
X11413400Y-44347142D01*
X11413400Y-44347142D02*
X11484828Y-44204285D01*
X11484828Y-44204285D02*
X11484828Y-43989999D01*
X10484828Y-45775714D02*
X11484828Y-45775714D01*
X10484828Y-45132856D02*
X11270542Y-45132856D01*
X11270542Y-45132856D02*
X11413400Y-45204285D01*
X11413400Y-45204285D02*
X11484828Y-45347142D01*
X11484828Y-45347142D02*
X11484828Y-45561428D01*
X11484828Y-45561428D02*
X11413400Y-45704285D01*
X11413400Y-45704285D02*
X11341971Y-45775714D01*
X10484828Y-46275714D02*
X10484828Y-46847142D01*
X9984828Y-46489999D02*
X11270542Y-46489999D01*
X11270542Y-46489999D02*
X11413400Y-46561428D01*
X11413400Y-46561428D02*
X11484828Y-46704285D01*
X11484828Y-46704285D02*
X11484828Y-46847142D01*
X10484828Y-47347142D02*
X11984828Y-47347142D01*
X10556257Y-47347142D02*
X10484828Y-47490000D01*
X10484828Y-47490000D02*
X10484828Y-47775714D01*
X10484828Y-47775714D02*
X10556257Y-47918571D01*
X10556257Y-47918571D02*
X10627685Y-47990000D01*
X10627685Y-47990000D02*
X10770542Y-48061428D01*
X10770542Y-48061428D02*
X11199114Y-48061428D01*
X11199114Y-48061428D02*
X11341971Y-47990000D01*
X11341971Y-47990000D02*
X11413400Y-47918571D01*
X11413400Y-47918571D02*
X11484828Y-47775714D01*
X11484828Y-47775714D02*
X11484828Y-47490000D01*
X11484828Y-47490000D02*
X11413400Y-47347142D01*
X10484828Y-49347143D02*
X11484828Y-49347143D01*
X10484828Y-48704285D02*
X11270542Y-48704285D01*
X11270542Y-48704285D02*
X11413400Y-48775714D01*
X11413400Y-48775714D02*
X11484828Y-48918571D01*
X11484828Y-48918571D02*
X11484828Y-49132857D01*
X11484828Y-49132857D02*
X11413400Y-49275714D01*
X11413400Y-49275714D02*
X11341971Y-49347143D01*
X10484828Y-49847143D02*
X10484828Y-50418571D01*
X9984828Y-50061428D02*
X11270542Y-50061428D01*
X11270542Y-50061428D02*
X11413400Y-50132857D01*
X11413400Y-50132857D02*
X11484828Y-50275714D01*
X11484828Y-50275714D02*
X11484828Y-50418571D01*
X9069828Y-54296857D02*
X9069828Y-53439714D01*
X9069828Y-53868285D02*
X7569828Y-53868285D01*
X7569828Y-53868285D02*
X7784114Y-53725428D01*
X7784114Y-53725428D02*
X7926971Y-53582571D01*
X7926971Y-53582571D02*
X7998400Y-53439714D01*
X7569828Y-55225428D02*
X7569828Y-55368285D01*
X7569828Y-55368285D02*
X7641257Y-55511142D01*
X7641257Y-55511142D02*
X7712685Y-55582571D01*
X7712685Y-55582571D02*
X7855542Y-55653999D01*
X7855542Y-55653999D02*
X8141257Y-55725428D01*
X8141257Y-55725428D02*
X8498400Y-55725428D01*
X8498400Y-55725428D02*
X8784114Y-55653999D01*
X8784114Y-55653999D02*
X8926971Y-55582571D01*
X8926971Y-55582571D02*
X8998400Y-55511142D01*
X8998400Y-55511142D02*
X9069828Y-55368285D01*
X9069828Y-55368285D02*
X9069828Y-55225428D01*
X9069828Y-55225428D02*
X8998400Y-55082571D01*
X8998400Y-55082571D02*
X8926971Y-55011142D01*
X8926971Y-55011142D02*
X8784114Y-54939713D01*
X8784114Y-54939713D02*
X8498400Y-54868285D01*
X8498400Y-54868285D02*
X8141257Y-54868285D01*
X8141257Y-54868285D02*
X7855542Y-54939713D01*
X7855542Y-54939713D02*
X7712685Y-55011142D01*
X7712685Y-55011142D02*
X7641257Y-55082571D01*
X7641257Y-55082571D02*
X7569828Y-55225428D01*
X9069828Y-57511141D02*
X7569828Y-57511141D01*
X7569828Y-57511141D02*
X8641257Y-58011141D01*
X8641257Y-58011141D02*
X7569828Y-58511141D01*
X7569828Y-58511141D02*
X9069828Y-58511141D01*
X9069828Y-59225427D02*
X7569828Y-59225427D01*
X8284114Y-59225427D02*
X8284114Y-60082570D01*
X9069828Y-60082570D02*
X7569828Y-60082570D01*
X8069828Y-60653999D02*
X8069828Y-61439714D01*
X8069828Y-61439714D02*
X9069828Y-60653999D01*
X9069828Y-60653999D02*
X9069828Y-61439714D01*
X11484828Y-54939713D02*
X10484828Y-54939713D01*
X9984828Y-54939713D02*
X10056257Y-54868285D01*
X10056257Y-54868285D02*
X10127685Y-54939713D01*
X10127685Y-54939713D02*
X10056257Y-55011142D01*
X10056257Y-55011142D02*
X9984828Y-54939713D01*
X9984828Y-54939713D02*
X10127685Y-54939713D01*
X10484828Y-55653999D02*
X11484828Y-55653999D01*
X10627685Y-55653999D02*
X10556257Y-55725428D01*
X10556257Y-55725428D02*
X10484828Y-55868285D01*
X10484828Y-55868285D02*
X10484828Y-56082571D01*
X10484828Y-56082571D02*
X10556257Y-56225428D01*
X10556257Y-56225428D02*
X10699114Y-56296857D01*
X10699114Y-56296857D02*
X11484828Y-56296857D01*
X10484828Y-57011142D02*
X11984828Y-57011142D01*
X10556257Y-57011142D02*
X10484828Y-57154000D01*
X10484828Y-57154000D02*
X10484828Y-57439714D01*
X10484828Y-57439714D02*
X10556257Y-57582571D01*
X10556257Y-57582571D02*
X10627685Y-57654000D01*
X10627685Y-57654000D02*
X10770542Y-57725428D01*
X10770542Y-57725428D02*
X11199114Y-57725428D01*
X11199114Y-57725428D02*
X11341971Y-57654000D01*
X11341971Y-57654000D02*
X11413400Y-57582571D01*
X11413400Y-57582571D02*
X11484828Y-57439714D01*
X11484828Y-57439714D02*
X11484828Y-57154000D01*
X11484828Y-57154000D02*
X11413400Y-57011142D01*
X10484828Y-59011143D02*
X11484828Y-59011143D01*
X10484828Y-58368285D02*
X11270542Y-58368285D01*
X11270542Y-58368285D02*
X11413400Y-58439714D01*
X11413400Y-58439714D02*
X11484828Y-58582571D01*
X11484828Y-58582571D02*
X11484828Y-58796857D01*
X11484828Y-58796857D02*
X11413400Y-58939714D01*
X11413400Y-58939714D02*
X11341971Y-59011143D01*
X10484828Y-59511143D02*
X10484828Y-60082571D01*
X9984828Y-59725428D02*
X11270542Y-59725428D01*
X11270542Y-59725428D02*
X11413400Y-59796857D01*
X11413400Y-59796857D02*
X11484828Y-59939714D01*
X11484828Y-59939714D02*
X11484828Y-60082571D01*
X9069828Y-14890857D02*
X8355542Y-14390857D01*
X9069828Y-14033714D02*
X7569828Y-14033714D01*
X7569828Y-14033714D02*
X7569828Y-14605143D01*
X7569828Y-14605143D02*
X7641257Y-14748000D01*
X7641257Y-14748000D02*
X7712685Y-14819429D01*
X7712685Y-14819429D02*
X7855542Y-14890857D01*
X7855542Y-14890857D02*
X8069828Y-14890857D01*
X8069828Y-14890857D02*
X8212685Y-14819429D01*
X8212685Y-14819429D02*
X8284114Y-14748000D01*
X8284114Y-14748000D02*
X8355542Y-14605143D01*
X8355542Y-14605143D02*
X8355542Y-14033714D01*
X8284114Y-15533714D02*
X8284114Y-16033714D01*
X9069828Y-16248000D02*
X9069828Y-15533714D01*
X9069828Y-15533714D02*
X7569828Y-15533714D01*
X7569828Y-15533714D02*
X7569828Y-16248000D01*
X8284114Y-17390857D02*
X8284114Y-16890857D01*
X9069828Y-16890857D02*
X7569828Y-16890857D01*
X7569828Y-16890857D02*
X7569828Y-17605143D01*
X11484828Y-13283713D02*
X10484828Y-13283713D01*
X9984828Y-13283713D02*
X10056257Y-13212285D01*
X10056257Y-13212285D02*
X10127685Y-13283713D01*
X10127685Y-13283713D02*
X10056257Y-13355142D01*
X10056257Y-13355142D02*
X9984828Y-13283713D01*
X9984828Y-13283713D02*
X10127685Y-13283713D01*
X10484828Y-13997999D02*
X11484828Y-13997999D01*
X10627685Y-13997999D02*
X10556257Y-14069428D01*
X10556257Y-14069428D02*
X10484828Y-14212285D01*
X10484828Y-14212285D02*
X10484828Y-14426571D01*
X10484828Y-14426571D02*
X10556257Y-14569428D01*
X10556257Y-14569428D02*
X10699114Y-14640857D01*
X10699114Y-14640857D02*
X11484828Y-14640857D01*
X10484828Y-15355142D02*
X11984828Y-15355142D01*
X10556257Y-15355142D02*
X10484828Y-15498000D01*
X10484828Y-15498000D02*
X10484828Y-15783714D01*
X10484828Y-15783714D02*
X10556257Y-15926571D01*
X10556257Y-15926571D02*
X10627685Y-15998000D01*
X10627685Y-15998000D02*
X10770542Y-16069428D01*
X10770542Y-16069428D02*
X11199114Y-16069428D01*
X11199114Y-16069428D02*
X11341971Y-15998000D01*
X11341971Y-15998000D02*
X11413400Y-15926571D01*
X11413400Y-15926571D02*
X11484828Y-15783714D01*
X11484828Y-15783714D02*
X11484828Y-15498000D01*
X11484828Y-15498000D02*
X11413400Y-15355142D01*
X10484828Y-17355143D02*
X11484828Y-17355143D01*
X10484828Y-16712285D02*
X11270542Y-16712285D01*
X11270542Y-16712285D02*
X11413400Y-16783714D01*
X11413400Y-16783714D02*
X11484828Y-16926571D01*
X11484828Y-16926571D02*
X11484828Y-17140857D01*
X11484828Y-17140857D02*
X11413400Y-17283714D01*
X11413400Y-17283714D02*
X11341971Y-17355143D01*
X10484828Y-17855143D02*
X10484828Y-18426571D01*
X9984828Y-18069428D02*
X11270542Y-18069428D01*
X11270542Y-18069428D02*
X11413400Y-18140857D01*
X11413400Y-18140857D02*
X11484828Y-18283714D01*
X11484828Y-18283714D02*
X11484828Y-18426571D01*
D12*
X83070666Y-83891855D02*
X83070666Y-84463283D01*
X83070666Y-84463283D02*
X83108761Y-84577569D01*
X83108761Y-84577569D02*
X83184952Y-84653760D01*
X83184952Y-84653760D02*
X83299237Y-84691855D01*
X83299237Y-84691855D02*
X83375428Y-84691855D01*
X82346856Y-83891855D02*
X82499237Y-83891855D01*
X82499237Y-83891855D02*
X82575428Y-83929950D01*
X82575428Y-83929950D02*
X82613523Y-83968045D01*
X82613523Y-83968045D02*
X82689713Y-84082331D01*
X82689713Y-84082331D02*
X82727809Y-84234712D01*
X82727809Y-84234712D02*
X82727809Y-84539474D01*
X82727809Y-84539474D02*
X82689713Y-84615664D01*
X82689713Y-84615664D02*
X82651618Y-84653760D01*
X82651618Y-84653760D02*
X82575428Y-84691855D01*
X82575428Y-84691855D02*
X82423047Y-84691855D01*
X82423047Y-84691855D02*
X82346856Y-84653760D01*
X82346856Y-84653760D02*
X82308761Y-84615664D01*
X82308761Y-84615664D02*
X82270666Y-84539474D01*
X82270666Y-84539474D02*
X82270666Y-84348998D01*
X82270666Y-84348998D02*
X82308761Y-84272807D01*
X82308761Y-84272807D02*
X82346856Y-84234712D01*
X82346856Y-84234712D02*
X82423047Y-84196617D01*
X82423047Y-84196617D02*
X82575428Y-84196617D01*
X82575428Y-84196617D02*
X82651618Y-84234712D01*
X82651618Y-84234712D02*
X82689713Y-84272807D01*
X82689713Y-84272807D02*
X82727809Y-84348998D01*
X67957666Y-83764855D02*
X67957666Y-84336283D01*
X67957666Y-84336283D02*
X67995761Y-84450569D01*
X67995761Y-84450569D02*
X68071952Y-84526760D01*
X68071952Y-84526760D02*
X68186237Y-84564855D01*
X68186237Y-84564855D02*
X68262428Y-84564855D01*
X67652904Y-83764855D02*
X67119570Y-83764855D01*
X67119570Y-83764855D02*
X67462428Y-84564855D01*
X87388619Y-84526855D02*
X87388619Y-85098283D01*
X87388619Y-85098283D02*
X87426714Y-85212569D01*
X87426714Y-85212569D02*
X87502905Y-85288760D01*
X87502905Y-85288760D02*
X87617190Y-85326855D01*
X87617190Y-85326855D02*
X87693381Y-85326855D01*
X86588619Y-85326855D02*
X87045762Y-85326855D01*
X86817190Y-85326855D02*
X86817190Y-84526855D01*
X86817190Y-84526855D02*
X86893381Y-84641140D01*
X86893381Y-84641140D02*
X86969571Y-84717331D01*
X86969571Y-84717331D02*
X87045762Y-84755426D01*
X86321952Y-84526855D02*
X85826714Y-84526855D01*
X85826714Y-84526855D02*
X86093380Y-84831617D01*
X86093380Y-84831617D02*
X85979095Y-84831617D01*
X85979095Y-84831617D02*
X85902904Y-84869712D01*
X85902904Y-84869712D02*
X85864809Y-84907807D01*
X85864809Y-84907807D02*
X85826714Y-84983998D01*
X85826714Y-84983998D02*
X85826714Y-85174474D01*
X85826714Y-85174474D02*
X85864809Y-85250664D01*
X85864809Y-85250664D02*
X85902904Y-85288760D01*
X85902904Y-85288760D02*
X85979095Y-85326855D01*
X85979095Y-85326855D02*
X86207666Y-85326855D01*
X86207666Y-85326855D02*
X86283857Y-85288760D01*
X86283857Y-85288760D02*
X86321952Y-85250664D01*
X76168189Y-36939855D02*
X76434856Y-36558902D01*
X76625332Y-36939855D02*
X76625332Y-36139855D01*
X76625332Y-36139855D02*
X76320570Y-36139855D01*
X76320570Y-36139855D02*
X76244380Y-36177950D01*
X76244380Y-36177950D02*
X76206285Y-36216045D01*
X76206285Y-36216045D02*
X76168189Y-36292236D01*
X76168189Y-36292236D02*
X76168189Y-36406521D01*
X76168189Y-36406521D02*
X76206285Y-36482712D01*
X76206285Y-36482712D02*
X76244380Y-36520807D01*
X76244380Y-36520807D02*
X76320570Y-36558902D01*
X76320570Y-36558902D02*
X76625332Y-36558902D01*
X75939618Y-36139855D02*
X75672951Y-36939855D01*
X75672951Y-36939855D02*
X75406285Y-36139855D01*
X75215809Y-36139855D02*
X74720571Y-36139855D01*
X74720571Y-36139855D02*
X74987237Y-36444617D01*
X74987237Y-36444617D02*
X74872952Y-36444617D01*
X74872952Y-36444617D02*
X74796761Y-36482712D01*
X74796761Y-36482712D02*
X74758666Y-36520807D01*
X74758666Y-36520807D02*
X74720571Y-36596998D01*
X74720571Y-36596998D02*
X74720571Y-36787474D01*
X74720571Y-36787474D02*
X74758666Y-36863664D01*
X74758666Y-36863664D02*
X74796761Y-36901760D01*
X74796761Y-36901760D02*
X74872952Y-36939855D01*
X74872952Y-36939855D02*
X75101523Y-36939855D01*
X75101523Y-36939855D02*
X75177714Y-36901760D01*
X75177714Y-36901760D02*
X75215809Y-36863664D01*
X150541855Y-17386380D02*
X151113283Y-17386380D01*
X151113283Y-17386380D02*
X151227569Y-17348285D01*
X151227569Y-17348285D02*
X151303760Y-17272094D01*
X151303760Y-17272094D02*
X151341855Y-17157809D01*
X151341855Y-17157809D02*
X151341855Y-17081618D01*
X151341855Y-18186380D02*
X151341855Y-17729237D01*
X151341855Y-17957809D02*
X150541855Y-17957809D01*
X150541855Y-17957809D02*
X150656140Y-17881618D01*
X150656140Y-17881618D02*
X150732331Y-17805428D01*
X150732331Y-17805428D02*
X150770426Y-17729237D01*
X151341855Y-18948285D02*
X151341855Y-18491142D01*
X151341855Y-18719714D02*
X150541855Y-18719714D01*
X150541855Y-18719714D02*
X150656140Y-18643523D01*
X150656140Y-18643523D02*
X150732331Y-18567333D01*
X150732331Y-18567333D02*
X150770426Y-18491142D01*
X647666Y-30678855D02*
X647666Y-31250283D01*
X647666Y-31250283D02*
X685761Y-31364569D01*
X685761Y-31364569D02*
X761952Y-31440760D01*
X761952Y-31440760D02*
X876237Y-31478855D01*
X876237Y-31478855D02*
X952428Y-31478855D01*
X304809Y-30755045D02*
X266713Y-30716950D01*
X266713Y-30716950D02*
X190523Y-30678855D01*
X190523Y-30678855D02*
X47Y-30678855D01*
X47Y-30678855D02*
X-76143Y-30716950D01*
X-76143Y-30716950D02*
X-114238Y-30755045D01*
X-114238Y-30755045D02*
X-152333Y-30831236D01*
X-152333Y-30831236D02*
X-152333Y-30907426D01*
X-152333Y-30907426D02*
X-114238Y-31021712D01*
X-114238Y-31021712D02*
X342904Y-31478855D01*
X342904Y-31478855D02*
X-152333Y-31478855D01*
X46921476Y-89957950D02*
X46997666Y-89919855D01*
X46997666Y-89919855D02*
X47111952Y-89919855D01*
X47111952Y-89919855D02*
X47226238Y-89957950D01*
X47226238Y-89957950D02*
X47302428Y-90034140D01*
X47302428Y-90034140D02*
X47340523Y-90110331D01*
X47340523Y-90110331D02*
X47378619Y-90262712D01*
X47378619Y-90262712D02*
X47378619Y-90376998D01*
X47378619Y-90376998D02*
X47340523Y-90529379D01*
X47340523Y-90529379D02*
X47302428Y-90605569D01*
X47302428Y-90605569D02*
X47226238Y-90681760D01*
X47226238Y-90681760D02*
X47111952Y-90719855D01*
X47111952Y-90719855D02*
X47035761Y-90719855D01*
X47035761Y-90719855D02*
X46921476Y-90681760D01*
X46921476Y-90681760D02*
X46883380Y-90643664D01*
X46883380Y-90643664D02*
X46883380Y-90376998D01*
X46883380Y-90376998D02*
X47035761Y-90376998D01*
X46540523Y-90719855D02*
X46540523Y-89919855D01*
X46540523Y-89919855D02*
X46083380Y-90719855D01*
X46083380Y-90719855D02*
X46083380Y-89919855D01*
X45702428Y-90719855D02*
X45702428Y-89919855D01*
X45702428Y-89919855D02*
X45511952Y-89919855D01*
X45511952Y-89919855D02*
X45397666Y-89957950D01*
X45397666Y-89957950D02*
X45321476Y-90034140D01*
X45321476Y-90034140D02*
X45283381Y-90110331D01*
X45283381Y-90110331D02*
X45245285Y-90262712D01*
X45245285Y-90262712D02*
X45245285Y-90376998D01*
X45245285Y-90376998D02*
X45283381Y-90529379D01*
X45283381Y-90529379D02*
X45321476Y-90605569D01*
X45321476Y-90605569D02*
X45397666Y-90681760D01*
X45397666Y-90681760D02*
X45511952Y-90719855D01*
X45511952Y-90719855D02*
X45702428Y-90719855D01*
X44483381Y-90719855D02*
X44940524Y-90719855D01*
X44711952Y-90719855D02*
X44711952Y-89919855D01*
X44711952Y-89919855D02*
X44788143Y-90034140D01*
X44788143Y-90034140D02*
X44864333Y-90110331D01*
X44864333Y-90110331D02*
X44940524Y-90148426D01*
X647666Y-51506855D02*
X647666Y-52078283D01*
X647666Y-52078283D02*
X685761Y-52192569D01*
X685761Y-52192569D02*
X761952Y-52268760D01*
X761952Y-52268760D02*
X876237Y-52306855D01*
X876237Y-52306855D02*
X952428Y-52306855D01*
X-76143Y-51773521D02*
X-76143Y-52306855D01*
X114332Y-51468760D02*
X304809Y-52040188D01*
X304809Y-52040188D02*
X-190429Y-52040188D01*
X59213666Y-47061855D02*
X59213666Y-47633283D01*
X59213666Y-47633283D02*
X59251761Y-47747569D01*
X59251761Y-47747569D02*
X59327952Y-47823760D01*
X59327952Y-47823760D02*
X59442237Y-47861855D01*
X59442237Y-47861855D02*
X59518428Y-47861855D01*
X58832713Y-47861855D02*
X58832713Y-47061855D01*
X58832713Y-47061855D02*
X58527951Y-47061855D01*
X58527951Y-47061855D02*
X58451761Y-47099950D01*
X58451761Y-47099950D02*
X58413666Y-47138045D01*
X58413666Y-47138045D02*
X58375570Y-47214236D01*
X58375570Y-47214236D02*
X58375570Y-47328521D01*
X58375570Y-47328521D02*
X58413666Y-47404712D01*
X58413666Y-47404712D02*
X58451761Y-47442807D01*
X58451761Y-47442807D02*
X58527951Y-47480902D01*
X58527951Y-47480902D02*
X58832713Y-47480902D01*
X57613666Y-47861855D02*
X58070809Y-47861855D01*
X57842237Y-47861855D02*
X57842237Y-47061855D01*
X57842237Y-47061855D02*
X57918428Y-47176140D01*
X57918428Y-47176140D02*
X57994618Y-47252331D01*
X57994618Y-47252331D02*
X58070809Y-47290426D01*
X48630775Y-88376855D02*
X48630775Y-89024474D01*
X48630775Y-89024474D02*
X48592680Y-89100664D01*
X48592680Y-89100664D02*
X48554585Y-89138760D01*
X48554585Y-89138760D02*
X48478394Y-89176855D01*
X48478394Y-89176855D02*
X48326013Y-89176855D01*
X48326013Y-89176855D02*
X48249823Y-89138760D01*
X48249823Y-89138760D02*
X48211728Y-89100664D01*
X48211728Y-89100664D02*
X48173632Y-89024474D01*
X48173632Y-89024474D02*
X48173632Y-88376855D01*
X47373633Y-89176855D02*
X47830776Y-89176855D01*
X47602204Y-89176855D02*
X47602204Y-88376855D01*
X47602204Y-88376855D02*
X47678395Y-88491140D01*
X47678395Y-88491140D02*
X47754585Y-88567331D01*
X47754585Y-88567331D02*
X47830776Y-88605426D01*
X46916490Y-88719712D02*
X46992680Y-88681617D01*
X46992680Y-88681617D02*
X47030775Y-88643521D01*
X47030775Y-88643521D02*
X47068871Y-88567331D01*
X47068871Y-88567331D02*
X47068871Y-88529236D01*
X47068871Y-88529236D02*
X47030775Y-88453045D01*
X47030775Y-88453045D02*
X46992680Y-88414950D01*
X46992680Y-88414950D02*
X46916490Y-88376855D01*
X46916490Y-88376855D02*
X46764109Y-88376855D01*
X46764109Y-88376855D02*
X46687918Y-88414950D01*
X46687918Y-88414950D02*
X46649823Y-88453045D01*
X46649823Y-88453045D02*
X46611728Y-88529236D01*
X46611728Y-88529236D02*
X46611728Y-88567331D01*
X46611728Y-88567331D02*
X46649823Y-88643521D01*
X46649823Y-88643521D02*
X46687918Y-88681617D01*
X46687918Y-88681617D02*
X46764109Y-88719712D01*
X46764109Y-88719712D02*
X46916490Y-88719712D01*
X46916490Y-88719712D02*
X46992680Y-88757807D01*
X46992680Y-88757807D02*
X47030775Y-88795902D01*
X47030775Y-88795902D02*
X47068871Y-88872093D01*
X47068871Y-88872093D02*
X47068871Y-89024474D01*
X47068871Y-89024474D02*
X47030775Y-89100664D01*
X47030775Y-89100664D02*
X46992680Y-89138760D01*
X46992680Y-89138760D02*
X46916490Y-89176855D01*
X46916490Y-89176855D02*
X46764109Y-89176855D01*
X46764109Y-89176855D02*
X46687918Y-89138760D01*
X46687918Y-89138760D02*
X46649823Y-89100664D01*
X46649823Y-89100664D02*
X46611728Y-89024474D01*
X46611728Y-89024474D02*
X46611728Y-88872093D01*
X46611728Y-88872093D02*
X46649823Y-88795902D01*
X46649823Y-88795902D02*
X46687918Y-88757807D01*
X46687918Y-88757807D02*
X46764109Y-88719712D01*
D13*
X43986220Y-83994666D02*
X43224316Y-83994666D01*
X43605268Y-84375619D02*
X43605268Y-83613714D01*
X42271935Y-83375619D02*
X42748125Y-83375619D01*
X42748125Y-83375619D02*
X42795744Y-83851809D01*
X42795744Y-83851809D02*
X42748125Y-83804190D01*
X42748125Y-83804190D02*
X42652887Y-83756571D01*
X42652887Y-83756571D02*
X42414792Y-83756571D01*
X42414792Y-83756571D02*
X42319554Y-83804190D01*
X42319554Y-83804190D02*
X42271935Y-83851809D01*
X42271935Y-83851809D02*
X42224316Y-83947047D01*
X42224316Y-83947047D02*
X42224316Y-84185142D01*
X42224316Y-84185142D02*
X42271935Y-84280380D01*
X42271935Y-84280380D02*
X42319554Y-84328000D01*
X42319554Y-84328000D02*
X42414792Y-84375619D01*
X42414792Y-84375619D02*
X42652887Y-84375619D01*
X42652887Y-84375619D02*
X42748125Y-84328000D01*
X42748125Y-84328000D02*
X42795744Y-84280380D01*
X41938601Y-83375619D02*
X41605268Y-84375619D01*
X41605268Y-84375619D02*
X41271935Y-83375619D01*
X43208411Y-78343238D02*
X43303649Y-78295619D01*
X43303649Y-78295619D02*
X43446506Y-78295619D01*
X43446506Y-78295619D02*
X43589363Y-78343238D01*
X43589363Y-78343238D02*
X43684601Y-78438476D01*
X43684601Y-78438476D02*
X43732220Y-78533714D01*
X43732220Y-78533714D02*
X43779839Y-78724190D01*
X43779839Y-78724190D02*
X43779839Y-78867047D01*
X43779839Y-78867047D02*
X43732220Y-79057523D01*
X43732220Y-79057523D02*
X43684601Y-79152761D01*
X43684601Y-79152761D02*
X43589363Y-79248000D01*
X43589363Y-79248000D02*
X43446506Y-79295619D01*
X43446506Y-79295619D02*
X43351268Y-79295619D01*
X43351268Y-79295619D02*
X43208411Y-79248000D01*
X43208411Y-79248000D02*
X43160792Y-79200380D01*
X43160792Y-79200380D02*
X43160792Y-78867047D01*
X43160792Y-78867047D02*
X43351268Y-78867047D01*
X42732220Y-79295619D02*
X42732220Y-78295619D01*
X42732220Y-78295619D02*
X42160792Y-79295619D01*
X42160792Y-79295619D02*
X42160792Y-78295619D01*
X41684601Y-79295619D02*
X41684601Y-78295619D01*
X41684601Y-78295619D02*
X41446506Y-78295619D01*
X41446506Y-78295619D02*
X41303649Y-78343238D01*
X41303649Y-78343238D02*
X41208411Y-78438476D01*
X41208411Y-78438476D02*
X41160792Y-78533714D01*
X41160792Y-78533714D02*
X41113173Y-78724190D01*
X41113173Y-78724190D02*
X41113173Y-78867047D01*
X41113173Y-78867047D02*
X41160792Y-79057523D01*
X41160792Y-79057523D02*
X41208411Y-79152761D01*
X41208411Y-79152761D02*
X41303649Y-79248000D01*
X41303649Y-79248000D02*
X41446506Y-79295619D01*
X41446506Y-79295619D02*
X41684601Y-79295619D01*
X43186192Y-71701019D02*
X43519525Y-71224828D01*
X43757620Y-71701019D02*
X43757620Y-70701019D01*
X43757620Y-70701019D02*
X43376668Y-70701019D01*
X43376668Y-70701019D02*
X43281430Y-70748638D01*
X43281430Y-70748638D02*
X43233811Y-70796257D01*
X43233811Y-70796257D02*
X43186192Y-70891495D01*
X43186192Y-70891495D02*
X43186192Y-71034352D01*
X43186192Y-71034352D02*
X43233811Y-71129590D01*
X43233811Y-71129590D02*
X43281430Y-71177209D01*
X43281430Y-71177209D02*
X43376668Y-71224828D01*
X43376668Y-71224828D02*
X43757620Y-71224828D01*
X42852858Y-70701019D02*
X42186192Y-71701019D01*
X42186192Y-70701019D02*
X42852858Y-71701019D01*
X41805239Y-71701019D02*
X41805239Y-70701019D01*
X41805239Y-70701019D02*
X41567144Y-70701019D01*
X41567144Y-70701019D02*
X41424287Y-70748638D01*
X41424287Y-70748638D02*
X41329049Y-70843876D01*
X41329049Y-70843876D02*
X41281430Y-70939114D01*
X41281430Y-70939114D02*
X41233811Y-71129590D01*
X41233811Y-71129590D02*
X41233811Y-71272447D01*
X41233811Y-71272447D02*
X41281430Y-71462923D01*
X41281430Y-71462923D02*
X41329049Y-71558161D01*
X41329049Y-71558161D02*
X41424287Y-71653400D01*
X41424287Y-71653400D02*
X41567144Y-71701019D01*
X41567144Y-71701019D02*
X41805239Y-71701019D01*
X41268491Y-68554804D02*
X41605209Y-68218087D01*
X41605209Y-68218087D02*
X40898102Y-67510980D01*
X41032789Y-68790506D02*
X40325682Y-68083400D01*
X40696072Y-69127224D02*
X39988965Y-68420117D01*
X39988965Y-68420117D02*
X40292011Y-69531285D01*
X40292011Y-69531285D02*
X39584904Y-68824178D01*
X39955293Y-69868002D02*
X39248186Y-69160895D01*
X39551232Y-70272063D02*
X39450217Y-69564956D01*
X38844125Y-69564956D02*
X39652247Y-69564956D01*
X43960820Y-81378466D02*
X43198916Y-81378466D01*
X43579868Y-81759419D02*
X43579868Y-80997514D01*
X42817963Y-80759419D02*
X42198916Y-80759419D01*
X42198916Y-80759419D02*
X42532249Y-81140371D01*
X42532249Y-81140371D02*
X42389392Y-81140371D01*
X42389392Y-81140371D02*
X42294154Y-81187990D01*
X42294154Y-81187990D02*
X42246535Y-81235609D01*
X42246535Y-81235609D02*
X42198916Y-81330847D01*
X42198916Y-81330847D02*
X42198916Y-81568942D01*
X42198916Y-81568942D02*
X42246535Y-81664180D01*
X42246535Y-81664180D02*
X42294154Y-81711800D01*
X42294154Y-81711800D02*
X42389392Y-81759419D01*
X42389392Y-81759419D02*
X42675106Y-81759419D01*
X42675106Y-81759419D02*
X42770344Y-81711800D01*
X42770344Y-81711800D02*
X42817963Y-81664180D01*
X41913201Y-80759419D02*
X41579868Y-81759419D01*
X41579868Y-81759419D02*
X41246535Y-80759419D01*
X41008439Y-80759419D02*
X40389392Y-80759419D01*
X40389392Y-80759419D02*
X40722725Y-81140371D01*
X40722725Y-81140371D02*
X40579868Y-81140371D01*
X40579868Y-81140371D02*
X40484630Y-81187990D01*
X40484630Y-81187990D02*
X40437011Y-81235609D01*
X40437011Y-81235609D02*
X40389392Y-81330847D01*
X40389392Y-81330847D02*
X40389392Y-81568942D01*
X40389392Y-81568942D02*
X40437011Y-81664180D01*
X40437011Y-81664180D02*
X40484630Y-81711800D01*
X40484630Y-81711800D02*
X40579868Y-81759419D01*
X40579868Y-81759419D02*
X40865582Y-81759419D01*
X40865582Y-81759419D02*
X40960820Y-81711800D01*
X40960820Y-81711800D02*
X41008439Y-81664180D01*
X43160792Y-76755619D02*
X43494125Y-76279428D01*
X43732220Y-76755619D02*
X43732220Y-75755619D01*
X43732220Y-75755619D02*
X43351268Y-75755619D01*
X43351268Y-75755619D02*
X43256030Y-75803238D01*
X43256030Y-75803238D02*
X43208411Y-75850857D01*
X43208411Y-75850857D02*
X43160792Y-75946095D01*
X43160792Y-75946095D02*
X43160792Y-76088952D01*
X43160792Y-76088952D02*
X43208411Y-76184190D01*
X43208411Y-76184190D02*
X43256030Y-76231809D01*
X43256030Y-76231809D02*
X43351268Y-76279428D01*
X43351268Y-76279428D02*
X43732220Y-76279428D01*
X42779839Y-76708000D02*
X42636982Y-76755619D01*
X42636982Y-76755619D02*
X42398887Y-76755619D01*
X42398887Y-76755619D02*
X42303649Y-76708000D01*
X42303649Y-76708000D02*
X42256030Y-76660380D01*
X42256030Y-76660380D02*
X42208411Y-76565142D01*
X42208411Y-76565142D02*
X42208411Y-76469904D01*
X42208411Y-76469904D02*
X42256030Y-76374666D01*
X42256030Y-76374666D02*
X42303649Y-76327047D01*
X42303649Y-76327047D02*
X42398887Y-76279428D01*
X42398887Y-76279428D02*
X42589363Y-76231809D01*
X42589363Y-76231809D02*
X42684601Y-76184190D01*
X42684601Y-76184190D02*
X42732220Y-76136571D01*
X42732220Y-76136571D02*
X42779839Y-76041333D01*
X42779839Y-76041333D02*
X42779839Y-75946095D01*
X42779839Y-75946095D02*
X42732220Y-75850857D01*
X42732220Y-75850857D02*
X42684601Y-75803238D01*
X42684601Y-75803238D02*
X42589363Y-75755619D01*
X42589363Y-75755619D02*
X42351268Y-75755619D01*
X42351268Y-75755619D02*
X42208411Y-75803238D01*
X41922696Y-75755619D02*
X41351268Y-75755619D01*
X41636982Y-76755619D02*
X41636982Y-75755619D01*
X43875077Y-73241019D02*
X43303649Y-73241019D01*
X43589363Y-74241019D02*
X43589363Y-73241019D01*
X43065553Y-73241019D02*
X42398887Y-74241019D01*
X42398887Y-73241019D02*
X43065553Y-74241019D01*
X42017934Y-74241019D02*
X42017934Y-73241019D01*
X42017934Y-73241019D02*
X41779839Y-73241019D01*
X41779839Y-73241019D02*
X41636982Y-73288638D01*
X41636982Y-73288638D02*
X41541744Y-73383876D01*
X41541744Y-73383876D02*
X41494125Y-73479114D01*
X41494125Y-73479114D02*
X41446506Y-73669590D01*
X41446506Y-73669590D02*
X41446506Y-73812447D01*
X41446506Y-73812447D02*
X41494125Y-74002923D01*
X41494125Y-74002923D02*
X41541744Y-74098161D01*
X41541744Y-74098161D02*
X41636982Y-74193400D01*
X41636982Y-74193400D02*
X41779839Y-74241019D01*
X41779839Y-74241019D02*
X42017934Y-74241019D01*
X44202192Y-69040380D02*
X44249811Y-69088000D01*
X44249811Y-69088000D02*
X44392668Y-69135619D01*
X44392668Y-69135619D02*
X44487906Y-69135619D01*
X44487906Y-69135619D02*
X44630763Y-69088000D01*
X44630763Y-69088000D02*
X44726001Y-68992761D01*
X44726001Y-68992761D02*
X44773620Y-68897523D01*
X44773620Y-68897523D02*
X44821239Y-68707047D01*
X44821239Y-68707047D02*
X44821239Y-68564190D01*
X44821239Y-68564190D02*
X44773620Y-68373714D01*
X44773620Y-68373714D02*
X44726001Y-68278476D01*
X44726001Y-68278476D02*
X44630763Y-68183238D01*
X44630763Y-68183238D02*
X44487906Y-68135619D01*
X44487906Y-68135619D02*
X44392668Y-68135619D01*
X44392668Y-68135619D02*
X44249811Y-68183238D01*
X44249811Y-68183238D02*
X44202192Y-68230857D01*
X43440287Y-68611809D02*
X43773620Y-68611809D01*
X43773620Y-69135619D02*
X43773620Y-68135619D01*
X43773620Y-68135619D02*
X43297430Y-68135619D01*
X42392668Y-68183238D02*
X42487906Y-68135619D01*
X42487906Y-68135619D02*
X42630763Y-68135619D01*
X42630763Y-68135619D02*
X42773620Y-68183238D01*
X42773620Y-68183238D02*
X42868858Y-68278476D01*
X42868858Y-68278476D02*
X42916477Y-68373714D01*
X42916477Y-68373714D02*
X42964096Y-68564190D01*
X42964096Y-68564190D02*
X42964096Y-68707047D01*
X42964096Y-68707047D02*
X42916477Y-68897523D01*
X42916477Y-68897523D02*
X42868858Y-68992761D01*
X42868858Y-68992761D02*
X42773620Y-69088000D01*
X42773620Y-69088000D02*
X42630763Y-69135619D01*
X42630763Y-69135619D02*
X42535525Y-69135619D01*
X42535525Y-69135619D02*
X42392668Y-69088000D01*
X42392668Y-69088000D02*
X42345049Y-69040380D01*
X42345049Y-69040380D02*
X42345049Y-68707047D01*
X42345049Y-68707047D02*
X42535525Y-68707047D01*
D12*
X49117189Y-36939855D02*
X49383856Y-36558902D01*
X49574332Y-36939855D02*
X49574332Y-36139855D01*
X49574332Y-36139855D02*
X49269570Y-36139855D01*
X49269570Y-36139855D02*
X49193380Y-36177950D01*
X49193380Y-36177950D02*
X49155285Y-36216045D01*
X49155285Y-36216045D02*
X49117189Y-36292236D01*
X49117189Y-36292236D02*
X49117189Y-36406521D01*
X49117189Y-36406521D02*
X49155285Y-36482712D01*
X49155285Y-36482712D02*
X49193380Y-36520807D01*
X49193380Y-36520807D02*
X49269570Y-36558902D01*
X49269570Y-36558902D02*
X49574332Y-36558902D01*
X48888618Y-36139855D02*
X48621951Y-36939855D01*
X48621951Y-36939855D02*
X48355285Y-36139855D01*
X47707666Y-36139855D02*
X48088618Y-36139855D01*
X48088618Y-36139855D02*
X48126714Y-36520807D01*
X48126714Y-36520807D02*
X48088618Y-36482712D01*
X48088618Y-36482712D02*
X48012428Y-36444617D01*
X48012428Y-36444617D02*
X47821952Y-36444617D01*
X47821952Y-36444617D02*
X47745761Y-36482712D01*
X47745761Y-36482712D02*
X47707666Y-36520807D01*
X47707666Y-36520807D02*
X47669571Y-36596998D01*
X47669571Y-36596998D02*
X47669571Y-36787474D01*
X47669571Y-36787474D02*
X47707666Y-36863664D01*
X47707666Y-36863664D02*
X47745761Y-36901760D01*
X47745761Y-36901760D02*
X47821952Y-36939855D01*
X47821952Y-36939855D02*
X48012428Y-36939855D01*
X48012428Y-36939855D02*
X48088618Y-36901760D01*
X48088618Y-36901760D02*
X48126714Y-36863664D01*
X65055666Y-64001855D02*
X65055666Y-64573283D01*
X65055666Y-64573283D02*
X65093761Y-64687569D01*
X65093761Y-64687569D02*
X65169952Y-64763760D01*
X65169952Y-64763760D02*
X65284237Y-64801855D01*
X65284237Y-64801855D02*
X65360428Y-64801855D01*
X64674713Y-64801855D02*
X64674713Y-64001855D01*
X64674713Y-64001855D02*
X64369951Y-64001855D01*
X64369951Y-64001855D02*
X64293761Y-64039950D01*
X64293761Y-64039950D02*
X64255666Y-64078045D01*
X64255666Y-64078045D02*
X64217570Y-64154236D01*
X64217570Y-64154236D02*
X64217570Y-64268521D01*
X64217570Y-64268521D02*
X64255666Y-64344712D01*
X64255666Y-64344712D02*
X64293761Y-64382807D01*
X64293761Y-64382807D02*
X64369951Y-64420902D01*
X64369951Y-64420902D02*
X64674713Y-64420902D01*
X63912809Y-64078045D02*
X63874713Y-64039950D01*
X63874713Y-64039950D02*
X63798523Y-64001855D01*
X63798523Y-64001855D02*
X63608047Y-64001855D01*
X63608047Y-64001855D02*
X63531856Y-64039950D01*
X63531856Y-64039950D02*
X63493761Y-64078045D01*
X63493761Y-64078045D02*
X63455666Y-64154236D01*
X63455666Y-64154236D02*
X63455666Y-64230426D01*
X63455666Y-64230426D02*
X63493761Y-64344712D01*
X63493761Y-64344712D02*
X63950904Y-64801855D01*
X63950904Y-64801855D02*
X63455666Y-64801855D01*
X60416855Y-18446810D02*
X60035902Y-18180143D01*
X60416855Y-17989667D02*
X59616855Y-17989667D01*
X59616855Y-17989667D02*
X59616855Y-18294429D01*
X59616855Y-18294429D02*
X59654950Y-18370619D01*
X59654950Y-18370619D02*
X59693045Y-18408714D01*
X59693045Y-18408714D02*
X59769236Y-18446810D01*
X59769236Y-18446810D02*
X59883521Y-18446810D01*
X59883521Y-18446810D02*
X59959712Y-18408714D01*
X59959712Y-18408714D02*
X59997807Y-18370619D01*
X59997807Y-18370619D02*
X60035902Y-18294429D01*
X60035902Y-18294429D02*
X60035902Y-17989667D01*
X59616855Y-18675381D02*
X60416855Y-18942048D01*
X60416855Y-18942048D02*
X59616855Y-19208714D01*
X59693045Y-19437285D02*
X59654950Y-19475381D01*
X59654950Y-19475381D02*
X59616855Y-19551571D01*
X59616855Y-19551571D02*
X59616855Y-19742047D01*
X59616855Y-19742047D02*
X59654950Y-19818238D01*
X59654950Y-19818238D02*
X59693045Y-19856333D01*
X59693045Y-19856333D02*
X59769236Y-19894428D01*
X59769236Y-19894428D02*
X59845426Y-19894428D01*
X59845426Y-19894428D02*
X59959712Y-19856333D01*
X59959712Y-19856333D02*
X60416855Y-19399190D01*
X60416855Y-19399190D02*
X60416855Y-19894428D01*
X113765855Y-27908333D02*
X114337283Y-27908333D01*
X114337283Y-27908333D02*
X114451569Y-27870238D01*
X114451569Y-27870238D02*
X114527760Y-27794047D01*
X114527760Y-27794047D02*
X114565855Y-27679762D01*
X114565855Y-27679762D02*
X114565855Y-27603571D01*
X114565855Y-28289286D02*
X113765855Y-28289286D01*
X113765855Y-28289286D02*
X113765855Y-28594048D01*
X113765855Y-28594048D02*
X113803950Y-28670238D01*
X113803950Y-28670238D02*
X113842045Y-28708333D01*
X113842045Y-28708333D02*
X113918236Y-28746429D01*
X113918236Y-28746429D02*
X114032521Y-28746429D01*
X114032521Y-28746429D02*
X114108712Y-28708333D01*
X114108712Y-28708333D02*
X114146807Y-28670238D01*
X114146807Y-28670238D02*
X114184902Y-28594048D01*
X114184902Y-28594048D02*
X114184902Y-28289286D01*
X113765855Y-29013095D02*
X113765855Y-29508333D01*
X113765855Y-29508333D02*
X114070617Y-29241667D01*
X114070617Y-29241667D02*
X114070617Y-29355952D01*
X114070617Y-29355952D02*
X114108712Y-29432143D01*
X114108712Y-29432143D02*
X114146807Y-29470238D01*
X114146807Y-29470238D02*
X114222998Y-29508333D01*
X114222998Y-29508333D02*
X114413474Y-29508333D01*
X114413474Y-29508333D02*
X114489664Y-29470238D01*
X114489664Y-29470238D02*
X114527760Y-29432143D01*
X114527760Y-29432143D02*
X114565855Y-29355952D01*
X114565855Y-29355952D02*
X114565855Y-29127381D01*
X114565855Y-29127381D02*
X114527760Y-29051190D01*
X114527760Y-29051190D02*
X114489664Y-29013095D01*
X155841619Y-26229855D02*
X155841619Y-26801283D01*
X155841619Y-26801283D02*
X155879714Y-26915569D01*
X155879714Y-26915569D02*
X155955905Y-26991760D01*
X155955905Y-26991760D02*
X156070190Y-27029855D01*
X156070190Y-27029855D02*
X156146381Y-27029855D01*
X155041619Y-27029855D02*
X155498762Y-27029855D01*
X155270190Y-27029855D02*
X155270190Y-26229855D01*
X155270190Y-26229855D02*
X155346381Y-26344140D01*
X155346381Y-26344140D02*
X155422571Y-26420331D01*
X155422571Y-26420331D02*
X155498762Y-26458426D01*
X154736857Y-26306045D02*
X154698761Y-26267950D01*
X154698761Y-26267950D02*
X154622571Y-26229855D01*
X154622571Y-26229855D02*
X154432095Y-26229855D01*
X154432095Y-26229855D02*
X154355904Y-26267950D01*
X154355904Y-26267950D02*
X154317809Y-26306045D01*
X154317809Y-26306045D02*
X154279714Y-26382236D01*
X154279714Y-26382236D02*
X154279714Y-26458426D01*
X154279714Y-26458426D02*
X154317809Y-26572712D01*
X154317809Y-26572712D02*
X154774952Y-27029855D01*
X154774952Y-27029855D02*
X154279714Y-27029855D01*
X58388189Y-25255855D02*
X58654856Y-24874902D01*
X58845332Y-25255855D02*
X58845332Y-24455855D01*
X58845332Y-24455855D02*
X58540570Y-24455855D01*
X58540570Y-24455855D02*
X58464380Y-24493950D01*
X58464380Y-24493950D02*
X58426285Y-24532045D01*
X58426285Y-24532045D02*
X58388189Y-24608236D01*
X58388189Y-24608236D02*
X58388189Y-24722521D01*
X58388189Y-24722521D02*
X58426285Y-24798712D01*
X58426285Y-24798712D02*
X58464380Y-24836807D01*
X58464380Y-24836807D02*
X58540570Y-24874902D01*
X58540570Y-24874902D02*
X58845332Y-24874902D01*
X58159618Y-24455855D02*
X57892951Y-25255855D01*
X57892951Y-25255855D02*
X57626285Y-24455855D01*
X56940571Y-25255855D02*
X57397714Y-25255855D01*
X57169142Y-25255855D02*
X57169142Y-24455855D01*
X57169142Y-24455855D02*
X57245333Y-24570140D01*
X57245333Y-24570140D02*
X57321523Y-24646331D01*
X57321523Y-24646331D02*
X57397714Y-24684426D01*
%TO.C,J6*%
X71314000Y-83372000D02*
X71314000Y-78172000D01*
X81534000Y-83372000D02*
X71314000Y-83372000D01*
X81534000Y-83372000D02*
X81534000Y-80772000D01*
X82804000Y-83372000D02*
X84134000Y-83372000D01*
X84134000Y-83372000D02*
X84134000Y-82042000D01*
X81534000Y-80772000D02*
X84134000Y-80772000D01*
X84134000Y-80772000D02*
X84134000Y-78172000D01*
X84134000Y-78172000D02*
X71314000Y-78172000D01*
%TO.C,J7*%
X55434000Y-83250000D02*
X55434000Y-78050000D01*
X65654000Y-83250000D02*
X55434000Y-83250000D01*
X65654000Y-83250000D02*
X65654000Y-80650000D01*
X66924000Y-83250000D02*
X68254000Y-83250000D01*
X68254000Y-83250000D02*
X68254000Y-81920000D01*
X65654000Y-80650000D02*
X68254000Y-80650000D01*
X68254000Y-80650000D02*
X68254000Y-78050000D01*
X68254000Y-78050000D02*
X55434000Y-78050000D01*
%TO.C,J13*%
X89781000Y-84474000D02*
X89281000Y-85474000D01*
X88781000Y-84474000D02*
X89781000Y-84474000D01*
X89281000Y-85474000D02*
X88781000Y-84474000D01*
X124971000Y-85864000D02*
X84071000Y-85864000D01*
X102471000Y-85864000D02*
X102471000Y-87174000D01*
X84071000Y-85864000D02*
X84071000Y-94984000D01*
X123671000Y-87174000D02*
X106571000Y-87174000D01*
X106571000Y-87174000D02*
X106571000Y-85864000D01*
X106571000Y-87174000D02*
X106571000Y-87174000D01*
X102471000Y-87174000D02*
X85371000Y-87174000D01*
X85371000Y-87174000D02*
X85371000Y-93674000D01*
X123671000Y-93674000D02*
X123671000Y-87174000D01*
X85371000Y-93674000D02*
X123671000Y-93674000D01*
X124971000Y-94984000D02*
X124971000Y-85864000D01*
X84071000Y-94984000D02*
X124971000Y-94984000D01*
%TO.C,RV3*%
X71501000Y-46922000D02*
X71501000Y-37152000D01*
X76571000Y-46922000D02*
X71501000Y-46922000D01*
X76571000Y-46922000D02*
X76571000Y-37152000D01*
X76571000Y-37152000D02*
X71501000Y-37152000D01*
%TO.C,J11*%
X164288000Y-11844000D02*
X164288000Y-24224000D01*
X162788000Y-11844000D02*
X160988000Y-11844000D01*
X160988000Y-11844000D02*
X160988000Y-24224000D01*
X152068000Y-11844000D02*
X164288000Y-11844000D01*
X164288000Y-14494000D02*
X164288000Y-16494000D01*
X162788000Y-14744000D02*
X164288000Y-14494000D01*
X151268000Y-15194000D02*
X151268000Y-15794000D01*
X151868000Y-15494000D02*
X151268000Y-15194000D01*
X151268000Y-15794000D02*
X151868000Y-15494000D01*
X162788000Y-16244000D02*
X162788000Y-14744000D01*
X164288000Y-16494000D02*
X162788000Y-16244000D01*
X164288000Y-19574000D02*
X164288000Y-21574000D01*
X162788000Y-19824000D02*
X164288000Y-19574000D01*
X162788000Y-21324000D02*
X162788000Y-19824000D01*
X164288000Y-21574000D02*
X162788000Y-21324000D01*
X164288000Y-24224000D02*
X152068000Y-24224000D01*
X162788000Y-24224000D02*
X162788000Y-11844000D01*
X160988000Y-24224000D02*
X162788000Y-24224000D01*
X152068000Y-24224000D02*
X152068000Y-11844000D01*
%TO.C,J2*%
X7071000Y-22012000D02*
X7071000Y-30312000D01*
X-1229000Y-22012000D02*
X7071000Y-22012000D01*
X-1229000Y-22012000D02*
X-1229000Y-30312000D01*
X-1229000Y-30312000D02*
X7071000Y-30312000D01*
%TO.C,GND1*%
X43631000Y-91256000D02*
X48531000Y-91256000D01*
X43631000Y-93656000D02*
X43631000Y-91256000D01*
X48531000Y-91256000D02*
X48531000Y-93656000D01*
X48531000Y-93656000D02*
X43631000Y-93656000D01*
%TO.C,J4*%
X7071000Y-42840000D02*
X7071000Y-51140000D01*
X-1229000Y-42840000D02*
X7071000Y-42840000D01*
X-1229000Y-42840000D02*
X-1229000Y-51140000D01*
X-1229000Y-51140000D02*
X7071000Y-51140000D01*
%TO.C,JP1*%
X51360000Y-46669000D02*
X51360000Y-44009000D01*
X56500000Y-46669000D02*
X51360000Y-46669000D01*
X56500000Y-46669000D02*
X56500000Y-44009000D01*
X57770000Y-46669000D02*
X59100000Y-46669000D01*
X59100000Y-46669000D02*
X59100000Y-45339000D01*
X56500000Y-44009000D02*
X51360000Y-44009000D01*
D14*
%TO.C,U18*%
X47879000Y-87757000D02*
X-2286000Y-87757000D01*
X47879000Y-85247000D02*
X47879000Y-87757000D01*
X47879000Y-64897000D02*
X47879000Y-69947000D01*
X14859000Y-83947000D02*
X-2286000Y-83947000D01*
X14859000Y-68707000D02*
X14859000Y-83947000D01*
X-2286000Y-87757000D02*
X-2286000Y-86487000D01*
X-2286000Y-86487000D02*
X-2286000Y-83947000D01*
X-2286000Y-83947000D02*
X-2286000Y-64897000D01*
X-2286000Y-83947000D02*
X-6731000Y-83947000D01*
X-2286000Y-64897000D02*
X47879000Y-64897000D01*
X-6731000Y-83947000D02*
X-6731000Y-68707000D01*
X-6731000Y-68707000D02*
X14859000Y-68707000D01*
D13*
X49936400Y-85064600D02*
X48793400Y-83921600D01*
X49936400Y-82829400D01*
X49936400Y-85064600D01*
G36*
X49936400Y-85064600D02*
G01*
X48793400Y-83921600D01*
X49936400Y-82829400D01*
X49936400Y-85064600D01*
G37*
D12*
%TO.C,RV5*%
X44577000Y-46922000D02*
X44577000Y-37152000D01*
X49647000Y-46922000D02*
X44577000Y-46922000D01*
X49647000Y-46922000D02*
X49647000Y-37152000D01*
X49647000Y-37152000D02*
X44577000Y-37152000D01*
%TO.C,JP2*%
X63059000Y-58238000D02*
X65719000Y-58238000D01*
X63059000Y-60838000D02*
X63059000Y-58238000D01*
X63059000Y-60838000D02*
X65719000Y-60838000D01*
X63059000Y-62108000D02*
X63059000Y-63438000D01*
X63059000Y-63438000D02*
X64389000Y-63438000D01*
X65719000Y-60838000D02*
X65719000Y-58238000D01*
%TO.C,RV2*%
X53853000Y-23808000D02*
X53853000Y-14038000D01*
X58923000Y-23808000D02*
X53853000Y-23808000D01*
X58923000Y-23808000D02*
X58923000Y-14038000D01*
X58923000Y-14038000D02*
X53853000Y-14038000D01*
%TO.C,JP3*%
X105462000Y-29905000D02*
X105462000Y-27245000D01*
X110602000Y-29905000D02*
X105462000Y-29905000D01*
X110602000Y-29905000D02*
X110602000Y-27245000D01*
X111872000Y-29905000D02*
X113202000Y-29905000D01*
X113202000Y-29905000D02*
X113202000Y-28575000D01*
X110602000Y-27245000D02*
X105462000Y-27245000D01*
%TO.C,G2*%
G36*
X145643671Y-80864585D02*
G01*
X145668627Y-80864882D01*
X146029805Y-80903365D01*
X146323392Y-80999867D01*
X146523869Y-81146221D01*
X146579487Y-81218485D01*
X146618866Y-81300989D01*
X146643961Y-81415700D01*
X146657951Y-81585999D01*
X146664014Y-81835268D01*
X146665329Y-82186888D01*
X146665329Y-83063581D01*
X146354110Y-83063581D01*
X146042891Y-83063581D01*
X146024036Y-82702071D01*
X146005180Y-82340561D01*
X145706542Y-82321398D01*
X145407903Y-82302235D01*
X145407903Y-82054195D01*
X145407903Y-81806155D01*
X145684098Y-81806155D01*
X145737907Y-81804659D01*
X145929528Y-81763177D01*
X146017379Y-81683832D01*
X146002588Y-81592312D01*
X145886282Y-81514309D01*
X145669588Y-81475514D01*
X145407903Y-81465079D01*
X145407903Y-81164082D01*
X145407903Y-80863085D01*
X145643671Y-80864585D01*
G37*
G36*
X140315329Y-81987697D02*
G01*
X140294694Y-82233402D01*
X140177153Y-82564427D01*
X139953967Y-82827806D01*
X139623296Y-83026299D01*
X139384718Y-83098701D01*
X139040721Y-83097679D01*
X138703051Y-82974903D01*
X138380822Y-82732527D01*
X138380468Y-82732184D01*
X138176101Y-82458646D01*
X138078746Y-82156756D01*
X138079321Y-81846417D01*
X138081904Y-81837785D01*
X138764334Y-81837785D01*
X138764462Y-82050984D01*
X138873853Y-82269211D01*
X139012939Y-82392237D01*
X139215081Y-82434868D01*
X139397866Y-82401635D01*
X139556310Y-82269211D01*
X139567562Y-82254746D01*
X139666105Y-82087242D01*
X139669835Y-81932902D01*
X139581121Y-81741274D01*
X139466399Y-81604458D01*
X139268434Y-81518752D01*
X139034653Y-81551557D01*
X138867077Y-81658146D01*
X138764334Y-81837785D01*
X138081904Y-81837785D01*
X138168745Y-81547527D01*
X138337937Y-81279986D01*
X138577815Y-81063696D01*
X138879298Y-80918556D01*
X139233304Y-80864466D01*
X139564674Y-80913606D01*
X139868549Y-81067275D01*
X140105854Y-81308834D01*
X140260234Y-81621302D01*
X140307089Y-81932902D01*
X140315329Y-81987697D01*
G37*
G36*
X144541926Y-80897565D02*
G01*
X144799335Y-81014615D01*
X145005048Y-81221382D01*
X145053647Y-81311308D01*
X145090763Y-81436253D01*
X145116343Y-81615156D01*
X145133738Y-81871942D01*
X145146296Y-82230536D01*
X145168755Y-83063581D01*
X144816795Y-83063581D01*
X144464834Y-83063581D01*
X144464834Y-82284416D01*
X144464743Y-82195719D01*
X144461635Y-81892443D01*
X144452044Y-81688734D01*
X144433180Y-81563458D01*
X144402251Y-81495480D01*
X144356468Y-81463667D01*
X144282706Y-81455244D01*
X144167854Y-81531829D01*
X144104466Y-81646839D01*
X144105596Y-81776382D01*
X144213349Y-81850809D01*
X144283114Y-81884988D01*
X144327506Y-81977666D01*
X144339091Y-82159280D01*
X144339085Y-82166706D01*
X144329743Y-82337180D01*
X144292735Y-82415819D01*
X144213349Y-82434868D01*
X144184265Y-82436213D01*
X144122326Y-82466634D01*
X144094226Y-82560672D01*
X144087606Y-82749224D01*
X144087606Y-83063581D01*
X143773250Y-83063581D01*
X143458893Y-83063581D01*
X143458893Y-82307106D01*
X143459109Y-82231315D01*
X143470700Y-81820623D01*
X143500533Y-81524409D01*
X143549417Y-81333977D01*
X143573699Y-81281787D01*
X143748709Y-81062342D01*
X143987696Y-80923665D01*
X144261740Y-80867994D01*
X144541926Y-80897565D01*
G37*
G36*
X142568944Y-80863176D02*
G01*
X142724378Y-80880652D01*
X142839117Y-80940034D01*
X142920882Y-81058085D01*
X142977392Y-81251571D01*
X143016366Y-81537253D01*
X143045525Y-81931897D01*
X143061911Y-82186755D01*
X143083949Y-82478131D01*
X143105410Y-82713968D01*
X143123354Y-82859249D01*
X143158531Y-83063581D01*
X142844654Y-83063581D01*
X142530777Y-83063581D01*
X142485992Y-82466223D01*
X142456265Y-82160692D01*
X142422123Y-81976259D01*
X142384151Y-81915337D01*
X142342810Y-81978662D01*
X142298562Y-82166970D01*
X142280334Y-82257799D01*
X142225303Y-82492749D01*
X142161231Y-82733506D01*
X142142320Y-82797725D01*
X142080006Y-82964415D01*
X142013383Y-83043537D01*
X141921784Y-83063581D01*
X141858186Y-83059279D01*
X141755833Y-83016806D01*
X141677137Y-82911825D01*
X141609549Y-82723519D01*
X141540520Y-82431068D01*
X141537134Y-82415075D01*
X141472362Y-82147502D01*
X141413537Y-81970885D01*
X141365512Y-81893275D01*
X141333139Y-81922723D01*
X141321270Y-82067279D01*
X141317859Y-82189512D01*
X141303189Y-82426236D01*
X141280878Y-82677130D01*
X141240485Y-83063581D01*
X140927841Y-83063581D01*
X140615197Y-83063581D01*
X140652468Y-82733506D01*
X140674860Y-82515920D01*
X140701734Y-82221969D01*
X140725481Y-81931897D01*
X140738528Y-81767253D01*
X140774030Y-81419253D01*
X140818682Y-81173127D01*
X140881117Y-81011662D01*
X140969967Y-80917643D01*
X141093864Y-80873856D01*
X141261440Y-80863085D01*
X141316942Y-80864685D01*
X141475701Y-80901232D01*
X141591390Y-81001599D01*
X141680761Y-81186358D01*
X141760563Y-81476081D01*
X141794645Y-81607106D01*
X141844554Y-81750447D01*
X141883074Y-81806155D01*
X141919491Y-81756252D01*
X141975933Y-81615027D01*
X142038257Y-81414500D01*
X142096587Y-81223028D01*
X142162645Y-81042812D01*
X142213441Y-80942966D01*
X142237871Y-80923497D01*
X142369801Y-80880314D01*
X142553343Y-80863085D01*
X142568944Y-80863176D01*
G37*
G36*
X150246195Y-77294573D02*
G01*
X150425310Y-77355898D01*
X150656578Y-77450641D01*
X150906186Y-77563976D01*
X151140324Y-77681079D01*
X151325178Y-77787124D01*
X151557370Y-77950624D01*
X151777212Y-78164213D01*
X151910623Y-78396616D01*
X151978072Y-78675693D01*
X151988341Y-78747663D01*
X152029246Y-78997084D01*
X152083995Y-79299796D01*
X152143660Y-79605660D01*
X152164733Y-79710901D01*
X152226612Y-80036480D01*
X152282101Y-80350209D01*
X152321245Y-80596533D01*
X152327942Y-80642564D01*
X152359755Y-80814102D01*
X152407764Y-80952336D01*
X152489745Y-81088218D01*
X152623472Y-81252699D01*
X152826719Y-81476731D01*
X152951199Y-81615048D01*
X153207285Y-81913184D01*
X153491954Y-82257256D01*
X153777007Y-82612434D01*
X154034247Y-82943890D01*
X154235477Y-83216793D01*
X154242612Y-83229384D01*
X154229925Y-83346574D01*
X154115052Y-83530215D01*
X153937598Y-83762869D01*
X153248377Y-83067433D01*
X153109660Y-82928414D01*
X152885369Y-82707961D01*
X152700286Y-82531527D01*
X152570621Y-82414432D01*
X152512583Y-82371996D01*
X152498685Y-82381515D01*
X152480639Y-82481484D01*
X152484637Y-82671168D01*
X152508133Y-82926688D01*
X152548580Y-83224165D01*
X152603433Y-83539719D01*
X152670144Y-83849472D01*
X152712184Y-84032852D01*
X152785379Y-84393977D01*
X152848484Y-84757282D01*
X152898041Y-85097786D01*
X152930593Y-85390508D01*
X152942680Y-85610468D01*
X152930845Y-85732683D01*
X152892590Y-85791383D01*
X152813218Y-85821365D01*
X152676396Y-85810983D01*
X152462236Y-85758433D01*
X152150849Y-85661910D01*
X151632161Y-85493399D01*
X151632161Y-85141320D01*
X151618586Y-84750438D01*
X151555672Y-84176466D01*
X151448264Y-83617049D01*
X151303817Y-83108597D01*
X151129784Y-82687516D01*
X151037312Y-82536019D01*
X150894761Y-82343881D01*
X150731010Y-82148345D01*
X150569559Y-81975893D01*
X150433911Y-81853003D01*
X150347565Y-81806155D01*
X150298426Y-81826173D01*
X150214917Y-81934449D01*
X150149619Y-82098793D01*
X150123250Y-82275830D01*
X150123288Y-82279048D01*
X150138740Y-82401457D01*
X150178226Y-82615266D01*
X150235965Y-82891259D01*
X150306176Y-83200224D01*
X150364604Y-83450593D01*
X150465990Y-83894191D01*
X150567961Y-84349387D01*
X150655434Y-84749277D01*
X150659443Y-84767914D01*
X150726024Y-85070815D01*
X150786204Y-85333305D01*
X150833514Y-85527833D01*
X150861485Y-85626846D01*
X150832639Y-85635453D01*
X150720375Y-85581496D01*
X150542407Y-85473761D01*
X150317047Y-85322486D01*
X149732890Y-84914618D01*
X149518032Y-84224867D01*
X149494650Y-84148603D01*
X149365055Y-83682416D01*
X149246039Y-83184894D01*
X149143392Y-82686180D01*
X149062905Y-82216412D01*
X149010366Y-81805731D01*
X148991567Y-81484278D01*
X148996865Y-81250254D01*
X149022153Y-81090347D01*
X149081054Y-80966463D01*
X149187185Y-80833277D01*
X149245746Y-80771138D01*
X149395260Y-80643253D01*
X149517260Y-80576789D01*
X149531780Y-80573733D01*
X149712343Y-80583445D01*
X149948101Y-80650955D01*
X150197369Y-80761329D01*
X150418465Y-80899636D01*
X150449433Y-80923740D01*
X150535073Y-80997735D01*
X150626073Y-81091492D01*
X150735950Y-81221543D01*
X150878224Y-81404419D01*
X151066412Y-81656651D01*
X151314034Y-81994769D01*
X151520308Y-82277689D01*
X151478219Y-81879564D01*
X151452900Y-81688591D01*
X151412985Y-81479354D01*
X151372666Y-81345158D01*
X151346230Y-81306928D01*
X151223623Y-81184570D01*
X151023484Y-81013288D01*
X150763956Y-80806961D01*
X150463184Y-80579468D01*
X150139313Y-80344688D01*
X149810487Y-80116500D01*
X149494850Y-79908783D01*
X149007044Y-79598295D01*
X149118433Y-79240468D01*
X149167182Y-79089205D01*
X149247788Y-78855963D01*
X149315026Y-78679762D01*
X149400230Y-78476885D01*
X149871765Y-78798400D01*
X149936807Y-78843223D01*
X150188073Y-79023802D01*
X150420625Y-79201010D01*
X150591189Y-79342139D01*
X150692421Y-79425817D01*
X150807170Y-79498261D01*
X150860578Y-79499864D01*
X150861778Y-79491686D01*
X150842483Y-79386924D01*
X150787346Y-79199100D01*
X150706347Y-78956198D01*
X150609466Y-78686202D01*
X150506684Y-78417098D01*
X150407981Y-78176868D01*
X150323338Y-77993498D01*
X150262453Y-77859617D01*
X150190921Y-77654725D01*
X150146445Y-77467976D01*
X150136161Y-77331999D01*
X150167203Y-77279422D01*
X150246195Y-77294573D01*
G37*
G36*
X156393508Y-82050546D02*
G01*
X156376160Y-82334676D01*
X156285038Y-83006190D01*
X156117461Y-83622817D01*
X155861557Y-84221858D01*
X155505452Y-84840614D01*
X155369737Y-85041293D01*
X154869643Y-85637052D01*
X154275702Y-86159532D01*
X153600554Y-86598691D01*
X152856839Y-86944489D01*
X152538829Y-87056850D01*
X152111265Y-87171758D01*
X151673743Y-87240755D01*
X151188879Y-87269148D01*
X150619285Y-87262248D01*
X150349901Y-87250617D01*
X150024310Y-87227288D01*
X149763242Y-87192159D01*
X149529898Y-87139771D01*
X149287481Y-87064665D01*
X149063096Y-86984525D01*
X148321386Y-86655867D01*
X147670162Y-86256873D01*
X147092910Y-85777862D01*
X146797472Y-85495156D01*
X146389119Y-85877151D01*
X146368080Y-85896752D01*
X145716884Y-86427039D01*
X145025165Y-86842759D01*
X144277606Y-87151670D01*
X143458893Y-87361529D01*
X143445613Y-87363598D01*
X143305873Y-87372663D01*
X143074584Y-87377514D01*
X142780645Y-87377813D01*
X142452953Y-87373226D01*
X142100344Y-87361502D01*
X141720473Y-87333314D01*
X141399907Y-87286606D01*
X141101220Y-87217053D01*
X140995037Y-87185821D01*
X140540563Y-87016118D01*
X140057068Y-86788140D01*
X139592414Y-86526060D01*
X139194463Y-86254051D01*
X138765041Y-85881630D01*
X138238590Y-85289251D01*
X137795597Y-84619372D01*
X137447360Y-83889799D01*
X137205174Y-83118340D01*
X137158909Y-82860456D01*
X137119569Y-82431995D01*
X137109082Y-82017908D01*
X137773097Y-82017908D01*
X137774830Y-82377178D01*
X137782850Y-82646171D01*
X137800635Y-82854388D01*
X137831663Y-83031327D01*
X137879409Y-83206489D01*
X137947352Y-83409373D01*
X138243828Y-84106508D01*
X138652299Y-84777825D01*
X139149149Y-85361815D01*
X139730647Y-85854796D01*
X140393060Y-86253083D01*
X141132656Y-86552994D01*
X141224544Y-86580661D01*
X141667891Y-86677111D01*
X142165308Y-86737799D01*
X142673917Y-86760434D01*
X143150841Y-86742723D01*
X143553200Y-86682376D01*
X144228645Y-86482075D01*
X144952061Y-86156743D01*
X145594127Y-85736531D01*
X146152868Y-85223013D01*
X146626313Y-84617765D01*
X147012488Y-83922360D01*
X147029518Y-83885259D01*
X147196317Y-83481606D01*
X147310671Y-83102479D01*
X147379235Y-82710982D01*
X147408668Y-82270216D01*
X147405626Y-81743283D01*
X147403488Y-81672778D01*
X147388717Y-81319483D01*
X147366440Y-81050313D01*
X147331254Y-80829667D01*
X147277758Y-80621947D01*
X147200552Y-80391551D01*
X146927234Y-79756829D01*
X146519355Y-79090059D01*
X146244083Y-78769452D01*
X147216973Y-78769452D01*
X147245081Y-78926574D01*
X147333236Y-79139732D01*
X147479491Y-79437161D01*
X147501396Y-79481137D01*
X147733555Y-79986793D01*
X147896266Y-80441929D01*
X147999631Y-80889313D01*
X148053750Y-81371713D01*
X148068726Y-81931897D01*
X148059667Y-82270216D01*
X148055490Y-82426213D01*
X148003355Y-82928346D01*
X147902177Y-83389703D01*
X147741949Y-83854082D01*
X147512661Y-84365278D01*
X147429023Y-84539028D01*
X147326922Y-84757101D01*
X147257063Y-84913975D01*
X147231171Y-84983881D01*
X147260455Y-85036042D01*
X147366597Y-85153984D01*
X147527016Y-85309258D01*
X147717086Y-85479195D01*
X147912180Y-85641123D01*
X148087672Y-85772371D01*
X148104162Y-85783653D01*
X148624536Y-86089253D01*
X149200122Y-86345187D01*
X149768842Y-86523708D01*
X149821890Y-86535948D01*
X150366599Y-86618338D01*
X150961386Y-86642901D01*
X151552282Y-86609747D01*
X152085321Y-86518987D01*
X152208173Y-86486739D01*
X152880121Y-86239726D01*
X153525722Y-85887282D01*
X154117590Y-85446471D01*
X154628341Y-84934356D01*
X154847649Y-84656450D01*
X155240307Y-84019755D01*
X155523375Y-83343692D01*
X155698067Y-82641261D01*
X155765597Y-81925462D01*
X155727177Y-81209295D01*
X155584022Y-80505758D01*
X155337344Y-79827852D01*
X154988357Y-79188575D01*
X154538275Y-78600928D01*
X153988311Y-78077909D01*
X153794374Y-77933488D01*
X153384454Y-77679318D01*
X152924240Y-77442602D01*
X152460706Y-77246579D01*
X152040824Y-77114485D01*
X152005868Y-77106347D01*
X151603067Y-77043153D01*
X151132690Y-77012126D01*
X150642011Y-77013305D01*
X150178302Y-77046735D01*
X149788834Y-77112458D01*
X149383200Y-77232552D01*
X148726750Y-77512282D01*
X148104634Y-77878875D01*
X147557153Y-78310692D01*
X147512393Y-78351931D01*
X147348682Y-78510367D01*
X147250858Y-78640128D01*
X147216973Y-78769452D01*
X146244083Y-78769452D01*
X146019534Y-78507921D01*
X145431052Y-78013583D01*
X144757188Y-77610213D01*
X144001222Y-77300978D01*
X143949943Y-77284327D01*
X143725129Y-77218079D01*
X143517636Y-77173860D01*
X143291712Y-77147117D01*
X143011606Y-77133298D01*
X142641567Y-77127850D01*
X142328624Y-77128131D01*
X142017018Y-77137778D01*
X141766285Y-77161228D01*
X141540302Y-77202165D01*
X141302943Y-77264268D01*
X141199935Y-77295200D01*
X140455077Y-77589557D01*
X139783722Y-77984120D01*
X139191656Y-78473388D01*
X138684660Y-79051862D01*
X138268518Y-79714040D01*
X137949013Y-80454422D01*
X137939480Y-80482052D01*
X137874577Y-80681545D01*
X137829260Y-80858309D01*
X137799997Y-81042034D01*
X137783255Y-81262413D01*
X137775501Y-81549137D01*
X137773200Y-81931897D01*
X137773097Y-82017908D01*
X137109082Y-82017908D01*
X137107487Y-81954940D01*
X137122223Y-81472031D01*
X137163339Y-81026006D01*
X137230398Y-80659605D01*
X137387749Y-80143291D01*
X137717039Y-79391873D01*
X138139886Y-78712456D01*
X138646789Y-78110983D01*
X139228243Y-77593396D01*
X139874746Y-77165640D01*
X140576795Y-76833655D01*
X141324888Y-76603386D01*
X142109520Y-76480774D01*
X142921190Y-76471763D01*
X143750394Y-76582295D01*
X143787298Y-76590100D01*
X144360156Y-76754811D01*
X144942753Y-76995784D01*
X145501238Y-77295024D01*
X146001757Y-77634535D01*
X146410459Y-77996323D01*
X146487868Y-78072920D01*
X146615255Y-78180328D01*
X146694987Y-78222491D01*
X146697747Y-78222266D01*
X146777188Y-78174373D01*
X146912347Y-78059122D01*
X147075599Y-77899924D01*
X147182675Y-77793332D01*
X147754032Y-77326897D01*
X148406093Y-76941681D01*
X149119973Y-76645830D01*
X149876788Y-76447490D01*
X150657656Y-76354807D01*
X150948512Y-76348674D01*
X151766375Y-76413961D01*
X152556908Y-76598616D01*
X153308803Y-76898470D01*
X154010751Y-77309354D01*
X154651444Y-77827099D01*
X155102493Y-78296496D01*
X155594937Y-78957529D01*
X155971058Y-79665382D01*
X156230057Y-80418124D01*
X156371140Y-81213823D01*
X156390164Y-81925462D01*
X156393508Y-82050546D01*
G37*
%TO.C,J12*%
X161144000Y-33266000D02*
X160144000Y-32766000D01*
X161144000Y-32266000D02*
X161144000Y-33266000D01*
X160144000Y-32766000D02*
X161144000Y-32266000D01*
X159754000Y-73536000D02*
X159754000Y-27556000D01*
X159754000Y-48496000D02*
X158444000Y-48496000D01*
X159754000Y-27556000D02*
X150634000Y-27556000D01*
X158444000Y-72236000D02*
X158444000Y-52596000D01*
X158444000Y-52596000D02*
X159754000Y-52596000D01*
X158444000Y-52596000D02*
X158444000Y-52596000D01*
X158444000Y-48496000D02*
X158444000Y-28856000D01*
X158444000Y-28856000D02*
X151944000Y-28856000D01*
X151944000Y-72236000D02*
X158444000Y-72236000D01*
X151944000Y-28856000D02*
X151944000Y-72236000D01*
X150634000Y-73536000D02*
X159754000Y-73536000D01*
X150634000Y-27556000D02*
X150634000Y-73536000D01*
%TO.C,RV1*%
X53848000Y-35238000D02*
X53848000Y-25468000D01*
X58918000Y-35238000D02*
X53848000Y-35238000D01*
X58918000Y-35238000D02*
X58918000Y-25468000D01*
X58918000Y-25468000D02*
X53848000Y-25468000D01*
%TD*%
%LPC*%
D15*
%TO.C,P3V2*%
X91694000Y-16510000D03*
%TD*%
%TO.C,P5V3*%
X98933000Y-28194000D03*
%TD*%
D16*
%TO.C,BOOT1*%
X118369000Y-62230000D03*
D17*
X115829000Y-62230000D03*
%TD*%
D18*
%TO.C,J10*%
X81280000Y-8128000D03*
D19*
X83820000Y-5588000D03*
X78740000Y-5588000D03*
X83820000Y-10668000D03*
X78740000Y-10668000D03*
%TD*%
D20*
%TO.C,RV4*%
X23876000Y-40640000D03*
X23876000Y-46990000D03*
X23876000Y-53340000D03*
%TD*%
D15*
%TO.C,M5V1*%
X104521000Y-11176000D03*
%TD*%
D21*
%TO.C,H6*%
X58400000Y-92400000D03*
%TD*%
D22*
%TO.C,J9*%
X78105000Y-65532000D03*
D17*
X75565000Y-65532000D03*
X78105000Y-62992000D03*
X75565000Y-62992000D03*
X78105000Y-60452000D03*
X75565000Y-60452000D03*
X78105000Y-57912000D03*
X75565000Y-57912000D03*
X78105000Y-55372000D03*
X75565000Y-55372000D03*
X78105000Y-52832000D03*
X75565000Y-52832000D03*
X78105000Y-50292000D03*
X75565000Y-50292000D03*
%TD*%
D15*
%TO.C,P3V1*%
X91694000Y-11176000D03*
%TD*%
D23*
%TO.C,PC1*%
X108587000Y-38354000D03*
%TD*%
D24*
%TO.C,H1*%
X3556000Y-5512000D03*
%TD*%
D19*
%TO.C,J3*%
X2921000Y-57404000D03*
X381000Y-59944000D03*
X5461000Y-59944000D03*
X381000Y-54864000D03*
X5461000Y-54864000D03*
%TD*%
%TO.C,J1*%
X2921000Y-15748000D03*
X381000Y-18288000D03*
X5461000Y-18288000D03*
X381000Y-13208000D03*
X5461000Y-13208000D03*
%TD*%
D15*
%TO.C,P5V1*%
X98747000Y-20701000D03*
%TD*%
%TO.C,P5V2*%
X94869000Y-18288000D03*
%TD*%
D21*
%TO.C,H8*%
X156503000Y-93997000D03*
%TD*%
D15*
%TO.C,P3V3*%
X91694000Y-5588000D03*
%TD*%
D25*
%TO.C,O_1*%
X75057000Y-22352000D03*
%TD*%
%TO.C,O_2*%
X74930000Y-30480000D03*
%TD*%
D19*
%TO.C,J5*%
X2921000Y-36576000D03*
X381000Y-39116000D03*
X5461000Y-39116000D03*
X381000Y-34036000D03*
X5461000Y-34036000D03*
%TD*%
D23*
%TO.C,PE1*%
X103505000Y-38354000D03*
%TD*%
D21*
%TO.C,H7*%
X156503000Y-6003000D03*
%TD*%
D23*
%TO.C,PB1*%
X106045000Y-38354000D03*
%TD*%
D24*
%TO.C,H2*%
X3556000Y-94412000D03*
%TD*%
D26*
%TO.C,U21*%
X131333999Y-22336000D03*
X131333999Y-23336001D03*
X131333999Y-24336002D03*
X132334000Y-21336000D03*
X132334000Y-22336000D03*
X132334000Y-24336002D03*
X132334000Y-25336002D03*
X132359400Y-23336001D03*
X133334001Y-22336000D03*
X133334001Y-23336001D03*
X133334001Y-24336002D03*
%TD*%
D27*
%TO.C,U8*%
X40767000Y-12903200D03*
X41529000Y-12903200D03*
X42291000Y-12903200D03*
X40767000Y-11988800D03*
X41529000Y-11988800D03*
X42291000Y-11988800D03*
%TD*%
D26*
%TO.C,U20*%
X123809001Y-6619999D03*
X122809000Y-6619999D03*
X121808999Y-6619999D03*
X124809001Y-7620000D03*
X123809001Y-7620000D03*
X121808999Y-7620000D03*
X120808999Y-7620000D03*
X122809000Y-7645400D03*
X123809001Y-8620001D03*
X122809000Y-8620001D03*
X121808999Y-8620001D03*
%TD*%
D15*
%TO.C,P5V4*%
X95377000Y-24257000D03*
%TD*%
D28*
%TO.C,U32*%
X123444000Y-75946000D03*
D29*
X123444000Y-78486000D03*
X123444000Y-81026000D03*
X123444000Y-83566000D03*
%TD*%
D15*
%TO.C,VuC1*%
X128016000Y-32004000D03*
%TD*%
D21*
%TO.C,H4*%
X28400000Y-92400000D03*
%TD*%
D26*
%TO.C,U22*%
X125333001Y-16017999D03*
X124333000Y-16017999D03*
X123332999Y-16017999D03*
X126333001Y-17018000D03*
X125333001Y-17018000D03*
X123332999Y-17018000D03*
X122332999Y-17018000D03*
X124333000Y-17043400D03*
X125333001Y-18018001D03*
X124333000Y-18018001D03*
X123332999Y-18018001D03*
%TD*%
D21*
%TO.C,H3*%
X28400000Y-7600000D03*
%TD*%
%TO.C,H5*%
X58400000Y-7600000D03*
%TD*%
D30*
%TO.C,J6*%
X82804000Y-82042000D03*
D17*
X82804000Y-79502000D03*
X80264000Y-82042000D03*
X80264000Y-79502000D03*
X77724000Y-82042000D03*
X77724000Y-79502000D03*
X75184000Y-82042000D03*
X75184000Y-79502000D03*
X72644000Y-82042000D03*
X72644000Y-79502000D03*
%TD*%
D30*
%TO.C,J7*%
X66924000Y-81920000D03*
D17*
X66924000Y-79380000D03*
X64384000Y-81920000D03*
X64384000Y-79380000D03*
X61844000Y-81920000D03*
X61844000Y-79380000D03*
X59304000Y-81920000D03*
X59304000Y-79380000D03*
X56764000Y-81920000D03*
X56764000Y-79380000D03*
%TD*%
D31*
%TO.C,J13*%
X89281000Y-89154000D03*
D32*
X89281000Y-91694000D03*
X91821000Y-89154000D03*
X91821000Y-91694000D03*
X94361000Y-89154000D03*
X94361000Y-91694000D03*
X96901000Y-89154000D03*
X96901000Y-91694000D03*
X99441000Y-89154000D03*
X99441000Y-91694000D03*
X101981000Y-89154000D03*
X101981000Y-91694000D03*
X104521000Y-89154000D03*
X104521000Y-91694000D03*
X107061000Y-89154000D03*
X107061000Y-91694000D03*
X109601000Y-89154000D03*
X109601000Y-91694000D03*
X112141000Y-89154000D03*
X112141000Y-91694000D03*
X114681000Y-89154000D03*
X114681000Y-91694000D03*
X117221000Y-89154000D03*
X117221000Y-91694000D03*
X119761000Y-89154000D03*
X119761000Y-91694000D03*
%TD*%
D33*
%TO.C,RV3*%
X75311000Y-39497000D03*
X72771000Y-42037000D03*
X75311000Y-44577000D03*
%TD*%
D34*
%TO.C,J11*%
X154178000Y-15494000D03*
D35*
X154178000Y-20574000D03*
%TD*%
D19*
%TO.C,J2*%
X2921000Y-26162000D03*
X5461000Y-23622000D03*
X381000Y-23622000D03*
X5461000Y-28702000D03*
X381000Y-28702000D03*
%TD*%
D36*
%TO.C,GND1*%
X44831000Y-92456000D03*
X47371000Y-92456000D03*
%TD*%
D19*
%TO.C,J4*%
X2921000Y-46990000D03*
X5461000Y-44450000D03*
X381000Y-44450000D03*
X5461000Y-49530000D03*
X381000Y-49530000D03*
%TD*%
D30*
%TO.C,JP1*%
X57770000Y-45339000D03*
D17*
X55230000Y-45339000D03*
X52690000Y-45339000D03*
%TD*%
D37*
%TO.C,U18*%
X46609000Y-83947000D03*
D38*
X46609000Y-81407000D03*
X46609000Y-78867000D03*
X46609000Y-76327000D03*
X46609000Y-73787000D03*
X46609000Y-71247000D03*
D39*
X46609000Y-68707000D03*
X44069000Y-66167000D03*
X41529000Y-66167000D03*
X38989000Y-66167000D03*
D38*
X889000Y-66484500D03*
X889000Y-86169500D03*
%TD*%
D33*
%TO.C,RV5*%
X48387000Y-39497000D03*
X45847000Y-42037000D03*
X48387000Y-44577000D03*
%TD*%
D40*
%TO.C,JP2*%
X64389000Y-62108000D03*
D17*
X64389000Y-59568000D03*
%TD*%
D33*
%TO.C,RV2*%
X57663000Y-16383000D03*
X55123000Y-18923000D03*
X57663000Y-21463000D03*
%TD*%
D30*
%TO.C,JP3*%
X111872000Y-28575000D03*
D17*
X109332000Y-28575000D03*
X106792000Y-28575000D03*
%TD*%
D41*
%TO.C,J12*%
X156464000Y-32766000D03*
D32*
X153924000Y-32766000D03*
X156464000Y-35306000D03*
X153924000Y-35306000D03*
X156464000Y-37846000D03*
X153924000Y-37846000D03*
X156464000Y-40386000D03*
X153924000Y-40386000D03*
X156464000Y-42926000D03*
X153924000Y-42926000D03*
X156464000Y-45466000D03*
X153924000Y-45466000D03*
X156464000Y-48006000D03*
X153924000Y-48006000D03*
X156464000Y-50546000D03*
X153924000Y-50546000D03*
X156464000Y-53086000D03*
X153924000Y-53086000D03*
X156464000Y-55626000D03*
X153924000Y-55626000D03*
X156464000Y-58166000D03*
X153924000Y-58166000D03*
X156464000Y-60706000D03*
X153924000Y-60706000D03*
X156464000Y-63246000D03*
X153924000Y-63246000D03*
X156464000Y-65786000D03*
X153924000Y-65786000D03*
X156464000Y-68326000D03*
X153924000Y-68326000D03*
%TD*%
D33*
%TO.C,RV1*%
X57658000Y-27813000D03*
X55118000Y-30353000D03*
X57658000Y-32893000D03*
%TD*%
%LPD*%
M02*
