%TF.GenerationSoftware,KiCad,Pcbnew,7.0.11*%
%TF.CreationDate,2025-01-07T11:11:00+01:00*%
%TF.ProjectId,HF_phase_detector,48465f70-6861-4736-955f-646574656374,rev?*%
%TF.SameCoordinates,Original*%
%TF.FileFunction,Paste,Top*%
%TF.FilePolarity,Positive*%
%FSLAX46Y46*%
G04 Gerber Fmt 4.6, Leading zero omitted, Abs format (unit mm)*
G04 Created by KiCad (PCBNEW 7.0.11) date 2025-01-07 11:11:00*
%MOMM*%
%LPD*%
G01*
G04 APERTURE LIST*
G04 Aperture macros list*
%AMRoundRect*
0 Rectangle with rounded corners*
0 $1 Rounding radius*
0 $2 $3 $4 $5 $6 $7 $8 $9 X,Y pos of 4 corners*
0 Add a 4 corners polygon primitive as box body*
4,1,4,$2,$3,$4,$5,$6,$7,$8,$9,$2,$3,0*
0 Add four circle primitives for the rounded corners*
1,1,$1+$1,$2,$3*
1,1,$1+$1,$4,$5*
1,1,$1+$1,$6,$7*
1,1,$1+$1,$8,$9*
0 Add four rect primitives between the rounded corners*
20,1,$1+$1,$2,$3,$4,$5,0*
20,1,$1+$1,$4,$5,$6,$7,0*
20,1,$1+$1,$6,$7,$8,$9,0*
20,1,$1+$1,$8,$9,$2,$3,0*%
%AMOutline4P*
0 Free polygon, 4 corners , with rotation*
0 The origin of the aperture is its center*
0 number of corners: always 4*
0 $1 to $8 corner X, Y*
0 $9 Rotation angle, in degrees counterclockwise*
0 create outline with 4 corners*
4,1,4,$1,$2,$3,$4,$5,$6,$7,$8,$1,$2,$9*%
G04 Aperture macros list end*
%ADD10RoundRect,0.225000X-0.225000X-0.250000X0.225000X-0.250000X0.225000X0.250000X-0.225000X0.250000X0*%
%ADD11RoundRect,0.200000X-0.275000X0.200000X-0.275000X-0.200000X0.275000X-0.200000X0.275000X0.200000X0*%
%ADD12RoundRect,0.200000X0.275000X-0.200000X0.275000X0.200000X-0.275000X0.200000X-0.275000X-0.200000X0*%
%ADD13RoundRect,0.225000X0.250000X-0.225000X0.250000X0.225000X-0.250000X0.225000X-0.250000X-0.225000X0*%
%ADD14RoundRect,0.200000X-0.200000X-0.275000X0.200000X-0.275000X0.200000X0.275000X-0.200000X0.275000X0*%
%ADD15RoundRect,0.225000X-0.250000X0.225000X-0.250000X-0.225000X0.250000X-0.225000X0.250000X0.225000X0*%
%ADD16RoundRect,0.150000X0.825000X0.150000X-0.825000X0.150000X-0.825000X-0.150000X0.825000X-0.150000X0*%
%ADD17RoundRect,0.225000X0.225000X0.250000X-0.225000X0.250000X-0.225000X-0.250000X0.225000X-0.250000X0*%
%ADD18RoundRect,0.218750X-0.256250X0.218750X-0.256250X-0.218750X0.256250X-0.218750X0.256250X0.218750X0*%
%ADD19RoundRect,0.200000X0.200000X0.275000X-0.200000X0.275000X-0.200000X-0.275000X0.200000X-0.275000X0*%
%ADD20RoundRect,0.167500X-0.167500X-0.312500X0.167500X-0.312500X0.167500X0.312500X-0.167500X0.312500X0*%
%ADD21RoundRect,0.062500X-0.362500X-0.062500X0.362500X-0.062500X0.362500X0.062500X-0.362500X0.062500X0*%
%ADD22RoundRect,0.150000X0.512500X0.150000X-0.512500X0.150000X-0.512500X-0.150000X0.512500X-0.150000X0*%
%ADD23RoundRect,0.250000X-0.650000X0.325000X-0.650000X-0.325000X0.650000X-0.325000X0.650000X0.325000X0*%
%ADD24RoundRect,0.250000X0.650000X-0.325000X0.650000X0.325000X-0.650000X0.325000X-0.650000X-0.325000X0*%
%ADD25RoundRect,0.218750X-0.218750X-0.256250X0.218750X-0.256250X0.218750X0.256250X-0.218750X0.256250X0*%
%ADD26R,1.450000X0.450000*%
%ADD27RoundRect,0.112500X0.112500X-0.187500X0.112500X0.187500X-0.112500X0.187500X-0.112500X-0.187500X0*%
%ADD28RoundRect,0.060000X-0.060000X-0.130000X0.060000X-0.130000X0.060000X0.130000X-0.060000X0.130000X0*%
%ADD29RoundRect,0.050000X-0.125000X-0.050000X0.125000X-0.050000X0.125000X0.050000X-0.125000X0.050000X0*%
%ADD30RoundRect,0.250000X0.300000X0.300000X-0.300000X0.300000X-0.300000X-0.300000X0.300000X-0.300000X0*%
%ADD31RoundRect,0.062500X0.375000X0.062500X-0.375000X0.062500X-0.375000X-0.062500X0.375000X-0.062500X0*%
%ADD32RoundRect,0.062500X0.062500X0.375000X-0.062500X0.375000X-0.062500X-0.375000X0.062500X-0.375000X0*%
%ADD33R,0.400000X0.900000*%
%ADD34RoundRect,0.218750X0.218750X0.256250X-0.218750X0.256250X-0.218750X-0.256250X0.218750X-0.256250X0*%
%ADD35RoundRect,0.100000X-0.100000X0.225000X-0.100000X-0.225000X0.100000X-0.225000X0.100000X0.225000X0*%
%ADD36RoundRect,0.250000X0.475000X-0.250000X0.475000X0.250000X-0.475000X0.250000X-0.475000X-0.250000X0*%
%ADD37RoundRect,0.175000X-0.325000X0.175000X-0.325000X-0.175000X0.325000X-0.175000X0.325000X0.175000X0*%
%ADD38RoundRect,0.150000X-0.150000X0.200000X-0.150000X-0.200000X0.150000X-0.200000X0.150000X0.200000X0*%
%ADD39RoundRect,0.250000X0.250000X0.475000X-0.250000X0.475000X-0.250000X-0.475000X0.250000X-0.475000X0*%
%ADD40RoundRect,0.112500X-0.112500X-0.237500X0.112500X-0.237500X0.112500X0.237500X-0.112500X0.237500X0*%
%ADD41RoundRect,0.250000X-0.312500X-0.625000X0.312500X-0.625000X0.312500X0.625000X-0.312500X0.625000X0*%
%ADD42RoundRect,0.250000X-0.325000X-0.650000X0.325000X-0.650000X0.325000X0.650000X-0.325000X0.650000X0*%
%ADD43R,3.000000X1.200000*%
%ADD44RoundRect,0.167500X0.167500X0.312500X-0.167500X0.312500X-0.167500X-0.312500X0.167500X-0.312500X0*%
%ADD45RoundRect,0.062500X0.362500X0.062500X-0.362500X0.062500X-0.362500X-0.062500X0.362500X-0.062500X0*%
%ADD46RoundRect,0.150000X0.150000X-0.750000X0.150000X0.750000X-0.150000X0.750000X-0.150000X-0.750000X0*%
%ADD47R,0.600000X1.000000*%
%ADD48R,1.000000X0.420000*%
%ADD49R,0.990000X0.420000*%
%ADD50RoundRect,0.100000X-0.225000X-0.100000X0.225000X-0.100000X0.225000X0.100000X-0.225000X0.100000X0*%
%ADD51RoundRect,0.249999X1.500001X-1.025001X1.500001X1.025001X-1.500001X1.025001X-1.500001X-1.025001X0*%
%ADD52RoundRect,0.250000X-0.250000X-0.475000X0.250000X-0.475000X0.250000X0.475000X-0.250000X0.475000X0*%
%ADD53RoundRect,0.250000X0.375000X1.075000X-0.375000X1.075000X-0.375000X-1.075000X0.375000X-1.075000X0*%
%ADD54RoundRect,0.250000X-0.475000X0.250000X-0.475000X-0.250000X0.475000X-0.250000X0.475000X0.250000X0*%
%ADD55RoundRect,0.250000X-0.375000X-1.075000X0.375000X-1.075000X0.375000X1.075000X-0.375000X1.075000X0*%
%ADD56RoundRect,0.250000X-0.650000X1.000000X-0.650000X-1.000000X0.650000X-1.000000X0.650000X1.000000X0*%
%ADD57Outline4P,-1.500000X-0.725000X1.500000X-0.725000X1.800000X0.725000X-1.800000X0.725000X90.000000*%
%ADD58Outline4P,-1.800000X-0.725000X1.800000X-0.725000X1.500000X0.725000X-1.500000X0.725000X90.000000*%
%ADD59RoundRect,0.249999X-1.025001X-1.500001X1.025001X-1.500001X1.025001X1.500001X-1.025001X1.500001X0*%
%ADD60RoundRect,0.100000X-0.712500X-0.100000X0.712500X-0.100000X0.712500X0.100000X-0.712500X0.100000X0*%
%ADD61RoundRect,0.250000X1.000000X-1.750000X1.000000X1.750000X-1.000000X1.750000X-1.000000X-1.750000X0*%
%ADD62RoundRect,0.075000X0.725000X0.075000X-0.725000X0.075000X-0.725000X-0.075000X0.725000X-0.075000X0*%
%ADD63RoundRect,0.075000X0.075000X0.725000X-0.075000X0.725000X-0.075000X-0.725000X0.075000X-0.725000X0*%
%ADD64RoundRect,0.250000X1.075000X-0.375000X1.075000X0.375000X-1.075000X0.375000X-1.075000X-0.375000X0*%
%ADD65RoundRect,0.167500X-0.312500X0.167500X-0.312500X-0.167500X0.312500X-0.167500X0.312500X0.167500X0*%
%ADD66RoundRect,0.062500X-0.062500X0.362500X-0.062500X-0.362500X0.062500X-0.362500X0.062500X0.362500X0*%
%ADD67R,0.355600X1.447800*%
%ADD68R,2.413000X1.854200*%
%ADD69RoundRect,0.150000X-0.512500X-0.150000X0.512500X-0.150000X0.512500X0.150000X-0.512500X0.150000X0*%
%ADD70RoundRect,0.150000X-0.150000X0.750000X-0.150000X-0.750000X0.150000X-0.750000X0.150000X0.750000X0*%
%ADD71RoundRect,0.217500X-0.217500X-0.217500X0.217500X-0.217500X0.217500X0.217500X-0.217500X0.217500X0*%
%ADD72RoundRect,0.062500X-0.375000X-0.062500X0.375000X-0.062500X0.375000X0.062500X-0.375000X0.062500X0*%
%ADD73RoundRect,0.062500X-0.062500X-0.375000X0.062500X-0.375000X0.062500X0.375000X-0.062500X0.375000X0*%
%ADD74RoundRect,0.250000X0.450000X-0.262500X0.450000X0.262500X-0.450000X0.262500X-0.450000X-0.262500X0*%
%ADD75RoundRect,0.100000X0.712500X0.100000X-0.712500X0.100000X-0.712500X-0.100000X0.712500X-0.100000X0*%
%ADD76RoundRect,0.250000X-0.625000X0.312500X-0.625000X-0.312500X0.625000X-0.312500X0.625000X0.312500X0*%
%ADD77RoundRect,0.250001X-0.354999X-0.354999X0.354999X-0.354999X0.354999X0.354999X-0.354999X0.354999X0*%
%ADD78RoundRect,0.062500X-0.325000X-0.062500X0.325000X-0.062500X0.325000X0.062500X-0.325000X0.062500X0*%
%ADD79RoundRect,0.062500X-0.062500X-0.325000X0.062500X-0.325000X0.062500X0.325000X-0.062500X0.325000X0*%
%ADD80RoundRect,0.250000X1.100000X-0.325000X1.100000X0.325000X-1.100000X0.325000X-1.100000X-0.325000X0*%
%ADD81RoundRect,0.112500X-0.237500X0.112500X-0.237500X-0.112500X0.237500X-0.112500X0.237500X0.112500X0*%
%ADD82RoundRect,0.177500X-0.177500X0.177500X-0.177500X-0.177500X0.177500X-0.177500X0.177500X0.177500X0*%
%ADD83RoundRect,0.062500X-0.062500X0.350000X-0.062500X-0.350000X0.062500X-0.350000X0.062500X0.350000X0*%
%ADD84RoundRect,0.062500X-0.350000X0.062500X-0.350000X-0.062500X0.350000X-0.062500X0.350000X0.062500X0*%
%ADD85R,1.100000X1.300000*%
%ADD86R,1.000000X0.400000*%
%ADD87R,1.066800X1.879600*%
%ADD88R,1.120000X2.440000*%
G04 APERTURE END LIST*
%TO.C,U21*%
G36*
X130309000Y-23366001D02*
G01*
X130309000Y-23566001D01*
X130259000Y-23616000D01*
X129708999Y-23616000D01*
X129658999Y-23566001D01*
X129658999Y-23366001D01*
X129708999Y-23316001D01*
X130259000Y-23316001D01*
X130309000Y-23366001D01*
G37*
G36*
X130309000Y-24016002D02*
G01*
X130309000Y-24216002D01*
X130259000Y-24266002D01*
X129708999Y-24266002D01*
X129658999Y-24216002D01*
X129658999Y-24016002D01*
X129708999Y-23966000D01*
X130259000Y-23966000D01*
X130309000Y-24016002D01*
G37*
G36*
X130309000Y-22066001D02*
G01*
X130309000Y-22266001D01*
X130259000Y-22316001D01*
X129708999Y-22316001D01*
X129658999Y-22266001D01*
X129658999Y-22066001D01*
X129708999Y-22016001D01*
X130259000Y-22016001D01*
X130309000Y-22066001D01*
G37*
G36*
X130309000Y-22716002D02*
G01*
X130309000Y-22916002D01*
X130259000Y-22966002D01*
X129708999Y-22966002D01*
X129658999Y-22916002D01*
X129658999Y-22716002D01*
X129708999Y-22666000D01*
X130259000Y-22666000D01*
X130309000Y-22716002D01*
G37*
G36*
X130309000Y-24666001D02*
G01*
X130309000Y-24866000D01*
X130259000Y-24916000D01*
X129708999Y-24916000D01*
X129658999Y-24866000D01*
X129658999Y-24666001D01*
X129708999Y-24616001D01*
X130259000Y-24616001D01*
X130309000Y-24666001D01*
G37*
G36*
X131008999Y-25316002D02*
G01*
X131008999Y-25666001D01*
X130958999Y-25716001D01*
X129708999Y-25716001D01*
X129658999Y-25666001D01*
X129658999Y-25316002D01*
X129708999Y-25266002D01*
X130958999Y-25266002D01*
X131008999Y-25316002D01*
G37*
G36*
X131008999Y-21016001D02*
G01*
X131008999Y-21366000D01*
X130958999Y-21416000D01*
X129708999Y-21416000D01*
X129658999Y-21366000D01*
X129658999Y-21016001D01*
X129708999Y-20966001D01*
X130958999Y-20966001D01*
X131008999Y-21016001D01*
G37*
G36*
X132184000Y-23536001D02*
G01*
X132184000Y-24086002D01*
X132134000Y-24136002D01*
X131284000Y-24136002D01*
X131234000Y-24086002D01*
X131234000Y-23536001D01*
X131284000Y-23486001D01*
X132134000Y-23486001D01*
X132184000Y-23536001D01*
G37*
G36*
X132184000Y-22586000D02*
G01*
X132184000Y-23136001D01*
X132134000Y-23186001D01*
X131284000Y-23186001D01*
X131234000Y-23136001D01*
X131234000Y-22586000D01*
X131284000Y-22536000D01*
X132134000Y-22536000D01*
X132184000Y-22586000D01*
G37*
G36*
X132208999Y-21136000D02*
G01*
X132208999Y-22186001D01*
X132158999Y-22236001D01*
X131659000Y-22236001D01*
X131609000Y-22186001D01*
X131609000Y-21136000D01*
X131659000Y-21086000D01*
X132158999Y-21086000D01*
X132208999Y-21136000D01*
G37*
G36*
X132208999Y-24486001D02*
G01*
X132208999Y-25536002D01*
X132158999Y-25586002D01*
X131659000Y-25586002D01*
X131609000Y-25536002D01*
X131609000Y-24486001D01*
X131659000Y-24436001D01*
X132158999Y-24436001D01*
X132208999Y-24486001D01*
G37*
G36*
X133059000Y-21136000D02*
G01*
X133059000Y-22186001D01*
X133009000Y-22236001D01*
X132509001Y-22236001D01*
X132459001Y-22186001D01*
X132459001Y-21136000D01*
X132509001Y-21086000D01*
X133009000Y-21086000D01*
X133059000Y-21136000D01*
G37*
G36*
X133059000Y-24486001D02*
G01*
X133059000Y-25536002D01*
X133009000Y-25586002D01*
X132509001Y-25586002D01*
X132459001Y-25536002D01*
X132459001Y-24486001D01*
X132509001Y-24436001D01*
X133009000Y-24436001D01*
X133059000Y-24486001D01*
G37*
G36*
X133434000Y-23536001D02*
G01*
X133434000Y-24086002D01*
X133384000Y-24136002D01*
X132534000Y-24136002D01*
X132484000Y-24086002D01*
X132484000Y-23536001D01*
X132534000Y-23486001D01*
X133384000Y-23486001D01*
X133434000Y-23536001D01*
G37*
G36*
X133434000Y-22586000D02*
G01*
X133434000Y-23136001D01*
X133384000Y-23186001D01*
X132534000Y-23186001D01*
X132484000Y-23136001D01*
X132484000Y-22586000D01*
X132534000Y-22536000D01*
X133384000Y-22536000D01*
X133434000Y-22586000D01*
G37*
G36*
X135009001Y-21016001D02*
G01*
X135009001Y-21366000D01*
X134959001Y-21416000D01*
X133709001Y-21416000D01*
X133659001Y-21366000D01*
X133659001Y-21016001D01*
X133709001Y-20966001D01*
X134959001Y-20966001D01*
X135009001Y-21016001D01*
G37*
G36*
X135009001Y-25316002D02*
G01*
X135009001Y-25666001D01*
X134959001Y-25716001D01*
X133709001Y-25716001D01*
X133659001Y-25666001D01*
X133659001Y-25316002D01*
X133709001Y-25266002D01*
X134959001Y-25266002D01*
X135009001Y-25316002D01*
G37*
G36*
X135009001Y-22066001D02*
G01*
X135009001Y-22266001D01*
X134959001Y-22316001D01*
X134409000Y-22316001D01*
X134359000Y-22266001D01*
X134359000Y-22066001D01*
X134409000Y-22016001D01*
X134959001Y-22016001D01*
X135009001Y-22066001D01*
G37*
G36*
X135009001Y-24666001D02*
G01*
X135009001Y-24866000D01*
X134959001Y-24916000D01*
X134409000Y-24916000D01*
X134359000Y-24866000D01*
X134359000Y-24666001D01*
X134409000Y-24616001D01*
X134959001Y-24616001D01*
X135009001Y-24666001D01*
G37*
G36*
X135009001Y-22716002D02*
G01*
X135009001Y-22916002D01*
X134959001Y-22966002D01*
X134409000Y-22966002D01*
X134359000Y-22916002D01*
X134359000Y-22716002D01*
X134409000Y-22666000D01*
X134959001Y-22666000D01*
X135009001Y-22716002D01*
G37*
G36*
X135009001Y-24016002D02*
G01*
X135009001Y-24216002D01*
X134959001Y-24266002D01*
X134409000Y-24266002D01*
X134359000Y-24216002D01*
X134359000Y-24016002D01*
X134409000Y-23966000D01*
X134959001Y-23966000D01*
X135009001Y-24016002D01*
G37*
G36*
X135009001Y-23366001D02*
G01*
X135009001Y-23566001D01*
X134959001Y-23616000D01*
X134409000Y-23616000D01*
X134359000Y-23566001D01*
X134359000Y-23366001D01*
X134409000Y-23316001D01*
X134959001Y-23316001D01*
X135009001Y-23366001D01*
G37*
%TO.C,U20*%
G36*
X122829000Y-4994999D02*
G01*
X122829000Y-5545000D01*
X122779000Y-5595000D01*
X122579000Y-5595000D01*
X122529001Y-5545000D01*
X122529001Y-4994999D01*
X122579000Y-4944999D01*
X122779000Y-4944999D01*
X122829000Y-4994999D01*
G37*
G36*
X122179001Y-4994999D02*
G01*
X122179001Y-5545000D01*
X122128999Y-5595000D01*
X121928999Y-5595000D01*
X121878999Y-5545000D01*
X121878999Y-4994999D01*
X121928999Y-4944999D01*
X122128999Y-4944999D01*
X122179001Y-4994999D01*
G37*
G36*
X124129000Y-4994999D02*
G01*
X124129000Y-5545000D01*
X124079000Y-5595000D01*
X123879000Y-5595000D01*
X123829000Y-5545000D01*
X123829000Y-4994999D01*
X123879000Y-4944999D01*
X124079000Y-4944999D01*
X124129000Y-4994999D01*
G37*
G36*
X123479001Y-4994999D02*
G01*
X123479001Y-5545000D01*
X123428999Y-5595000D01*
X123228999Y-5595000D01*
X123178999Y-5545000D01*
X123178999Y-4994999D01*
X123228999Y-4944999D01*
X123428999Y-4944999D01*
X123479001Y-4994999D01*
G37*
G36*
X121529000Y-4994999D02*
G01*
X121529000Y-5545000D01*
X121479000Y-5595000D01*
X121279001Y-5595000D01*
X121229001Y-5545000D01*
X121229001Y-4994999D01*
X121279001Y-4944999D01*
X121479000Y-4944999D01*
X121529000Y-4994999D01*
G37*
G36*
X120878999Y-4994999D02*
G01*
X120878999Y-6244999D01*
X120828999Y-6294999D01*
X120479000Y-6294999D01*
X120429000Y-6244999D01*
X120429000Y-4994999D01*
X120479000Y-4944999D01*
X120828999Y-4944999D01*
X120878999Y-4994999D01*
G37*
G36*
X125179000Y-4994999D02*
G01*
X125179000Y-6244999D01*
X125129000Y-6294999D01*
X124779001Y-6294999D01*
X124729001Y-6244999D01*
X124729001Y-4994999D01*
X124779001Y-4944999D01*
X125129000Y-4944999D01*
X125179000Y-4994999D01*
G37*
G36*
X122659000Y-6570000D02*
G01*
X122659000Y-7420000D01*
X122609000Y-7470000D01*
X122058999Y-7470000D01*
X122008999Y-7420000D01*
X122008999Y-6570000D01*
X122058999Y-6520000D01*
X122609000Y-6520000D01*
X122659000Y-6570000D01*
G37*
G36*
X123609001Y-6570000D02*
G01*
X123609001Y-7420000D01*
X123559001Y-7470000D01*
X123009000Y-7470000D01*
X122959000Y-7420000D01*
X122959000Y-6570000D01*
X123009000Y-6520000D01*
X123559001Y-6520000D01*
X123609001Y-6570000D01*
G37*
G36*
X125059001Y-6945000D02*
G01*
X125059001Y-7444999D01*
X125009001Y-7494999D01*
X123959000Y-7494999D01*
X123909000Y-7444999D01*
X123909000Y-6945000D01*
X123959000Y-6895000D01*
X125009001Y-6895000D01*
X125059001Y-6945000D01*
G37*
G36*
X121709000Y-6945000D02*
G01*
X121709000Y-7444999D01*
X121659000Y-7494999D01*
X120608999Y-7494999D01*
X120558999Y-7444999D01*
X120558999Y-6945000D01*
X120608999Y-6895000D01*
X121659000Y-6895000D01*
X121709000Y-6945000D01*
G37*
G36*
X125059001Y-7795001D02*
G01*
X125059001Y-8295000D01*
X125009001Y-8345000D01*
X123959000Y-8345000D01*
X123909000Y-8295000D01*
X123909000Y-7795001D01*
X123959000Y-7745001D01*
X125009001Y-7745001D01*
X125059001Y-7795001D01*
G37*
G36*
X121709000Y-7795001D02*
G01*
X121709000Y-8295000D01*
X121659000Y-8345000D01*
X120608999Y-8345000D01*
X120558999Y-8295000D01*
X120558999Y-7795001D01*
X120608999Y-7745001D01*
X121659000Y-7745001D01*
X121709000Y-7795001D01*
G37*
G36*
X122659000Y-7820000D02*
G01*
X122659000Y-8670000D01*
X122609000Y-8720000D01*
X122058999Y-8720000D01*
X122008999Y-8670000D01*
X122008999Y-7820000D01*
X122058999Y-7770000D01*
X122609000Y-7770000D01*
X122659000Y-7820000D01*
G37*
G36*
X123609001Y-7820000D02*
G01*
X123609001Y-8670000D01*
X123559001Y-8720000D01*
X123009000Y-8720000D01*
X122959000Y-8670000D01*
X122959000Y-7820000D01*
X123009000Y-7770000D01*
X123559001Y-7770000D01*
X123609001Y-7820000D01*
G37*
G36*
X125179000Y-8995001D02*
G01*
X125179000Y-10245001D01*
X125129000Y-10295001D01*
X124779001Y-10295001D01*
X124729001Y-10245001D01*
X124729001Y-8995001D01*
X124779001Y-8945001D01*
X125129000Y-8945001D01*
X125179000Y-8995001D01*
G37*
G36*
X120878999Y-8995001D02*
G01*
X120878999Y-10245001D01*
X120828999Y-10295001D01*
X120479000Y-10295001D01*
X120429000Y-10245001D01*
X120429000Y-8995001D01*
X120479000Y-8945001D01*
X120828999Y-8945001D01*
X120878999Y-8995001D01*
G37*
G36*
X124129000Y-9695000D02*
G01*
X124129000Y-10245001D01*
X124079000Y-10295001D01*
X123879000Y-10295001D01*
X123829000Y-10245001D01*
X123829000Y-9695000D01*
X123879000Y-9645000D01*
X124079000Y-9645000D01*
X124129000Y-9695000D01*
G37*
G36*
X121529000Y-9695000D02*
G01*
X121529000Y-10245001D01*
X121479000Y-10295001D01*
X121279001Y-10295001D01*
X121229001Y-10245001D01*
X121229001Y-9695000D01*
X121279001Y-9645000D01*
X121479000Y-9645000D01*
X121529000Y-9695000D01*
G37*
G36*
X123479001Y-9695000D02*
G01*
X123479001Y-10245001D01*
X123428999Y-10295001D01*
X123228999Y-10295001D01*
X123178999Y-10245001D01*
X123178999Y-9695000D01*
X123228999Y-9645000D01*
X123428999Y-9645000D01*
X123479001Y-9695000D01*
G37*
G36*
X122179001Y-9695000D02*
G01*
X122179001Y-10245001D01*
X122128999Y-10295001D01*
X121928999Y-10295001D01*
X121878999Y-10245001D01*
X121878999Y-9695000D01*
X121928999Y-9645000D01*
X122128999Y-9645000D01*
X122179001Y-9695000D01*
G37*
G36*
X122829000Y-9695000D02*
G01*
X122829000Y-10245001D01*
X122779000Y-10295001D01*
X122579000Y-10295001D01*
X122529001Y-10245001D01*
X122529001Y-9695000D01*
X122579000Y-9645000D01*
X122779000Y-9645000D01*
X122829000Y-9695000D01*
G37*
%TO.C,U22*%
G36*
X124353000Y-14392999D02*
G01*
X124353000Y-14943000D01*
X124303000Y-14993000D01*
X124103000Y-14993000D01*
X124053001Y-14943000D01*
X124053001Y-14392999D01*
X124103000Y-14342999D01*
X124303000Y-14342999D01*
X124353000Y-14392999D01*
G37*
G36*
X123703001Y-14392999D02*
G01*
X123703001Y-14943000D01*
X123652999Y-14993000D01*
X123452999Y-14993000D01*
X123402999Y-14943000D01*
X123402999Y-14392999D01*
X123452999Y-14342999D01*
X123652999Y-14342999D01*
X123703001Y-14392999D01*
G37*
G36*
X125653000Y-14392999D02*
G01*
X125653000Y-14943000D01*
X125603000Y-14993000D01*
X125403000Y-14993000D01*
X125353000Y-14943000D01*
X125353000Y-14392999D01*
X125403000Y-14342999D01*
X125603000Y-14342999D01*
X125653000Y-14392999D01*
G37*
G36*
X125003001Y-14392999D02*
G01*
X125003001Y-14943000D01*
X124952999Y-14993000D01*
X124752999Y-14993000D01*
X124702999Y-14943000D01*
X124702999Y-14392999D01*
X124752999Y-14342999D01*
X124952999Y-14342999D01*
X125003001Y-14392999D01*
G37*
G36*
X123053000Y-14392999D02*
G01*
X123053000Y-14943000D01*
X123003000Y-14993000D01*
X122803001Y-14993000D01*
X122753001Y-14943000D01*
X122753001Y-14392999D01*
X122803001Y-14342999D01*
X123003000Y-14342999D01*
X123053000Y-14392999D01*
G37*
G36*
X122402999Y-14392999D02*
G01*
X122402999Y-15642999D01*
X122352999Y-15692999D01*
X122003000Y-15692999D01*
X121953000Y-15642999D01*
X121953000Y-14392999D01*
X122003000Y-14342999D01*
X122352999Y-14342999D01*
X122402999Y-14392999D01*
G37*
G36*
X126703000Y-14392999D02*
G01*
X126703000Y-15642999D01*
X126653000Y-15692999D01*
X126303001Y-15692999D01*
X126253001Y-15642999D01*
X126253001Y-14392999D01*
X126303001Y-14342999D01*
X126653000Y-14342999D01*
X126703000Y-14392999D01*
G37*
G36*
X124183000Y-15968000D02*
G01*
X124183000Y-16818000D01*
X124133000Y-16868000D01*
X123582999Y-16868000D01*
X123532999Y-16818000D01*
X123532999Y-15968000D01*
X123582999Y-15918000D01*
X124133000Y-15918000D01*
X124183000Y-15968000D01*
G37*
G36*
X125133001Y-15968000D02*
G01*
X125133001Y-16818000D01*
X125083001Y-16868000D01*
X124533000Y-16868000D01*
X124483000Y-16818000D01*
X124483000Y-15968000D01*
X124533000Y-15918000D01*
X125083001Y-15918000D01*
X125133001Y-15968000D01*
G37*
G36*
X126583001Y-16343000D02*
G01*
X126583001Y-16842999D01*
X126533001Y-16892999D01*
X125483000Y-16892999D01*
X125433000Y-16842999D01*
X125433000Y-16343000D01*
X125483000Y-16293000D01*
X126533001Y-16293000D01*
X126583001Y-16343000D01*
G37*
G36*
X123233000Y-16343000D02*
G01*
X123233000Y-16842999D01*
X123183000Y-16892999D01*
X122132999Y-16892999D01*
X122082999Y-16842999D01*
X122082999Y-16343000D01*
X122132999Y-16293000D01*
X123183000Y-16293000D01*
X123233000Y-16343000D01*
G37*
G36*
X126583001Y-17193001D02*
G01*
X126583001Y-17693000D01*
X126533001Y-17743000D01*
X125483000Y-17743000D01*
X125433000Y-17693000D01*
X125433000Y-17193001D01*
X125483000Y-17143001D01*
X126533001Y-17143001D01*
X126583001Y-17193001D01*
G37*
G36*
X123233000Y-17193001D02*
G01*
X123233000Y-17693000D01*
X123183000Y-17743000D01*
X122132999Y-17743000D01*
X122082999Y-17693000D01*
X122082999Y-17193001D01*
X122132999Y-17143001D01*
X123183000Y-17143001D01*
X123233000Y-17193001D01*
G37*
G36*
X124183000Y-17218000D02*
G01*
X124183000Y-18068000D01*
X124133000Y-18118000D01*
X123582999Y-18118000D01*
X123532999Y-18068000D01*
X123532999Y-17218000D01*
X123582999Y-17168000D01*
X124133000Y-17168000D01*
X124183000Y-17218000D01*
G37*
G36*
X125133001Y-17218000D02*
G01*
X125133001Y-18068000D01*
X125083001Y-18118000D01*
X124533000Y-18118000D01*
X124483000Y-18068000D01*
X124483000Y-17218000D01*
X124533000Y-17168000D01*
X125083001Y-17168000D01*
X125133001Y-17218000D01*
G37*
G36*
X126703000Y-18393001D02*
G01*
X126703000Y-19643001D01*
X126653000Y-19693001D01*
X126303001Y-19693001D01*
X126253001Y-19643001D01*
X126253001Y-18393001D01*
X126303001Y-18343001D01*
X126653000Y-18343001D01*
X126703000Y-18393001D01*
G37*
G36*
X122402999Y-18393001D02*
G01*
X122402999Y-19643001D01*
X122352999Y-19693001D01*
X122003000Y-19693001D01*
X121953000Y-19643001D01*
X121953000Y-18393001D01*
X122003000Y-18343001D01*
X122352999Y-18343001D01*
X122402999Y-18393001D01*
G37*
G36*
X125653000Y-19093000D02*
G01*
X125653000Y-19643001D01*
X125603000Y-19693001D01*
X125403000Y-19693001D01*
X125353000Y-19643001D01*
X125353000Y-19093000D01*
X125403000Y-19043000D01*
X125603000Y-19043000D01*
X125653000Y-19093000D01*
G37*
G36*
X123053000Y-19093000D02*
G01*
X123053000Y-19643001D01*
X123003000Y-19693001D01*
X122803001Y-19693001D01*
X122753001Y-19643001D01*
X122753001Y-19093000D01*
X122803001Y-19043000D01*
X123003000Y-19043000D01*
X123053000Y-19093000D01*
G37*
G36*
X125003001Y-19093000D02*
G01*
X125003001Y-19643001D01*
X124952999Y-19693001D01*
X124752999Y-19693001D01*
X124702999Y-19643001D01*
X124702999Y-19093000D01*
X124752999Y-19043000D01*
X124952999Y-19043000D01*
X125003001Y-19093000D01*
G37*
G36*
X123703001Y-19093000D02*
G01*
X123703001Y-19643001D01*
X123652999Y-19693001D01*
X123452999Y-19693001D01*
X123402999Y-19643001D01*
X123402999Y-19093000D01*
X123452999Y-19043000D01*
X123652999Y-19043000D01*
X123703001Y-19093000D01*
G37*
G36*
X124353000Y-19093000D02*
G01*
X124353000Y-19643001D01*
X124303000Y-19693001D01*
X124103000Y-19693001D01*
X124053001Y-19643001D01*
X124053001Y-19093000D01*
X124103000Y-19043000D01*
X124303000Y-19043000D01*
X124353000Y-19093000D01*
G37*
%TD*%
D10*
%TO.C,C231*%
X97396000Y-66802000D03*
X98946000Y-66802000D03*
%TD*%
D11*
%TO.C,R47*%
X76962000Y-26099000D03*
X76962000Y-27749000D03*
%TD*%
D12*
%TO.C,R48*%
X75438000Y-27749000D03*
X75438000Y-26099000D03*
%TD*%
D13*
%TO.C,C74*%
X35941000Y-15507000D03*
X35941000Y-13957000D03*
%TD*%
D14*
%TO.C,R27*%
X63797000Y-5218000D03*
X65447000Y-5218000D03*
%TD*%
D13*
%TO.C,C225*%
X130556000Y-67704000D03*
X130556000Y-66154000D03*
%TD*%
D14*
%TO.C,R93*%
X115507000Y-54737000D03*
X117157000Y-54737000D03*
%TD*%
D15*
%TO.C,C38*%
X9525000Y-57645000D03*
X9525000Y-59195000D03*
%TD*%
D16*
%TO.C,U12*%
X36257000Y-40640000D03*
X36257000Y-39370000D03*
X36257000Y-38100000D03*
X36257000Y-36830000D03*
X31307000Y-36830000D03*
X31307000Y-38100000D03*
X31307000Y-39370000D03*
X31307000Y-40640000D03*
%TD*%
D10*
%TO.C,C33*%
X30848000Y-18415000D03*
X32398000Y-18415000D03*
%TD*%
D11*
%TO.C,R56*%
X54864000Y-39688000D03*
X54864000Y-41338000D03*
%TD*%
D17*
%TO.C,C123*%
X91199000Y-31864000D03*
X89649000Y-31864000D03*
%TD*%
D10*
%TO.C,C117*%
X93078000Y-55626000D03*
X94628000Y-55626000D03*
%TD*%
D13*
%TO.C,C89*%
X69342000Y-38113000D03*
X69342000Y-36563000D03*
%TD*%
D17*
%TO.C,C63*%
X62471600Y-32766000D03*
X60921600Y-32766000D03*
%TD*%
D18*
%TO.C,D15*%
X114427000Y-82524500D03*
X114427000Y-84099500D03*
%TD*%
D19*
%TO.C,R72*%
X92646000Y-24384000D03*
X90996000Y-24384000D03*
%TD*%
D13*
%TO.C,C222*%
X138938000Y-45479000D03*
X138938000Y-43929000D03*
%TD*%
D10*
%TO.C,C67*%
X68948000Y-21336000D03*
X70498000Y-21336000D03*
%TD*%
D11*
%TO.C,R3*%
X9525000Y-17463000D03*
X9525000Y-19113000D03*
%TD*%
D17*
%TO.C,C13*%
X22238000Y-26924000D03*
X20688000Y-26924000D03*
%TD*%
D20*
%TO.C,U16*%
X87167000Y-23030000D03*
X87167000Y-24220000D03*
X87987000Y-23030000D03*
X87987000Y-24220000D03*
D21*
X86127000Y-22625000D03*
X86127000Y-23125000D03*
X86127000Y-23625000D03*
X86127000Y-24125000D03*
X86127000Y-24625000D03*
X89027000Y-24625000D03*
X89027000Y-24125000D03*
X89027000Y-23625000D03*
X89027000Y-23125000D03*
X89027000Y-22625000D03*
%TD*%
D22*
%TO.C,U19*%
X101975500Y-33081000D03*
X101975500Y-32131000D03*
X101975500Y-31181000D03*
X99700500Y-31181000D03*
X99700500Y-33081000D03*
%TD*%
D12*
%TO.C,R39*%
X61214000Y-22923000D03*
X61214000Y-21273000D03*
%TD*%
D19*
%TO.C,R71*%
X92646000Y-25908000D03*
X90996000Y-25908000D03*
%TD*%
D12*
%TO.C,R54*%
X69342000Y-41719000D03*
X69342000Y-40069000D03*
%TD*%
D11*
%TO.C,R53*%
X66294000Y-40069000D03*
X66294000Y-41719000D03*
%TD*%
D12*
%TO.C,R55*%
X56388000Y-41338000D03*
X56388000Y-39688000D03*
%TD*%
D13*
%TO.C,C43*%
X39878000Y-22365000D03*
X39878000Y-20815000D03*
%TD*%
D15*
%TO.C,C158*%
X131953000Y-7988000D03*
X131953000Y-9538000D03*
%TD*%
%TO.C,C186*%
X110363000Y-23609000D03*
X110363000Y-25159000D03*
%TD*%
D17*
%TO.C,C142*%
X83960000Y-21590000D03*
X82410000Y-21590000D03*
%TD*%
D14*
%TO.C,R42*%
X68898000Y-22860000D03*
X70548000Y-22860000D03*
%TD*%
%TO.C,R26*%
X63797000Y-8012000D03*
X65447000Y-8012000D03*
%TD*%
D10*
%TO.C,C215*%
X149339000Y-34544000D03*
X150889000Y-34544000D03*
%TD*%
D15*
%TO.C,C86*%
X57912000Y-39738000D03*
X57912000Y-41288000D03*
%TD*%
D23*
%TO.C,C94*%
X42926000Y-39292000D03*
X42926000Y-42242000D03*
%TD*%
D15*
%TO.C,C139*%
X110744000Y-61328000D03*
X110744000Y-62878000D03*
%TD*%
D14*
%TO.C,R18*%
X20638000Y-28448000D03*
X22288000Y-28448000D03*
%TD*%
D11*
%TO.C,R57*%
X59436000Y-39688000D03*
X59436000Y-41338000D03*
%TD*%
D15*
%TO.C,C220*%
X146050000Y-30213000D03*
X146050000Y-31763000D03*
%TD*%
D14*
%TO.C,R21*%
X35116000Y-29972000D03*
X36766000Y-29972000D03*
%TD*%
D10*
%TO.C,C196*%
X87998000Y-12827000D03*
X89548000Y-12827000D03*
%TD*%
D13*
%TO.C,C65*%
X39878000Y-25921000D03*
X39878000Y-24371000D03*
%TD*%
D15*
%TO.C,C60*%
X53848000Y-24752000D03*
X53848000Y-26302000D03*
%TD*%
D17*
%TO.C,C181*%
X102951000Y-19828000D03*
X101401000Y-19828000D03*
%TD*%
D24*
%TO.C,C103*%
X47117000Y-64467000D03*
X47117000Y-61517000D03*
%TD*%
D12*
%TO.C,R28*%
X12827000Y-63055000D03*
X12827000Y-61405000D03*
%TD*%
D19*
%TO.C,R10*%
X14668000Y-29591000D03*
X13018000Y-29591000D03*
%TD*%
%TO.C,R78*%
X84010000Y-23101000D03*
X82360000Y-23101000D03*
%TD*%
D25*
%TO.C,D12*%
X95605500Y-82550000D03*
X97180500Y-82550000D03*
%TD*%
D10*
%TO.C,C214*%
X149339000Y-52070000D03*
X150889000Y-52070000D03*
%TD*%
D18*
%TO.C,D14*%
X112776000Y-82524500D03*
X112776000Y-84099500D03*
%TD*%
D15*
%TO.C,C147*%
X85979000Y-26644000D03*
X85979000Y-28194000D03*
%TD*%
D26*
%TO.C,U24*%
X106086000Y-17739000D03*
X106086000Y-17089000D03*
X106086000Y-16439000D03*
X106086000Y-15789000D03*
X101686000Y-15789000D03*
X101686000Y-16439000D03*
X101686000Y-17089000D03*
X101686000Y-17739000D03*
%TD*%
D13*
%TO.C,C217*%
X144526000Y-31763000D03*
X144526000Y-30213000D03*
%TD*%
D27*
%TO.C,D11*%
X118110000Y-82584000D03*
X118110000Y-80484000D03*
%TD*%
D11*
%TO.C,R33*%
X40132000Y-5779000D03*
X40132000Y-7429000D03*
%TD*%
D19*
%TO.C,R74*%
X83819000Y-13589000D03*
X82169000Y-13589000D03*
%TD*%
%TO.C,R88*%
X121983000Y-21209000D03*
X120333000Y-21209000D03*
%TD*%
D14*
%TO.C,R77*%
X82360000Y-24638000D03*
X84010000Y-24638000D03*
%TD*%
D28*
%TO.C,U27*%
X91694000Y-8020000D03*
X91694000Y-8490000D03*
D29*
X91169000Y-7855000D03*
X91169000Y-8255000D03*
X91169000Y-8655000D03*
X92219000Y-8655000D03*
X92219000Y-8255000D03*
X92219000Y-7855000D03*
%TD*%
D10*
%TO.C,C203*%
X87996600Y-15852200D03*
X89546600Y-15852200D03*
%TD*%
D26*
%TO.C,U25*%
X106213000Y-25359000D03*
X106213000Y-24709000D03*
X106213000Y-24059000D03*
X106213000Y-23409000D03*
X101813000Y-23409000D03*
X101813000Y-24059000D03*
X101813000Y-24709000D03*
X101813000Y-25359000D03*
%TD*%
D11*
%TO.C,R43*%
X72517000Y-21273000D03*
X72517000Y-22923000D03*
%TD*%
%TO.C,R34*%
X67183000Y-16701000D03*
X67183000Y-18351000D03*
%TD*%
D10*
%TO.C,C227*%
X120269000Y-72009000D03*
X121819000Y-72009000D03*
%TD*%
%TO.C,C34*%
X30848000Y-30099000D03*
X32398000Y-30099000D03*
%TD*%
D13*
%TO.C,C129*%
X84328000Y-36335000D03*
X84328000Y-34785000D03*
%TD*%
D19*
%TO.C,R99*%
X150939000Y-37084000D03*
X149289000Y-37084000D03*
%TD*%
D10*
%TO.C,C121*%
X115557000Y-41783000D03*
X117107000Y-41783000D03*
%TD*%
D13*
%TO.C,C145*%
X104140000Y-32906000D03*
X104140000Y-31356000D03*
%TD*%
D10*
%TO.C,C183*%
X100317000Y-11811000D03*
X101867000Y-11811000D03*
%TD*%
D17*
%TO.C,C119*%
X117107000Y-46355000D03*
X115557000Y-46355000D03*
%TD*%
D18*
%TO.C,D10*%
X104775000Y-82524500D03*
X104775000Y-84099500D03*
%TD*%
D12*
%TO.C,R96*%
X141986000Y-31813000D03*
X141986000Y-30163000D03*
%TD*%
D30*
%TO.C,U29*%
X144626000Y-39216000D03*
X144626000Y-37846000D03*
X144626000Y-36476000D03*
X143256000Y-39216000D03*
X143256000Y-37846000D03*
X143256000Y-36476000D03*
X141886000Y-39216000D03*
X141886000Y-37846000D03*
X141886000Y-36476000D03*
D31*
X146693500Y-40596000D03*
X146693500Y-40096000D03*
X146693500Y-39596000D03*
X146693500Y-39096000D03*
X146693500Y-38596000D03*
X146693500Y-38096000D03*
X146693500Y-37596000D03*
X146693500Y-37096000D03*
X146693500Y-36596000D03*
X146693500Y-36096000D03*
X146693500Y-35596000D03*
X146693500Y-35096000D03*
D32*
X146006000Y-34408500D03*
X145506000Y-34408500D03*
X145006000Y-34408500D03*
X144506000Y-34408500D03*
X144006000Y-34408500D03*
X143506000Y-34408500D03*
X143006000Y-34408500D03*
X142506000Y-34408500D03*
X142006000Y-34408500D03*
X141506000Y-34408500D03*
X141006000Y-34408500D03*
X140506000Y-34408500D03*
D31*
X139818500Y-35096000D03*
X139818500Y-35596000D03*
X139818500Y-36096000D03*
X139818500Y-36596000D03*
X139818500Y-37096000D03*
X139818500Y-37596000D03*
X139818500Y-38096000D03*
X139818500Y-38596000D03*
X139818500Y-39096000D03*
X139818500Y-39596000D03*
X139818500Y-40096000D03*
X139818500Y-40596000D03*
D32*
X140506000Y-41283500D03*
X141006000Y-41283500D03*
X141506000Y-41283500D03*
X142006000Y-41283500D03*
X142506000Y-41283500D03*
X143006000Y-41283500D03*
X143506000Y-41283500D03*
X144006000Y-41283500D03*
X144506000Y-41283500D03*
X145006000Y-41283500D03*
X145506000Y-41283500D03*
X146006000Y-41283500D03*
%TD*%
D33*
%TO.C,RN4*%
X108401000Y-86448000D03*
X109201000Y-86448000D03*
X110001000Y-86448000D03*
X110801000Y-86448000D03*
X110801000Y-84748000D03*
X110001000Y-84748000D03*
X109201000Y-84748000D03*
X108401000Y-84748000D03*
%TD*%
D14*
%TO.C,R73*%
X90996000Y-22860000D03*
X92646000Y-22860000D03*
%TD*%
D17*
%TO.C,C116*%
X117107000Y-49403000D03*
X115557000Y-49403000D03*
%TD*%
D14*
%TO.C,R14*%
X20638000Y-12192000D03*
X22288000Y-12192000D03*
%TD*%
D34*
%TO.C,D13*%
X100736500Y-82550000D03*
X99161500Y-82550000D03*
%TD*%
D13*
%TO.C,C134*%
X50165000Y-80912000D03*
X50165000Y-79362000D03*
%TD*%
D11*
%TO.C,R30*%
X41656000Y-5779000D03*
X41656000Y-7429000D03*
%TD*%
D10*
%TO.C,C91*%
X61455000Y-42418000D03*
X63005000Y-42418000D03*
%TD*%
D35*
%TO.C,U7*%
X17668000Y-61153000D03*
X17018000Y-61153000D03*
X16368000Y-61153000D03*
X16368000Y-63053000D03*
X17018000Y-63053000D03*
X17668000Y-63053000D03*
%TD*%
D15*
%TO.C,C144*%
X96901000Y-38214000D03*
X96901000Y-39764000D03*
%TD*%
%TO.C,C176*%
X110177000Y-16005000D03*
X110177000Y-17555000D03*
%TD*%
D17*
%TO.C,C1*%
X36716000Y-22352000D03*
X35166000Y-22352000D03*
%TD*%
D10*
%TO.C,C56*%
X43548000Y-29464000D03*
X45098000Y-29464000D03*
%TD*%
D15*
%TO.C,C221*%
X143510000Y-48006000D03*
X143510000Y-49556000D03*
%TD*%
D13*
%TO.C,C128*%
X85852000Y-36322000D03*
X85852000Y-34772000D03*
%TD*%
D36*
%TO.C,C98*%
X44577000Y-63434000D03*
X44577000Y-61534000D03*
%TD*%
D15*
%TO.C,C188*%
X95377000Y-6718000D03*
X95377000Y-8268000D03*
%TD*%
D10*
%TO.C,C175*%
X107302000Y-6223000D03*
X108852000Y-6223000D03*
%TD*%
D17*
%TO.C,C132*%
X77102000Y-68199000D03*
X75552000Y-68199000D03*
%TD*%
D25*
%TO.C,L1*%
X115544500Y-43307000D03*
X117119500Y-43307000D03*
%TD*%
D14*
%TO.C,R109*%
X106744000Y-66802000D03*
X108394000Y-66802000D03*
%TD*%
D37*
%TO.C,D6*%
X150864000Y-65294000D03*
D38*
X149164000Y-65294000D03*
X149164000Y-67294000D03*
X151064000Y-67294000D03*
%TD*%
D13*
%TO.C,C59*%
X65659000Y-18301000D03*
X65659000Y-16751000D03*
%TD*%
D14*
%TO.C,R82*%
X118809000Y-11811000D03*
X120459000Y-11811000D03*
%TD*%
D39*
%TO.C,C85*%
X70800000Y-44069000D03*
X68900000Y-44069000D03*
%TD*%
D12*
%TO.C,R49*%
X60579000Y-18351000D03*
X60579000Y-16701000D03*
%TD*%
D10*
%TO.C,C202*%
X88011000Y-11303000D03*
X89561000Y-11303000D03*
%TD*%
D24*
%TO.C,C173*%
X116840000Y-18493000D03*
X116840000Y-15543000D03*
%TD*%
D14*
%TO.C,R17*%
X20638000Y-23876000D03*
X22288000Y-23876000D03*
%TD*%
D19*
%TO.C,R108*%
X104838000Y-66802000D03*
X103188000Y-66802000D03*
%TD*%
D28*
%TO.C,U26*%
X91694000Y-13608000D03*
X91694000Y-14078000D03*
D29*
X91169000Y-13443000D03*
X91169000Y-13843000D03*
X91169000Y-14243000D03*
X92219000Y-14243000D03*
X92219000Y-13843000D03*
X92219000Y-13443000D03*
%TD*%
D17*
%TO.C,C24*%
X25794000Y-27305000D03*
X24244000Y-27305000D03*
%TD*%
D15*
%TO.C,C229*%
X120015000Y-81013000D03*
X120015000Y-82563000D03*
%TD*%
D40*
%TO.C,D3*%
X9637000Y-63357000D03*
X10937000Y-63357000D03*
X10287000Y-61357000D03*
%TD*%
D14*
%TO.C,R59*%
X38799000Y-37846000D03*
X40449000Y-37846000D03*
%TD*%
D15*
%TO.C,C178*%
X108653000Y-16005000D03*
X108653000Y-17555000D03*
%TD*%
D19*
%TO.C,R68*%
X69278000Y-57277000D03*
X67628000Y-57277000D03*
%TD*%
D14*
%TO.C,R92*%
X105093000Y-21336000D03*
X106743000Y-21336000D03*
%TD*%
D10*
%TO.C,C17*%
X13703000Y-8001000D03*
X15253000Y-8001000D03*
%TD*%
D33*
%TO.C,RN2*%
X143961000Y-71716000D03*
X144761000Y-71716000D03*
X145561000Y-71716000D03*
X146361000Y-71716000D03*
X146361000Y-70016000D03*
X145561000Y-70016000D03*
X144761000Y-70016000D03*
X143961000Y-70016000D03*
%TD*%
D13*
%TO.C,C218*%
X140462000Y-31763000D03*
X140462000Y-30213000D03*
%TD*%
D10*
%TO.C,C213*%
X149339000Y-41529000D03*
X150889000Y-41529000D03*
%TD*%
D41*
%TO.C,R2*%
X8316500Y-92583000D03*
X11241500Y-92583000D03*
%TD*%
D10*
%TO.C,C137*%
X78727000Y-13589000D03*
X80277000Y-13589000D03*
%TD*%
D30*
%TO.C,U30*%
X144626000Y-56996000D03*
X144626000Y-55626000D03*
X144626000Y-54256000D03*
X143256000Y-56996000D03*
X143256000Y-55626000D03*
X143256000Y-54256000D03*
X141886000Y-56996000D03*
X141886000Y-55626000D03*
X141886000Y-54256000D03*
D31*
X146693500Y-58376000D03*
X146693500Y-57876000D03*
X146693500Y-57376000D03*
X146693500Y-56876000D03*
X146693500Y-56376000D03*
X146693500Y-55876000D03*
X146693500Y-55376000D03*
X146693500Y-54876000D03*
X146693500Y-54376000D03*
X146693500Y-53876000D03*
X146693500Y-53376000D03*
X146693500Y-52876000D03*
D32*
X146006000Y-52188500D03*
X145506000Y-52188500D03*
X145006000Y-52188500D03*
X144506000Y-52188500D03*
X144006000Y-52188500D03*
X143506000Y-52188500D03*
X143006000Y-52188500D03*
X142506000Y-52188500D03*
X142006000Y-52188500D03*
X141506000Y-52188500D03*
X141006000Y-52188500D03*
X140506000Y-52188500D03*
D31*
X139818500Y-52876000D03*
X139818500Y-53376000D03*
X139818500Y-53876000D03*
X139818500Y-54376000D03*
X139818500Y-54876000D03*
X139818500Y-55376000D03*
X139818500Y-55876000D03*
X139818500Y-56376000D03*
X139818500Y-56876000D03*
X139818500Y-57376000D03*
X139818500Y-57876000D03*
X139818500Y-58376000D03*
D32*
X140506000Y-59063500D03*
X141006000Y-59063500D03*
X141506000Y-59063500D03*
X142006000Y-59063500D03*
X142506000Y-59063500D03*
X143006000Y-59063500D03*
X143506000Y-59063500D03*
X144006000Y-59063500D03*
X144506000Y-59063500D03*
X145006000Y-59063500D03*
X145506000Y-59063500D03*
X146006000Y-59063500D03*
%TD*%
D17*
%TO.C,C18*%
X15253000Y-22479000D03*
X13703000Y-22479000D03*
%TD*%
D15*
%TO.C,C115*%
X71501000Y-59550000D03*
X71501000Y-61100000D03*
%TD*%
D13*
%TO.C,C97*%
X39497000Y-63005000D03*
X39497000Y-61455000D03*
%TD*%
D42*
%TO.C,C169*%
X130859000Y-28289001D03*
X133809000Y-28289001D03*
%TD*%
D19*
%TO.C,R97*%
X150939000Y-43942000D03*
X149289000Y-43942000D03*
%TD*%
D43*
%TO.C,L10*%
X127321000Y-68687000D03*
X127321000Y-66187000D03*
X119821000Y-66187000D03*
X119821000Y-68687000D03*
%TD*%
D12*
%TO.C,R102*%
X141986000Y-49593000D03*
X141986000Y-47943000D03*
%TD*%
D15*
%TO.C,C131*%
X51689000Y-79362000D03*
X51689000Y-80912000D03*
%TD*%
D14*
%TO.C,R62*%
X31179000Y-33147000D03*
X32829000Y-33147000D03*
%TD*%
D17*
%TO.C,C124*%
X91199000Y-33388000D03*
X89649000Y-33388000D03*
%TD*%
%TO.C,C19*%
X15253000Y-20955000D03*
X13703000Y-20955000D03*
%TD*%
%TO.C,C23*%
X25794000Y-15621000D03*
X24244000Y-15621000D03*
%TD*%
D10*
%TO.C,C70*%
X68567000Y-31242000D03*
X70117000Y-31242000D03*
%TD*%
D44*
%TO.C,U11*%
X63328000Y-39957000D03*
X63328000Y-38767000D03*
X62508000Y-39957000D03*
X62508000Y-38767000D03*
D45*
X64368000Y-40362000D03*
X64368000Y-39862000D03*
X64368000Y-39362000D03*
X64368000Y-38862000D03*
X64368000Y-38362000D03*
X61468000Y-38362000D03*
X61468000Y-38862000D03*
X61468000Y-39362000D03*
X61468000Y-39862000D03*
X61468000Y-40362000D03*
%TD*%
D10*
%TO.C,C208*%
X119113000Y-54737000D03*
X120663000Y-54737000D03*
%TD*%
D15*
%TO.C,C159*%
X141097000Y-20815000D03*
X141097000Y-22365000D03*
%TD*%
D13*
%TO.C,C54*%
X55372000Y-26302000D03*
X55372000Y-24752000D03*
%TD*%
D14*
%TO.C,R20*%
X35116000Y-19304000D03*
X36766000Y-19304000D03*
%TD*%
D11*
%TO.C,R8*%
X11049000Y-27877000D03*
X11049000Y-29527000D03*
%TD*%
%TO.C,R31*%
X38608000Y-5779000D03*
X38608000Y-7429000D03*
%TD*%
D13*
%TO.C,C166*%
X130429000Y-16523000D03*
X130429000Y-14973000D03*
%TD*%
D46*
%TO.C,U34*%
X88646000Y-79874000D03*
X89916000Y-79874000D03*
X91186000Y-79874000D03*
X92456000Y-79874000D03*
X92456000Y-69224000D03*
X91186000Y-69224000D03*
X89916000Y-69224000D03*
X88646000Y-69224000D03*
%TD*%
D18*
%TO.C,D9*%
X103124000Y-82524500D03*
X103124000Y-84099500D03*
%TD*%
D10*
%TO.C,C29*%
X24244000Y-11811000D03*
X25794000Y-11811000D03*
%TD*%
D17*
%TO.C,C9*%
X15253000Y-11049000D03*
X13703000Y-11049000D03*
%TD*%
D11*
%TO.C,R103*%
X151130000Y-60897000D03*
X151130000Y-62547000D03*
%TD*%
D10*
%TO.C,C64*%
X60921600Y-31242000D03*
X62471600Y-31242000D03*
%TD*%
D42*
%TO.C,C171*%
X130859000Y-30829001D03*
X133809000Y-30829001D03*
%TD*%
D13*
%TO.C,C101*%
X36957000Y-63005000D03*
X36957000Y-61455000D03*
%TD*%
D19*
%TO.C,R105*%
X150939000Y-54610000D03*
X149289000Y-54610000D03*
%TD*%
D15*
%TO.C,C164*%
X138049000Y-20815000D03*
X138049000Y-22365000D03*
%TD*%
D14*
%TO.C,R46*%
X68517000Y-29718000D03*
X70167000Y-29718000D03*
%TD*%
%TO.C,R75*%
X82360000Y-26149000D03*
X84010000Y-26149000D03*
%TD*%
D19*
%TO.C,R41*%
X66992000Y-22860000D03*
X65342000Y-22860000D03*
%TD*%
D13*
%TO.C,C136*%
X98425000Y-39764000D03*
X98425000Y-38214000D03*
%TD*%
D14*
%TO.C,R76*%
X82360000Y-27673000D03*
X84010000Y-27673000D03*
%TD*%
D13*
%TO.C,C216*%
X145034000Y-49543000D03*
X145034000Y-47993000D03*
%TD*%
D47*
%TO.C,T1*%
X149372000Y-20009000D03*
X149372000Y-21139000D03*
X150082000Y-20009000D03*
X150082000Y-21139000D03*
D48*
X150852000Y-19599000D03*
X150852000Y-20249000D03*
X150852000Y-20899000D03*
X150852000Y-21549000D03*
D49*
X147852000Y-19599000D03*
D48*
X147852000Y-20249000D03*
X147852000Y-20899000D03*
X147852000Y-21549000D03*
%TD*%
D12*
%TO.C,R25*%
X14351000Y-63055000D03*
X14351000Y-61405000D03*
%TD*%
D11*
%TO.C,R58*%
X9525000Y-44387000D03*
X9525000Y-46037000D03*
%TD*%
D13*
%TO.C,C219*%
X140462000Y-49543000D03*
X140462000Y-47993000D03*
%TD*%
%TO.C,C42*%
X53848000Y-22746000D03*
X53848000Y-21196000D03*
%TD*%
D50*
%TO.C,U14*%
X67503000Y-67422000D03*
X67503000Y-68072000D03*
X67503000Y-68722000D03*
X69403000Y-68722000D03*
X69403000Y-68072000D03*
X69403000Y-67422000D03*
%TD*%
D15*
%TO.C,C61*%
X44450000Y-24371000D03*
X44450000Y-25921000D03*
%TD*%
D11*
%TO.C,R7*%
X11049000Y-17463000D03*
X11049000Y-19113000D03*
%TD*%
D13*
%TO.C,C81*%
X72390000Y-27699000D03*
X72390000Y-26149000D03*
%TD*%
D10*
%TO.C,C118*%
X67678000Y-65405000D03*
X69228000Y-65405000D03*
%TD*%
D17*
%TO.C,C194*%
X103137000Y-27432000D03*
X101587000Y-27432000D03*
%TD*%
D13*
%TO.C,C122*%
X71501000Y-68085000D03*
X71501000Y-66535000D03*
%TD*%
D10*
%TO.C,C16*%
X20688000Y-29972000D03*
X22238000Y-29972000D03*
%TD*%
D11*
%TO.C,R84*%
X136525000Y-25210000D03*
X136525000Y-26860000D03*
%TD*%
D15*
%TO.C,C73*%
X57658000Y-18148000D03*
X57658000Y-19698000D03*
%TD*%
%TO.C,C149*%
X89027000Y-26644000D03*
X89027000Y-28194000D03*
%TD*%
D19*
%TO.C,R38*%
X66103000Y-31242000D03*
X64453000Y-31242000D03*
%TD*%
D46*
%TO.C,U36*%
X96266000Y-79874000D03*
X97536000Y-79874000D03*
X98806000Y-79874000D03*
X100076000Y-79874000D03*
X100076000Y-69224000D03*
X98806000Y-69224000D03*
X97536000Y-69224000D03*
X96266000Y-69224000D03*
%TD*%
D17*
%TO.C,C151*%
X148730000Y-91948000D03*
X147180000Y-91948000D03*
%TD*%
D19*
%TO.C,R87*%
X118427000Y-21209000D03*
X116777000Y-21209000D03*
%TD*%
D22*
%TO.C,U23*%
X102737500Y-8189000D03*
X102737500Y-7239000D03*
X102737500Y-6289000D03*
X100462500Y-6289000D03*
X100462500Y-8189000D03*
%TD*%
D13*
%TO.C,C152*%
X89027000Y-20447000D03*
X89027000Y-18897000D03*
%TD*%
D10*
%TO.C,C211*%
X119113000Y-56261000D03*
X120663000Y-56261000D03*
%TD*%
D23*
%TO.C,C168*%
X117856000Y-6145000D03*
X117856000Y-9095000D03*
%TD*%
D11*
%TO.C,R35*%
X68707000Y-16701000D03*
X68707000Y-18351000D03*
%TD*%
D15*
%TO.C,C163*%
X128905000Y-7988000D03*
X128905000Y-9538000D03*
%TD*%
D51*
%TO.C,C146*%
X115570000Y-38970000D03*
X115570000Y-33420000D03*
%TD*%
D12*
%TO.C,R45*%
X72136000Y-31305000D03*
X72136000Y-29655000D03*
%TD*%
D11*
%TO.C,R50*%
X64135000Y-16701000D03*
X64135000Y-18351000D03*
%TD*%
D15*
%TO.C,C233*%
X116078000Y-82537000D03*
X116078000Y-84087000D03*
%TD*%
D17*
%TO.C,C44*%
X36716000Y-17780000D03*
X35166000Y-17780000D03*
%TD*%
D10*
%TO.C,C130*%
X115557000Y-51562000D03*
X117107000Y-51562000D03*
%TD*%
%TO.C,C230*%
X89776000Y-66802000D03*
X91326000Y-66802000D03*
%TD*%
D13*
%TO.C,C8*%
X9525000Y-25921000D03*
X9525000Y-24371000D03*
%TD*%
D52*
%TO.C,C69*%
X64582000Y-33147000D03*
X66482000Y-33147000D03*
%TD*%
D53*
%TO.C,L6*%
X124971000Y-32385000D03*
X122171000Y-32385000D03*
%TD*%
D13*
%TO.C,C153*%
X87503000Y-20447000D03*
X87503000Y-18897000D03*
%TD*%
%TO.C,C179*%
X119634000Y-29350000D03*
X119634000Y-27800000D03*
%TD*%
D15*
%TO.C,C71*%
X42926000Y-24371000D03*
X42926000Y-25921000D03*
%TD*%
D11*
%TO.C,R52*%
X70866000Y-40069000D03*
X70866000Y-41719000D03*
%TD*%
D13*
%TO.C,C83*%
X75311000Y-42812000D03*
X75311000Y-41262000D03*
%TD*%
D19*
%TO.C,R44*%
X66103000Y-29718000D03*
X64453000Y-29718000D03*
%TD*%
D13*
%TO.C,C133*%
X110744000Y-39764000D03*
X110744000Y-38214000D03*
%TD*%
%TO.C,C205*%
X123190000Y-25159000D03*
X123190000Y-23609000D03*
%TD*%
D17*
%TO.C,C2*%
X36716000Y-20828000D03*
X35166000Y-20828000D03*
%TD*%
D15*
%TO.C,C192*%
X93853000Y-6718000D03*
X93853000Y-8268000D03*
%TD*%
D54*
%TO.C,C79*%
X62357000Y-16703000D03*
X62357000Y-18603000D03*
%TD*%
D19*
%TO.C,R110*%
X112458000Y-66802000D03*
X110808000Y-66802000D03*
%TD*%
D17*
%TO.C,C25*%
X41288000Y-30226000D03*
X39738000Y-30226000D03*
%TD*%
D15*
%TO.C,C190*%
X113538000Y-23609000D03*
X113538000Y-25159000D03*
%TD*%
%TO.C,C76*%
X64770000Y-24879000D03*
X64770000Y-26429000D03*
%TD*%
D55*
%TO.C,L9*%
X134998000Y-5842000D03*
X137798000Y-5842000D03*
%TD*%
D17*
%TO.C,C138*%
X94628000Y-57404000D03*
X93078000Y-57404000D03*
%TD*%
D15*
%TO.C,C174*%
X119634000Y-31483000D03*
X119634000Y-33033000D03*
%TD*%
D13*
%TO.C,C80*%
X70866000Y-27699000D03*
X70866000Y-26149000D03*
%TD*%
D15*
%TO.C,C187*%
X95377000Y-12306000D03*
X95377000Y-13856000D03*
%TD*%
D12*
%TO.C,R23*%
X9525000Y-55689000D03*
X9525000Y-54039000D03*
%TD*%
D17*
%TO.C,C31*%
X28588000Y-18415000D03*
X27038000Y-18415000D03*
%TD*%
D56*
%TO.C,D5*%
X111887000Y-6890000D03*
X111887000Y-10890000D03*
%TD*%
D17*
%TO.C,C28*%
X41288000Y-34798000D03*
X39738000Y-34798000D03*
%TD*%
D24*
%TO.C,C99*%
X49657000Y-64467000D03*
X49657000Y-61517000D03*
%TD*%
D12*
%TO.C,R24*%
X11049000Y-59245000D03*
X11049000Y-57595000D03*
%TD*%
D52*
%TO.C,C106*%
X38928000Y-44323000D03*
X40828000Y-44323000D03*
%TD*%
D34*
%TO.C,D8*%
X93116500Y-82550000D03*
X91541500Y-82550000D03*
%TD*%
D19*
%TO.C,R61*%
X40449000Y-40894000D03*
X38799000Y-40894000D03*
%TD*%
D15*
%TO.C,C195*%
X99314000Y-23482000D03*
X99314000Y-25032000D03*
%TD*%
D33*
%TO.C,RN1*%
X134055000Y-71716000D03*
X134855000Y-71716000D03*
X135655000Y-71716000D03*
X136455000Y-71716000D03*
X136455000Y-70016000D03*
X135655000Y-70016000D03*
X134855000Y-70016000D03*
X134055000Y-70016000D03*
%TD*%
D15*
%TO.C,C84*%
X67818000Y-40119000D03*
X67818000Y-41669000D03*
%TD*%
D10*
%TO.C,C110*%
X30848000Y-42799000D03*
X32398000Y-42799000D03*
%TD*%
D13*
%TO.C,C48*%
X50800000Y-19190000D03*
X50800000Y-17640000D03*
%TD*%
D15*
%TO.C,C51*%
X41402000Y-20815000D03*
X41402000Y-22365000D03*
%TD*%
D17*
%TO.C,C21*%
X25794000Y-13335000D03*
X24244000Y-13335000D03*
%TD*%
D24*
%TO.C,C172*%
X119380000Y-18493000D03*
X119380000Y-15543000D03*
%TD*%
D13*
%TO.C,C162*%
X127381000Y-9538000D03*
X127381000Y-7988000D03*
%TD*%
D15*
%TO.C,C57*%
X52324000Y-24752000D03*
X52324000Y-26302000D03*
%TD*%
D12*
%TO.C,R90*%
X98171000Y-8318000D03*
X98171000Y-6668000D03*
%TD*%
D17*
%TO.C,C200*%
X103137000Y-28956000D03*
X101587000Y-28956000D03*
%TD*%
D11*
%TO.C,R101*%
X141986000Y-61659000D03*
X141986000Y-63309000D03*
%TD*%
D10*
%TO.C,C108*%
X35166000Y-33147000D03*
X36716000Y-33147000D03*
%TD*%
D13*
%TO.C,C143*%
X112268000Y-39764000D03*
X112268000Y-38214000D03*
%TD*%
D15*
%TO.C,C210*%
X145034000Y-43929000D03*
X145034000Y-45479000D03*
%TD*%
D57*
%TO.C,L4*%
X138127000Y-16510000D03*
D58*
X135177000Y-16510000D03*
%TD*%
D15*
%TO.C,C206*%
X140462000Y-61709000D03*
X140462000Y-63259000D03*
%TD*%
%TO.C,C113*%
X9525000Y-33134000D03*
X9525000Y-34684000D03*
%TD*%
D14*
%TO.C,R66*%
X38799000Y-42418000D03*
X40449000Y-42418000D03*
%TD*%
D15*
%TO.C,C75*%
X34417000Y-13957000D03*
X34417000Y-15507000D03*
%TD*%
D36*
%TO.C,C228*%
X119761000Y-77785000D03*
X119761000Y-75885000D03*
%TD*%
D33*
%TO.C,RN3*%
X93161000Y-86448000D03*
X93961000Y-86448000D03*
X94761000Y-86448000D03*
X95561000Y-86448000D03*
X95561000Y-84748000D03*
X94761000Y-84748000D03*
X93961000Y-84748000D03*
X93161000Y-84748000D03*
%TD*%
D59*
%TO.C,C150*%
X94018000Y-62611000D03*
X99568000Y-62611000D03*
%TD*%
D15*
%TO.C,C161*%
X139573000Y-20815000D03*
X139573000Y-22365000D03*
%TD*%
D13*
%TO.C,C37*%
X47879000Y-29477000D03*
X47879000Y-27927000D03*
%TD*%
%TO.C,C62*%
X70231000Y-18301000D03*
X70231000Y-16751000D03*
%TD*%
D10*
%TO.C,C204*%
X87998000Y-6731000D03*
X89548000Y-6731000D03*
%TD*%
D17*
%TO.C,C112*%
X32398000Y-45847000D03*
X30848000Y-45847000D03*
%TD*%
D15*
%TO.C,C232*%
X106426000Y-82537000D03*
X106426000Y-84087000D03*
%TD*%
D14*
%TO.C,R36*%
X60871600Y-29718000D03*
X62521600Y-29718000D03*
%TD*%
D60*
%TO.C,U5*%
X43607500Y-31537000D03*
X43607500Y-32187000D03*
X43607500Y-32837000D03*
X43607500Y-33487000D03*
X47832500Y-33487000D03*
X47832500Y-32837000D03*
X47832500Y-32187000D03*
X47832500Y-31537000D03*
%TD*%
D61*
%TO.C,C157*%
X146050000Y-14668000D03*
X146050000Y-6668000D03*
%TD*%
D14*
%TO.C,R89*%
X105093000Y-19812000D03*
X106743000Y-19812000D03*
%TD*%
D15*
%TO.C,C82*%
X73914000Y-26149000D03*
X73914000Y-27699000D03*
%TD*%
D17*
%TO.C,C14*%
X15253000Y-9525000D03*
X13703000Y-9525000D03*
%TD*%
D22*
%TO.C,U31*%
X146679500Y-67244000D03*
X146679500Y-66294000D03*
X146679500Y-65344000D03*
X144404500Y-65344000D03*
X144404500Y-67244000D03*
%TD*%
D62*
%TO.C,U13*%
X112450000Y-56546000D03*
X112450000Y-56046000D03*
X112450000Y-55546000D03*
X112450000Y-55046000D03*
X112450000Y-54546000D03*
X112450000Y-54046000D03*
X112450000Y-53546000D03*
X112450000Y-53046000D03*
X112450000Y-52546000D03*
X112450000Y-52046000D03*
X112450000Y-51546000D03*
X112450000Y-51046000D03*
X112450000Y-50546000D03*
X112450000Y-50046000D03*
X112450000Y-49546000D03*
X112450000Y-49046000D03*
X112450000Y-48546000D03*
X112450000Y-48046000D03*
X112450000Y-47546000D03*
X112450000Y-47046000D03*
X112450000Y-46546000D03*
X112450000Y-46046000D03*
X112450000Y-45546000D03*
X112450000Y-45046000D03*
X112450000Y-44546000D03*
D63*
X110775000Y-42871000D03*
X110275000Y-42871000D03*
X109775000Y-42871000D03*
X109275000Y-42871000D03*
X108775000Y-42871000D03*
X108275000Y-42871000D03*
X107775000Y-42871000D03*
X107275000Y-42871000D03*
X106775000Y-42871000D03*
X106275000Y-42871000D03*
X105775000Y-42871000D03*
X105275000Y-42871000D03*
X104775000Y-42871000D03*
X104275000Y-42871000D03*
X103775000Y-42871000D03*
X103275000Y-42871000D03*
X102775000Y-42871000D03*
X102275000Y-42871000D03*
X101775000Y-42871000D03*
X101275000Y-42871000D03*
X100775000Y-42871000D03*
X100275000Y-42871000D03*
X99775000Y-42871000D03*
X99275000Y-42871000D03*
X98775000Y-42871000D03*
D62*
X97100000Y-44546000D03*
X97100000Y-45046000D03*
X97100000Y-45546000D03*
X97100000Y-46046000D03*
X97100000Y-46546000D03*
X97100000Y-47046000D03*
X97100000Y-47546000D03*
X97100000Y-48046000D03*
X97100000Y-48546000D03*
X97100000Y-49046000D03*
X97100000Y-49546000D03*
X97100000Y-50046000D03*
X97100000Y-50546000D03*
X97100000Y-51046000D03*
X97100000Y-51546000D03*
X97100000Y-52046000D03*
X97100000Y-52546000D03*
X97100000Y-53046000D03*
X97100000Y-53546000D03*
X97100000Y-54046000D03*
X97100000Y-54546000D03*
X97100000Y-55046000D03*
X97100000Y-55546000D03*
X97100000Y-56046000D03*
X97100000Y-56546000D03*
D63*
X98775000Y-58221000D03*
X99275000Y-58221000D03*
X99775000Y-58221000D03*
X100275000Y-58221000D03*
X100775000Y-58221000D03*
X101275000Y-58221000D03*
X101775000Y-58221000D03*
X102275000Y-58221000D03*
X102775000Y-58221000D03*
X103275000Y-58221000D03*
X103775000Y-58221000D03*
X104275000Y-58221000D03*
X104775000Y-58221000D03*
X105275000Y-58221000D03*
X105775000Y-58221000D03*
X106275000Y-58221000D03*
X106775000Y-58221000D03*
X107275000Y-58221000D03*
X107775000Y-58221000D03*
X108275000Y-58221000D03*
X108775000Y-58221000D03*
X109275000Y-58221000D03*
X109775000Y-58221000D03*
X110275000Y-58221000D03*
X110775000Y-58221000D03*
%TD*%
D10*
%TO.C,C135*%
X91046000Y-21336000D03*
X92596000Y-21336000D03*
%TD*%
D14*
%TO.C,R13*%
X20638000Y-10668000D03*
X22288000Y-10668000D03*
%TD*%
%TO.C,R111*%
X114364000Y-66802000D03*
X116014000Y-66802000D03*
%TD*%
D13*
%TO.C,C40*%
X21209000Y-63005000D03*
X21209000Y-61455000D03*
%TD*%
D64*
%TO.C,L7*%
X107950000Y-11433000D03*
X107950000Y-8633000D03*
%TD*%
D11*
%TO.C,R95*%
X141986000Y-43879000D03*
X141986000Y-45529000D03*
%TD*%
D15*
%TO.C,C209*%
X145034000Y-61709000D03*
X145034000Y-63259000D03*
%TD*%
D10*
%TO.C,C111*%
X30848000Y-44323000D03*
X32398000Y-44323000D03*
%TD*%
%TO.C,C156*%
X147180000Y-93472000D03*
X148730000Y-93472000D03*
%TD*%
D19*
%TO.C,R65*%
X40576000Y-46228000D03*
X38926000Y-46228000D03*
%TD*%
D13*
%TO.C,C165*%
X131953000Y-16523000D03*
X131953000Y-14973000D03*
%TD*%
D11*
%TO.C,R6*%
X11049000Y-24321000D03*
X11049000Y-25971000D03*
%TD*%
%TO.C,R83*%
X136525000Y-29242001D03*
X136525000Y-30892001D03*
%TD*%
D10*
%TO.C,C35*%
X27038000Y-19939000D03*
X28588000Y-19939000D03*
%TD*%
D64*
%TO.C,L8*%
X113792000Y-18418000D03*
X113792000Y-15618000D03*
%TD*%
D17*
%TO.C,C120*%
X117107000Y-44831000D03*
X115557000Y-44831000D03*
%TD*%
D65*
%TO.C,U10*%
X68413000Y-25879000D03*
X67223000Y-25879000D03*
X68413000Y-26699000D03*
X67223000Y-26699000D03*
D66*
X68818000Y-24839000D03*
X68318000Y-24839000D03*
X67818000Y-24839000D03*
X67318000Y-24839000D03*
X66818000Y-24839000D03*
X66818000Y-27739000D03*
X67318000Y-27739000D03*
X67818000Y-27739000D03*
X68318000Y-27739000D03*
X68818000Y-27739000D03*
%TD*%
D17*
%TO.C,C141*%
X94628000Y-58928000D03*
X93078000Y-58928000D03*
%TD*%
D11*
%TO.C,R64*%
X28829000Y-38037000D03*
X28829000Y-39687000D03*
%TD*%
%TO.C,R40*%
X63373000Y-21273000D03*
X63373000Y-22923000D03*
%TD*%
%TO.C,R32*%
X43180000Y-5779000D03*
X43180000Y-7429000D03*
%TD*%
D57*
%TO.C,L3*%
X144223000Y-26289000D03*
D58*
X141273000Y-26289000D03*
%TD*%
D19*
%TO.C,R9*%
X15303000Y-17907000D03*
X13653000Y-17907000D03*
%TD*%
D13*
%TO.C,C96*%
X34417000Y-63005000D03*
X34417000Y-61455000D03*
%TD*%
D67*
%TO.C,U8*%
X39306500Y-15176500D03*
X39941500Y-15176500D03*
X40576500Y-15176500D03*
X41211500Y-15176500D03*
X41846500Y-15176500D03*
X42481500Y-15176500D03*
X43116500Y-15176500D03*
X43751500Y-15176500D03*
X43751500Y-9715500D03*
X43116500Y-9715500D03*
X42481500Y-9715500D03*
X41846500Y-9715500D03*
X41211500Y-9715500D03*
X40576500Y-9715500D03*
X39941500Y-9715500D03*
X39306500Y-9715500D03*
D68*
X41529000Y-12446000D03*
%TD*%
D15*
%TO.C,C182*%
X99128000Y-15751000D03*
X99128000Y-17301000D03*
%TD*%
D11*
%TO.C,R5*%
X11049000Y-13907000D03*
X11049000Y-15557000D03*
%TD*%
D12*
%TO.C,R67*%
X9525000Y-38290000D03*
X9525000Y-36640000D03*
%TD*%
D69*
%TO.C,U28*%
X117226500Y-23434000D03*
X117226500Y-24384000D03*
X117226500Y-25334000D03*
X119501500Y-25334000D03*
X119501500Y-24384000D03*
X119501500Y-23434000D03*
%TD*%
D70*
%TO.C,U33*%
X107696000Y-69224000D03*
X106426000Y-69224000D03*
X105156000Y-69224000D03*
X103886000Y-69224000D03*
X103886000Y-79874000D03*
X105156000Y-79874000D03*
X106426000Y-79874000D03*
X107696000Y-79874000D03*
%TD*%
D14*
%TO.C,R80*%
X147892000Y-23749000D03*
X149542000Y-23749000D03*
%TD*%
D71*
%TO.C,U4*%
X29178000Y-25622000D03*
X29178000Y-26702000D03*
X30258000Y-25622000D03*
X30258000Y-26702000D03*
D72*
X27780500Y-24912000D03*
X27780500Y-25412000D03*
X27780500Y-25912000D03*
X27780500Y-26412000D03*
X27780500Y-26912000D03*
X27780500Y-27412000D03*
D73*
X28468000Y-28099500D03*
X28968000Y-28099500D03*
X29468000Y-28099500D03*
X29968000Y-28099500D03*
X30468000Y-28099500D03*
X30968000Y-28099500D03*
D72*
X31655500Y-27412000D03*
X31655500Y-26912000D03*
X31655500Y-26412000D03*
X31655500Y-25912000D03*
X31655500Y-25412000D03*
X31655500Y-24912000D03*
D73*
X30968000Y-24224500D03*
X30468000Y-24224500D03*
X29968000Y-24224500D03*
X29468000Y-24224500D03*
X28968000Y-24224500D03*
X28468000Y-24224500D03*
%TD*%
D15*
%TO.C,C193*%
X115062000Y-23609000D03*
X115062000Y-25159000D03*
%TD*%
D13*
%TO.C,C55*%
X50800000Y-26302000D03*
X50800000Y-24752000D03*
%TD*%
D36*
%TO.C,C100*%
X31877000Y-63434000D03*
X31877000Y-61534000D03*
%TD*%
D15*
%TO.C,C224*%
X142113000Y-65519000D03*
X142113000Y-67069000D03*
%TD*%
D36*
%TO.C,C102*%
X42037000Y-63434000D03*
X42037000Y-61534000D03*
%TD*%
D15*
%TO.C,C114*%
X100203000Y-38214000D03*
X100203000Y-39764000D03*
%TD*%
D13*
%TO.C,C140*%
X112268000Y-62878000D03*
X112268000Y-61328000D03*
%TD*%
%TO.C,C72*%
X37465000Y-15507000D03*
X37465000Y-13957000D03*
%TD*%
D19*
%TO.C,R19*%
X36766000Y-23876000D03*
X35116000Y-23876000D03*
%TD*%
D13*
%TO.C,C90*%
X9525000Y-49543000D03*
X9525000Y-47993000D03*
%TD*%
D17*
%TO.C,C32*%
X28588000Y-30099000D03*
X27038000Y-30099000D03*
%TD*%
D11*
%TO.C,R4*%
X9525000Y-27877000D03*
X9525000Y-29527000D03*
%TD*%
D15*
%TO.C,C191*%
X93853000Y-12306000D03*
X93853000Y-13856000D03*
%TD*%
D10*
%TO.C,C15*%
X20688000Y-18288000D03*
X22238000Y-18288000D03*
%TD*%
D74*
%TO.C,R29*%
X45847000Y-13358500D03*
X45847000Y-11533500D03*
%TD*%
D75*
%TO.C,U15*%
X87075500Y-32458000D03*
X87075500Y-31808000D03*
X87075500Y-31158000D03*
X87075500Y-30508000D03*
X82850500Y-30508000D03*
X82850500Y-31158000D03*
X82850500Y-31808000D03*
X82850500Y-32458000D03*
%TD*%
D13*
%TO.C,C7*%
X9525000Y-15507000D03*
X9525000Y-13957000D03*
%TD*%
D12*
%TO.C,R51*%
X70866000Y-38163000D03*
X70866000Y-36513000D03*
%TD*%
D14*
%TO.C,R104*%
X149289000Y-56134000D03*
X150939000Y-56134000D03*
%TD*%
D15*
%TO.C,C177*%
X105029000Y-6210000D03*
X105029000Y-7760000D03*
%TD*%
D14*
%TO.C,R100*%
X149289000Y-32258000D03*
X150939000Y-32258000D03*
%TD*%
D13*
%TO.C,C126*%
X80899000Y-51829000D03*
X80899000Y-50279000D03*
%TD*%
D14*
%TO.C,R94*%
X115507000Y-56261000D03*
X117157000Y-56261000D03*
%TD*%
D13*
%TO.C,C95*%
X29337000Y-63005000D03*
X29337000Y-61455000D03*
%TD*%
D23*
%TO.C,C170*%
X115316000Y-6145000D03*
X115316000Y-9095000D03*
%TD*%
D76*
%TO.C,R107*%
X122555000Y-88961500D03*
X122555000Y-91886500D03*
%TD*%
D13*
%TO.C,C105*%
X48387000Y-42812000D03*
X48387000Y-41262000D03*
%TD*%
D70*
%TO.C,U35*%
X115316000Y-69224000D03*
X114046000Y-69224000D03*
X112776000Y-69224000D03*
X111506000Y-69224000D03*
X111506000Y-79874000D03*
X112776000Y-79874000D03*
X114046000Y-79874000D03*
X115316000Y-79874000D03*
%TD*%
D15*
%TO.C,C154*%
X85979000Y-18897000D03*
X85979000Y-20447000D03*
%TD*%
%TO.C,C78*%
X61722000Y-24879000D03*
X61722000Y-26429000D03*
%TD*%
D13*
%TO.C,C223*%
X138938000Y-63259000D03*
X138938000Y-61709000D03*
%TD*%
D19*
%TO.C,R37*%
X70167000Y-32766000D03*
X68517000Y-32766000D03*
%TD*%
D14*
%TO.C,R22*%
X35116000Y-25400000D03*
X36766000Y-25400000D03*
%TD*%
D13*
%TO.C,C39*%
X19685000Y-63005000D03*
X19685000Y-61455000D03*
%TD*%
D53*
%TO.C,L5*%
X124971000Y-28448000D03*
X122171000Y-28448000D03*
%TD*%
D17*
%TO.C,C125*%
X91199000Y-34912000D03*
X89649000Y-34912000D03*
%TD*%
D10*
%TO.C,C197*%
X87998000Y-14351000D03*
X89548000Y-14351000D03*
%TD*%
D12*
%TO.C,R69*%
X107823000Y-62928000D03*
X107823000Y-61278000D03*
%TD*%
D15*
%TO.C,C88*%
X67818000Y-36563000D03*
X67818000Y-38113000D03*
%TD*%
D17*
%TO.C,C107*%
X36716000Y-34671000D03*
X35166000Y-34671000D03*
%TD*%
D77*
%TO.C,U9*%
X46163000Y-19112000D03*
X46163000Y-20512000D03*
X47563000Y-19112000D03*
X47563000Y-20512000D03*
D78*
X44875500Y-18562000D03*
X44875500Y-19062000D03*
X44875500Y-19562000D03*
X44875500Y-20062000D03*
X44875500Y-20562000D03*
X44875500Y-21062000D03*
D79*
X45613000Y-21799500D03*
X46113000Y-21799500D03*
X46613000Y-21799500D03*
X47113000Y-21799500D03*
X47613000Y-21799500D03*
X48113000Y-21799500D03*
D78*
X48850500Y-21062000D03*
X48850500Y-20562000D03*
X48850500Y-20062000D03*
X48850500Y-19562000D03*
X48850500Y-19062000D03*
X48850500Y-18562000D03*
D79*
X48113000Y-17824500D03*
X47613000Y-17824500D03*
X47113000Y-17824500D03*
X46613000Y-17824500D03*
X46113000Y-17824500D03*
X45613000Y-17824500D03*
%TD*%
D80*
%TO.C,C104*%
X52705000Y-64467000D03*
X52705000Y-61517000D03*
%TD*%
D42*
%TO.C,C5*%
X8304000Y-4699000D03*
X11254000Y-4699000D03*
%TD*%
D15*
%TO.C,C41*%
X22733000Y-61455000D03*
X22733000Y-63005000D03*
%TD*%
D14*
%TO.C,R85*%
X115253000Y-11811000D03*
X116903000Y-11811000D03*
%TD*%
D81*
%TO.C,D1*%
X9414000Y-10653000D03*
X9414000Y-11953000D03*
X11414000Y-11303000D03*
%TD*%
D15*
%TO.C,C52*%
X50800000Y-21196000D03*
X50800000Y-22746000D03*
%TD*%
%TO.C,C201*%
X97790000Y-23482000D03*
X97790000Y-25032000D03*
%TD*%
D19*
%TO.C,R60*%
X40449000Y-39370000D03*
X38799000Y-39370000D03*
%TD*%
D15*
%TO.C,C53*%
X42926000Y-20815000D03*
X42926000Y-22365000D03*
%TD*%
%TO.C,C50*%
X52324000Y-21196000D03*
X52324000Y-22746000D03*
%TD*%
D11*
%TO.C,R81*%
X138557000Y-25210000D03*
X138557000Y-26860000D03*
%TD*%
D17*
%TO.C,C66*%
X66942000Y-21336000D03*
X65392000Y-21336000D03*
%TD*%
D19*
%TO.C,R86*%
X125539000Y-21209000D03*
X123889000Y-21209000D03*
%TD*%
D23*
%TO.C,C226*%
X125095000Y-88949000D03*
X125095000Y-91899000D03*
%TD*%
D10*
%TO.C,C20*%
X13703000Y-19431000D03*
X15253000Y-19431000D03*
%TD*%
D13*
%TO.C,C87*%
X66294000Y-38113000D03*
X66294000Y-36563000D03*
%TD*%
D19*
%TO.C,R70*%
X69278000Y-63881000D03*
X67628000Y-63881000D03*
%TD*%
D10*
%TO.C,C92*%
X61455000Y-43942000D03*
X63005000Y-43942000D03*
%TD*%
D82*
%TO.C,U1*%
X15142000Y-14068000D03*
X14322000Y-14068000D03*
X15142000Y-14888000D03*
X14322000Y-14888000D03*
D83*
X15232000Y-13015500D03*
X14732000Y-13015500D03*
X14232000Y-13015500D03*
D84*
X13269500Y-13978000D03*
X13269500Y-14478000D03*
X13269500Y-14978000D03*
D83*
X14232000Y-15940500D03*
X14732000Y-15940500D03*
X15232000Y-15940500D03*
D84*
X16194500Y-14978000D03*
X16194500Y-14478000D03*
X16194500Y-13978000D03*
%TD*%
D85*
%TO.C,X1*%
X67628000Y-59529000D03*
X67628000Y-61629000D03*
X69278000Y-61629000D03*
X69278000Y-59529000D03*
%TD*%
D11*
%TO.C,R79*%
X105664000Y-31306000D03*
X105664000Y-32956000D03*
%TD*%
D13*
%TO.C,C148*%
X87503000Y-28194000D03*
X87503000Y-26644000D03*
%TD*%
D17*
%TO.C,C93*%
X63005000Y-45466000D03*
X61455000Y-45466000D03*
%TD*%
D42*
%TO.C,C6*%
X8304000Y-95123000D03*
X11254000Y-95123000D03*
%TD*%
D13*
%TO.C,C46*%
X52324000Y-19190000D03*
X52324000Y-17640000D03*
%TD*%
D14*
%TO.C,R15*%
X20638000Y-16764000D03*
X22288000Y-16764000D03*
%TD*%
D15*
%TO.C,C189*%
X108839000Y-23609000D03*
X108839000Y-25159000D03*
%TD*%
D81*
%TO.C,D2*%
X9414000Y-21067000D03*
X9414000Y-22367000D03*
X11414000Y-21717000D03*
%TD*%
D10*
%TO.C,C47*%
X47231000Y-25273000D03*
X48781000Y-25273000D03*
%TD*%
D86*
%TO.C,U6*%
X73512000Y-9641000D03*
X73512000Y-8991000D03*
X73512000Y-8341000D03*
X73512000Y-7691000D03*
X73512000Y-7041000D03*
X73512000Y-6391000D03*
X73512000Y-5741000D03*
X73512000Y-5091000D03*
X67712000Y-5091000D03*
X67712000Y-5741000D03*
X67712000Y-6391000D03*
X67712000Y-7041000D03*
X67712000Y-7691000D03*
X67712000Y-8341000D03*
X67712000Y-8991000D03*
X67712000Y-9641000D03*
%TD*%
D87*
%TO.C,U17*%
X151130000Y-74549000D03*
X149860000Y-74549000D03*
X148590000Y-74549000D03*
X147320000Y-74549000D03*
X146050000Y-74549000D03*
X144780000Y-74549000D03*
X143510000Y-74549000D03*
X142240000Y-74549000D03*
X140970000Y-74549000D03*
X139700000Y-74549000D03*
X138430000Y-74549000D03*
X137160000Y-74549000D03*
X135890000Y-74549000D03*
X134620000Y-74549000D03*
X133350000Y-74549000D03*
X132080000Y-74549000D03*
X132080000Y-89189052D03*
X133350000Y-89189052D03*
X134620000Y-89189052D03*
X135890000Y-89189052D03*
X137160000Y-89189052D03*
X138430000Y-89189052D03*
X139700000Y-89189052D03*
X140970000Y-89189052D03*
X142240000Y-89189052D03*
X143510000Y-89189052D03*
X144780000Y-89189052D03*
X146050000Y-89189052D03*
X147320000Y-89189052D03*
X148590000Y-89189052D03*
X149860000Y-89189052D03*
X151130000Y-89189052D03*
%TD*%
D13*
%TO.C,C77*%
X63246000Y-26429000D03*
X63246000Y-24879000D03*
%TD*%
D17*
%TO.C,C3*%
X36716000Y-28448000D03*
X35166000Y-28448000D03*
%TD*%
D13*
%TO.C,C199*%
X121666000Y-25159000D03*
X121666000Y-23609000D03*
%TD*%
D17*
%TO.C,C58*%
X45098000Y-27940000D03*
X43548000Y-27940000D03*
%TD*%
%TO.C,C10*%
X22238000Y-13716000D03*
X20688000Y-13716000D03*
%TD*%
D10*
%TO.C,C198*%
X87998000Y-8255000D03*
X89548000Y-8255000D03*
%TD*%
D14*
%TO.C,R98*%
X149289000Y-38608000D03*
X150939000Y-38608000D03*
%TD*%
D10*
%TO.C,C180*%
X100317000Y-10287000D03*
X101867000Y-10287000D03*
%TD*%
D15*
%TO.C,C160*%
X130429000Y-7988000D03*
X130429000Y-9538000D03*
%TD*%
D10*
%TO.C,C212*%
X149339000Y-58928000D03*
X150889000Y-58928000D03*
%TD*%
D41*
%TO.C,R1*%
X8316500Y-7239000D03*
X11241500Y-7239000D03*
%TD*%
D17*
%TO.C,C22*%
X25794000Y-25019000D03*
X24244000Y-25019000D03*
%TD*%
D14*
%TO.C,R16*%
X20638000Y-22352000D03*
X22288000Y-22352000D03*
%TD*%
D25*
%TO.C,D7*%
X87985500Y-82550000D03*
X89560500Y-82550000D03*
%TD*%
D57*
%TO.C,L2*%
X138127000Y-10668000D03*
D58*
X135177000Y-10668000D03*
%TD*%
D15*
%TO.C,C207*%
X140462000Y-43942000D03*
X140462000Y-45492000D03*
%TD*%
D71*
%TO.C,U3*%
X29178000Y-13938000D03*
X29178000Y-15018000D03*
X30258000Y-13938000D03*
X30258000Y-15018000D03*
D72*
X27780500Y-13228000D03*
X27780500Y-13728000D03*
X27780500Y-14228000D03*
X27780500Y-14728000D03*
X27780500Y-15228000D03*
X27780500Y-15728000D03*
D73*
X28468000Y-16415500D03*
X28968000Y-16415500D03*
X29468000Y-16415500D03*
X29968000Y-16415500D03*
X30468000Y-16415500D03*
X30968000Y-16415500D03*
D72*
X31655500Y-15728000D03*
X31655500Y-15228000D03*
X31655500Y-14728000D03*
X31655500Y-14228000D03*
X31655500Y-13728000D03*
X31655500Y-13228000D03*
D73*
X30968000Y-12540500D03*
X30468000Y-12540500D03*
X29968000Y-12540500D03*
X29468000Y-12540500D03*
X28968000Y-12540500D03*
X28468000Y-12540500D03*
%TD*%
D88*
%TO.C,SW1*%
X29337000Y-58026000D03*
X31877000Y-58026000D03*
X34417000Y-58026000D03*
X36957000Y-58026000D03*
X39497000Y-58026000D03*
X42037000Y-58026000D03*
X44577000Y-58026000D03*
X47117000Y-58026000D03*
X49657000Y-58026000D03*
X52197000Y-58026000D03*
X52197000Y-49416000D03*
X49657000Y-49416000D03*
X47117000Y-49416000D03*
X44577000Y-49416000D03*
X42037000Y-49416000D03*
X39497000Y-49416000D03*
X36957000Y-49416000D03*
X34417000Y-49416000D03*
X31877000Y-49416000D03*
X29337000Y-49416000D03*
%TD*%
D13*
%TO.C,C127*%
X87376000Y-36322000D03*
X87376000Y-34772000D03*
%TD*%
D11*
%TO.C,R12*%
X18415000Y-25337000D03*
X18415000Y-26987000D03*
%TD*%
D17*
%TO.C,C184*%
X102951000Y-21352000D03*
X101401000Y-21352000D03*
%TD*%
D15*
%TO.C,C68*%
X41402000Y-24371000D03*
X41402000Y-25921000D03*
%TD*%
D17*
%TO.C,C11*%
X22238000Y-15240000D03*
X20688000Y-15240000D03*
%TD*%
D56*
%TO.C,D4*%
X158623000Y-16034000D03*
X158623000Y-20034000D03*
%TD*%
D17*
%TO.C,C109*%
X36716000Y-31623000D03*
X35166000Y-31623000D03*
%TD*%
D10*
%TO.C,C36*%
X27038000Y-31623000D03*
X28588000Y-31623000D03*
%TD*%
D14*
%TO.C,R63*%
X31179000Y-34671000D03*
X32829000Y-34671000D03*
%TD*%
D12*
%TO.C,R91*%
X98171000Y-11874000D03*
X98171000Y-10224000D03*
%TD*%
D10*
%TO.C,C30*%
X24244000Y-23495000D03*
X25794000Y-23495000D03*
%TD*%
D82*
%TO.C,U2*%
X15142000Y-25752000D03*
X14322000Y-25752000D03*
X15142000Y-26572000D03*
X14322000Y-26572000D03*
D83*
X15232000Y-24699500D03*
X14732000Y-24699500D03*
X14232000Y-24699500D03*
D84*
X13269500Y-25662000D03*
X13269500Y-26162000D03*
X13269500Y-26662000D03*
D83*
X14232000Y-27624500D03*
X14732000Y-27624500D03*
X15232000Y-27624500D03*
D84*
X16194500Y-26662000D03*
X16194500Y-26162000D03*
X16194500Y-25662000D03*
%TD*%
D13*
%TO.C,C167*%
X128905000Y-16523000D03*
X128905000Y-14973000D03*
%TD*%
D17*
%TO.C,C12*%
X22238000Y-25400000D03*
X20688000Y-25400000D03*
%TD*%
D11*
%TO.C,R11*%
X18415000Y-13653000D03*
X18415000Y-15303000D03*
%TD*%
D14*
%TO.C,R106*%
X147003000Y-50165000D03*
X148653000Y-50165000D03*
%TD*%
D17*
%TO.C,C26*%
X41288000Y-31750000D03*
X39738000Y-31750000D03*
%TD*%
D15*
%TO.C,C155*%
X97536000Y-31356000D03*
X97536000Y-32906000D03*
%TD*%
D10*
%TO.C,C45*%
X39738000Y-28702000D03*
X41288000Y-28702000D03*
%TD*%
D17*
%TO.C,C27*%
X41288000Y-33274000D03*
X39738000Y-33274000D03*
%TD*%
D10*
%TO.C,C49*%
X47231000Y-23749000D03*
X48781000Y-23749000D03*
%TD*%
D17*
%TO.C,C4*%
X36716000Y-26924000D03*
X35166000Y-26924000D03*
%TD*%
D15*
%TO.C,C185*%
X97604000Y-15751000D03*
X97604000Y-17301000D03*
%TD*%
M02*
