M48
INCH,TZ
T1C0.0079
T2C0.0080
T3C0.0080
T4C0.0118
T5C0.0160
T6C0.0197
T7C0.0240
T8C0.0276
T9C0.0315
T10C0.0394
T11C0.0512
T12C0.0551
T13C0.0591
T14C0.0669
T15C0.1063
T16C0.1260
%
G90
G05
T1
X5574Y-5474
X5574Y-5926
X5574Y-10074
X5574Y-10526
X6026Y-5474
X6026Y-5926
X6026Y-10074
X6026Y-10526
X17997Y-7347
X17997Y-7800
X17997Y-8253
X18450Y-7347
X18450Y-7800
X18450Y-8253
X18903Y-7347
X18903Y-7800
X18903Y-8253
X24544Y-15127
X24544Y-15497
X24544Y-15867
X24997Y-15127
X24997Y-15497
X24997Y-15867
X26330Y-10124
X26330Y-10576
X26700Y-10124
X26700Y-10576
X27070Y-10124
X27070Y-10576
X34253Y-8931
X34253Y-9301
X34253Y-9671
X34706Y-8931
X34706Y-9301
X34706Y-9671
X55691Y-14191
X55691Y-14664
X55691Y-15136
X55691Y-15609
X55691Y-21191
X55691Y-21664
X55691Y-22136
X55691Y-22609
X56164Y-14191
X56164Y-14664
X56164Y-15136
X56164Y-15609
X56164Y-21191
X56164Y-21664
X56164Y-22136
X56164Y-22609
X56636Y-14191
X56636Y-14664
X56636Y-15136
X56636Y-15609
X56636Y-21191
X56636Y-21664
X56636Y-22136
X56636Y-22609
X57109Y-14191
X57109Y-14664
X57109Y-15136
X57109Y-15609
X57109Y-21191
X57109Y-21664
X57109Y-22136
X57109Y-22609
T2
X36100Y-2940
X36100Y-3160
X36100Y-3340
X36100Y-3520
X36100Y-5180
X36100Y-5360
X36100Y-5540
X36100Y-5720
X55900Y-15900
X55908Y-20842
X55950Y-13900
X55950Y-22900
X56300Y-20200
X56350Y-13200
X56350Y-16600
X56350Y-23600
X56750Y-13900
X56750Y-15900
X56750Y-20900
X56750Y-22900
X57400Y-14400
X57400Y-15350
X57400Y-21500
X57400Y-22250
T3
X47563Y-3000
X47956Y-2606
X47956Y-3000
X47956Y-3394
X48163Y-6700
X48350Y-2606
X48350Y-3010
X48350Y-3394
X48556Y-6306
X48556Y-6700
X48556Y-7094
X48744Y-2606
X48744Y-3000
X48744Y-3394
X48950Y-6306
X48950Y-6710
X48950Y-7094
X49137Y-3000
X49344Y-6306
X49344Y-6700
X49344Y-7094
X49737Y-6700
X51706Y-8794
X51706Y-9187
X51706Y-9581
X52100Y-8400
X52100Y-8794
X52100Y-9581
X52100Y-9975
X52110Y-9187
X52494Y-8794
X52494Y-9187
X52494Y-9581
T4
X11395Y-5395
X11395Y-5700
X11395Y-6005
X11395Y-9995
X11395Y-10300
X11395Y-10605
X11700Y-5395
X11700Y-5700
X11700Y-6005
X11700Y-9995
X11700Y-10300
X11700Y-10605
X12005Y-5395
X12005Y-5700
X12005Y-6005
X12005Y-9995
X12005Y-10300
X12005Y-10605
X16050Y-4720
X16050Y-5080
X16350Y-4720
X16350Y-5080
X16650Y-4720
X16650Y-5080
T5
X5350Y-6300
X5350Y-10900
X6950Y-24400
X7800Y-4800
X7800Y-6600
X7800Y-9400
X7800Y-11200
X9950Y-11150
X10000Y-6550
X10500Y-9900
X10550Y-5250
X11255Y-6895
X11350Y-11500
X11625Y-8525
X11950Y-13050
X12050Y-7650
X12150Y-12200
X12200Y-8900
X12650Y-9550
X13150Y-8350
X13150Y-8650
X13300Y-12500
X13300Y-12800
X14600Y-3350
X14848Y-10750
X14848Y-11050
X14900Y-15500
X14950Y-16100
X14950Y-19455
X15044Y-6994
X15050Y-24805
X15150Y-12050
X15150Y-12350
X15150Y-13250
X15150Y-13550
X15256Y-7206
X15300Y-14550
X15300Y-18600
X15344Y-10956
X15556Y-10744
X15650Y-9250
X15700Y-7900
X15800Y-2650
X15994Y-6856
X16100Y-1650
X16206Y-6644
X16500Y-7400
X16500Y-7700
X16550Y-1650
X16700Y-6700
X17000Y-1650
X17000Y-2650
X17000Y-6700
X17150Y-7400
X17400Y-6550
X17400Y-7150
X17450Y-2950
X17550Y-4000
X17700Y-6800
X17750Y-1950
X17800Y-11950
X18450Y-6600
X18450Y-10700
X18600Y-10300
X18745Y-6250
X19050Y-6550
X19300Y-10750
X19300Y-11750
X19600Y-6200
X19600Y-8000
X19600Y-12650
X20500Y-14550
X20800Y-14250
X21100Y-13300
X21150Y-11250
X21250Y-19050
X21550Y-8350
X22150Y-9750
X22200Y-16600
X22250Y-12500
X22400Y-5400
X22900Y-19350
X23400Y-6300
X23550Y-5400
X23750Y-18450
X23850Y-7550
X24000Y-13250
X24100Y-8050
X24200Y-14900
X24200Y-16200
X24700Y-16250
X24750Y-1950
X24800Y-2450
X24800Y-3154
X24950Y-14550
X25200Y-9400
X25250Y-14250
X25300Y-3850
X25450Y-1700
X25600Y-6850
X25700Y-11950
X25700Y-17800
X26100Y-9650
X26150Y-17800
X26200Y-1700
X26600Y-22950
X26850Y-27050
X27000Y-15400
X27050Y-26544
X27550Y-5700
X27625Y-13200
X27700Y-29350
X28000Y-6600
X28100Y-8050
X28100Y-12700
X28100Y-13250
X28250Y-15000
X28250Y-29050
X28300Y-3850
X28300Y-16100
X28400Y-3500
X28500Y-3150
X28550Y-28750
X28700Y-6000
X28700Y-14250
X28850Y-28450
X29400Y-2850
X29700Y-2200
X29700Y-9850
X30000Y-2500
X30150Y-11350
X30150Y-17700
X31900Y-22500
X32050Y-17250
X32200Y-22800
X32250Y-7500
X32250Y-16950
X32450Y-8150
X32500Y-22500
X32800Y-22200
X32950Y-7800
X33100Y-21900
X33150Y-11950
X33200Y-16650
X33400Y-12600
X33400Y-22200
X33500Y-16950
X33700Y-9950
X33700Y-12300
X33700Y-21900
X34000Y-22200
X34300Y-21900
X34550Y-16650
X34600Y-22200
X34900Y-21900
X35000Y-11550
X35050Y-9950
X35200Y-24750
X35350Y-32050
X35400Y-26750
X35500Y-24000
X35600Y-17250
X35900Y-26750
X35950Y-32050
X36050Y-22950
X36150Y-23300
X36600Y-3650
X36600Y-5100
X36600Y-5750
X36750Y-25850
X37100Y-26200
X38000Y-23200
X38300Y-32050
X38400Y-26750
X38800Y-21200
X38900Y-26750
X38950Y-20750
X39000Y-32050
X39050Y-17950
X39250Y-18250
X39450Y-22050
X39500Y-18550
X39750Y-12300
X39750Y-26100
X39800Y-18850
X39800Y-26750
X39850Y-15300
X39900Y-17650
X39950Y-23500
X39950Y-23900
X40100Y-19150
X40150Y-14950
X40700Y-19450
X41050Y-18800
X41150Y-19450
X41500Y-18800
X41600Y-12600
X41750Y-19600
X42000Y-17450
X42150Y-19650
X42150Y-23800
X42300Y-6650
X42350Y-7800
X42350Y-9600
X42550Y-17450
X42700Y-16300
X42750Y-23500
X42900Y-15900
X42900Y-24400
X42950Y-22350
X43050Y-25150
X43100Y-23500
X43400Y-21850
X43550Y-14500
X43700Y-18100
X43700Y-21550
X43900Y-23750
X43950Y-17250
X44100Y-23450
X44350Y-22650
X44700Y-22950
X44850Y-25450
X44981Y-17931
X45050Y-17350
X45100Y-22200
X45150Y-19450
X45150Y-21500
X45150Y-21850
X46000Y-24050
X46800Y-20600
X47100Y-20000
X47300Y-19700
X47500Y-16550
X47500Y-19400
X48200Y-16300
X49550Y-14500
X49850Y-15300
X49900Y-13900
X50150Y-15900
X52750Y-19400
X52750Y-27050
X53050Y-19700
X53350Y-22450
X53350Y-24050
X53350Y-25450
X53350Y-26050
X53400Y-13900
X53450Y-9550
X53650Y-20000
X53950Y-20600
X53950Y-22550
X54250Y-16600
X54288Y-25400
X54300Y-13900
X54900Y-23300
X54900Y-27200
X55000Y-16300
X55000Y-20000
X55000Y-20400
X55000Y-23650
X56050Y-27900
X56400Y-27550
X56400Y-28600
X56750Y-28750
X57500Y-35750
X58300Y-15341
X58300Y-15641
X58350Y-14159
X58350Y-14459
X58444Y-18944
X58448Y-22456
X58448Y-22756
X58450Y-20900
X58450Y-21200
X58656Y-19156
X58800Y-20150
X58950Y-12285
X59000Y-35750
X59250Y-12285
T6
X40750Y-15100
X41750Y-15100
X42751Y-15100
T7
X0Y-6000
X0Y-8000
X0Y-10000
X0Y-12000
X0Y-32000
X2000Y-4000
X2000Y-8000
X2000Y-12000
X2000Y-26000
X2000Y-34000
X3350Y-4700
X3350Y-8800
X4000Y-16000
X4000Y-20000
X4000Y-26000
X4000Y-34000
X4300Y-25300
X4800Y-2350
X4850Y-36450
X4850Y-37450
X5000Y-7050
X5000Y-8850
X5050Y-23800
X5400Y-2750
X6000Y-2000
X6000Y-26000
X6000Y-34000
X6000Y-36000
X6000Y-38000
X6400Y-3150
X6400Y-7650
X6700Y-23500
X7750Y-4200
X7750Y-8800
X8000Y-2000
X8000Y-13993
X8000Y-22000
X8000Y-26000
X8000Y-34000
X8000Y-36000
X8000Y-38000
X9150Y-7200
X9150Y-11800
X9350Y-24200
X9350Y-24800
X9550Y-4250
X9550Y-6550
X9550Y-8850
X9550Y-11150
X10000Y-2000
X10000Y-13993
X10000Y-26000
X10000Y-34000
X10000Y-38000
X10150Y-4250
X10150Y-8850
X10250Y-12450
X10650Y-8250
X11250Y-8250
X11250Y-12850
X11750Y-18050
X12000Y-22000
X12000Y-26000
X12000Y-34000
X12000Y-38000
X12300Y-14050
X12750Y-11450
X13150Y-6100
X13150Y-16850
X13150Y-18050
X13300Y-7150
X13550Y-5100
X13650Y-15000
X13850Y-14050
X14000Y-26000
X14000Y-34000
X14000Y-36000
X14000Y-38000
X14750Y-5100
X14850Y-9700
X14850Y-11800
X14850Y-12650
X16000Y-22000
X16000Y-34000
X16000Y-36000
X16000Y-38000
X16300Y-9150
X16600Y-10550
X16650Y-11300
X16700Y-17250
X17400Y-2300
X17400Y-3350
X17550Y-5250
X18000Y-18200
X18000Y-22000
X18000Y-26000
X18000Y-34000
X18000Y-38000
X18300Y-13200
X18450Y-11600
X19200Y-10350
X19400Y-13700
X20000Y-2000
X20000Y-22000
X20000Y-26000
X20000Y-30000
X20000Y-34000
X20000Y-36000
X20000Y-38000
X20350Y-30850
X20600Y-6550
X20750Y-31850
X21200Y-16250
X21600Y-8950
X22000Y-2000
X22000Y-22000
X22000Y-24000
X22000Y-26000
X22000Y-28000
X22000Y-34000
X22000Y-38000
X23800Y-17900
X23900Y-9800
X23900Y-10400
X24000Y-20000
X24000Y-22000
X24000Y-24000
X24000Y-26000
X24000Y-34000
X24000Y-38000
X24550Y-7700
X24600Y-9000
X24900Y-12600
X25050Y-4300
X25200Y-16700
X25200Y-17900
X25500Y-11000
X25850Y-7600
X26000Y-20000
X26000Y-22000
X26000Y-34000
X26000Y-38000
X26150Y-26850
X26200Y-24250
X26550Y-13200
X26700Y-17350
X27700Y-26050
X28000Y-20000
X28000Y-22000
X28000Y-32000
X28000Y-34000
X28000Y-38000
X28050Y-7200
X28150Y-24450
X28250Y-15400
X28300Y-14400
X28550Y-2000
X28550Y-23450
X28550Y-26800
X29100Y-9900
X29350Y-11300
X29700Y-27250
X30000Y-34000
X30000Y-38000
X30800Y-16650
X31450Y-25150
X32000Y-30000
X32000Y-34000
X32000Y-38000
X32050Y-9700
X32050Y-10300
X32050Y-12800
X32250Y-19795
X32800Y-13695
X32800Y-14450
X33200Y-7450
X33500Y-7850
X33850Y-7050
X34000Y-28000
X34000Y-30000
X34000Y-32000
X34000Y-34000
X34000Y-36000
X34000Y-38000
X34250Y-4450
X34250Y-6250
X34650Y-3650
X35350Y-25900
X35450Y-10495
X35450Y-11095
X35950Y-25900
X36000Y-28000
X36000Y-38000
X36300Y-12545
X36300Y-13745
X36300Y-24400
X36300Y-24900
X36650Y-23600
X36950Y-2250
X36950Y-4450
X37750Y-15050
X37750Y-15650
X37950Y-26300
X38000Y-12350
X38000Y-12950
X38000Y-28000
X38000Y-38000
X38050Y-6200
X38500Y-8850
X38650Y-2250
X39350Y-26300
X39900Y-24400
X39900Y-24900
X40000Y-28000
X40000Y-38000
X40100Y-3700
X40550Y-32000
X40600Y-10400
X40650Y-9250
X40650Y-9950
X40700Y-6200
X40700Y-7000
X40900Y-6600
X40950Y-7650
X40950Y-9600
X41100Y-6200
X41250Y-9950
X41350Y-3450
X41650Y-26700
X42000Y-2000
X42000Y-4000
X42000Y-18000
X42000Y-22000
X42000Y-28000
X42000Y-38000
X42300Y-33150
X42350Y-32450
X42800Y-5900
X42850Y-2000
X42850Y-8900
X43450Y-8900
X43900Y-32100
X44000Y-28000
X44000Y-38000
X44050Y-1950
X44200Y-14650
X44600Y-24100
X44600Y-24800
X44650Y-26700
X44700Y-8900
X45000Y-12000
X45250Y-12400
X45300Y-8900
X45400Y-1950
X45500Y-14650
X45500Y-16100
X45500Y-19950
X45750Y-12400
X46000Y-5650
X46000Y-28000
X46000Y-38000
X46150Y-33250
X46300Y-10950
X46400Y-1950
X46500Y-16450
X46500Y-17750
X46500Y-20300
X46500Y-31350
X46500Y-32850
X46700Y-13000
X46700Y-15350
X47000Y-5650
X47100Y-12000
X47100Y-13400
X47450Y-4250
X47650Y-1700
X47900Y-21550
X48000Y-14000
X48000Y-18000
X48000Y-38000
X48050Y-8750
X48250Y-36650
X48550Y-1700
X48850Y-4250
X48900Y-9900
X49250Y-36650
X50000Y-2000
X50000Y-8000
X50000Y-22000
X50000Y-28000
X50000Y-30000
X50000Y-36000
X50000Y-38000
X50150Y-2700
X50750Y-2700
X50750Y-6900
X51400Y-27050
X51800Y-26050
X51950Y-2700
X52000Y-2000
X52000Y-18000
X52000Y-22000
X52000Y-28000
X52000Y-36000
X52000Y-38000
X52350Y-6500
X52700Y-2100
X52700Y-2550
X53150Y-11150
X53150Y-12150
X54000Y-22000
X54000Y-36000
X54000Y-38000
X54300Y-17300
X54300Y-17900
X54300Y-24300
X54300Y-24900
X54350Y-7800
X54550Y-21950
X54600Y-14900
X54701Y-2050
X54701Y-2550
X54900Y-12500
X54900Y-18900
X54900Y-19500
X55300Y-11500
X55500Y-35750
X55550Y-7800
X55550Y-26400
X55900Y-11500
X55900Y-18250
X56000Y-2000
X56000Y-4000
X56000Y-28700
X56000Y-38000
X56300Y-24900
X56500Y-35750
X56700Y-19900
X56750Y-2150
X56750Y-2600
X56750Y-3050
X57000Y-35750
X57500Y-11450
X57500Y-17300
X57500Y-17900
X57500Y-18900
X57500Y-24300
X57500Y-24900
X57900Y-12500
X57950Y-37250
X58000Y-4000
X58000Y-10000
X58000Y-18000
X58000Y-28000
X58000Y-38000
X58200Y-5450
X58250Y-2150
X58250Y-2600
X58250Y-3050
X58250Y-26100
X58550Y-37250
X58800Y-23600
X59250Y-9350
X59300Y-15850
X59450Y-14050
X59800Y-25700
X60000Y-2000
X60000Y-4000
X60000Y-10000
X60000Y-12000
X60000Y-14000
X60000Y-16000
X60000Y-20000
X60000Y-28000
X60000Y-36000
X60000Y-38000
X62000Y-4000
X62000Y-28000
T8
X29500Y-12000
X29550Y-8800
X36100Y-2200
X36100Y-4400
X36100Y-6500
X37350Y-7200
X37550Y-9550
X38877Y-8150
X38950Y-11100
X41150Y-4400
X48600Y-29900
X48600Y-30900
X48600Y-31900
X48600Y-32900
X50400Y-12600
T9
X18050Y-16550
X19050Y-15550
X19050Y-17550
X21700Y-11950
X21702Y-7450
X22700Y-10950
X22700Y-12950
X22702Y-6450
X22702Y-8450
X28650Y-16550
X29650Y-15550
X29650Y-17550
T10
X17650Y-36400
X18650Y-36400
X20744Y-17850
X21744Y-17850
X22348Y-31252
X22348Y-32252
X22744Y-17850
X23348Y-31252
X23348Y-32252
X24348Y-31252
X24348Y-32252
X25348Y-31252
X25348Y-32252
X25350Y-23452
X25350Y-24452
X26348Y-31252
X26348Y-32252
X28600Y-31300
X28600Y-32300
X29600Y-31300
X29600Y-32300
X29750Y-19800
X29750Y-20800
X29750Y-21800
X29750Y-22800
X29750Y-23800
X29750Y-24800
X29750Y-25800
X30600Y-31300
X30600Y-32300
X30750Y-19800
X30750Y-20800
X30750Y-21800
X30750Y-22800
X30750Y-23800
X30750Y-24800
X30750Y-25800
X31600Y-31300
X31600Y-32300
X32600Y-31300
X32600Y-32300
X35150Y-35100
X35150Y-36100
X36150Y-35100
X36150Y-36100
X37150Y-35100
X37150Y-36100
X38150Y-35100
X38150Y-36100
X39150Y-35100
X39150Y-36100
X40150Y-35100
X40150Y-36100
X41150Y-35100
X41150Y-36100
X42044Y-11250
X42150Y-35100
X42150Y-36100
X43044Y-11250
X43150Y-35100
X43150Y-36100
X44044Y-11250
X44150Y-35100
X44150Y-36100
X45150Y-35100
X45150Y-36100
X45602Y-24500
X46150Y-35100
X46150Y-36100
X46602Y-24500
X47150Y-35100
X47150Y-36100
X60600Y-12900
X60600Y-13900
X60600Y-14900
X60600Y-15900
X60600Y-16900
X60600Y-17900
X60600Y-18900
X60600Y-19900
X60600Y-20900
X60600Y-21900
X60600Y-22900
X60600Y-23900
X60600Y-24900
X60600Y-25900
X60600Y-26900
X61600Y-12900
X61600Y-13900
X61600Y-14900
X61600Y-15900
X61600Y-16900
X61600Y-17900
X61600Y-18900
X61600Y-19900
X61600Y-20900
X61600Y-21900
X61600Y-22900
X61600Y-23900
X61600Y-24900
X61600Y-25900
X61600Y-26900
T11
X350Y-26175
X350Y-33925
X15350Y-26050
X16350Y-26050
X17350Y-26050
X18350Y-27050
X18350Y-28050
X18350Y-29050
X18350Y-30050
X18350Y-31050
X18350Y-32050
X18350Y-33050
T12
X9400Y-16000
X9400Y-18500
X9400Y-21000
X60700Y-6100
X60700Y-8100
T13
X1150Y-6200
X1150Y-10300
X1150Y-14400
X1150Y-18500
X1150Y-22600
X32000Y-3200
T14
X150Y-5200
X150Y-7200
X150Y-9300
X150Y-11300
X150Y-13400
X150Y-15400
X150Y-17500
X150Y-19500
X150Y-21600
X150Y-23600
X2150Y-5200
X2150Y-7200
X2150Y-9300
X2150Y-11300
X2150Y-13400
X2150Y-15400
X2150Y-17500
X2150Y-19500
X2150Y-21600
X2150Y-23600
X31000Y-2200
X31000Y-4200
X33000Y-2200
X33000Y-4200
T15
X1400Y-2170
X1400Y-37170
T16
X11181Y-2992
X11181Y-36378
X22992Y-2992
X22992Y-36378
X61615Y-2363
X61615Y-37007
M30
