%TF.GenerationSoftware,KiCad,Pcbnew,7.0.11*%
%TF.CreationDate,2025-01-07T11:11:00+01:00*%
%TF.ProjectId,HF_phase_detector,48465f70-6861-4736-955f-646574656374,rev?*%
%TF.SameCoordinates,Original*%
%TF.FileFunction,Copper,L3,Inr*%
%TF.FilePolarity,Positive*%
%FSLAX46Y46*%
G04 Gerber Fmt 4.6, Leading zero omitted, Abs format (unit mm)*
G04 Created by KiCad (PCBNEW 7.0.11) date 2025-01-07 11:11:00*
%MOMM*%
%LPD*%
G01*
G04 APERTURE LIST*
G04 Aperture macros list*
%AMRoundRect*
0 Rectangle with rounded corners*
0 $1 Rounding radius*
0 $2 $3 $4 $5 $6 $7 $8 $9 X,Y pos of 4 corners*
0 Add a 4 corners polygon primitive as box body*
4,1,4,$2,$3,$4,$5,$6,$7,$8,$9,$2,$3,0*
0 Add four circle primitives for the rounded corners*
1,1,$1+$1,$2,$3*
1,1,$1+$1,$4,$5*
1,1,$1+$1,$6,$7*
1,1,$1+$1,$8,$9*
0 Add four rect primitives between the rounded corners*
20,1,$1+$1,$2,$3,$4,$5,0*
20,1,$1+$1,$4,$5,$6,$7,0*
20,1,$1+$1,$6,$7,$8,$9,0*
20,1,$1+$1,$8,$9,$2,$3,0*%
G04 Aperture macros list end*
%ADD10C,0.400000*%
%TA.AperFunction,NonConductor*%
%ADD11C,0.400000*%
%TD*%
%TA.AperFunction,ComponentPad*%
%ADD12R,1.500000X1.500000*%
%TD*%
%TA.AperFunction,ComponentPad*%
%ADD13R,1.700000X1.700000*%
%TD*%
%TA.AperFunction,ComponentPad*%
%ADD14O,1.700000X1.700000*%
%TD*%
%TA.AperFunction,HeatsinkPad*%
%ADD15C,0.500000*%
%TD*%
%TA.AperFunction,ComponentPad*%
%ADD16C,2.050000*%
%TD*%
%TA.AperFunction,ComponentPad*%
%ADD17C,2.250000*%
%TD*%
%TA.AperFunction,ComponentPad*%
%ADD18C,2.200000*%
%TD*%
%TA.AperFunction,ComponentPad*%
%ADD19C,5.600000*%
%TD*%
%TA.AperFunction,ComponentPad*%
%ADD20C,0.500000*%
%TD*%
%TA.AperFunction,ComponentPad*%
%ADD21C,1.000000*%
%TD*%
%TA.AperFunction,ComponentPad*%
%ADD22C,4.700000*%
%TD*%
%TA.AperFunction,ComponentPad*%
%ADD23C,0.499999*%
%TD*%
%TA.AperFunction,ComponentPad*%
%ADD24C,0.600000*%
%TD*%
%TA.AperFunction,HeatsinkPad*%
%ADD25C,0.600000*%
%TD*%
%TA.AperFunction,ComponentPad*%
%ADD26R,2.000000X1.500000*%
%TD*%
%TA.AperFunction,ComponentPad*%
%ADD27O,2.000000X1.500000*%
%TD*%
%TA.AperFunction,ComponentPad*%
%ADD28RoundRect,0.250000X-0.600000X0.600000X-0.600000X-0.600000X0.600000X-0.600000X0.600000X0.600000X0*%
%TD*%
%TA.AperFunction,ComponentPad*%
%ADD29C,1.700000*%
%TD*%
%TA.AperFunction,ComponentPad*%
%ADD30C,1.440000*%
%TD*%
%TA.AperFunction,ComponentPad*%
%ADD31RoundRect,0.249999X-1.550001X0.790001X-1.550001X-0.790001X1.550001X-0.790001X1.550001X0.790001X0*%
%TD*%
%TA.AperFunction,ComponentPad*%
%ADD32O,3.600000X2.080000*%
%TD*%
%TA.AperFunction,ComponentPad*%
%ADD33C,2.000000*%
%TD*%
%TA.AperFunction,ComponentPad*%
%ADD34R,3.000000X1.950000*%
%TD*%
%TA.AperFunction,ComponentPad*%
%ADD35O,3.900000X1.950000*%
%TD*%
%TA.AperFunction,ComponentPad*%
%ADD36C,1.950000*%
%TD*%
%TA.AperFunction,ComponentPad*%
%ADD37RoundRect,0.250000X0.600000X0.600000X-0.600000X0.600000X-0.600000X-0.600000X0.600000X-0.600000X0*%
%TD*%
%TA.AperFunction,ViaPad*%
%ADD38C,0.889000*%
%TD*%
%TA.AperFunction,ViaPad*%
%ADD39C,0.406400*%
%TD*%
%TA.AperFunction,ViaPad*%
%ADD40C,0.609600*%
%TD*%
%TA.AperFunction,Conductor*%
%ADD41C,0.609600*%
%TD*%
%TA.AperFunction,Conductor*%
%ADD42C,1.524000*%
%TD*%
%TA.AperFunction,Conductor*%
%ADD43C,1.016000*%
%TD*%
%TA.AperFunction,Conductor*%
%ADD44C,0.355600*%
%TD*%
%TA.AperFunction,Conductor*%
%ADD45C,0.304800*%
%TD*%
G04 APERTURE END LIST*
D10*
D11*
X136502204Y-92984438D02*
X135264109Y-92984438D01*
X135264109Y-92984438D02*
X135930776Y-93746342D01*
X135930776Y-93746342D02*
X135645061Y-93746342D01*
X135645061Y-93746342D02*
X135454585Y-93841580D01*
X135454585Y-93841580D02*
X135359347Y-93936819D01*
X135359347Y-93936819D02*
X135264109Y-94127295D01*
X135264109Y-94127295D02*
X135264109Y-94603485D01*
X135264109Y-94603485D02*
X135359347Y-94793961D01*
X135359347Y-94793961D02*
X135454585Y-94889200D01*
X135454585Y-94889200D02*
X135645061Y-94984438D01*
X135645061Y-94984438D02*
X136216490Y-94984438D01*
X136216490Y-94984438D02*
X136406966Y-94889200D01*
X136406966Y-94889200D02*
X136502204Y-94793961D01*
D12*
%TO.N,VDDPD*%
%TO.C,P3V2*%
X91694000Y-16510000D03*
%TD*%
%TO.N,VDDCP*%
%TO.C,P5V3*%
X98933000Y-28194000D03*
%TD*%
D13*
%TO.N,+3V3*%
%TO.C,BOOT1*%
X118369000Y-62230000D03*
D14*
%TO.N,Net-(BOOT1-Pin_2)*%
X115829000Y-62230000D03*
%TD*%
D15*
%TO.N,-6V*%
%TO.C,U16*%
X87002000Y-22685000D03*
X87002000Y-23625000D03*
X87002000Y-24565000D03*
X88152000Y-22685000D03*
X88152000Y-23625000D03*
X88152000Y-24565000D03*
%TD*%
D16*
%TO.N,Net-(J10-In)*%
%TO.C,J10*%
X81280000Y-8128000D03*
D17*
%TO.N,GNDA*%
X83820000Y-5588000D03*
X78740000Y-5588000D03*
X83820000Y-10668000D03*
X78740000Y-10668000D03*
%TD*%
D18*
%TO.N,GNDA*%
%TO.C,RV4*%
X23876000Y-40640000D03*
%TO.N,Net-(R62-Pad1)*%
X23876000Y-46990000D03*
%TO.N,Net-(R61-Pad2)*%
X23876000Y-53340000D03*
%TD*%
D12*
%TO.N,-6V*%
%TO.C,M5V1*%
X104521000Y-11176000D03*
%TD*%
D19*
%TO.N,GND*%
%TO.C,H6*%
X58400000Y-92400000D03*
%TD*%
D20*
%TO.N,GND*%
%TO.C,U29*%
X145056000Y-39646000D03*
X145056000Y-38446000D03*
X145056000Y-37246000D03*
X145056000Y-36046000D03*
X143856000Y-39646000D03*
X143856000Y-38446000D03*
X143856000Y-37246000D03*
X143856000Y-36046000D03*
X142656000Y-39646000D03*
X142656000Y-38446000D03*
X142656000Y-37246000D03*
X142656000Y-36046000D03*
X141456000Y-39646000D03*
X141456000Y-38446000D03*
X141456000Y-37246000D03*
X141456000Y-36046000D03*
%TD*%
D13*
%TO.N,unconnected-(J9-Pin_1-Pad1)*%
%TO.C,J9*%
X78105000Y-65532000D03*
D14*
%TO.N,+3V3*%
X75565000Y-65532000D03*
%TO.N,unconnected-(J9-Pin_3-Pad3)*%
X78105000Y-62992000D03*
%TO.N,/uC H743VI/LED_SCK*%
X75565000Y-62992000D03*
%TO.N,unconnected-(J9-Pin_5-Pad5)*%
X78105000Y-60452000D03*
%TO.N,/uC H743VI/LED_NSS*%
X75565000Y-60452000D03*
%TO.N,/uC H743VI/LED_SDA*%
X78105000Y-57912000D03*
%TO.N,/uC H743VI/LED_MISO*%
X75565000Y-57912000D03*
%TO.N,/uC H743VI/LED_SCL*%
X78105000Y-55372000D03*
%TO.N,/uC H743VI/LED_MOSI*%
X75565000Y-55372000D03*
%TO.N,GND*%
X78105000Y-52832000D03*
%TO.N,/uC H743VI/NRST*%
X75565000Y-52832000D03*
%TO.N,+3V3*%
X78105000Y-50292000D03*
%TO.N,GND*%
X75565000Y-50292000D03*
%TD*%
D12*
%TO.N,DVDD*%
%TO.C,P3V1*%
X91694000Y-11176000D03*
%TD*%
D20*
%TO.N,GND*%
%TO.C,U30*%
X145056000Y-57426000D03*
X145056000Y-56226000D03*
X145056000Y-55026000D03*
X145056000Y-53826000D03*
X143856000Y-57426000D03*
X143856000Y-56226000D03*
X143856000Y-55026000D03*
X143856000Y-53826000D03*
X142656000Y-57426000D03*
X142656000Y-56226000D03*
X142656000Y-55026000D03*
X142656000Y-53826000D03*
X141456000Y-57426000D03*
X141456000Y-56226000D03*
X141456000Y-55026000D03*
X141456000Y-53826000D03*
%TD*%
D21*
%TO.N,Net-(U13-PC4)*%
%TO.C,PC1*%
X108587000Y-38354000D03*
%TD*%
D15*
%TO.N,-6V*%
%TO.C,U11*%
X63493000Y-40302000D03*
X63493000Y-39362000D03*
X63493000Y-38422000D03*
X62343000Y-40302000D03*
X62343000Y-39362000D03*
X62343000Y-38422000D03*
%TD*%
D22*
%TO.N,Net-(C5-Pad1)*%
%TO.C,H1*%
X3556000Y-5512000D03*
%TD*%
D17*
%TO.N,Net-(J3-In)*%
%TO.C,J3*%
X2921000Y-57404000D03*
%TO.N,GND*%
X381000Y-59944000D03*
X5461000Y-59944000D03*
X381000Y-54864000D03*
X5461000Y-54864000D03*
%TD*%
%TO.N,Net-(J1-In)*%
%TO.C,J1*%
X2921000Y-15748000D03*
%TO.N,GND*%
X381000Y-18288000D03*
X5461000Y-18288000D03*
X381000Y-13208000D03*
X5461000Y-13208000D03*
%TD*%
D12*
%TO.N,+439*%
%TO.C,P5V1*%
X98747000Y-20701000D03*
%TD*%
%TO.N,+6V*%
%TO.C,P5V2*%
X94869000Y-18288000D03*
%TD*%
D19*
%TO.N,GND*%
%TO.C,H8*%
X156503000Y-93997000D03*
%TD*%
D12*
%TO.N,AVDD*%
%TO.C,P3V3*%
X91694000Y-5588000D03*
%TD*%
%TO.N,Net-(O_1-Pad1)*%
%TO.C,O_1*%
X75057000Y-22352000D03*
%TD*%
%TO.N,Net-(O_2-Pad1)*%
%TO.C,O_2*%
X74930000Y-30480000D03*
%TD*%
D17*
%TO.N,Net-(J5-In)*%
%TO.C,J5*%
X2921000Y-36576000D03*
%TO.N,GNDA*%
X381000Y-39116000D03*
X5461000Y-39116000D03*
X381000Y-34036000D03*
X5461000Y-34036000D03*
%TD*%
D21*
%TO.N,Net-(U13-PE7)*%
%TO.C,PE1*%
X103505000Y-38354000D03*
%TD*%
D19*
%TO.N,GND*%
%TO.C,H7*%
X156503000Y-6003000D03*
%TD*%
D21*
%TO.N,Net-(U13-PB1)*%
%TO.C,PB1*%
X106045000Y-38354000D03*
%TD*%
D22*
%TO.N,Net-(C6-Pad1)*%
%TO.C,H2*%
X3556000Y-94412000D03*
%TD*%
D23*
%TO.N,GND*%
%TO.C,U21*%
X131333999Y-22336000D03*
X131333999Y-23336001D03*
X131333999Y-24336002D03*
X132334000Y-21336000D03*
X132334000Y-22336000D03*
X132334000Y-24336002D03*
X132334000Y-25336002D03*
X132359400Y-23336001D03*
X133334001Y-22336000D03*
X133334001Y-23336001D03*
X133334001Y-24336002D03*
%TD*%
D15*
%TO.N,-6V*%
%TO.C,U10*%
X68758000Y-25714000D03*
X67818000Y-25714000D03*
X66878000Y-25714000D03*
X68758000Y-26864000D03*
X67818000Y-26864000D03*
X66878000Y-26864000D03*
%TD*%
D24*
%TO.N,GND*%
%TO.C,U8*%
X40767000Y-12903200D03*
X41529000Y-12903200D03*
X42291000Y-12903200D03*
X40767000Y-11988800D03*
X41529000Y-11988800D03*
X42291000Y-11988800D03*
%TD*%
D25*
%TO.N,GND*%
%TO.C,U4*%
X28943000Y-25387000D03*
X28943000Y-26162000D03*
X28943000Y-26937000D03*
X29718000Y-25387000D03*
X29718000Y-26162000D03*
X29718000Y-26937000D03*
X30493000Y-25387000D03*
X30493000Y-26162000D03*
X30493000Y-26937000D03*
%TD*%
D23*
%TO.N,/Power grid/M8V*%
%TO.C,U20*%
X123809001Y-6619999D03*
X122809000Y-6619999D03*
X121808999Y-6619999D03*
X124809001Y-7620000D03*
X123809001Y-7620000D03*
X121808999Y-7620000D03*
X120808999Y-7620000D03*
X122809000Y-7645400D03*
X123809001Y-8620001D03*
X122809000Y-8620001D03*
X121808999Y-8620001D03*
%TD*%
D12*
%TO.N,VCCPD*%
%TO.C,P5V4*%
X95377000Y-24257000D03*
%TD*%
D15*
%TO.N,GND*%
%TO.C,U9*%
X45713000Y-18662000D03*
X45713000Y-19812000D03*
X45713000Y-20962000D03*
X46863000Y-18662000D03*
X46863000Y-19812000D03*
X46863000Y-20962000D03*
X48013000Y-18662000D03*
X48013000Y-19812000D03*
X48013000Y-20962000D03*
%TD*%
D26*
%TO.N,/digital_inputs1/gnd_pom*%
%TO.C,U32*%
X123444000Y-75946000D03*
D27*
%TO.N,/digital_inputs1/12V_pom2*%
X123444000Y-78486000D03*
%TO.N,/digital_inputs1/GND_ISO*%
X123444000Y-81026000D03*
%TO.N,/digital_inputs1/V_ISO*%
X123444000Y-83566000D03*
%TD*%
D12*
%TO.N,/Power grid/P3V3*%
%TO.C,VuC1*%
X128016000Y-32004000D03*
%TD*%
D19*
%TO.N,GND*%
%TO.C,H4*%
X28400000Y-92400000D03*
%TD*%
D15*
%TO.N,GND*%
%TO.C,U1*%
X15307000Y-13903000D03*
X14157000Y-13903000D03*
X15307000Y-15053000D03*
X14157000Y-15053000D03*
%TD*%
D23*
%TO.N,GND*%
%TO.C,U22*%
X125333001Y-16017999D03*
X124333000Y-16017999D03*
X123332999Y-16017999D03*
X126333001Y-17018000D03*
X125333001Y-17018000D03*
X123332999Y-17018000D03*
X122332999Y-17018000D03*
X124333000Y-17043400D03*
X125333001Y-18018001D03*
X124333000Y-18018001D03*
X123332999Y-18018001D03*
%TD*%
D25*
%TO.N,GND*%
%TO.C,U3*%
X28943000Y-13703000D03*
X28943000Y-14478000D03*
X28943000Y-15253000D03*
X29718000Y-13703000D03*
X29718000Y-14478000D03*
X29718000Y-15253000D03*
X30493000Y-13703000D03*
X30493000Y-14478000D03*
X30493000Y-15253000D03*
%TD*%
D19*
%TO.N,GND*%
%TO.C,H3*%
X28400000Y-7600000D03*
%TD*%
D15*
%TO.N,GND*%
%TO.C,U2*%
X15307000Y-25587000D03*
X14157000Y-25587000D03*
X15307000Y-26737000D03*
X14157000Y-26737000D03*
%TD*%
D19*
%TO.N,GND*%
%TO.C,H5*%
X58400000Y-7600000D03*
%TD*%
D13*
%TO.N,GND*%
%TO.C,J6*%
X82804000Y-82042000D03*
D14*
%TO.N,/uC H743VI/DIV1_1*%
X82804000Y-79502000D03*
%TO.N,GND*%
X80264000Y-82042000D03*
%TO.N,/uC H743VI/DIV1_2*%
X80264000Y-79502000D03*
%TO.N,GND*%
X77724000Y-82042000D03*
%TO.N,/uC H743VI/DIV1_4*%
X77724000Y-79502000D03*
%TO.N,GND*%
X75184000Y-82042000D03*
%TO.N,/uC H743VI/DIV1_8*%
X75184000Y-79502000D03*
%TO.N,GND*%
X72644000Y-82042000D03*
%TO.N,/uC H743VI/DIV1_16*%
X72644000Y-79502000D03*
%TD*%
D13*
%TO.N,GND*%
%TO.C,J7*%
X66924000Y-81920000D03*
D14*
%TO.N,/uC H743VI/DIV2_1*%
X66924000Y-79380000D03*
%TO.N,GND*%
X64384000Y-81920000D03*
%TO.N,/uC H743VI/DIV2_2*%
X64384000Y-79380000D03*
%TO.N,GND*%
X61844000Y-81920000D03*
%TO.N,/uC H743VI/DIV2_4*%
X61844000Y-79380000D03*
%TO.N,GND*%
X59304000Y-81920000D03*
%TO.N,/uC H743VI/DIV2_8*%
X59304000Y-79380000D03*
%TO.N,GND*%
X56764000Y-81920000D03*
%TO.N,/uC H743VI/DIV2_16*%
X56764000Y-79380000D03*
%TD*%
D28*
%TO.N,Net-(J13-Pin_1)*%
%TO.C,J13*%
X89281000Y-89154000D03*
D29*
%TO.N,/digital_inputs1/IDC_N0*%
X89281000Y-91694000D03*
%TO.N,/digital_inputs1/GND_TTL*%
X91821000Y-89154000D03*
%TO.N,Net-(J13-Pin_4)*%
X91821000Y-91694000D03*
%TO.N,/digital_inputs1/IDC_N1*%
X94361000Y-89154000D03*
%TO.N,/digital_inputs1/GND_TTL*%
X94361000Y-91694000D03*
%TO.N,Net-(J13-Pin_7)*%
X96901000Y-89154000D03*
%TO.N,/digital_inputs1/IDC_N2*%
X96901000Y-91694000D03*
%TO.N,/digital_inputs1/GND_TTL*%
X99441000Y-89154000D03*
%TO.N,Net-(J13-Pin_10)*%
X99441000Y-91694000D03*
%TO.N,/digital_inputs1/IDC_N3*%
X101981000Y-89154000D03*
%TO.N,/digital_inputs1/GND_TTL*%
X101981000Y-91694000D03*
%TO.N,Net-(J13-Pin_13)*%
X104521000Y-89154000D03*
%TO.N,/digital_inputs1/GND_ISO*%
X104521000Y-91694000D03*
%TO.N,/digital_inputs1/GND_TTL*%
X107061000Y-89154000D03*
%TO.N,Net-(J13-Pin_16)*%
X107061000Y-91694000D03*
%TO.N,/digital_inputs1/GND_ISO*%
X109601000Y-89154000D03*
%TO.N,/digital_inputs1/GND_TTL*%
X109601000Y-91694000D03*
%TO.N,Net-(J13-Pin_19)*%
X112141000Y-89154000D03*
%TO.N,/digital_inputs1/GND_ISO*%
X112141000Y-91694000D03*
%TO.N,/digital_inputs1/GND_TTL*%
X114681000Y-89154000D03*
%TO.N,Net-(J13-Pin_22)*%
X114681000Y-91694000D03*
%TO.N,/digital_inputs1/GND_ISO*%
X117221000Y-89154000D03*
%TO.N,/digital_inputs1/GND_TTL*%
X117221000Y-91694000D03*
%TO.N,unconnected-(J13-Pin_25-Pad25)*%
X119761000Y-89154000D03*
%TO.N,unconnected-(J13-Pin_26-Pad26)*%
X119761000Y-91694000D03*
%TD*%
D30*
%TO.N,+6V*%
%TO.C,RV3*%
X75311000Y-39497000D03*
%TO.N,Net-(R52-Pad1)*%
X72771000Y-42037000D03*
%TO.N,-6V*%
X75311000Y-44577000D03*
%TD*%
D31*
%TO.N,GND*%
%TO.C,J11*%
X154178000Y-15494000D03*
D32*
%TO.N,P12V0*%
X154178000Y-20574000D03*
%TD*%
D17*
%TO.N,Net-(J2-In)*%
%TO.C,J2*%
X2921000Y-26162000D03*
%TO.N,GND*%
X5461000Y-23622000D03*
X381000Y-23622000D03*
X5461000Y-28702000D03*
X381000Y-28702000D03*
%TD*%
D33*
%TO.N,GND*%
%TO.C,GND1*%
X44831000Y-92456000D03*
X47371000Y-92456000D03*
%TD*%
D17*
%TO.N,Net-(J4-In)*%
%TO.C,J4*%
X2921000Y-46990000D03*
%TO.N,GNDA*%
X5461000Y-44450000D03*
X381000Y-44450000D03*
X5461000Y-49530000D03*
X381000Y-49530000D03*
%TD*%
D13*
%TO.N,Net-(JP1-A)*%
%TO.C,JP1*%
X57770000Y-45339000D03*
D14*
%TO.N,Net-(JP1-C)*%
X55230000Y-45339000D03*
%TO.N,PD_OUT_BUF*%
X52690000Y-45339000D03*
%TD*%
D34*
%TO.N,unconnected-(U18-VDD:5V-Pad1)*%
%TO.C,U18*%
X46609000Y-83947000D03*
D35*
%TO.N,+3V3*%
X46609000Y-81407000D03*
%TO.N,GND*%
X46609000Y-78867000D03*
%TO.N,/uC H743VI/NRST*%
X46609000Y-76327000D03*
%TO.N,/uC H743VI/UART4_RX*%
X46609000Y-73787000D03*
%TO.N,/uC H743VI/UART4_TX*%
X46609000Y-71247000D03*
D36*
%TO.N,unconnected-(U18-CFG-Pad7)*%
X46609000Y-68707000D03*
%TO.N,unconnected-(U18-485EN-Pad8)*%
X44069000Y-66167000D03*
%TO.N,/uC H743VI/LINK*%
X41529000Y-66167000D03*
%TO.N,unconnected-(U18-ISP-Pad10)*%
X38989000Y-66167000D03*
D35*
%TO.N,unconnected-(U18-PadP$1)*%
X889000Y-66484500D03*
%TO.N,unconnected-(U18-PadP$2)*%
X889000Y-86169500D03*
%TD*%
D30*
%TO.N,+6V*%
%TO.C,RV5*%
X48387000Y-39497000D03*
%TO.N,Net-(R65-Pad1)*%
X45847000Y-42037000D03*
%TO.N,-6V*%
X48387000Y-44577000D03*
%TD*%
D13*
%TO.N,GND*%
%TO.C,JP2*%
X64389000Y-62108000D03*
D14*
%TO.N,/uC H743VI/CLK_EXT*%
X64389000Y-59568000D03*
%TD*%
D30*
%TO.N,-6V*%
%TO.C,RV2*%
X57663000Y-16383000D03*
%TO.N,Net-(R49-Pad1)*%
X55123000Y-18923000D03*
%TO.N,+6V*%
X57663000Y-21463000D03*
%TD*%
D13*
%TO.N,ON_439*%
%TO.C,JP3*%
X111872000Y-28575000D03*
D14*
%TO.N,+6V*%
X109332000Y-28575000D03*
%TO.N,ON_984*%
X106792000Y-28575000D03*
%TD*%
D37*
%TO.N,GND*%
%TO.C,J12*%
X156464000Y-32766000D03*
D29*
%TO.N,/Kasli interface1/LVDS0_P*%
X153924000Y-32766000D03*
%TO.N,/Kasli interface1/LVDS0_N*%
X156464000Y-35306000D03*
%TO.N,GND*%
X153924000Y-35306000D03*
%TO.N,/Kasli interface1/LVDS1_P*%
X156464000Y-37846000D03*
%TO.N,/Kasli interface1/LVDS1_N*%
X153924000Y-37846000D03*
%TO.N,GND*%
X156464000Y-40386000D03*
%TO.N,/Kasli interface1/LVDS2_P*%
X153924000Y-40386000D03*
%TO.N,/Kasli interface1/LVDS2_N*%
X156464000Y-42926000D03*
%TO.N,GND*%
X153924000Y-42926000D03*
%TO.N,/Kasli interface1/LVDS3_P*%
X156464000Y-45466000D03*
%TO.N,/Kasli interface1/LVDS3_N*%
X153924000Y-45466000D03*
%TO.N,GND*%
X156464000Y-48006000D03*
%TO.N,/Kasli interface1/LVDS4_P*%
X153924000Y-48006000D03*
%TO.N,/Kasli interface1/LVDS4_N*%
X156464000Y-50546000D03*
%TO.N,GND*%
X153924000Y-50546000D03*
%TO.N,/Kasli interface1/LVDS5_P*%
X156464000Y-53086000D03*
%TO.N,/Kasli interface1/LVDS5_N*%
X153924000Y-53086000D03*
%TO.N,GND*%
X156464000Y-55626000D03*
%TO.N,/Kasli interface1/LVDS6_P*%
X153924000Y-55626000D03*
%TO.N,/Kasli interface1/LVDS6_N*%
X156464000Y-58166000D03*
%TO.N,GND*%
X153924000Y-58166000D03*
%TO.N,/Kasli interface1/LVDS7_P*%
X156464000Y-60706000D03*
%TO.N,/Kasli interface1/LVDS7_N*%
X153924000Y-60706000D03*
%TO.N,GND*%
X156464000Y-63246000D03*
%TO.N,/Kasli interface1/I2C_SDA*%
X153924000Y-63246000D03*
%TO.N,/Kasli interface1/I2C_SCL*%
X156464000Y-65786000D03*
%TO.N,P12V0*%
X153924000Y-65786000D03*
X156464000Y-68326000D03*
%TO.N,/Kasli interface1/P3V3_MP*%
X153924000Y-68326000D03*
%TD*%
D30*
%TO.N,GNDA*%
%TO.C,RV1*%
X57658000Y-27813000D03*
X55118000Y-30353000D03*
%TO.N,Net-(C69-Pad1)*%
X57658000Y-32893000D03*
%TD*%
D38*
%TO.N,GND*%
X60960000Y-55880000D03*
X147320000Y-25400000D03*
X104013000Y-24384000D03*
X157480000Y-71120000D03*
X86995000Y-11303000D03*
X24257000Y-16637000D03*
X152400000Y-91440000D03*
X116840000Y-71120000D03*
X125095000Y-93091000D03*
X40640000Y-86360000D03*
X25400000Y-5080000D03*
X121920000Y-96520000D03*
X106680000Y-10160000D03*
X141097000Y-67056000D03*
X139446000Y-48006000D03*
X50800000Y-86360000D03*
X137160000Y-91440000D03*
X103251000Y-23495000D03*
X142240000Y-10160000D03*
X141097000Y-19812000D03*
X96520000Y-71120000D03*
X106680000Y-96520000D03*
X71247000Y-18288000D03*
X55880000Y-66040000D03*
X115570000Y-40894000D03*
X140462000Y-29210000D03*
X147955000Y-7747000D03*
X60960000Y-66040000D03*
X15240000Y-5080000D03*
X113538000Y-22606000D03*
X10160000Y-66040000D03*
X103886000Y-16764000D03*
X146050000Y-45466000D03*
X99949000Y-66802000D03*
X35560000Y-96520000D03*
X115062000Y-22606000D03*
X128905000Y-17526000D03*
X0Y-20320000D03*
X150495000Y-23749000D03*
X97790000Y-22479000D03*
X118110000Y-45085000D03*
X152400000Y-25400000D03*
X138941000Y-5207000D03*
X17018000Y-59690000D03*
X108839000Y-22606000D03*
X127000000Y-76200000D03*
X147955000Y-66294000D03*
X60960000Y-96520000D03*
X93853000Y-11303000D03*
X40640000Y-91440000D03*
X101600000Y-71120000D03*
X152400000Y-10160000D03*
X103251000Y-25273000D03*
X111760000Y-71120000D03*
X23241000Y-18288000D03*
X127000000Y-71120000D03*
D39*
X91694000Y-8026400D03*
D38*
X66040000Y-50800000D03*
X23749000Y-61468000D03*
X30480000Y-96519999D03*
X152400000Y-50800000D03*
X151892000Y-65278000D03*
X72517000Y-5080000D03*
X66040000Y-55880000D03*
X41402000Y-23241000D03*
X147955000Y-5461000D03*
X52324000Y-16637000D03*
X101346000Y-63246000D03*
X76200000Y-86360000D03*
X12192000Y-5969000D03*
X13716000Y-6985000D03*
X42164000Y-26797000D03*
X26035000Y-31623000D03*
X152400000Y-35560000D03*
X86995000Y-15875000D03*
X81280000Y-76200000D03*
X23241000Y-29972000D03*
X147320000Y-10160000D03*
X116205000Y-31496000D03*
X130556000Y-68707000D03*
X135001000Y-30861000D03*
X132080000Y-71120000D03*
X50800000Y-96520000D03*
X152400000Y-71120000D03*
X137922000Y-45466000D03*
X144780000Y-90805000D03*
X106680000Y-5080000D03*
X138941000Y-6477000D03*
X119380000Y-14351000D03*
X33782000Y-18161000D03*
X35560000Y-91440000D03*
X66040000Y-86360000D03*
X106680000Y-71120000D03*
X120523000Y-10795000D03*
X116840000Y-96520000D03*
X45720000Y-66040000D03*
D40*
X135763000Y-24257000D03*
D38*
X71120000Y-50800000D03*
X116840000Y-14351000D03*
X60960000Y-60960000D03*
X5080000Y-20320000D03*
X123317000Y-4318000D03*
X10160000Y-86360000D03*
X5080000Y-86360000D03*
X50800000Y-76200000D03*
X86360000Y-71120000D03*
X121031000Y-4318000D03*
X45720000Y-96520000D03*
X71120000Y-81280000D03*
X71120000Y-96520000D03*
X44196000Y-8509000D03*
X96520000Y-32893000D03*
X137922000Y-63246000D03*
X142240000Y-5080000D03*
X55880000Y-5080000D03*
X54864000Y-22733000D03*
X146050000Y-63246000D03*
X86360000Y-91440000D03*
X20320000Y-91440000D03*
X132080000Y-55880000D03*
X108712000Y-14986000D03*
X88011000Y-9271000D03*
X93853000Y-5715000D03*
X137160000Y-96520000D03*
X114935000Y-31496000D03*
X86360000Y-96520000D03*
X122555000Y-93091000D03*
X35560000Y-66040000D03*
X111887000Y-4953000D03*
X24257000Y-10795000D03*
X15240000Y-66040000D03*
X105791000Y-67818000D03*
X50800000Y-91440000D03*
X0Y-25400000D03*
X25400000Y-66040000D03*
X118110000Y-51562000D03*
X20320000Y-66040000D03*
X81280000Y-86360000D03*
X142240000Y-72898000D03*
X93091000Y-59944000D03*
X121920000Y-45720000D03*
X114300000Y-30480000D03*
X146050000Y-29083000D03*
X152400000Y-30480000D03*
X5080000Y-30480000D03*
D39*
X91694000Y-8940800D03*
D38*
X147320000Y-45720000D03*
X135001000Y-28321000D03*
X60960000Y-50800000D03*
X5080000Y-10160000D03*
X152400000Y-40640000D03*
X76200000Y-96520000D03*
X91440000Y-71120000D03*
X152400000Y-96520000D03*
D39*
X91694000Y-13157200D03*
D38*
X104775000Y-25273000D03*
X20320000Y-96519999D03*
X103378000Y-15748000D03*
X30480000Y-86360000D03*
X46482000Y-33528000D03*
X144145000Y-5461000D03*
X86360000Y-86360000D03*
X50800000Y-66040000D03*
X101346000Y-61976000D03*
X51689000Y-78359000D03*
X34417000Y-12954000D03*
X86360000Y-81280000D03*
X0Y-81280000D03*
X128905000Y-6858000D03*
X12700000Y-17907000D03*
X71120000Y-86360000D03*
X131953000Y-6858000D03*
X115316000Y-4953000D03*
X0Y-15240000D03*
X132080000Y-5080000D03*
X65659000Y-19304000D03*
X24257000Y-22479000D03*
D39*
X91694000Y-14071600D03*
D38*
X95885000Y-38227000D03*
X111760000Y-96520000D03*
X147193000Y-94615000D03*
X40640000Y-96520000D03*
X55880000Y-96520000D03*
X81280000Y-96520000D03*
X35560000Y-86360000D03*
X15240000Y-86360000D03*
X132080000Y-96520000D03*
X42291000Y-28702000D03*
X50800000Y-5080000D03*
X27051000Y-20955000D03*
X79883000Y-63881000D03*
X119634000Y-30480000D03*
X66040000Y-96520000D03*
X105029000Y-8763000D03*
X66548000Y-61595000D03*
X144145000Y-7747000D03*
D39*
X91694000Y-8483600D03*
D38*
X143510000Y-90805000D03*
X91313000Y-65786000D03*
X146050000Y-48006000D03*
D39*
X91694000Y-14528800D03*
D38*
X104394000Y-15748000D03*
X81407000Y-32512000D03*
X124206000Y-25146000D03*
X127000000Y-20320000D03*
X0Y-30480000D03*
X30480000Y-66040000D03*
X103378000Y-17780000D03*
X106680000Y-55880000D03*
X112268000Y-37211000D03*
X113284000Y-62992000D03*
X24257000Y-28321000D03*
X12319000Y-95123000D03*
X60960000Y-86360000D03*
X106680000Y-45720000D03*
X20320000Y-5080000D03*
X63246000Y-32004000D03*
X71120000Y-55880000D03*
D39*
X91694000Y-7467600D03*
D38*
X12827000Y-60452000D03*
X70358000Y-66167000D03*
X104013000Y-19431000D03*
X25400000Y-96519999D03*
X103124000Y-26416000D03*
X132969000Y-16510000D03*
X15240000Y-96519999D03*
X144145000Y-6604000D03*
X91440000Y-96520000D03*
X55880000Y-86360000D03*
X55880000Y-71120000D03*
X37465000Y-12954000D03*
X117856000Y-4953000D03*
X122047000Y-22225000D03*
X101600000Y-96520000D03*
X12700000Y-22479000D03*
X127000000Y-5080000D03*
X142240000Y-96520000D03*
X25400000Y-86360000D03*
X5080000Y-66040000D03*
X37719000Y-29972000D03*
X20320000Y-86360000D03*
D39*
X91694000Y-13614400D03*
D38*
X157480000Y-10160000D03*
X12319000Y-92583000D03*
X132080000Y-91440000D03*
X147320000Y-96520000D03*
X45720000Y-86360000D03*
X96520000Y-96520000D03*
X127000000Y-91440000D03*
X78232000Y-42291000D03*
X71501000Y-62103000D03*
X110363000Y-22606000D03*
X15240000Y-91440000D03*
X132080000Y-45720000D03*
X147320000Y-71120000D03*
X66421000Y-68199000D03*
X124079000Y-10795000D03*
X147955000Y-6604000D03*
X152400000Y-5080000D03*
X127000000Y-55880000D03*
X121666000Y-54737000D03*
X127000000Y-96520000D03*
X138049000Y-19812000D03*
X32385000Y-29083000D03*
X86360000Y-76200000D03*
X140970000Y-90805000D03*
X48768000Y-26289000D03*
X113411000Y-67818000D03*
X121920000Y-35560000D03*
X37719000Y-24638000D03*
X137160000Y-55880000D03*
X108839000Y-5080000D03*
%TO.N,+3V3*%
X151003000Y-35687000D03*
X138557000Y-55753000D03*
X96393000Y-66802000D03*
X118618000Y-33020000D03*
X148717000Y-94615000D03*
X92202000Y-61976000D03*
X52705000Y-80899000D03*
X143002000Y-63246000D03*
X92202000Y-63246000D03*
X72517000Y-68072000D03*
X81915000Y-50279000D03*
X139446000Y-49530000D03*
X146050000Y-43942000D03*
X72517000Y-59563000D03*
X141986000Y-29210000D03*
X95885000Y-39751000D03*
D40*
X149352000Y-51181000D03*
D38*
X113284000Y-61214000D03*
X137922000Y-61722000D03*
X149352000Y-59944000D03*
X138684000Y-37846000D03*
X96520000Y-31369000D03*
X137922000Y-43942000D03*
X89789000Y-65786000D03*
X75438000Y-69215000D03*
X150622000Y-40259000D03*
X115570000Y-37211000D03*
X147066000Y-31750000D03*
X115570000Y-50673000D03*
X118618000Y-38989000D03*
X144018000Y-50546000D03*
X141986000Y-46355000D03*
X119634000Y-34036000D03*
X146050000Y-61722000D03*
X139446000Y-31750000D03*
D40*
%TO.N,Net-(BOOT1-Pin_2)*%
X108966000Y-61976000D03*
%TO.N,/DIV14+*%
X40624592Y-17414408D03*
X38750408Y-18303408D03*
%TO.N,/DIV13+*%
X38481000Y-30607000D03*
X33401000Y-21971000D03*
%TO.N,/DIV14-*%
X41163408Y-16875592D03*
X38211592Y-17764592D03*
%TO.N,/DIV13-*%
X33401000Y-21209000D03*
X38481000Y-31369000D03*
%TO.N,/DIV24+*%
X42418000Y-17018000D03*
X37715049Y-28067000D03*
X38973592Y-27828408D03*
X41910000Y-18796000D03*
%TO.N,/DIV23+*%
X33782000Y-32512000D03*
X38481000Y-34417000D03*
%TO.N,/DIV24-*%
X41910000Y-19558000D03*
X39512408Y-27289592D03*
X37715049Y-27305000D03*
X43180000Y-17018000D03*
%TO.N,/DIV23-*%
X33782000Y-31750000D03*
X38481000Y-33655000D03*
D38*
%TO.N,+3.3VA*%
X16256000Y-8001000D03*
D40*
X13589000Y-27686000D03*
D38*
X16256000Y-19431000D03*
D40*
X25273000Y-28321000D03*
X26670000Y-25146000D03*
D38*
X28575000Y-32639000D03*
X8509000Y-22352000D03*
D40*
X30861000Y-30988000D03*
D38*
X25781000Y-10795000D03*
X28575000Y-20955000D03*
D40*
X13589000Y-16002000D03*
X28588000Y-17513000D03*
D38*
X8509000Y-11938000D03*
X19685000Y-10668000D03*
X117602000Y-27813000D03*
X118110000Y-41783000D03*
D40*
X28829000Y-29210000D03*
X30607000Y-19431000D03*
X25400000Y-16637000D03*
D38*
X46863000Y-29464000D03*
D40*
X26797000Y-13335000D03*
D38*
X10922000Y-64262000D03*
X25781000Y-22479000D03*
X19685000Y-22352000D03*
X23749000Y-62992000D03*
D40*
%TO.N,Net-(U3-VBB)*%
X19812000Y-16764000D03*
X19812000Y-12192000D03*
%TO.N,Net-(U4-VBB)*%
X19812000Y-28448000D03*
X19812000Y-23876000D03*
%TO.N,DVDD*%
X54737000Y-21209000D03*
X56896000Y-13716000D03*
X59817000Y-13716000D03*
%TO.N,VCCPD*%
X39878000Y-20066000D03*
X56515000Y-31750000D03*
X81915000Y-19050000D03*
X47244000Y-26162000D03*
X49022000Y-27305000D03*
X60960000Y-33655000D03*
%TO.N,AVDD*%
X56261000Y-24765000D03*
%TO.N,VDDCP*%
X53721000Y-28575000D03*
X45212000Y-30353000D03*
X88900000Y-29337000D03*
X71374000Y-32258000D03*
%TO.N,VDDPD*%
X59436000Y-16002000D03*
X44196000Y-16637000D03*
X39751000Y-23495000D03*
D38*
%TO.N,+439*%
X44196000Y-5842000D03*
X44577000Y-13335000D03*
X33401000Y-15494000D03*
X63627000Y-10922000D03*
X84328000Y-18923000D03*
%TO.N,-6V*%
X71755000Y-39116000D03*
X90043000Y-26657000D03*
X81407000Y-24638000D03*
X60706000Y-24892000D03*
X37719000Y-32131000D03*
%TO.N,+6V*%
X49276000Y-34798000D03*
D40*
X61468000Y-37846000D03*
D38*
X85090000Y-19939000D03*
X83312000Y-34785000D03*
D40*
X61468000Y-41148000D03*
X89027000Y-25273000D03*
D38*
X60452000Y-45466000D03*
D40*
X85598000Y-25273000D03*
D38*
X74549000Y-28702000D03*
X64770000Y-27940000D03*
X29845000Y-45847000D03*
D40*
%TO.N,/PI and outputs/PD_OUT_set*%
X71882000Y-40894000D03*
X75438000Y-25019000D03*
%TO.N,PD_OUT_BUF*%
X62738000Y-41275000D03*
X56388000Y-42164000D03*
X76581000Y-28829000D03*
X76581000Y-44958000D03*
%TO.N,/uC H743VI/NRST*%
X139446000Y-69088000D03*
X119634000Y-50800000D03*
X70358000Y-74549000D03*
X114681000Y-49403000D03*
X98933000Y-52705000D03*
X136271000Y-50800000D03*
X89408000Y-62865000D03*
D38*
%TO.N,+12V*%
X147828000Y-13843000D03*
X131572000Y-66167000D03*
%TO.N,/Power grid/M8V*%
X127381000Y-6858000D03*
D40*
%TO.N,/digital_inputs1/IDC_N0*%
X89789000Y-81407000D03*
%TO.N,/digital_inputs1/IDC_N1*%
X91313000Y-81407000D03*
%TO.N,/digital_inputs1/IDC_N2*%
X97282000Y-81407000D03*
%TO.N,/digital_inputs1/IDC_N3*%
X99060000Y-81407000D03*
%TO.N,/uC H743VI/DIV1_2*%
X88646000Y-55626000D03*
%TO.N,/uC H743VI/DIV1_4*%
X87884000Y-56388000D03*
%TO.N,/uC H743VI/DIV1_8*%
X87122000Y-55626000D03*
%TO.N,/uC H743VI/DIV1_16*%
X86360000Y-56388000D03*
%TO.N,/uC H743VI/DIV2_2*%
X85598000Y-55626000D03*
%TO.N,/uC H743VI/DIV2_4*%
X84836000Y-56388000D03*
%TO.N,/uC H743VI/DIV2_8*%
X84074000Y-55626000D03*
%TO.N,/uC H743VI/DIV2_16*%
X83312000Y-56388000D03*
%TO.N,/uC H743VI/LED_SCK*%
X91821000Y-59182000D03*
X96520000Y-58928000D03*
%TO.N,/uC H743VI/LED_MISO*%
X91567000Y-58293000D03*
X100203000Y-56007000D03*
%TO.N,/uC H743VI/LED_MOSI*%
X105410000Y-47752000D03*
%TO.N,/Kasli interface1/LVDS0_P*%
X150495000Y-31204234D03*
%TO.N,/Kasli interface1/LVDS0_N*%
X149733000Y-31204234D03*
%TO.N,/Kasli interface1/LVDS1_P*%
X148209000Y-36727000D03*
%TO.N,/Kasli interface1/LVDS1_N*%
X148209000Y-35965000D03*
%TO.N,/Kasli interface1/LVDS2_P*%
X148082000Y-39727000D03*
%TO.N,/Kasli interface1/LVDS2_N*%
X148082000Y-38965000D03*
%TO.N,/Kasli interface1/LVDS4_P*%
X148986408Y-48656408D03*
%TO.N,/Kasli interface1/LVDS4_N*%
X148447592Y-48117592D03*
%TO.N,/Kasli interface1/LVDS5_P*%
X148463000Y-53848000D03*
%TO.N,/Kasli interface1/LVDS5_N*%
X148463000Y-53086000D03*
%TO.N,/Kasli interface1/LVDS6_P*%
X148457906Y-57800433D03*
%TO.N,/Kasli interface1/LVDS6_N*%
X148457906Y-57038433D03*
%TO.N,Net-(JP1-C)*%
X38862000Y-47244000D03*
X38862000Y-36957000D03*
%TO.N,/uC H743VI/CLK_EXT*%
X67564000Y-58293000D03*
X68707000Y-67422000D03*
%TO.N,ON_439*%
X83693000Y-19812000D03*
X71374000Y-20447000D03*
X107569000Y-19812000D03*
X107442000Y-16891000D03*
X61214000Y-20447000D03*
%TO.N,ON_984*%
X71374000Y-33655000D03*
X92964000Y-9271000D03*
X92964000Y-12954000D03*
X92964000Y-14605000D03*
X65278000Y-30353000D03*
X107569000Y-24384000D03*
%TO.N,iDIV1_S0*%
X99187000Y-45593000D03*
X84328000Y-42291000D03*
X87757000Y-42291000D03*
X74676000Y-7239000D03*
%TO.N,iDIV1_S1*%
X99695000Y-46355000D03*
X76200000Y-6350000D03*
%TO.N,iDIV1_S2*%
X75438000Y-5588000D03*
X100330000Y-47117000D03*
%TO.N,/Inputs and prescalers/DIV1_S2*%
X62865000Y-4953000D03*
X40894000Y-4191000D03*
%TO.N,iDIV2_S0*%
X71882000Y-9779000D03*
X101092000Y-47879000D03*
X81915000Y-43053000D03*
X85090000Y-43053000D03*
%TO.N,iDIV2_S1*%
X104267000Y-47752000D03*
X72136000Y-8890000D03*
%TO.N,iDIV2_S2*%
X72390000Y-8001000D03*
X101854000Y-48641000D03*
%TO.N,/Inputs and prescalers/DIV2_S2*%
X29527500Y-21653500D03*
X62992000Y-8012000D03*
%TO.N,/uC H743VI/EEP_SCL*%
X105664000Y-32004000D03*
X101981000Y-37973000D03*
%TO.N,SPI_MOSI*%
X114681000Y-54610000D03*
X125857000Y-36830000D03*
%TO.N,SPI_SCK*%
X135509000Y-57023000D03*
X137922000Y-35306000D03*
%TO.N,/uC H743VI/STLINK_TX*%
X120142000Y-50038000D03*
X107061000Y-49911000D03*
X134747000Y-50038000D03*
X135509000Y-66167000D03*
%TO.N,/uC H743VI/JTCK-SWCLK*%
X101473000Y-60706000D03*
X113919000Y-64643000D03*
%TO.N,/uC H743VI/STLINK_RX*%
X120650000Y-49276000D03*
X106045000Y-49784000D03*
X133985000Y-68707000D03*
X133985000Y-49276000D03*
%TO.N,/uC H743VI/T_JTDI*%
X146050000Y-90805000D03*
X143256000Y-72644000D03*
%TO.N,/uC H743VI/T_NRST*%
X149860000Y-90805000D03*
X144145000Y-73025000D03*
%TO.N,/uC H743VI/JTMS-SWDIO*%
X116840000Y-61087000D03*
X135509000Y-61087000D03*
X110236000Y-55499000D03*
X135509000Y-64643000D03*
%TO.N,/uC H743VI/JTDO-SWO*%
X137033000Y-57277000D03*
X109093000Y-56769000D03*
X112649000Y-57531000D03*
X142367000Y-70866000D03*
%TO.N,/uC H743VI/JTDI*%
X143256000Y-69977000D03*
X137891184Y-64516000D03*
X101473000Y-59690000D03*
X109347000Y-63881000D03*
%TO.N,/Inputs and prescalers/DIV1_S0*%
X44323000Y-7493000D03*
X37084000Y-8509000D03*
%TO.N,/Inputs and prescalers/DIV1_S1*%
X45085000Y-4953000D03*
X62992000Y-6223000D03*
%TO.N,/Inputs and prescalers/DIV2_S0*%
X64262000Y-9779000D03*
X32131000Y-24257000D03*
%TO.N,/Inputs and prescalers/DIV2_S1*%
X30988000Y-22606000D03*
X44577000Y-10160000D03*
%TO.N,XREF*%
X49784000Y-32131000D03*
X49784000Y-20320000D03*
X110998000Y-45974000D03*
X110617000Y-36830000D03*
%TO.N,10MHz_in*%
X17653000Y-61976000D03*
X68199000Y-68707000D03*
%TO.N,REFEN*%
X58166000Y-49149000D03*
X44196000Y-18161000D03*
%TO.N,LD-D0*%
X53975000Y-48387000D03*
X43561000Y-18796000D03*
%TO.N,CEN*%
X81407000Y-43815000D03*
X101346000Y-44831000D03*
X90424000Y-43815000D03*
X72898000Y-15240000D03*
%TO.N,UPSAT*%
X72898000Y-36195000D03*
X69977000Y-14478000D03*
%TO.N,DNSAT*%
X44958000Y-17272000D03*
X60325000Y-46863000D03*
%TO.N,/uC H743VI/UART4_RX*%
X82550000Y-57150000D03*
X71755000Y-73787000D03*
%TO.N,/uC H743VI/UART4_TX*%
X81788000Y-57912000D03*
X72517000Y-73025000D03*
%TO.N,/uC H743VI/uC_CLK*%
X98552000Y-53848000D03*
X90170000Y-60960000D03*
D39*
%TO.N,SCK_OUT*%
X142113000Y-35306000D03*
D40*
X137033000Y-52324000D03*
X110998000Y-54737000D03*
D39*
X144145000Y-35306000D03*
D40*
X118872000Y-52324000D03*
%TO.N,SPI_NSS*%
X127381000Y-40386000D03*
X114554000Y-56388000D03*
%TO.N,SPI_MISO*%
X114681000Y-55499000D03*
X126619000Y-38862000D03*
%TO.N,NSS_OUT*%
X122428000Y-41402000D03*
D39*
X144145000Y-40386000D03*
X141986000Y-40386000D03*
D40*
X139700000Y-41402000D03*
X114253000Y-45546000D03*
%TO.N,DAT7_OUT*%
X112014000Y-59563000D03*
D39*
X142113000Y-58166000D03*
D40*
X139446000Y-59182000D03*
D39*
X144145000Y-58166000D03*
D40*
X109474000Y-59690000D03*
%TO.N,H984_MOSI*%
X63373000Y-36957000D03*
X52070000Y-36957000D03*
X47613000Y-15875000D03*
X104521000Y-49403000D03*
%TO.N,H984_MISO*%
X49784000Y-15748000D03*
X103378000Y-49403000D03*
X52832000Y-36195000D03*
X64135000Y-36195000D03*
%TO.N,H984_SCK*%
X65278000Y-45212000D03*
X46863000Y-16764000D03*
%TO.N,H984_NSS*%
X48387000Y-16637000D03*
X66421000Y-45212000D03*
%TO.N,/uC H743VI/LINK*%
X81026000Y-57150000D03*
X73279000Y-72263000D03*
%TO.N,TTL0*%
X93345000Y-65659000D03*
X89916000Y-67945000D03*
%TO.N,TTL1*%
X91186000Y-67945000D03*
X94234000Y-66548000D03*
%TO.N,TTL2*%
X100965000Y-66294000D03*
X97536000Y-67945000D03*
%TO.N,TTL3*%
X101092000Y-67945000D03*
X98806000Y-67945000D03*
%TO.N,/uC H743VI/DAC_SCK*%
X108966000Y-40386000D03*
X85598000Y-31242000D03*
%TO.N,/uC H743VI/DAC_NSS*%
X108077000Y-44323000D03*
X84201000Y-30353000D03*
%TO.N,/uC H743VI/DAC_MOSI*%
X108458000Y-41402000D03*
X84836000Y-32004000D03*
D39*
%TO.N,DAT4_OUT*%
X144145000Y-53086000D03*
D40*
X139700000Y-51816000D03*
D39*
X142006000Y-52939000D03*
D40*
%TO.N,DAT5_OUT*%
X139700000Y-50800000D03*
D39*
X143002000Y-51308000D03*
X145796000Y-54610000D03*
%TO.N,DAT6_OUT*%
X145796000Y-56515000D03*
D40*
X111506000Y-60325000D03*
X139700000Y-60071000D03*
D39*
X143129000Y-59944000D03*
D40*
X107061000Y-60452000D03*
%TO.N,DAT6*%
X113538000Y-58293000D03*
X108585000Y-59690000D03*
D39*
%TO.N,MISO_OUT*%
X143129000Y-42164000D03*
X145796000Y-38989000D03*
D40*
X120650000Y-42037000D03*
X137795000Y-42164000D03*
X114427000Y-44069000D03*
%TO.N,MOSI_OUT*%
X111633000Y-43815000D03*
D39*
X143129000Y-33528000D03*
D40*
X135636000Y-35306000D03*
X126746000Y-35306000D03*
D39*
X145796000Y-36576000D03*
D40*
%TO.N,/uC H743VI/EEP_SDA*%
X100965000Y-31242000D03*
X101219000Y-38862000D03*
D38*
%TO.N,/digital_inputs1/GND_ISO*%
X118110000Y-79629000D03*
X117221000Y-84455000D03*
X102997000Y-81280000D03*
X111506000Y-81534000D03*
X107442000Y-84201000D03*
%TO.N,/digital_inputs1/V_ISO*%
X118110000Y-83439000D03*
X107569000Y-82423000D03*
D40*
%TO.N,Net-(U8-ND)*%
X64643000Y-4318000D03*
X43180000Y-6731000D03*
X65024000Y-17399000D03*
X43180000Y-4191000D03*
%TO.N,Net-(U8-NU)*%
X66548000Y-4318000D03*
X40132000Y-6731000D03*
X42037000Y-4191000D03*
X71120000Y-16764000D03*
%TO.N,Net-(U12A--)*%
X37846000Y-39370000D03*
X38227000Y-63005000D03*
%TO.N,Net-(U9-CP)*%
X46863000Y-27178000D03*
X70167500Y-33528000D03*
X53594000Y-33782000D03*
X49022000Y-29845000D03*
%TO.N,Net-(U10A-~{SHDN})*%
X64008000Y-23876000D03*
X66294000Y-24511000D03*
%TO.N,Net-(R49-Pad1)*%
X60579000Y-19177000D03*
%TO.N,Net-(U11A-+)*%
X71755000Y-38100000D03*
X68580000Y-39116000D03*
%TO.N,Net-(R61-Pad2)*%
X37973000Y-40894000D03*
X37973000Y-49416000D03*
%TO.N,Net-(R62-Pad1)*%
X30353000Y-33147000D03*
%TO.N,/uC H743VI/PD_ADC*%
X106680000Y-44323000D03*
X82423000Y-20701000D03*
D38*
%TO.N,GNDA*%
X62357000Y-19558000D03*
X83312000Y-36703000D03*
X25400000Y-35541445D03*
X92202000Y-31864000D03*
X30480000Y-55880000D03*
X133858000Y-5334000D03*
X101854000Y-9398000D03*
X73914000Y-25146000D03*
X20320000Y-55880000D03*
X50800000Y-55880000D03*
X90043000Y-28181000D03*
X40640000Y-55880000D03*
X92202000Y-34912000D03*
X35179000Y-35687000D03*
X55880000Y-60960000D03*
X62484000Y-22860000D03*
X67818000Y-44069000D03*
X31242000Y-35687000D03*
X45720000Y-46228000D03*
X67437000Y-33528000D03*
X81407000Y-26162000D03*
X55880000Y-55880000D03*
X85979000Y-17907000D03*
X53848000Y-41275000D03*
X60706000Y-26416000D03*
X20320000Y-35541445D03*
X64008000Y-42418000D03*
X10160000Y-40640000D03*
X10160000Y-50800000D03*
X33401000Y-45847000D03*
X71882000Y-36576000D03*
X98171000Y-5715000D03*
X42418000Y-43815000D03*
X96647000Y-15748000D03*
X133858000Y-6477000D03*
X33401000Y-42799000D03*
X64008000Y-45466000D03*
X45720000Y-55880000D03*
X34671000Y-38100000D03*
%TD*%
D41*
%TO.N,+3V3*%
X144018000Y-50546000D02*
X148717000Y-50546000D01*
X75438000Y-69215000D02*
X77025500Y-70802500D01*
X118369000Y-60711000D02*
X118369000Y-62230000D01*
D42*
X52743565Y-80899000D02*
X52743565Y-80352435D01*
D41*
X116713000Y-38354000D02*
X115570000Y-37211000D01*
D43*
X137922000Y-61722000D02*
X137033000Y-61722000D01*
D41*
X146050000Y-61722000D02*
X143002000Y-61722000D01*
X138684000Y-37846000D02*
X138684000Y-32512000D01*
D42*
X119634000Y-35433000D02*
X119634000Y-34036000D01*
D41*
X143002000Y-63246000D02*
X143002000Y-61722000D01*
D42*
X101600000Y-35052000D02*
X96901000Y-39751000D01*
D43*
X119634000Y-34036000D02*
X128651000Y-34036000D01*
D41*
X141986000Y-44069000D02*
X142113000Y-43942000D01*
D42*
X118618000Y-33020000D02*
X119634000Y-34036000D01*
D41*
X92202000Y-63246000D02*
X91821000Y-63246000D01*
X151003000Y-35687000D02*
X147066000Y-31750000D01*
X139446000Y-49530000D02*
X141986000Y-49530000D01*
X81928000Y-50292000D02*
X95885000Y-50292000D01*
X97917000Y-31369000D02*
X96520000Y-31369000D01*
D42*
X118618000Y-33020000D02*
X116586000Y-35052000D01*
D41*
X72517000Y-68072000D02*
X72517000Y-59563000D01*
X147574000Y-61722000D02*
X149352000Y-59944000D01*
X116586000Y-58928000D02*
X118369000Y-60711000D01*
D42*
X97028000Y-61976000D02*
X92202000Y-61976000D01*
D41*
X146050000Y-43942000D02*
X142113000Y-43942000D01*
D42*
X76962000Y-70866000D02*
X95885000Y-51943000D01*
D41*
X150622000Y-36068000D02*
X151003000Y-35687000D01*
D43*
X95885000Y-51943000D02*
X95885000Y-50292000D01*
X128651000Y-43942000D02*
X128651000Y-62865000D01*
X137033000Y-61722000D02*
X135890000Y-62865000D01*
X128651000Y-69977000D02*
X148717000Y-90043000D01*
D41*
X92837000Y-63246000D02*
X96393000Y-66802000D01*
D42*
X109601000Y-43180000D02*
X109601000Y-49403000D01*
D41*
X137922000Y-61722000D02*
X137922000Y-57150000D01*
X139446000Y-31750000D02*
X141986000Y-31750000D01*
X141986000Y-49530000D02*
X143002000Y-49530000D01*
D43*
X128651000Y-62865000D02*
X128651000Y-69977000D01*
D41*
X115570000Y-58928000D02*
X116586000Y-58928000D01*
X142113000Y-43942000D02*
X137922000Y-43942000D01*
X118618000Y-38989000D02*
X116713000Y-38989000D01*
D43*
X135890000Y-62865000D02*
X128651000Y-62865000D01*
D41*
X141986000Y-31750000D02*
X147066000Y-31750000D01*
X92202000Y-63246000D02*
X92837000Y-63246000D01*
D43*
X96393000Y-39751000D02*
X95885000Y-39751000D01*
X148717000Y-90043000D02*
X148717000Y-94615000D01*
X128651000Y-43942000D02*
X137922000Y-43942000D01*
D42*
X117856000Y-37211000D02*
X119634000Y-35433000D01*
D41*
X72517000Y-68072000D02*
X72517000Y-70866000D01*
D42*
X72517000Y-70866000D02*
X76962000Y-70866000D01*
D41*
X101600000Y-35052000D02*
X97917000Y-31369000D01*
D42*
X95885000Y-50292000D02*
X95885000Y-39751000D01*
X115570000Y-37211000D02*
X117856000Y-37211000D01*
X62230000Y-70866000D02*
X72517000Y-70866000D01*
D41*
X141986000Y-46355000D02*
X141986000Y-49530000D01*
X141986000Y-46355000D02*
X141986000Y-44069000D01*
X141986000Y-29210000D02*
X141986000Y-31750000D01*
X138557000Y-56515000D02*
X138557000Y-55753000D01*
X81915000Y-50279000D02*
X81928000Y-50292000D01*
X137922000Y-57150000D02*
X138557000Y-56515000D01*
X116713000Y-49530000D02*
X115570000Y-50673000D01*
X146050000Y-61722000D02*
X147574000Y-61722000D01*
D42*
X109601000Y-49403000D02*
X97028000Y-61976000D01*
X116586000Y-35052000D02*
X101600000Y-35052000D01*
X96901000Y-39751000D02*
X95885000Y-39751000D01*
X52743565Y-80352435D02*
X62230000Y-70866000D01*
D41*
X115570000Y-58928000D02*
X115570000Y-50673000D01*
X143002000Y-49530000D02*
X144018000Y-50546000D01*
X89789000Y-65278000D02*
X89789000Y-65786000D01*
X92202000Y-63246000D02*
X92202000Y-61976000D01*
X91821000Y-63246000D02*
X89789000Y-65278000D01*
D42*
X115570000Y-37211000D02*
X109601000Y-43180000D01*
D41*
X143002000Y-61722000D02*
X137922000Y-61722000D01*
X113284000Y-61214000D02*
X115570000Y-58928000D01*
X116713000Y-38989000D02*
X116713000Y-49530000D01*
X138684000Y-34036000D02*
X119634000Y-34036000D01*
D43*
X52705000Y-80899000D02*
X52743565Y-80899000D01*
D41*
X138684000Y-32512000D02*
X139446000Y-31750000D01*
X150622000Y-40259000D02*
X150622000Y-36068000D01*
X148717000Y-50546000D02*
X149352000Y-51181000D01*
X116713000Y-38989000D02*
X116713000Y-38354000D01*
D43*
X128651000Y-34036000D02*
X128651000Y-43942000D01*
D41*
%TO.N,+3.3VA*%
X28575000Y-32639000D02*
X27686000Y-31750000D01*
X16256000Y-19431000D02*
X19685000Y-19431000D01*
X27686000Y-31750000D02*
X27686000Y-22479000D01*
X48133000Y-29464000D02*
X50927000Y-26670000D01*
X19685000Y-10668000D02*
X16256000Y-10668000D01*
X35179000Y-18415000D02*
X35179000Y-14732000D01*
X16256000Y-16002000D02*
X16256000Y-19431000D01*
X16256000Y-10668000D02*
X16256000Y-11938000D01*
X34163000Y-14732000D02*
X30288200Y-10857200D01*
X8509000Y-11938000D02*
X16256000Y-11938000D01*
X26035000Y-37973000D02*
X28575000Y-35433000D01*
X102743000Y-3556000D02*
X72517000Y-3556000D01*
X28575000Y-20955000D02*
X28575000Y-20320000D01*
X28575000Y-21590000D02*
X27686000Y-22479000D01*
X30288200Y-10857200D02*
X25843200Y-10857200D01*
X33274000Y-20320000D02*
X35179000Y-18415000D01*
X10922000Y-64262000D02*
X22479000Y-64262000D01*
X64008000Y-12065000D02*
X53594000Y-12065000D01*
X53594000Y-12065000D02*
X50927000Y-14732000D01*
X72517000Y-3556000D02*
X64008000Y-12065000D01*
X13589000Y-27686000D02*
X13589000Y-27432000D01*
X16256000Y-11938000D02*
X16256000Y-16002000D01*
X19685000Y-19431000D02*
X28575000Y-19431000D01*
X117602000Y-18415000D02*
X102743000Y-3556000D01*
X26035000Y-60706000D02*
X26035000Y-37973000D01*
X28575000Y-35433000D02*
X28575000Y-32639000D01*
X23749000Y-62992000D02*
X26035000Y-60706000D01*
X35179000Y-14732000D02*
X34163000Y-14732000D01*
X28575000Y-20320000D02*
X28575000Y-19431000D01*
X117602000Y-27813000D02*
X117602000Y-18415000D01*
X28575000Y-17526000D02*
X28588000Y-17513000D01*
X28575000Y-19431000D02*
X28575000Y-17526000D01*
X27686000Y-22479000D02*
X25781000Y-22479000D01*
X8509000Y-22352000D02*
X11430000Y-19431000D01*
X13589000Y-27432000D02*
X8509000Y-22352000D01*
X13589000Y-16002000D02*
X16256000Y-16002000D01*
X16256000Y-8001000D02*
X16256000Y-10668000D01*
X50927000Y-14732000D02*
X35179000Y-14732000D01*
X28575000Y-20320000D02*
X33274000Y-20320000D01*
X46863000Y-29464000D02*
X48133000Y-29464000D01*
X19685000Y-22352000D02*
X19685000Y-19431000D01*
X22479000Y-64262000D02*
X23749000Y-62992000D01*
X11430000Y-19431000D02*
X16256000Y-19431000D01*
X25843200Y-10857200D02*
X25781000Y-10795000D01*
X28575000Y-20955000D02*
X28575000Y-21590000D01*
X50927000Y-26670000D02*
X50927000Y-14732000D01*
D44*
%TO.N,DVDD*%
X59817000Y-13716000D02*
X85979000Y-13716000D01*
X88519000Y-11176000D02*
X91694000Y-11176000D01*
X56896000Y-13716000D02*
X53721000Y-16891000D01*
X53721000Y-16891000D02*
X53721000Y-20193000D01*
X53721000Y-20193000D02*
X54737000Y-21209000D01*
X85979000Y-13716000D02*
X88519000Y-11176000D01*
D45*
%TO.N,VCCPD*%
X81915000Y-19050000D02*
X77216000Y-23749000D01*
D44*
X46609000Y-25527000D02*
X40635487Y-25527000D01*
D45*
X65659000Y-23749000D02*
X60960000Y-28448000D01*
D44*
X40635487Y-25527000D02*
X38989000Y-23880513D01*
D45*
X77216000Y-23749000D02*
X65659000Y-23749000D01*
D44*
X38989000Y-23880513D02*
X38989000Y-20955000D01*
D45*
X60960000Y-28448000D02*
X60960000Y-33655000D01*
D44*
X38989000Y-20955000D02*
X39878000Y-20066000D01*
X47244000Y-26162000D02*
X46609000Y-25527000D01*
%TO.N,AVDD*%
X56388000Y-24638000D02*
X56261000Y-24765000D01*
X86360000Y-5588000D02*
X78994000Y-12954000D01*
X78994000Y-12954000D02*
X58928000Y-12954000D01*
X56388000Y-15494000D02*
X56388000Y-24638000D01*
X58928000Y-12954000D02*
X56388000Y-15494000D01*
X91694000Y-5588000D02*
X86360000Y-5588000D01*
D45*
%TO.N,VDDCP*%
X45720000Y-30861000D02*
X45212000Y-30353000D01*
X51435000Y-30861000D02*
X45720000Y-30861000D01*
X53721000Y-28575000D02*
X51435000Y-30861000D01*
%TO.N,VDDPD*%
X80137000Y-14986000D02*
X79121000Y-16002000D01*
X79121000Y-16002000D02*
X59436000Y-16002000D01*
D44*
X42799000Y-18542000D02*
X44196000Y-17145000D01*
D45*
X91694000Y-16510000D02*
X90170000Y-14986000D01*
D44*
X42799000Y-20447000D02*
X42799000Y-18542000D01*
X39751000Y-23495000D02*
X42799000Y-20447000D01*
X44196000Y-17145000D02*
X44196000Y-16637000D01*
D45*
X90170000Y-14986000D02*
X80137000Y-14986000D01*
D41*
%TO.N,+439*%
X46863000Y-8509000D02*
X44196000Y-5842000D01*
X46863000Y-11049000D02*
X46863000Y-8509000D01*
X44577000Y-13335000D02*
X46863000Y-11049000D01*
X63627000Y-10922000D02*
X63500000Y-11049000D01*
X63500000Y-11049000D02*
X46863000Y-11049000D01*
%TO.N,-6V*%
X86360000Y-16764000D02*
X76454000Y-16764000D01*
X104508300Y-11188700D02*
X99555300Y-11188700D01*
X43307000Y-32131000D02*
X52070000Y-40894000D01*
X92329000Y-24371000D02*
X92329000Y-18415000D01*
X70569000Y-41994000D02*
X73152000Y-44577000D01*
X88011000Y-18415000D02*
X86360000Y-16764000D01*
X83312000Y-24638000D02*
X85331000Y-26657000D01*
X59563000Y-18283000D02*
X57663000Y-16383000D01*
X92329000Y-18415000D02*
X88011000Y-18415000D01*
X62343000Y-40302000D02*
X62343000Y-39362000D01*
X37719000Y-32131000D02*
X43307000Y-32131000D01*
X83312000Y-24638000D02*
X81407000Y-24638000D01*
X90043000Y-26657000D02*
X92329000Y-24371000D01*
X104521000Y-11176000D02*
X104508300Y-11188700D01*
X63493000Y-40302000D02*
X62343000Y-40302000D01*
X59563000Y-24892000D02*
X59563000Y-21463000D01*
X48387000Y-44577000D02*
X52070000Y-40894000D01*
X52070000Y-40894000D02*
X53602000Y-39362000D01*
X59563000Y-21463000D02*
X59563000Y-18283000D01*
X71755000Y-21463000D02*
X59563000Y-21463000D01*
X99555300Y-11188700D02*
X92329000Y-18415000D01*
X59563000Y-24892000D02*
X59563000Y-39362000D01*
X85331000Y-26657000D02*
X90043000Y-26657000D01*
X60706000Y-24892000D02*
X59563000Y-24892000D01*
X59563000Y-39362000D02*
X62343000Y-39362000D01*
X53602000Y-39362000D02*
X59563000Y-39362000D01*
X73152000Y-44577000D02*
X75311000Y-44577000D01*
X70569000Y-40302000D02*
X71755000Y-39116000D01*
X76454000Y-16764000D02*
X71755000Y-21463000D01*
X70569000Y-40302000D02*
X70569000Y-41994000D01*
X63493000Y-40302000D02*
X70569000Y-40302000D01*
%TO.N,+6V*%
X109332000Y-28575000D02*
X107681000Y-30226000D01*
X80023000Y-34785000D02*
X80023000Y-27813000D01*
X48387000Y-39497000D02*
X41402000Y-39497000D01*
X60452000Y-45466000D02*
X61849000Y-46863000D01*
X83312000Y-34785000D02*
X80023000Y-34785000D01*
X49276000Y-34798000D02*
X49276000Y-34290000D01*
X61849000Y-46863000D02*
X76581000Y-46863000D01*
X49276000Y-34290000D02*
X57663000Y-25903000D01*
X80023000Y-23990000D02*
X81026000Y-22987000D01*
X83312000Y-34785000D02*
X87643000Y-34785000D01*
X104013000Y-30226000D02*
X98107500Y-24320500D01*
X89027000Y-25273000D02*
X88646000Y-25654000D01*
X73787000Y-27940000D02*
X64770000Y-27940000D01*
X31369000Y-44323000D02*
X29845000Y-45847000D01*
X85598000Y-25273000D02*
X85090000Y-24765000D01*
X87643000Y-34785000D02*
X98107500Y-24320500D01*
X94869000Y-19939000D02*
X94869000Y-18288000D01*
X80023000Y-43421000D02*
X80023000Y-34785000D01*
X41402000Y-39497000D02*
X36576000Y-44323000D01*
X36576000Y-44323000D02*
X31369000Y-44323000D01*
X85090000Y-24765000D02*
X85090000Y-22987000D01*
X94869000Y-21082000D02*
X94869000Y-19939000D01*
X74549000Y-28702000D02*
X75438000Y-27813000D01*
X88646000Y-25654000D02*
X85979000Y-25654000D01*
X80023000Y-39497000D02*
X75311000Y-39497000D01*
X74549000Y-28702000D02*
X73787000Y-27940000D01*
X81026000Y-22987000D02*
X85090000Y-22987000D01*
X85979000Y-25654000D02*
X85598000Y-25273000D01*
X75438000Y-27813000D02*
X80023000Y-27813000D01*
X85090000Y-22987000D02*
X85090000Y-19939000D01*
X98107500Y-24320500D02*
X94869000Y-21082000D01*
X107681000Y-30226000D02*
X104013000Y-30226000D01*
X57663000Y-25903000D02*
X57663000Y-21463000D01*
X80023000Y-27813000D02*
X80023000Y-23990000D01*
X76581000Y-46863000D02*
X80023000Y-43421000D01*
%TD*%
M02*
