%TF.GenerationSoftware,KiCad,Pcbnew,(5.1.12)-1*%
%TF.CreationDate,2023-07-21T13:43:36+02:00*%
%TF.ProjectId,Input_stage,496e7075-745f-4737-9461-67652e6b6963,rev?*%
%TF.SameCoordinates,Original*%
%TF.FileFunction,Soldermask,Top*%
%TF.FilePolarity,Negative*%
%FSLAX46Y46*%
G04 Gerber Fmt 4.6, Leading zero omitted, Abs format (unit mm)*
G04 Created by KiCad (PCBNEW (5.1.12)-1) date 2023-07-21 13:43:36*
%MOMM*%
%LPD*%
G01*
G04 APERTURE LIST*
%ADD10R,0.800000X0.750000*%
%ADD11R,0.750000X0.800000*%
%ADD12R,1.000000X1.600000*%
%ADD13C,1.500000*%
%ADD14R,0.800000X0.900000*%
%ADD15R,0.900000X0.800000*%
%ADD16R,0.650000X0.400000*%
G04 APERTURE END LIST*
D10*
%TO.C,C1*%
X2655000Y-8255000D03*
X1155000Y-8255000D03*
%TD*%
D11*
%TO.C,C2*%
X11684000Y-6719000D03*
X11684000Y-5219000D03*
%TD*%
D10*
%TO.C,C3*%
X4584000Y-6731000D03*
X6084000Y-6731000D03*
%TD*%
%TO.C,C4*%
X4584000Y-8255000D03*
X6084000Y-8255000D03*
%TD*%
%TO.C,C5*%
X7886000Y-5207000D03*
X9386000Y-5207000D03*
%TD*%
%TO.C,C6*%
X9386000Y-3683000D03*
X7886000Y-3683000D03*
%TD*%
D12*
%TO.C,C7*%
X5993000Y-1651000D03*
X8993000Y-1651000D03*
%TD*%
D13*
%TO.C,GND1*%
X11176000Y-1651000D03*
%TD*%
%TO.C,IN1*%
X1778000Y-6223000D03*
%TD*%
%TO.C,OUM1*%
X5715000Y-12065000D03*
%TD*%
%TO.C,OUP1*%
X11303000Y-12065000D03*
%TD*%
%TO.C,POW1*%
X3810000Y-1651000D03*
%TD*%
D14*
%TO.C,R1*%
X2655000Y-9906000D03*
X1155000Y-9906000D03*
%TD*%
%TO.C,R2*%
X7886000Y-6731000D03*
X9386000Y-6731000D03*
%TD*%
D15*
%TO.C,R3*%
X11684000Y-10148000D03*
X11684000Y-8648000D03*
%TD*%
D14*
%TO.C,R4*%
X4584000Y-5080000D03*
X6084000Y-5080000D03*
%TD*%
%TO.C,R5*%
X4584000Y-9906000D03*
X6084000Y-9906000D03*
%TD*%
%TO.C,R6*%
X7759000Y-11811000D03*
X9259000Y-11811000D03*
%TD*%
D16*
%TO.C,U1*%
X9713000Y-9921000D03*
X9713000Y-8621000D03*
X7813000Y-9271000D03*
X9713000Y-9271000D03*
X7813000Y-8621000D03*
X7813000Y-9921000D03*
%TD*%
D13*
%TO.C,GND2*%
X1778000Y-12065000D03*
%TD*%
M02*
