%TF.GenerationSoftware,KiCad,Pcbnew,(5.1.12)-1*%
%TF.CreationDate,2023-07-21T13:43:36+02:00*%
%TF.ProjectId,Input_stage,496e7075-745f-4737-9461-67652e6b6963,rev?*%
%TF.SameCoordinates,Original*%
%TF.FileFunction,Copper,L1,Top*%
%TF.FilePolarity,Positive*%
%FSLAX46Y46*%
G04 Gerber Fmt 4.6, Leading zero omitted, Abs format (unit mm)*
G04 Created by KiCad (PCBNEW (5.1.12)-1) date 2023-07-21 13:43:36*
%MOMM*%
%LPD*%
G01*
G04 APERTURE LIST*
%TA.AperFunction,SMDPad,CuDef*%
%ADD10R,0.800000X0.750000*%
%TD*%
%TA.AperFunction,SMDPad,CuDef*%
%ADD11R,0.750000X0.800000*%
%TD*%
%TA.AperFunction,SMDPad,CuDef*%
%ADD12R,1.000000X1.600000*%
%TD*%
%TA.AperFunction,ComponentPad*%
%ADD13C,1.500000*%
%TD*%
%TA.AperFunction,SMDPad,CuDef*%
%ADD14R,0.800000X0.900000*%
%TD*%
%TA.AperFunction,SMDPad,CuDef*%
%ADD15R,0.900000X0.800000*%
%TD*%
%TA.AperFunction,SMDPad,CuDef*%
%ADD16R,0.650000X0.400000*%
%TD*%
%TA.AperFunction,Conductor*%
%ADD17C,0.304800*%
%TD*%
%TA.AperFunction,Conductor*%
%ADD18C,0.609600*%
%TD*%
%TA.AperFunction,Conductor*%
%ADD19C,0.254000*%
%TD*%
%TA.AperFunction,Conductor*%
%ADD20C,0.100000*%
%TD*%
G04 APERTURE END LIST*
D10*
%TO.P,C1,1*%
%TO.N,Net-(C1-Pad1)*%
X2655000Y-8255000D03*
%TO.P,C1,2*%
%TO.N,Net-(C1-Pad2)*%
X1155000Y-8255000D03*
%TD*%
D11*
%TO.P,C2,1*%
%TO.N,Net-(C2-Pad1)*%
X11684000Y-6719000D03*
%TO.P,C2,2*%
%TO.N,GND*%
X11684000Y-5219000D03*
%TD*%
D10*
%TO.P,C3,2*%
%TO.N,Net-(C1-Pad1)*%
X4584000Y-6731000D03*
%TO.P,C3,1*%
%TO.N,Net-(C3-Pad1)*%
X6084000Y-6731000D03*
%TD*%
%TO.P,C4,2*%
%TO.N,GND*%
X4584000Y-8255000D03*
%TO.P,C4,1*%
%TO.N,Net-(C3-Pad1)*%
X6084000Y-8255000D03*
%TD*%
%TO.P,C5,1*%
%TO.N,VCC*%
X7886000Y-5207000D03*
%TO.P,C5,2*%
%TO.N,GND*%
X9386000Y-5207000D03*
%TD*%
%TO.P,C6,2*%
%TO.N,GND*%
X9386000Y-3683000D03*
%TO.P,C6,1*%
%TO.N,VCC*%
X7886000Y-3683000D03*
%TD*%
D12*
%TO.P,C7,1*%
%TO.N,VCC*%
X5993000Y-1651000D03*
%TO.P,C7,2*%
%TO.N,GND*%
X8993000Y-1651000D03*
%TD*%
D13*
%TO.P,GND1,1*%
%TO.N,GND*%
X11176000Y-1651000D03*
%TD*%
%TO.P,IN1,1*%
%TO.N,Net-(C1-Pad2)*%
X1778000Y-6223000D03*
%TD*%
%TO.P,OUM1,1*%
%TO.N,Net-(OUM1-Pad1)*%
X5715000Y-12065000D03*
%TD*%
%TO.P,OUP1,1*%
%TO.N,Net-(OUP1-Pad1)*%
X11303000Y-12065000D03*
%TD*%
%TO.P,POW1,1*%
%TO.N,VCC*%
X3810000Y-1651000D03*
%TD*%
D14*
%TO.P,R1,1*%
%TO.N,Net-(C1-Pad1)*%
X2655000Y-9906000D03*
%TO.P,R1,2*%
%TO.N,GND*%
X1155000Y-9906000D03*
%TD*%
%TO.P,R2,1*%
%TO.N,VCC*%
X7886000Y-6731000D03*
%TO.P,R2,2*%
%TO.N,Net-(C2-Pad1)*%
X9386000Y-6731000D03*
%TD*%
D15*
%TO.P,R3,2*%
%TO.N,GND*%
X11684000Y-10148000D03*
%TO.P,R3,1*%
%TO.N,Net-(C2-Pad1)*%
X11684000Y-8648000D03*
%TD*%
D14*
%TO.P,R4,1*%
%TO.N,VCC*%
X4584000Y-5080000D03*
%TO.P,R4,2*%
%TO.N,Net-(C3-Pad1)*%
X6084000Y-5080000D03*
%TD*%
%TO.P,R5,2*%
%TO.N,GND*%
X4584000Y-9906000D03*
%TO.P,R5,1*%
%TO.N,Net-(C3-Pad1)*%
X6084000Y-9906000D03*
%TD*%
%TO.P,R6,2*%
%TO.N,Net-(OUM1-Pad1)*%
X7759000Y-11811000D03*
%TO.P,R6,1*%
%TO.N,Net-(OUP1-Pad1)*%
X9259000Y-11811000D03*
%TD*%
D16*
%TO.P,U1,1*%
%TO.N,Net-(OUP1-Pad1)*%
X9713000Y-9921000D03*
%TO.P,U1,3*%
%TO.N,Net-(C2-Pad1)*%
X9713000Y-8621000D03*
%TO.P,U1,5*%
%TO.N,VCC*%
X7813000Y-9271000D03*
%TO.P,U1,2*%
%TO.N,GND*%
X9713000Y-9271000D03*
%TO.P,U1,4*%
%TO.N,Net-(C3-Pad1)*%
X7813000Y-8621000D03*
%TO.P,U1,6*%
%TO.N,Net-(OUM1-Pad1)*%
X7813000Y-9921000D03*
%TD*%
D13*
%TO.P,GND2,1*%
%TO.N,GND*%
X1778000Y-12065000D03*
%TD*%
D17*
%TO.N,Net-(C1-Pad1)*%
X2655000Y-9906000D02*
X2655000Y-8255000D01*
X2655000Y-8255000D02*
X2655000Y-7632000D01*
X3556000Y-6731000D02*
X4584000Y-6731000D01*
X2655000Y-7632000D02*
X3556000Y-6731000D01*
%TO.N,Net-(C1-Pad2)*%
X1155000Y-6846000D02*
X1778000Y-6223000D01*
X1155000Y-8255000D02*
X1155000Y-6846000D01*
%TO.N,Net-(C2-Pad1)*%
X11681000Y-8621000D02*
X11684000Y-8624000D01*
X9713000Y-8621000D02*
X11681000Y-8621000D01*
X11684000Y-8624000D02*
X11684000Y-6719000D01*
X11672000Y-6731000D02*
X11684000Y-6719000D01*
X9386000Y-6731000D02*
X11672000Y-6731000D01*
D18*
%TO.N,GND*%
X9386000Y-5207000D02*
X9386000Y-3683000D01*
X9386000Y-3683000D02*
X9386000Y-3036000D01*
X8993000Y-2643000D02*
X8993000Y-1651000D01*
X9386000Y-3036000D02*
X8993000Y-2643000D01*
D17*
X8636000Y-7379642D02*
X8636000Y-5957000D01*
X9003358Y-7747000D02*
X8636000Y-7379642D01*
X8636000Y-5957000D02*
X9386000Y-5207000D01*
X9017000Y-7747000D02*
X9003358Y-7747000D01*
X9017000Y-9017000D02*
X9017000Y-7747000D01*
X9271000Y-9271000D02*
X9017000Y-9017000D01*
X9713000Y-9271000D02*
X9271000Y-9271000D01*
D18*
X11672000Y-5207000D02*
X11684000Y-5219000D01*
X9386000Y-5207000D02*
X11672000Y-5207000D01*
X1155000Y-11442000D02*
X1778000Y-12065000D01*
X1155000Y-9906000D02*
X1155000Y-11442000D01*
X4584000Y-8255000D02*
X4584000Y-9906000D01*
X4584000Y-9906000D02*
X4584000Y-10656000D01*
X3175000Y-12065000D02*
X1778000Y-12065000D01*
X4584000Y-10656000D02*
X3175000Y-12065000D01*
X12700000Y-3175000D02*
X11176000Y-1651000D01*
X11938000Y-13462000D02*
X12700000Y-12700000D01*
X4572000Y-13462000D02*
X11938000Y-13462000D01*
X3175000Y-12065000D02*
X4572000Y-13462000D01*
X11684000Y-10148000D02*
X12688000Y-10148000D01*
X12688000Y-10148000D02*
X12700000Y-10160000D01*
X12700000Y-12700000D02*
X12700000Y-10160000D01*
X12688000Y-5219000D02*
X12700000Y-5207000D01*
X11684000Y-5219000D02*
X12688000Y-5219000D01*
X12700000Y-5207000D02*
X12700000Y-3175000D01*
X12700000Y-10160000D02*
X12700000Y-5207000D01*
D17*
%TO.N,Net-(C3-Pad1)*%
X6084000Y-6731000D02*
X6084000Y-5080000D01*
X6858000Y-8255000D02*
X6084000Y-8255000D01*
X7224000Y-8621000D02*
X6858000Y-8255000D01*
X7813000Y-8621000D02*
X7224000Y-8621000D01*
X6084000Y-8255000D02*
X6084000Y-9906000D01*
X6084000Y-8255000D02*
X6084000Y-6731000D01*
D18*
%TO.N,VCC*%
X7886000Y-5207000D02*
X7886000Y-3683000D01*
X7886000Y-3683000D02*
X7886000Y-3060000D01*
X6477000Y-1651000D02*
X5993000Y-1651000D01*
X7886000Y-3060000D02*
X6477000Y-1651000D01*
X7886000Y-3683000D02*
X5207000Y-3683000D01*
X4584000Y-4306000D02*
X4584000Y-5080000D01*
X5207000Y-3683000D02*
X4584000Y-4306000D01*
X5993000Y-1651000D02*
X3810000Y-1651000D01*
D17*
X7813000Y-9271000D02*
X8255000Y-9271000D01*
X8255000Y-9271000D02*
X8509000Y-9017000D01*
X8509000Y-9017000D02*
X8509000Y-8128000D01*
D18*
X7886000Y-5207000D02*
X7886000Y-6731000D01*
D17*
X7886000Y-7505000D02*
X8509000Y-8128000D01*
X7886000Y-6731000D02*
X7886000Y-7505000D01*
%TO.N,Net-(OUM1-Pad1)*%
X7813000Y-11757000D02*
X7759000Y-11811000D01*
X7813000Y-9921000D02*
X7813000Y-11757000D01*
X5969000Y-11811000D02*
X5715000Y-12065000D01*
X7759000Y-11811000D02*
X5969000Y-11811000D01*
%TO.N,Net-(OUP1-Pad1)*%
X9713000Y-9921000D02*
X9713000Y-10480000D01*
X9259000Y-10934000D02*
X9259000Y-11811000D01*
X9713000Y-10480000D02*
X9259000Y-10934000D01*
X11049000Y-11811000D02*
X11303000Y-12065000D01*
X9259000Y-11811000D02*
X11049000Y-11811000D01*
%TD*%
D19*
%TO.N,GND*%
X10398612Y-694007D02*
X11176000Y-1471395D01*
X11953388Y-694007D01*
X11944059Y-660000D01*
X12929000Y-660000D01*
X12929001Y-13691000D01*
X660000Y-13691000D01*
X660000Y-13021993D01*
X1000612Y-13021993D01*
X1066137Y-13260860D01*
X1313116Y-13376760D01*
X1577960Y-13442250D01*
X1850492Y-13454812D01*
X2120238Y-13413965D01*
X2376832Y-13321277D01*
X2489863Y-13260860D01*
X2555388Y-13021993D01*
X1778000Y-12244605D01*
X1000612Y-13021993D01*
X660000Y-13021993D01*
X660000Y-12798221D01*
X821007Y-12842388D01*
X1598395Y-12065000D01*
X1957605Y-12065000D01*
X2734993Y-12842388D01*
X2973860Y-12776863D01*
X3089760Y-12529884D01*
X3155250Y-12265040D01*
X3167812Y-11992508D01*
X3126965Y-11722762D01*
X3034277Y-11466168D01*
X2973860Y-11353137D01*
X2734993Y-11287612D01*
X1957605Y-12065000D01*
X1598395Y-12065000D01*
X821007Y-11287612D01*
X660000Y-11331779D01*
X660000Y-10984716D01*
X755000Y-10994072D01*
X869250Y-10991000D01*
X1027998Y-10832252D01*
X1027998Y-10991000D01*
X1032709Y-10991000D01*
X1000612Y-11108007D01*
X1778000Y-11885395D01*
X2555388Y-11108007D01*
X2524134Y-10994072D01*
X3055000Y-10994072D01*
X3179482Y-10981812D01*
X3299180Y-10945502D01*
X3409494Y-10886537D01*
X3506185Y-10807185D01*
X3585537Y-10710494D01*
X3619500Y-10646955D01*
X3653463Y-10710494D01*
X3732815Y-10807185D01*
X3829506Y-10886537D01*
X3939820Y-10945502D01*
X4059518Y-10981812D01*
X4184000Y-10994072D01*
X4298250Y-10991000D01*
X4457000Y-10832250D01*
X4457000Y-10033000D01*
X4437000Y-10033000D01*
X4437000Y-9779000D01*
X4457000Y-9779000D01*
X4457000Y-8382000D01*
X4437000Y-8382000D01*
X4437000Y-8128000D01*
X4457000Y-8128000D01*
X4457000Y-8108000D01*
X4711000Y-8108000D01*
X4711000Y-8128000D01*
X4731000Y-8128000D01*
X4731000Y-8382000D01*
X4711000Y-8382000D01*
X4711000Y-9779000D01*
X4731000Y-9779000D01*
X4731000Y-10033000D01*
X4711000Y-10033000D01*
X4711000Y-10832250D01*
X4853597Y-10974847D01*
X4832114Y-10989201D01*
X4639201Y-11182114D01*
X4487629Y-11408957D01*
X4383225Y-11661011D01*
X4330000Y-11928589D01*
X4330000Y-12201411D01*
X4383225Y-12468989D01*
X4487629Y-12721043D01*
X4639201Y-12947886D01*
X4832114Y-13140799D01*
X5058957Y-13292371D01*
X5311011Y-13396775D01*
X5578589Y-13450000D01*
X5851411Y-13450000D01*
X6118989Y-13396775D01*
X6371043Y-13292371D01*
X6597886Y-13140799D01*
X6790799Y-12947886D01*
X6933955Y-12733638D01*
X7004506Y-12791537D01*
X7114820Y-12850502D01*
X7234518Y-12886812D01*
X7359000Y-12899072D01*
X8159000Y-12899072D01*
X8283482Y-12886812D01*
X8403180Y-12850502D01*
X8509000Y-12793939D01*
X8614820Y-12850502D01*
X8734518Y-12886812D01*
X8859000Y-12899072D01*
X9659000Y-12899072D01*
X9783482Y-12886812D01*
X9903180Y-12850502D01*
X10013494Y-12791537D01*
X10084045Y-12733638D01*
X10227201Y-12947886D01*
X10420114Y-13140799D01*
X10646957Y-13292371D01*
X10899011Y-13396775D01*
X11166589Y-13450000D01*
X11439411Y-13450000D01*
X11706989Y-13396775D01*
X11959043Y-13292371D01*
X12185886Y-13140799D01*
X12378799Y-12947886D01*
X12530371Y-12721043D01*
X12634775Y-12468989D01*
X12688000Y-12201411D01*
X12688000Y-11928589D01*
X12634775Y-11661011D01*
X12530371Y-11408957D01*
X12378799Y-11182114D01*
X12344426Y-11147741D01*
X12378180Y-11137502D01*
X12488494Y-11078537D01*
X12585185Y-10999185D01*
X12664537Y-10902494D01*
X12723502Y-10792180D01*
X12759812Y-10672482D01*
X12772072Y-10548000D01*
X12769000Y-10433750D01*
X12610250Y-10275000D01*
X11811000Y-10275000D01*
X11811000Y-10295000D01*
X11557000Y-10295000D01*
X11557000Y-10275000D01*
X11537000Y-10275000D01*
X11537000Y-10021000D01*
X11557000Y-10021000D01*
X11557000Y-10001000D01*
X11811000Y-10001000D01*
X11811000Y-10021000D01*
X12610250Y-10021000D01*
X12769000Y-9862250D01*
X12772072Y-9748000D01*
X12759812Y-9623518D01*
X12723502Y-9503820D01*
X12666939Y-9398000D01*
X12723502Y-9292180D01*
X12759812Y-9172482D01*
X12772072Y-9048000D01*
X12772072Y-8248000D01*
X12759812Y-8123518D01*
X12723502Y-8003820D01*
X12664537Y-7893506D01*
X12585185Y-7796815D01*
X12488494Y-7717463D01*
X12471400Y-7708326D01*
X12471400Y-7602015D01*
X12510185Y-7570185D01*
X12589537Y-7473494D01*
X12648502Y-7363180D01*
X12684812Y-7243482D01*
X12697072Y-7119000D01*
X12697072Y-6319000D01*
X12684812Y-6194518D01*
X12648502Y-6074820D01*
X12591939Y-5969000D01*
X12648502Y-5863180D01*
X12684812Y-5743482D01*
X12697072Y-5619000D01*
X12694000Y-5504750D01*
X12535250Y-5346000D01*
X11811000Y-5346000D01*
X11811000Y-5366000D01*
X11557000Y-5366000D01*
X11557000Y-5346000D01*
X10832750Y-5346000D01*
X10674000Y-5504750D01*
X10670928Y-5619000D01*
X10683188Y-5743482D01*
X10719498Y-5863180D01*
X10762484Y-5943600D01*
X10325674Y-5943600D01*
X10319206Y-5931500D01*
X10375502Y-5826180D01*
X10411812Y-5706482D01*
X10424072Y-5582000D01*
X10421000Y-5492750D01*
X10262250Y-5334000D01*
X9513000Y-5334000D01*
X9513000Y-5354000D01*
X9259000Y-5354000D01*
X9259000Y-5334000D01*
X9239000Y-5334000D01*
X9239000Y-5080000D01*
X9259000Y-5080000D01*
X9259000Y-3810000D01*
X9513000Y-3810000D01*
X9513000Y-5080000D01*
X10262250Y-5080000D01*
X10421000Y-4921250D01*
X10424072Y-4832000D01*
X10422792Y-4819000D01*
X10670928Y-4819000D01*
X10674000Y-4933250D01*
X10832750Y-5092000D01*
X11557000Y-5092000D01*
X11557000Y-4342750D01*
X11811000Y-4342750D01*
X11811000Y-5092000D01*
X12535250Y-5092000D01*
X12694000Y-4933250D01*
X12697072Y-4819000D01*
X12684812Y-4694518D01*
X12648502Y-4574820D01*
X12589537Y-4464506D01*
X12510185Y-4367815D01*
X12413494Y-4288463D01*
X12303180Y-4229498D01*
X12183482Y-4193188D01*
X12059000Y-4180928D01*
X11969750Y-4184000D01*
X11811000Y-4342750D01*
X11557000Y-4342750D01*
X11398250Y-4184000D01*
X11309000Y-4180928D01*
X11184518Y-4193188D01*
X11064820Y-4229498D01*
X10954506Y-4288463D01*
X10857815Y-4367815D01*
X10778463Y-4464506D01*
X10719498Y-4574820D01*
X10683188Y-4694518D01*
X10670928Y-4819000D01*
X10422792Y-4819000D01*
X10411812Y-4707518D01*
X10375502Y-4587820D01*
X10316537Y-4477506D01*
X10289860Y-4445000D01*
X10316537Y-4412494D01*
X10375502Y-4302180D01*
X10411812Y-4182482D01*
X10424072Y-4058000D01*
X10421000Y-3968750D01*
X10262250Y-3810000D01*
X9513000Y-3810000D01*
X9259000Y-3810000D01*
X9239000Y-3810000D01*
X9239000Y-3556000D01*
X9259000Y-3556000D01*
X9259000Y-3536000D01*
X9513000Y-3536000D01*
X9513000Y-3556000D01*
X10262250Y-3556000D01*
X10421000Y-3397250D01*
X10424072Y-3308000D01*
X10411812Y-3183518D01*
X10375502Y-3063820D01*
X10316537Y-2953506D01*
X10237185Y-2856815D01*
X10140494Y-2777463D01*
X10061181Y-2735069D01*
X10082502Y-2695180D01*
X10108949Y-2607993D01*
X10398612Y-2607993D01*
X10464137Y-2846860D01*
X10711116Y-2962760D01*
X10975960Y-3028250D01*
X11248492Y-3040812D01*
X11518238Y-2999965D01*
X11774832Y-2907277D01*
X11887863Y-2846860D01*
X11953388Y-2607993D01*
X11176000Y-1830605D01*
X10398612Y-2607993D01*
X10108949Y-2607993D01*
X10118812Y-2575482D01*
X10131072Y-2451000D01*
X10130792Y-2404189D01*
X10219007Y-2428388D01*
X10996395Y-1651000D01*
X11355605Y-1651000D01*
X12132993Y-2428388D01*
X12371860Y-2362863D01*
X12487760Y-2115884D01*
X12553250Y-1851040D01*
X12565812Y-1578508D01*
X12524965Y-1308762D01*
X12432277Y-1052168D01*
X12371860Y-939137D01*
X12132993Y-873612D01*
X11355605Y-1651000D01*
X10996395Y-1651000D01*
X10219007Y-873612D01*
X10130792Y-897811D01*
X10131072Y-851000D01*
X10118812Y-726518D01*
X10098634Y-660000D01*
X10407941Y-660000D01*
X10398612Y-694007D01*
%TA.AperFunction,Conductor*%
D20*
G36*
X10398612Y-694007D02*
G01*
X11176000Y-1471395D01*
X11953388Y-694007D01*
X11944059Y-660000D01*
X12929000Y-660000D01*
X12929001Y-13691000D01*
X660000Y-13691000D01*
X660000Y-13021993D01*
X1000612Y-13021993D01*
X1066137Y-13260860D01*
X1313116Y-13376760D01*
X1577960Y-13442250D01*
X1850492Y-13454812D01*
X2120238Y-13413965D01*
X2376832Y-13321277D01*
X2489863Y-13260860D01*
X2555388Y-13021993D01*
X1778000Y-12244605D01*
X1000612Y-13021993D01*
X660000Y-13021993D01*
X660000Y-12798221D01*
X821007Y-12842388D01*
X1598395Y-12065000D01*
X1957605Y-12065000D01*
X2734993Y-12842388D01*
X2973860Y-12776863D01*
X3089760Y-12529884D01*
X3155250Y-12265040D01*
X3167812Y-11992508D01*
X3126965Y-11722762D01*
X3034277Y-11466168D01*
X2973860Y-11353137D01*
X2734993Y-11287612D01*
X1957605Y-12065000D01*
X1598395Y-12065000D01*
X821007Y-11287612D01*
X660000Y-11331779D01*
X660000Y-10984716D01*
X755000Y-10994072D01*
X869250Y-10991000D01*
X1027998Y-10832252D01*
X1027998Y-10991000D01*
X1032709Y-10991000D01*
X1000612Y-11108007D01*
X1778000Y-11885395D01*
X2555388Y-11108007D01*
X2524134Y-10994072D01*
X3055000Y-10994072D01*
X3179482Y-10981812D01*
X3299180Y-10945502D01*
X3409494Y-10886537D01*
X3506185Y-10807185D01*
X3585537Y-10710494D01*
X3619500Y-10646955D01*
X3653463Y-10710494D01*
X3732815Y-10807185D01*
X3829506Y-10886537D01*
X3939820Y-10945502D01*
X4059518Y-10981812D01*
X4184000Y-10994072D01*
X4298250Y-10991000D01*
X4457000Y-10832250D01*
X4457000Y-10033000D01*
X4437000Y-10033000D01*
X4437000Y-9779000D01*
X4457000Y-9779000D01*
X4457000Y-8382000D01*
X4437000Y-8382000D01*
X4437000Y-8128000D01*
X4457000Y-8128000D01*
X4457000Y-8108000D01*
X4711000Y-8108000D01*
X4711000Y-8128000D01*
X4731000Y-8128000D01*
X4731000Y-8382000D01*
X4711000Y-8382000D01*
X4711000Y-9779000D01*
X4731000Y-9779000D01*
X4731000Y-10033000D01*
X4711000Y-10033000D01*
X4711000Y-10832250D01*
X4853597Y-10974847D01*
X4832114Y-10989201D01*
X4639201Y-11182114D01*
X4487629Y-11408957D01*
X4383225Y-11661011D01*
X4330000Y-11928589D01*
X4330000Y-12201411D01*
X4383225Y-12468989D01*
X4487629Y-12721043D01*
X4639201Y-12947886D01*
X4832114Y-13140799D01*
X5058957Y-13292371D01*
X5311011Y-13396775D01*
X5578589Y-13450000D01*
X5851411Y-13450000D01*
X6118989Y-13396775D01*
X6371043Y-13292371D01*
X6597886Y-13140799D01*
X6790799Y-12947886D01*
X6933955Y-12733638D01*
X7004506Y-12791537D01*
X7114820Y-12850502D01*
X7234518Y-12886812D01*
X7359000Y-12899072D01*
X8159000Y-12899072D01*
X8283482Y-12886812D01*
X8403180Y-12850502D01*
X8509000Y-12793939D01*
X8614820Y-12850502D01*
X8734518Y-12886812D01*
X8859000Y-12899072D01*
X9659000Y-12899072D01*
X9783482Y-12886812D01*
X9903180Y-12850502D01*
X10013494Y-12791537D01*
X10084045Y-12733638D01*
X10227201Y-12947886D01*
X10420114Y-13140799D01*
X10646957Y-13292371D01*
X10899011Y-13396775D01*
X11166589Y-13450000D01*
X11439411Y-13450000D01*
X11706989Y-13396775D01*
X11959043Y-13292371D01*
X12185886Y-13140799D01*
X12378799Y-12947886D01*
X12530371Y-12721043D01*
X12634775Y-12468989D01*
X12688000Y-12201411D01*
X12688000Y-11928589D01*
X12634775Y-11661011D01*
X12530371Y-11408957D01*
X12378799Y-11182114D01*
X12344426Y-11147741D01*
X12378180Y-11137502D01*
X12488494Y-11078537D01*
X12585185Y-10999185D01*
X12664537Y-10902494D01*
X12723502Y-10792180D01*
X12759812Y-10672482D01*
X12772072Y-10548000D01*
X12769000Y-10433750D01*
X12610250Y-10275000D01*
X11811000Y-10275000D01*
X11811000Y-10295000D01*
X11557000Y-10295000D01*
X11557000Y-10275000D01*
X11537000Y-10275000D01*
X11537000Y-10021000D01*
X11557000Y-10021000D01*
X11557000Y-10001000D01*
X11811000Y-10001000D01*
X11811000Y-10021000D01*
X12610250Y-10021000D01*
X12769000Y-9862250D01*
X12772072Y-9748000D01*
X12759812Y-9623518D01*
X12723502Y-9503820D01*
X12666939Y-9398000D01*
X12723502Y-9292180D01*
X12759812Y-9172482D01*
X12772072Y-9048000D01*
X12772072Y-8248000D01*
X12759812Y-8123518D01*
X12723502Y-8003820D01*
X12664537Y-7893506D01*
X12585185Y-7796815D01*
X12488494Y-7717463D01*
X12471400Y-7708326D01*
X12471400Y-7602015D01*
X12510185Y-7570185D01*
X12589537Y-7473494D01*
X12648502Y-7363180D01*
X12684812Y-7243482D01*
X12697072Y-7119000D01*
X12697072Y-6319000D01*
X12684812Y-6194518D01*
X12648502Y-6074820D01*
X12591939Y-5969000D01*
X12648502Y-5863180D01*
X12684812Y-5743482D01*
X12697072Y-5619000D01*
X12694000Y-5504750D01*
X12535250Y-5346000D01*
X11811000Y-5346000D01*
X11811000Y-5366000D01*
X11557000Y-5366000D01*
X11557000Y-5346000D01*
X10832750Y-5346000D01*
X10674000Y-5504750D01*
X10670928Y-5619000D01*
X10683188Y-5743482D01*
X10719498Y-5863180D01*
X10762484Y-5943600D01*
X10325674Y-5943600D01*
X10319206Y-5931500D01*
X10375502Y-5826180D01*
X10411812Y-5706482D01*
X10424072Y-5582000D01*
X10421000Y-5492750D01*
X10262250Y-5334000D01*
X9513000Y-5334000D01*
X9513000Y-5354000D01*
X9259000Y-5354000D01*
X9259000Y-5334000D01*
X9239000Y-5334000D01*
X9239000Y-5080000D01*
X9259000Y-5080000D01*
X9259000Y-3810000D01*
X9513000Y-3810000D01*
X9513000Y-5080000D01*
X10262250Y-5080000D01*
X10421000Y-4921250D01*
X10424072Y-4832000D01*
X10422792Y-4819000D01*
X10670928Y-4819000D01*
X10674000Y-4933250D01*
X10832750Y-5092000D01*
X11557000Y-5092000D01*
X11557000Y-4342750D01*
X11811000Y-4342750D01*
X11811000Y-5092000D01*
X12535250Y-5092000D01*
X12694000Y-4933250D01*
X12697072Y-4819000D01*
X12684812Y-4694518D01*
X12648502Y-4574820D01*
X12589537Y-4464506D01*
X12510185Y-4367815D01*
X12413494Y-4288463D01*
X12303180Y-4229498D01*
X12183482Y-4193188D01*
X12059000Y-4180928D01*
X11969750Y-4184000D01*
X11811000Y-4342750D01*
X11557000Y-4342750D01*
X11398250Y-4184000D01*
X11309000Y-4180928D01*
X11184518Y-4193188D01*
X11064820Y-4229498D01*
X10954506Y-4288463D01*
X10857815Y-4367815D01*
X10778463Y-4464506D01*
X10719498Y-4574820D01*
X10683188Y-4694518D01*
X10670928Y-4819000D01*
X10422792Y-4819000D01*
X10411812Y-4707518D01*
X10375502Y-4587820D01*
X10316537Y-4477506D01*
X10289860Y-4445000D01*
X10316537Y-4412494D01*
X10375502Y-4302180D01*
X10411812Y-4182482D01*
X10424072Y-4058000D01*
X10421000Y-3968750D01*
X10262250Y-3810000D01*
X9513000Y-3810000D01*
X9259000Y-3810000D01*
X9239000Y-3810000D01*
X9239000Y-3556000D01*
X9259000Y-3556000D01*
X9259000Y-3536000D01*
X9513000Y-3536000D01*
X9513000Y-3556000D01*
X10262250Y-3556000D01*
X10421000Y-3397250D01*
X10424072Y-3308000D01*
X10411812Y-3183518D01*
X10375502Y-3063820D01*
X10316537Y-2953506D01*
X10237185Y-2856815D01*
X10140494Y-2777463D01*
X10061181Y-2735069D01*
X10082502Y-2695180D01*
X10108949Y-2607993D01*
X10398612Y-2607993D01*
X10464137Y-2846860D01*
X10711116Y-2962760D01*
X10975960Y-3028250D01*
X11248492Y-3040812D01*
X11518238Y-2999965D01*
X11774832Y-2907277D01*
X11887863Y-2846860D01*
X11953388Y-2607993D01*
X11176000Y-1830605D01*
X10398612Y-2607993D01*
X10108949Y-2607993D01*
X10118812Y-2575482D01*
X10131072Y-2451000D01*
X10130792Y-2404189D01*
X10219007Y-2428388D01*
X10996395Y-1651000D01*
X11355605Y-1651000D01*
X12132993Y-2428388D01*
X12371860Y-2362863D01*
X12487760Y-2115884D01*
X12553250Y-1851040D01*
X12565812Y-1578508D01*
X12524965Y-1308762D01*
X12432277Y-1052168D01*
X12371860Y-939137D01*
X12132993Y-873612D01*
X11355605Y-1651000D01*
X10996395Y-1651000D01*
X10219007Y-873612D01*
X10130792Y-897811D01*
X10131072Y-851000D01*
X10118812Y-726518D01*
X10098634Y-660000D01*
X10407941Y-660000D01*
X10398612Y-694007D01*
G37*
%TD.AperFunction*%
D19*
X1282000Y-9779000D02*
X1302000Y-9779000D01*
X1302000Y-10033000D01*
X1282000Y-10033000D01*
X1282000Y-10053000D01*
X1028000Y-10053000D01*
X1028000Y-10033000D01*
X1008000Y-10033000D01*
X1008000Y-9779000D01*
X1028000Y-9779000D01*
X1028000Y-9759000D01*
X1282000Y-9759000D01*
X1282000Y-9779000D01*
%TA.AperFunction,Conductor*%
D20*
G36*
X1282000Y-9779000D02*
G01*
X1302000Y-9779000D01*
X1302000Y-10033000D01*
X1282000Y-10033000D01*
X1282000Y-10053000D01*
X1028000Y-10053000D01*
X1028000Y-10033000D01*
X1008000Y-10033000D01*
X1008000Y-9779000D01*
X1028000Y-9779000D01*
X1028000Y-9759000D01*
X1282000Y-9759000D01*
X1282000Y-9779000D01*
G37*
%TD.AperFunction*%
D19*
X7867188Y-726518D02*
X7854928Y-851000D01*
X7858000Y-1365250D01*
X8016750Y-1524000D01*
X8866000Y-1524000D01*
X8866000Y-1504000D01*
X9120000Y-1504000D01*
X9120000Y-1524000D01*
X9140000Y-1524000D01*
X9140000Y-1778000D01*
X9120000Y-1778000D01*
X9120000Y-1798000D01*
X8866000Y-1798000D01*
X8866000Y-1778000D01*
X8016750Y-1778000D01*
X7974914Y-1819836D01*
X7174191Y-1019115D01*
X7144754Y-983246D01*
X7131072Y-972017D01*
X7131072Y-851000D01*
X7118812Y-726518D01*
X7098634Y-660000D01*
X7887366Y-660000D01*
X7867188Y-726518D01*
%TA.AperFunction,Conductor*%
D20*
G36*
X7867188Y-726518D02*
G01*
X7854928Y-851000D01*
X7858000Y-1365250D01*
X8016750Y-1524000D01*
X8866000Y-1524000D01*
X8866000Y-1504000D01*
X9120000Y-1504000D01*
X9120000Y-1524000D01*
X9140000Y-1524000D01*
X9140000Y-1778000D01*
X9120000Y-1778000D01*
X9120000Y-1798000D01*
X8866000Y-1798000D01*
X8866000Y-1778000D01*
X8016750Y-1778000D01*
X7974914Y-1819836D01*
X7174191Y-1019115D01*
X7144754Y-983246D01*
X7131072Y-972017D01*
X7131072Y-851000D01*
X7118812Y-726518D01*
X7098634Y-660000D01*
X7887366Y-660000D01*
X7867188Y-726518D01*
G37*
%TD.AperFunction*%
%TD*%
M02*
