%TF.GenerationSoftware,KiCad,Pcbnew,(5.1.12)-1*%
%TF.CreationDate,2023-07-21T13:43:36+02:00*%
%TF.ProjectId,Input_stage,496e7075-745f-4737-9461-67652e6b6963,rev?*%
%TF.SameCoordinates,Original*%
%TF.FileFunction,Legend,Top*%
%TF.FilePolarity,Positive*%
%FSLAX46Y46*%
G04 Gerber Fmt 4.6, Leading zero omitted, Abs format (unit mm)*
G04 Created by KiCad (PCBNEW (5.1.12)-1) date 2023-07-21 13:43:36*
%MOMM*%
%LPD*%
G01*
G04 APERTURE LIST*
%ADD10C,0.120000*%
%ADD11R,0.800000X0.750000*%
%ADD12R,0.750000X0.800000*%
%ADD13R,1.000000X1.600000*%
%ADD14C,1.500000*%
%ADD15R,0.800000X0.900000*%
%ADD16R,0.900000X0.800000*%
%ADD17R,0.650000X0.400000*%
G04 APERTURE END LIST*
D10*
%TO.C,C1*%
X1555000Y-7655000D02*
X2255000Y-7655000D01*
X2255000Y-8855000D02*
X1555000Y-8855000D01*
%TO.C,C2*%
X12284000Y-5619000D02*
X12284000Y-6319000D01*
X11084000Y-6319000D02*
X11084000Y-5619000D01*
%TO.C,C3*%
X5684000Y-7331000D02*
X4984000Y-7331000D01*
X4984000Y-6131000D02*
X5684000Y-6131000D01*
%TO.C,C4*%
X5684000Y-8855000D02*
X4984000Y-8855000D01*
X4984000Y-7655000D02*
X5684000Y-7655000D01*
%TO.C,C5*%
X8986000Y-5807000D02*
X8286000Y-5807000D01*
X8286000Y-4607000D02*
X8986000Y-4607000D01*
%TO.C,C6*%
X8286000Y-3083000D02*
X8986000Y-3083000D01*
X8986000Y-4283000D02*
X8286000Y-4283000D01*
%TO.C,C7*%
X8493000Y-631000D02*
X6493000Y-631000D01*
X6493000Y-2671000D02*
X8493000Y-2671000D01*
%TO.C,GND1*%
X12126000Y-1651000D02*
G75*
G03*
X12126000Y-1651000I-950000J0D01*
G01*
%TO.C,IN1*%
X2728000Y-6223000D02*
G75*
G03*
X2728000Y-6223000I-950000J0D01*
G01*
%TO.C,OUM1*%
X6665000Y-12065000D02*
G75*
G03*
X6665000Y-12065000I-950000J0D01*
G01*
%TO.C,OUP1*%
X12253000Y-12065000D02*
G75*
G03*
X12253000Y-12065000I-950000J0D01*
G01*
%TO.C,POW1*%
X4760000Y-1651000D02*
G75*
G03*
X4760000Y-1651000I-950000J0D01*
G01*
%TO.C,R1*%
X1405000Y-9226000D02*
X2405000Y-9226000D01*
X2405000Y-10586000D02*
X1405000Y-10586000D01*
%TO.C,R2*%
X9136000Y-7411000D02*
X8136000Y-7411000D01*
X8136000Y-6051000D02*
X9136000Y-6051000D01*
%TO.C,R3*%
X12364000Y-8898000D02*
X12364000Y-9898000D01*
X11004000Y-9898000D02*
X11004000Y-8898000D01*
%TO.C,R4*%
X5834000Y-5760000D02*
X4834000Y-5760000D01*
X4834000Y-4400000D02*
X5834000Y-4400000D01*
%TO.C,R5*%
X5834000Y-10586000D02*
X4834000Y-10586000D01*
X4834000Y-9226000D02*
X5834000Y-9226000D01*
%TO.C,R6*%
X9009000Y-12491000D02*
X8009000Y-12491000D01*
X8009000Y-11131000D02*
X9009000Y-11131000D01*
%TO.C,U1*%
X8063000Y-10431000D02*
X9963000Y-10431000D01*
X9463000Y-8111000D02*
X8063000Y-8111000D01*
%TO.C,GND2*%
X2728000Y-12065000D02*
G75*
G03*
X2728000Y-12065000I-950000J0D01*
G01*
%TO.C,C1*%
X3968714Y-8388333D02*
X4006809Y-8426428D01*
X4044904Y-8540714D01*
X4044904Y-8616904D01*
X4006809Y-8731190D01*
X3930619Y-8807380D01*
X3854428Y-8845476D01*
X3702047Y-8883571D01*
X3587761Y-8883571D01*
X3435380Y-8845476D01*
X3359190Y-8807380D01*
X3283000Y-8731190D01*
X3244904Y-8616904D01*
X3244904Y-8540714D01*
X3283000Y-8426428D01*
X3321095Y-8388333D01*
X4044904Y-7626428D02*
X4044904Y-8083571D01*
X4044904Y-7855000D02*
X3244904Y-7855000D01*
X3359190Y-7931190D01*
X3435380Y-8007380D01*
X3473476Y-8083571D01*
%TO.C,C2*%
X13239714Y-6102333D02*
X13277809Y-6140428D01*
X13315904Y-6254714D01*
X13315904Y-6330904D01*
X13277809Y-6445190D01*
X13201619Y-6521380D01*
X13125428Y-6559476D01*
X12973047Y-6597571D01*
X12858761Y-6597571D01*
X12706380Y-6559476D01*
X12630190Y-6521380D01*
X12554000Y-6445190D01*
X12515904Y-6330904D01*
X12515904Y-6254714D01*
X12554000Y-6140428D01*
X12592095Y-6102333D01*
X12592095Y-5797571D02*
X12554000Y-5759476D01*
X12515904Y-5683285D01*
X12515904Y-5492809D01*
X12554000Y-5416619D01*
X12592095Y-5378523D01*
X12668285Y-5340428D01*
X12744476Y-5340428D01*
X12858761Y-5378523D01*
X13315904Y-5835666D01*
X13315904Y-5340428D01*
%TO.C,C3*%
X7270714Y-6864333D02*
X7308809Y-6902428D01*
X7346904Y-7016714D01*
X7346904Y-7092904D01*
X7308809Y-7207190D01*
X7232619Y-7283380D01*
X7156428Y-7321476D01*
X7004047Y-7359571D01*
X6889761Y-7359571D01*
X6737380Y-7321476D01*
X6661190Y-7283380D01*
X6585000Y-7207190D01*
X6546904Y-7092904D01*
X6546904Y-7016714D01*
X6585000Y-6902428D01*
X6623095Y-6864333D01*
X6546904Y-6597666D02*
X6546904Y-6102428D01*
X6851666Y-6369095D01*
X6851666Y-6254809D01*
X6889761Y-6178619D01*
X6927857Y-6140523D01*
X7004047Y-6102428D01*
X7194523Y-6102428D01*
X7270714Y-6140523D01*
X7308809Y-6178619D01*
X7346904Y-6254809D01*
X7346904Y-6483380D01*
X7308809Y-6559571D01*
X7270714Y-6597666D01*
%TO.C,C4*%
X7270714Y-8388333D02*
X7308809Y-8426428D01*
X7346904Y-8540714D01*
X7346904Y-8616904D01*
X7308809Y-8731190D01*
X7232619Y-8807380D01*
X7156428Y-8845476D01*
X7004047Y-8883571D01*
X6889761Y-8883571D01*
X6737380Y-8845476D01*
X6661190Y-8807380D01*
X6585000Y-8731190D01*
X6546904Y-8616904D01*
X6546904Y-8540714D01*
X6585000Y-8426428D01*
X6623095Y-8388333D01*
X6813571Y-7702619D02*
X7346904Y-7702619D01*
X6508809Y-7893095D02*
X7080238Y-8083571D01*
X7080238Y-7588333D01*
%TO.C,C5*%
X10699714Y-5340333D02*
X10737809Y-5378428D01*
X10775904Y-5492714D01*
X10775904Y-5568904D01*
X10737809Y-5683190D01*
X10661619Y-5759380D01*
X10585428Y-5797476D01*
X10433047Y-5835571D01*
X10318761Y-5835571D01*
X10166380Y-5797476D01*
X10090190Y-5759380D01*
X10014000Y-5683190D01*
X9975904Y-5568904D01*
X9975904Y-5492714D01*
X10014000Y-5378428D01*
X10052095Y-5340333D01*
X9975904Y-4616523D02*
X9975904Y-4997476D01*
X10356857Y-5035571D01*
X10318761Y-4997476D01*
X10280666Y-4921285D01*
X10280666Y-4730809D01*
X10318761Y-4654619D01*
X10356857Y-4616523D01*
X10433047Y-4578428D01*
X10623523Y-4578428D01*
X10699714Y-4616523D01*
X10737809Y-4654619D01*
X10775904Y-4730809D01*
X10775904Y-4921285D01*
X10737809Y-4997476D01*
X10699714Y-5035571D01*
%TO.C,C6*%
X10699714Y-3816333D02*
X10737809Y-3854428D01*
X10775904Y-3968714D01*
X10775904Y-4044904D01*
X10737809Y-4159190D01*
X10661619Y-4235380D01*
X10585428Y-4273476D01*
X10433047Y-4311571D01*
X10318761Y-4311571D01*
X10166380Y-4273476D01*
X10090190Y-4235380D01*
X10014000Y-4159190D01*
X9975904Y-4044904D01*
X9975904Y-3968714D01*
X10014000Y-3854428D01*
X10052095Y-3816333D01*
X9975904Y-3130619D02*
X9975904Y-3283000D01*
X10014000Y-3359190D01*
X10052095Y-3397285D01*
X10166380Y-3473476D01*
X10318761Y-3511571D01*
X10623523Y-3511571D01*
X10699714Y-3473476D01*
X10737809Y-3435380D01*
X10775904Y-3359190D01*
X10775904Y-3206809D01*
X10737809Y-3130619D01*
X10699714Y-3092523D01*
X10623523Y-3054428D01*
X10433047Y-3054428D01*
X10356857Y-3092523D01*
X10318761Y-3130619D01*
X10280666Y-3206809D01*
X10280666Y-3359190D01*
X10318761Y-3435380D01*
X10356857Y-3473476D01*
X10433047Y-3511571D01*
%TO.C,C7*%
X5708666Y-3587714D02*
X5670571Y-3625809D01*
X5556285Y-3663904D01*
X5480095Y-3663904D01*
X5365809Y-3625809D01*
X5289619Y-3549619D01*
X5251523Y-3473428D01*
X5213428Y-3321047D01*
X5213428Y-3206761D01*
X5251523Y-3054380D01*
X5289619Y-2978190D01*
X5365809Y-2902000D01*
X5480095Y-2863904D01*
X5556285Y-2863904D01*
X5670571Y-2902000D01*
X5708666Y-2940095D01*
X5975333Y-2863904D02*
X6508666Y-2863904D01*
X6165809Y-3663904D01*
%TO.C,IN1*%
X978000Y-4936904D02*
X978000Y-4136904D01*
X1358952Y-4936904D02*
X1358952Y-4136904D01*
X1816095Y-4936904D01*
X1816095Y-4136904D01*
X2616095Y-4936904D02*
X2158952Y-4936904D01*
X2387523Y-4936904D02*
X2387523Y-4136904D01*
X2311333Y-4251190D01*
X2235142Y-4327380D01*
X2158952Y-4365476D01*
%TO.C,OUM1*%
X4381666Y-13277904D02*
X4534047Y-13277904D01*
X4610238Y-13316000D01*
X4686428Y-13392190D01*
X4724523Y-13544571D01*
X4724523Y-13811238D01*
X4686428Y-13963619D01*
X4610238Y-14039809D01*
X4534047Y-14077904D01*
X4381666Y-14077904D01*
X4305476Y-14039809D01*
X4229285Y-13963619D01*
X4191190Y-13811238D01*
X4191190Y-13544571D01*
X4229285Y-13392190D01*
X4305476Y-13316000D01*
X4381666Y-13277904D01*
X5067380Y-13277904D02*
X5067380Y-13925523D01*
X5105476Y-14001714D01*
X5143571Y-14039809D01*
X5219761Y-14077904D01*
X5372142Y-14077904D01*
X5448333Y-14039809D01*
X5486428Y-14001714D01*
X5524523Y-13925523D01*
X5524523Y-13277904D01*
X5905476Y-14077904D02*
X5905476Y-13277904D01*
X6172142Y-13849333D01*
X6438809Y-13277904D01*
X6438809Y-14077904D01*
X7238809Y-14077904D02*
X6781666Y-14077904D01*
X7010238Y-14077904D02*
X7010238Y-13277904D01*
X6934047Y-13392190D01*
X6857857Y-13468380D01*
X6781666Y-13506476D01*
%TO.C,OUP1*%
X10026809Y-13277904D02*
X10179190Y-13277904D01*
X10255380Y-13316000D01*
X10331571Y-13392190D01*
X10369666Y-13544571D01*
X10369666Y-13811238D01*
X10331571Y-13963619D01*
X10255380Y-14039809D01*
X10179190Y-14077904D01*
X10026809Y-14077904D01*
X9950619Y-14039809D01*
X9874428Y-13963619D01*
X9836333Y-13811238D01*
X9836333Y-13544571D01*
X9874428Y-13392190D01*
X9950619Y-13316000D01*
X10026809Y-13277904D01*
X10712523Y-13277904D02*
X10712523Y-13925523D01*
X10750619Y-14001714D01*
X10788714Y-14039809D01*
X10864904Y-14077904D01*
X11017285Y-14077904D01*
X11093476Y-14039809D01*
X11131571Y-14001714D01*
X11169666Y-13925523D01*
X11169666Y-13277904D01*
X11550619Y-14077904D02*
X11550619Y-13277904D01*
X11855380Y-13277904D01*
X11931571Y-13316000D01*
X11969666Y-13354095D01*
X12007761Y-13430285D01*
X12007761Y-13544571D01*
X11969666Y-13620761D01*
X11931571Y-13658857D01*
X11855380Y-13696952D01*
X11550619Y-13696952D01*
X12769666Y-14077904D02*
X12312523Y-14077904D01*
X12541095Y-14077904D02*
X12541095Y-13277904D01*
X12464904Y-13392190D01*
X12388714Y-13468380D01*
X12312523Y-13506476D01*
%TO.C,POW1*%
X1708333Y-3663904D02*
X1708333Y-2863904D01*
X2013095Y-2863904D01*
X2089285Y-2902000D01*
X2127380Y-2940095D01*
X2165476Y-3016285D01*
X2165476Y-3130571D01*
X2127380Y-3206761D01*
X2089285Y-3244857D01*
X2013095Y-3282952D01*
X1708333Y-3282952D01*
X2660714Y-2863904D02*
X2813095Y-2863904D01*
X2889285Y-2902000D01*
X2965476Y-2978190D01*
X3003571Y-3130571D01*
X3003571Y-3397238D01*
X2965476Y-3549619D01*
X2889285Y-3625809D01*
X2813095Y-3663904D01*
X2660714Y-3663904D01*
X2584523Y-3625809D01*
X2508333Y-3549619D01*
X2470238Y-3397238D01*
X2470238Y-3130571D01*
X2508333Y-2978190D01*
X2584523Y-2902000D01*
X2660714Y-2863904D01*
X3270238Y-2863904D02*
X3460714Y-3663904D01*
X3613095Y-3092476D01*
X3765476Y-3663904D01*
X3955952Y-2863904D01*
X4679761Y-3663904D02*
X4222619Y-3663904D01*
X4451190Y-3663904D02*
X4451190Y-2863904D01*
X4375000Y-2978190D01*
X4298809Y-3054380D01*
X4222619Y-3092476D01*
%TO.C,R1*%
X4044904Y-10039333D02*
X3663952Y-10306000D01*
X4044904Y-10496476D02*
X3244904Y-10496476D01*
X3244904Y-10191714D01*
X3283000Y-10115523D01*
X3321095Y-10077428D01*
X3397285Y-10039333D01*
X3511571Y-10039333D01*
X3587761Y-10077428D01*
X3625857Y-10115523D01*
X3663952Y-10191714D01*
X3663952Y-10496476D01*
X4044904Y-9277428D02*
X4044904Y-9734571D01*
X4044904Y-9506000D02*
X3244904Y-9506000D01*
X3359190Y-9582190D01*
X3435380Y-9658380D01*
X3473476Y-9734571D01*
%TO.C,R2*%
X10775904Y-6864333D02*
X10394952Y-7131000D01*
X10775904Y-7321476D02*
X9975904Y-7321476D01*
X9975904Y-7016714D01*
X10014000Y-6940523D01*
X10052095Y-6902428D01*
X10128285Y-6864333D01*
X10242571Y-6864333D01*
X10318761Y-6902428D01*
X10356857Y-6940523D01*
X10394952Y-7016714D01*
X10394952Y-7321476D01*
X10052095Y-6559571D02*
X10014000Y-6521476D01*
X9975904Y-6445285D01*
X9975904Y-6254809D01*
X10014000Y-6178619D01*
X10052095Y-6140523D01*
X10128285Y-6102428D01*
X10204476Y-6102428D01*
X10318761Y-6140523D01*
X10775904Y-6597666D01*
X10775904Y-6102428D01*
%TO.C,R3*%
X13442904Y-9531333D02*
X13061952Y-9798000D01*
X13442904Y-9988476D02*
X12642904Y-9988476D01*
X12642904Y-9683714D01*
X12681000Y-9607523D01*
X12719095Y-9569428D01*
X12795285Y-9531333D01*
X12909571Y-9531333D01*
X12985761Y-9569428D01*
X13023857Y-9607523D01*
X13061952Y-9683714D01*
X13061952Y-9988476D01*
X12642904Y-9264666D02*
X12642904Y-8769428D01*
X12947666Y-9036095D01*
X12947666Y-8921809D01*
X12985761Y-8845619D01*
X13023857Y-8807523D01*
X13100047Y-8769428D01*
X13290523Y-8769428D01*
X13366714Y-8807523D01*
X13404809Y-8845619D01*
X13442904Y-8921809D01*
X13442904Y-9150380D01*
X13404809Y-9226571D01*
X13366714Y-9264666D01*
%TO.C,R4*%
X7346904Y-5213333D02*
X6965952Y-5480000D01*
X7346904Y-5670476D02*
X6546904Y-5670476D01*
X6546904Y-5365714D01*
X6585000Y-5289523D01*
X6623095Y-5251428D01*
X6699285Y-5213333D01*
X6813571Y-5213333D01*
X6889761Y-5251428D01*
X6927857Y-5289523D01*
X6965952Y-5365714D01*
X6965952Y-5670476D01*
X6813571Y-4527619D02*
X7346904Y-4527619D01*
X6508809Y-4718095D02*
X7080238Y-4908571D01*
X7080238Y-4413333D01*
%TO.C,R5*%
X7346904Y-10039333D02*
X6965952Y-10306000D01*
X7346904Y-10496476D02*
X6546904Y-10496476D01*
X6546904Y-10191714D01*
X6585000Y-10115523D01*
X6623095Y-10077428D01*
X6699285Y-10039333D01*
X6813571Y-10039333D01*
X6889761Y-10077428D01*
X6927857Y-10115523D01*
X6965952Y-10191714D01*
X6965952Y-10496476D01*
X6546904Y-9315523D02*
X6546904Y-9696476D01*
X6927857Y-9734571D01*
X6889761Y-9696476D01*
X6851666Y-9620285D01*
X6851666Y-9429809D01*
X6889761Y-9353619D01*
X6927857Y-9315523D01*
X7004047Y-9277428D01*
X7194523Y-9277428D01*
X7270714Y-9315523D01*
X7308809Y-9353619D01*
X7346904Y-9429809D01*
X7346904Y-9620285D01*
X7308809Y-9696476D01*
X7270714Y-9734571D01*
%TO.C,R6*%
X8375666Y-13569904D02*
X8109000Y-13188952D01*
X7918523Y-13569904D02*
X7918523Y-12769904D01*
X8223285Y-12769904D01*
X8299476Y-12808000D01*
X8337571Y-12846095D01*
X8375666Y-12922285D01*
X8375666Y-13036571D01*
X8337571Y-13112761D01*
X8299476Y-13150857D01*
X8223285Y-13188952D01*
X7918523Y-13188952D01*
X9061380Y-12769904D02*
X8909000Y-12769904D01*
X8832809Y-12808000D01*
X8794714Y-12846095D01*
X8718523Y-12960380D01*
X8680428Y-13112761D01*
X8680428Y-13417523D01*
X8718523Y-13493714D01*
X8756619Y-13531809D01*
X8832809Y-13569904D01*
X8985190Y-13569904D01*
X9061380Y-13531809D01*
X9099476Y-13493714D01*
X9137571Y-13417523D01*
X9137571Y-13227047D01*
X9099476Y-13150857D01*
X9061380Y-13112761D01*
X8985190Y-13074666D01*
X8832809Y-13074666D01*
X8756619Y-13112761D01*
X8718523Y-13150857D01*
X8680428Y-13227047D01*
%TO.C,U1*%
X10229904Y-11023523D02*
X10877523Y-11023523D01*
X10953714Y-10985428D01*
X10991809Y-10947333D01*
X11029904Y-10871142D01*
X11029904Y-10718761D01*
X10991809Y-10642571D01*
X10953714Y-10604476D01*
X10877523Y-10566380D01*
X10229904Y-10566380D01*
X11029904Y-9766380D02*
X11029904Y-10223523D01*
X11029904Y-9994952D02*
X10229904Y-9994952D01*
X10344190Y-10071142D01*
X10420380Y-10147333D01*
X10458476Y-10223523D01*
%TD*%
%LPC*%
D11*
%TO.C,C1*%
X2655000Y-8255000D03*
X1155000Y-8255000D03*
%TD*%
D12*
%TO.C,C2*%
X11684000Y-6719000D03*
X11684000Y-5219000D03*
%TD*%
D11*
%TO.C,C3*%
X4584000Y-6731000D03*
X6084000Y-6731000D03*
%TD*%
%TO.C,C4*%
X4584000Y-8255000D03*
X6084000Y-8255000D03*
%TD*%
%TO.C,C5*%
X7886000Y-5207000D03*
X9386000Y-5207000D03*
%TD*%
%TO.C,C6*%
X9386000Y-3683000D03*
X7886000Y-3683000D03*
%TD*%
D13*
%TO.C,C7*%
X5993000Y-1651000D03*
X8993000Y-1651000D03*
%TD*%
D14*
%TO.C,GND1*%
X11176000Y-1651000D03*
%TD*%
%TO.C,IN1*%
X1778000Y-6223000D03*
%TD*%
%TO.C,OUM1*%
X5715000Y-12065000D03*
%TD*%
%TO.C,OUP1*%
X11303000Y-12065000D03*
%TD*%
%TO.C,POW1*%
X3810000Y-1651000D03*
%TD*%
D15*
%TO.C,R1*%
X2655000Y-9906000D03*
X1155000Y-9906000D03*
%TD*%
%TO.C,R2*%
X7886000Y-6731000D03*
X9386000Y-6731000D03*
%TD*%
D16*
%TO.C,R3*%
X11684000Y-10148000D03*
X11684000Y-8648000D03*
%TD*%
D15*
%TO.C,R4*%
X4584000Y-5080000D03*
X6084000Y-5080000D03*
%TD*%
%TO.C,R5*%
X4584000Y-9906000D03*
X6084000Y-9906000D03*
%TD*%
%TO.C,R6*%
X7759000Y-11811000D03*
X9259000Y-11811000D03*
%TD*%
D17*
%TO.C,U1*%
X9713000Y-9921000D03*
X9713000Y-8621000D03*
X7813000Y-9271000D03*
X9713000Y-9271000D03*
X7813000Y-8621000D03*
X7813000Y-9921000D03*
%TD*%
D14*
%TO.C,GND2*%
X1778000Y-12065000D03*
%TD*%
M02*
